<?xml version="1.0" encoding="UTF-8" standalone="no"?>
<!DOCTYPE svg PUBLIC "-//W3C//DTD SVG 1.1//EN" "http://www.w3.org/Graphics/SVG/1.1/DTD/svg11.dtd">
<svg width="100%" height="100%" viewBox="0 0 129 129" version="1.1" xmlns="http://www.w3.org/2000/svg" xmlns:xlink="http://www.w3.org/1999/xlink" xml:space="preserve" xmlns:serif="http://www.serif.com/" style="fill-rule:evenodd;clip-rule:evenodd;stroke-linejoin:round;stroke-miterlimit:2;">
    <g transform="matrix(1,0,0,1,-8830,-3154)">
        <g transform="matrix(0.34712,0,0,1,5344.4,-0.102612)">
            <g id="amazon" transform="matrix(3.19543,0,0,1.1092,7328.15,1270.61)">
                <path d="M964.937,1713.54L964.937,1798.24C964.937,1806.71 958.06,1813.59 949.59,1813.59L864.886,1813.59C856.416,1813.59 849.539,1806.71 849.539,1798.24L849.539,1713.54C849.539,1705.07 856.416,1698.19 864.886,1698.19L949.59,1698.19C958.06,1698.19 964.937,1705.07 964.937,1713.54ZM867.236,1778.67L866.461,1778.2C865.571,1777.65 864.065,1778.33 865.375,1779.83C870.146,1785.62 885.78,1799.56 906.184,1799.56C926.611,1799.56 938.762,1788.42 940.285,1786.47C941.792,1784.54 940.727,1783.48 939.199,1784.12C903.799,1800.97 881.587,1787.42 867.236,1778.67ZM940.345,1777.41C937.245,1777.78 932.588,1779.67 932.992,1780.81C933.151,1781.14 933.435,1781.1 934.488,1780.99C934.819,1780.95 935.243,1780.9 935.76,1780.86L936.251,1780.81C938.697,1780.55 943.959,1780 945.122,1781.52C946.372,1783.16 943.211,1790.98 942.638,1792.23C942.076,1793.5 942.856,1793.82 943.894,1792.98C944.931,1792.14 946.798,1789.97 948.053,1786.89C949.303,1783.8 950.062,1779.49 949.325,1778.53C948.359,1777.27 943.44,1777.03 940.345,1777.41ZM923.887,1777.55C924.744,1778 925.852,1777.95 926.617,1777.28L926.644,1777.3C929.566,1774.71 932.52,1772.16 935.503,1769.63C936.448,1768.85 936.284,1767.6 935.536,1766.56L934.854,1765.63C932.971,1763.1 931.18,1760.69 931.18,1755.86L931.18,1737.84L931.186,1736.01C931.229,1729.11 931.262,1722.8 926.093,1717.97C921.655,1713.72 914.318,1712.22 908.695,1712.22C897.707,1712.22 885.441,1716.31 882.854,1729.91C882.597,1731.35 883.634,1732.11 884.579,1732.32L895.791,1733.53C896.828,1733.48 897.592,1732.45 897.789,1731.41C898.75,1726.73 902.68,1724.48 907.085,1724.48C909.46,1724.48 912.156,1725.35 913.57,1727.48C915.011,1729.61 914.989,1732.44 914.973,1734.99L914.973,1737.35C913.881,1737.47 912.751,1737.59 911.583,1737.7C905.508,1738.32 898.499,1739.04 893.242,1741.36C886.003,1744.48 880.91,1750.87 880.91,1760.25C880.91,1772.26 888.482,1778.25 898.204,1778.25C906.425,1778.25 910.912,1776.32 917.249,1769.84L918.161,1771.18C919.657,1773.4 920.65,1774.87 923.876,1777.55L923.887,1777.55ZM897.778,1758.24C897.778,1748.39 906.605,1746.61 914.957,1746.61L914.957,1749.72C914.962,1753.96 914.968,1757.55 912.795,1761.37C910.961,1764.61 908.046,1766.61 904.798,1766.61C900.365,1766.61 897.778,1763.23 897.778,1758.24Z" style="fill:url(#_Linear1);"/>
            </g>
        </g>
    </g>
    <defs>
        <linearGradient id="_Linear1" x1="0" y1="0" x2="1" y2="0" gradientUnits="userSpaceOnUse" gradientTransform="matrix(9.71676e-15,-138.848,158.687,8.50202e-15,519.782,1837.03)"><stop offset="0" style="stop-color:rgb(255,234,64);stop-opacity:1"/><stop offset="0.57" style="stop-color:rgb(232,0,136);stop-opacity:1"/><stop offset="1" style="stop-color:rgb(60,3,115);stop-opacity:1"/></linearGradient>
    </defs>
</svg>
