<?xml version="1.0" encoding="UTF-8" standalone="no"?>
<!DOCTYPE svg PUBLIC "-//W3C//DTD SVG 1.1//EN" "http://www.w3.org/Graphics/SVG/1.1/DTD/svg11.dtd">
<svg width="100%" height="100%" viewBox="0 0 129 129" version="1.1" xmlns="http://www.w3.org/2000/svg" xmlns:xlink="http://www.w3.org/1999/xlink" xml:space="preserve" xmlns:serif="http://www.serif.com/" style="fill-rule:evenodd;clip-rule:evenodd;stroke-linejoin:round;stroke-miterlimit:2;">
    <g transform="matrix(1,0,0,1,-8680,-3154)">
        <g transform="matrix(0.34712,0,0,1,5344.4,-0.102612)">
            <g id="bluesky" transform="matrix(3.19543,0,0,1.1092,6897.32,1270.61)">
                <path d="M964.937,1713.54L964.937,1798.24C964.937,1806.71 958.06,1813.59 949.59,1813.59L864.886,1813.59C856.416,1813.59 849.539,1806.71 849.539,1798.24L849.539,1713.54C849.539,1705.07 856.416,1698.19 864.886,1698.19L949.59,1698.19C958.06,1698.19 964.937,1705.07 964.937,1713.54ZM880.452,1717.67C872.467,1711.44 859.529,1706.62 859.529,1721.96C859.529,1725.02 861.219,1747.69 862.211,1751.38C865.655,1764.17 878.21,1767.43 889.378,1765.46C869.857,1768.91 864.891,1780.35 875.616,1791.79C895.985,1813.51 904.892,1786.34 907.174,1779.38C907.592,1778.1 907.788,1777.5 907.791,1778.01C907.794,1777.5 907.99,1778.1 908.408,1779.38C910.691,1786.34 919.598,1813.51 939.966,1791.79C950.691,1780.35 945.725,1768.91 926.204,1765.46C937.371,1767.43 949.926,1764.17 953.372,1751.38C954.363,1747.69 956.053,1725.02 956.053,1721.96C956.053,1706.62 943.115,1711.44 935.131,1717.67C924.064,1726.31 912.162,1743.81 907.791,1753.21C903.421,1743.81 891.518,1726.31 880.452,1717.67Z" style="fill:url(#_Linear1);"/>
            </g>
        </g>
    </g>
    <defs>
        <linearGradient id="_Linear1" x1="0" y1="0" x2="1" y2="0" gradientUnits="userSpaceOnUse" gradientTransform="matrix(9.71676e-15,-138.848,158.687,8.50202e-15,519.782,1837.03)"><stop offset="0" style="stop-color:rgb(255,234,64);stop-opacity:1"/><stop offset="0.57" style="stop-color:rgb(232,0,136);stop-opacity:1"/><stop offset="1" style="stop-color:rgb(60,3,115);stop-opacity:1"/></linearGradient>
    </defs>
</svg>
