<?xml version="1.0" encoding="UTF-8" standalone="no"?>
<!DOCTYPE svg PUBLIC "-//W3C//DTD SVG 1.1//EN" "http://www.w3.org/Graphics/SVG/1.1/DTD/svg11.dtd">
<svg width="100%" height="100%" viewBox="0 0 89 129" version="1.1" xmlns="http://www.w3.org/2000/svg" xmlns:xlink="http://www.w3.org/1999/xlink" xml:space="preserve" xmlns:serif="http://www.serif.com/" style="fill-rule:evenodd;clip-rule:evenodd;stroke-linejoin:round;stroke-miterlimit:2;">
    <g transform="matrix(1,0,0,1,-8535,-3471)">
        <g transform="matrix(0.34712,0,0,1,5344.4,-0.102612)">
            <g id="buymeacoffee_color" transform="matrix(1,0,0,1,-1.09139e-11,-140)">
                <g transform="matrix(12.3914,0,0,4.30128,9009.16,3611.21)">
                    <path d="M35.151,7.932C35.425,8.753 35.288,9.479 34.74,10.11C34.329,10.466 33.877,10.671 33.384,10.726C33.145,10.818 32.963,11.015 32.89,11.26L32.644,13.849L31.986,19.521L31.575,24.699L31.411,26.301C31.205,28.11 29.89,29.26 28.123,29.589C26.973,29.753 25.795,29.795 24.589,29.712C23.658,29.74 22.712,29.685 21.753,29.548C20.192,29.301 18.918,28.397 18.753,26.712L18.63,25.808L18.137,21.041L17.562,15.411L17.274,12.699C17.233,12.247 17.685,11.877 18.096,11.877C18.63,11.877 18.918,12.288 18.959,12.699L18.959,12.904L19.37,16.562L19.904,22.192L20.233,25.233C20.315,26.014 20.397,26.877 20.973,27.452C21.63,28.11 22.699,28.192 23.562,28.192L26.027,28.192C26.76,28.187 27.49,28.105 28.205,27.945C29,27.781 29.479,27.301 29.644,26.507C29.753,25.986 29.808,25.479 29.808,24.986L30.548,17.918L31.082,12.74L31.164,11.877C31.165,11.863 31.166,11.848 31.166,11.834C31.166,11.496 30.888,11.218 30.549,11.218C30.535,11.218 30.521,11.218 30.507,11.219L29.644,11.301C25.243,11.715 20.805,11.536 16.452,10.767C15.496,10.613 14.772,9.803 14.726,8.836C14.726,8.425 14.781,7.986 14.89,7.521L15.219,6.288C15.408,5.94 15.694,5.655 16.041,5.466C16.474,5.21 16.986,5.123 17.479,5.219L18.671,5.425L19.041,5.466L19.205,5.466L19.74,5.589C23.442,6.013 27.181,5.985 30.877,5.507L31.041,5.507C31.188,5.443 31.285,5.298 31.288,5.137L30.918,3.493L30.918,3.288L30.753,2.753C30.548,2.219 29.932,2.219 29.397,2.096L28.411,1.932L28.329,1.932L28.164,1.89L27.712,1.849C25.608,1.635 23.488,1.635 21.384,1.849L20.932,1.89L20.644,1.932L19.863,2.096C19.795,2.096 19.74,2.152 19.74,2.219C19.74,2.287 19.795,2.342 19.863,2.342C20.137,2.425 20.438,2.479 20.767,2.507L20.932,2.507L21.096,2.548L22.534,2.671C24.314,2.787 26.101,2.76 27.877,2.589L28.37,2.548L28.616,2.507C29.11,2.425 29.452,2.616 29.644,3.082C29.767,3.493 29.479,4.068 29.068,4.11L27.959,4.274C26.452,4.438 24.945,4.493 23.438,4.438C22.068,4.384 20.699,4.219 19.329,3.945C18.863,3.863 18.411,3.726 17.973,3.534C17.606,3.398 17.3,3.136 17.11,2.795C16.859,2.323 16.942,1.739 17.315,1.356C17.634,1.071 18.014,0.86 18.425,0.74C19.493,0.329 20.685,0.247 21.836,0.123C23.37,-0.014 24.904,-0.041 26.438,0.041C27.699,0.096 28.959,0.274 30.219,0.575L31.041,0.822C31.534,0.959 31.945,1.274 32.274,1.767C32.411,2.178 32.507,2.589 32.562,3L32.808,4.397C32.808,4.671 32.904,4.918 33.096,5.137C33.26,5.274 33.493,5.37 33.795,5.425C34.534,5.671 34.863,6.37 35.027,7.11L35.151,7.932ZM33.384,8.918C33.521,8.781 33.589,8.63 33.589,8.466C33.644,8.027 33.575,7.616 33.384,7.233C33.096,6.74 32.562,6.904 32.068,6.986L30.425,7.233C26.631,7.732 22.786,7.705 19,7.151C18.384,7.068 17.685,6.822 17.11,6.904C16.699,6.904 16.575,7.356 16.534,7.726C16.452,8.055 16.329,8.63 16.575,8.959C16.767,9.068 16.959,9.137 17.151,9.164C19.342,9.466 21.493,9.671 23.603,9.781C26.671,9.863 29.685,9.671 32.644,9.205C32.915,9.194 33.175,9.093 33.384,8.918M16.452,8.507L16.452,8.589L16.452,8.507Z" style="fill:rgb(60,3,115);"/>
                </g>
                <g transform="matrix(12.3914,0,0,4.30128,9009.16,3611.21)">
                    <path d="M24.712,27.575L24.671,27.575L24.712,27.575ZM25.699,13.685C26.685,13.274 27.507,12.945 28.534,12.945C29.095,12.947 29.65,13.044 30.178,13.233L28.986,25.562C28.922,26.529 28.107,27.29 27.137,27.288C26.167,27.286 25.493,27.37 24.918,27.37L22.863,27.288C21.893,27.29 21.078,26.529 21.014,25.562L19.904,14.425C20.562,14.589 21.219,14.671 21.877,14.671C23.438,14.671 24.63,14.178 25.699,13.685" style="fill:rgb(232,0,136);"/>
                </g>
            </g>
        </g>
    </g>
</svg>
