<?xml version="1.0" encoding="UTF-8" standalone="no"?>
<!DOCTYPE svg PUBLIC "-//W3C//DTD SVG 1.1//EN" "http://www.w3.org/Graphics/SVG/1.1/DTD/svg11.dtd">
<svg width="100%" height="100%" viewBox="0 0 128 128" version="1.1" xmlns="http://www.w3.org/2000/svg" xmlns:xlink="http://www.w3.org/1999/xlink" xml:space="preserve" xmlns:serif="http://www.serif.com/" style="fill-rule:evenodd;clip-rule:evenodd;stroke-linejoin:round;stroke-miterlimit:2;">
    <g transform="matrix(1,0,0,1,-8682,-3298)">
        <g transform="matrix(0.34712,0,0,1,5344.4,-0.102612)">
            <g id="buymeacoffee" transform="matrix(3.19543,0,0,1.1092,6900.49,1414.48)">
                <path d="M964.937,1713.54L964.937,1798.24C964.937,1806.71 958.06,1813.59 949.59,1813.59L864.886,1813.59C856.416,1813.59 849.539,1806.71 849.539,1798.24L849.539,1713.54C849.539,1705.07 856.416,1698.19 864.886,1698.19L949.59,1698.19C958.06,1698.19 964.937,1705.07 964.937,1713.54ZM941.609,1734.87L941.094,1732.28C940.63,1729.95 939.581,1727.74 937.19,1726.9C936.422,1726.63 935.552,1726.52 934.967,1725.96C934.374,1725.4 934.202,1724.53 934.066,1723.73C933.812,1722.25 933.578,1720.78 933.317,1719.31C933.095,1718.04 932.919,1716.62 932.342,1715.46C931.581,1713.9 930.013,1712.99 928.457,1712.39C927.658,1712.09 926.843,1711.84 926.016,1711.63C922.115,1710.6 918.02,1710.23 914.014,1710.01C909.204,1709.74 904.382,1709.82 899.583,1710.25C896.014,1710.57 892.251,1710.97 888.857,1712.2C887.617,1712.65 886.338,1713.2 885.394,1714.15C884.235,1715.33 883.861,1717.16 884.703,1718.62C885.304,1719.66 886.322,1720.4 887.402,1720.88C888.807,1721.52 890.277,1721.99 891.782,1722.31C895.975,1723.24 900.32,1723.6 904.603,1723.76C909.353,1723.95 914.108,1723.8 918.839,1723.3C920.005,1723.17 921.171,1723.01 922.334,1722.83C923.707,1722.62 924.588,1720.83 924.182,1719.58C923.699,1718.09 922.4,1717.51 920.93,1717.73C919.112,1718.02 917.185,1718.15 915.539,1718.3C910.949,1718.62 906.342,1718.62 901.748,1718.33C900.24,1718.23 898.735,1718.09 897.235,1717.91C896.9,1717.87 896.533,1717.81 896.229,1717.77C895.281,1717.63 894.341,1717.46 893.405,1717.26C892.972,1717.16 892.972,1716.54 893.405,1716.43L893.425,1716.43C894.505,1716.2 895.597,1716.01 896.693,1715.86L896.701,1715.86C897.212,1715.83 897.727,1715.74 898.238,1715.67C902.676,1715.21 907.14,1715.06 911.6,1715.21C914.229,1715.28 916.854,1715.47 919.467,1715.77L920.356,1715.89C921.398,1716.05 922.435,1716.23 923.469,1716.45C924.998,1716.79 926.959,1716.89 927.642,1718.57C927.857,1719.1 927.954,1719.69 928.075,1720.25L929.319,1726.04C929.333,1726.1 929.339,1726.16 929.339,1726.23C929.339,1726.69 928.998,1727.08 928.543,1727.14L928.531,1727.14C928.387,1727.17 928.239,1727.18 928.094,1727.2C921.959,1727.99 915.78,1728.37 909.595,1728.35C903.467,1728.35 897.346,1727.95 891.268,1727.17C890.722,1727.1 890.125,1727.01 889.641,1726.93C888.37,1726.75 887.11,1726.51 885.846,1726.31C884.313,1726.05 882.851,1726.18 881.466,1726.93C880.335,1727.56 879.411,1728.51 878.833,1729.67C878.233,1730.9 878.057,1732.24 877.792,1733.57C877.523,1734.89 877.106,1736.33 877.265,1737.69C877.605,1740.62 879.656,1743.01 882.609,1743.55C897.21,1746.15 912.109,1746.65 926.85,1745.01C926.921,1745.01 926.992,1745 927.063,1745C928.097,1745 928.947,1745.85 928.947,1746.88C928.947,1746.95 928.944,1747.02 928.937,1747.08L928.66,1749.8L924.689,1788.44C924.53,1790.04 924.506,1791.68 924.202,1793.26C923.726,1795.75 922.045,1797.27 919.592,1797.83C917.341,1798.34 915.048,1798.61 912.743,1798.63C910.184,1798.65 907.633,1798.53 905.075,1798.54C902.348,1798.56 899.006,1798.31 896.904,1796.28C895.051,1794.5 894.797,1791.7 894.544,1789.29L891.693,1761.94L890.437,1749.87C890.293,1748.5 889.321,1747.16 887.792,1747.22C886.482,1747.28 884.992,1748.39 885.148,1749.87L886.037,1758.39L889.739,1793.93C890.312,1799.18 894.318,1802 899.279,1802.8C902.173,1803.26 905.141,1803.36 908.082,1803.4C911.85,1803.47 915.656,1803.61 919.362,1802.93C924.853,1801.92 928.976,1798.26 929.565,1792.57C930.891,1779.57 932.229,1766.58 933.559,1753.58L934.397,1745.44C934.482,1744.62 935.103,1743.94 935.919,1743.78C937.486,1743.48 938.988,1742.95 940.107,1741.76C941.881,1739.86 942.236,1737.38 941.61,1734.88L941.609,1734.87ZM935.844,1737.89C935.279,1738.42 934.429,1738.67 933.59,1738.8C924.167,1740.2 914.611,1740.9 905.086,1740.59C898.269,1740.36 891.525,1739.6 884.778,1738.65C884.114,1738.55 883.401,1738.43 882.944,1737.94C882.086,1737.03 882.511,1735.18 882.734,1734.06C882.937,1733.05 883.327,1731.69 884.54,1731.55C886.427,1731.32 888.619,1732.12 890.491,1732.4C892.742,1732.75 895,1733.02 897.266,1733.23C906.939,1734.11 916.776,1733.97 926.41,1732.68C928.165,1732.45 929.916,1732.18 931.655,1731.87C933.212,1731.58 934.932,1731.06 935.868,1732.67C936.515,1733.76 936.601,1735.23 936.5,1736.47C936.469,1737.01 936.233,1737.52 935.841,1737.89L935.844,1737.89ZM911.822,1753.1C908.46,1754.54 904.646,1756.17 899.696,1756.17C897.628,1756.17 895.569,1755.88 893.577,1755.33L896.997,1790.44C897.251,1793.49 899.794,1795.83 902.848,1795.83C902.848,1795.83 907.696,1796.08 909.314,1796.08C911.058,1796.08 916.28,1795.83 916.28,1795.83C919.334,1795.83 921.873,1793.49 922.127,1790.44L925.793,1751.63C924.139,1751.04 922.396,1750.72 920.637,1750.71C917.415,1750.71 914.822,1751.82 911.822,1753.1Z" style="fill:url(#_Linear1);"/>
            </g>
        </g>
    </g>
    <defs>
        <linearGradient id="_Linear1" x1="0" y1="0" x2="1" y2="0" gradientUnits="userSpaceOnUse" gradientTransform="matrix(9.71676e-15,-138.848,158.687,8.50202e-15,519.782,1837.03)"><stop offset="0" style="stop-color:rgb(255,234,64);stop-opacity:1"/><stop offset="0.57" style="stop-color:rgb(232,0,136);stop-opacity:1"/><stop offset="1" style="stop-color:rgb(60,3,115);stop-opacity:1"/></linearGradient>
    </defs>
</svg>
