<?xml version="1.0" encoding="UTF-8" standalone="no"?>
<!DOCTYPE svg PUBLIC "-//W3C//DTD SVG 1.1//EN" "http://www.w3.org/Graphics/SVG/1.1/DTD/svg11.dtd">
<svg width="100%" height="100%" viewBox="0 0 127 127" version="1.1" xmlns="http://www.w3.org/2000/svg" xmlns:xlink="http://www.w3.org/1999/xlink" xml:space="preserve" xmlns:serif="http://www.serif.com/" style="fill-rule:evenodd;clip-rule:evenodd;stroke-linejoin:round;stroke-miterlimit:2;">
    <g transform="matrix(1,0,0,1,-8384,-3011)">
        <g transform="matrix(0.34712,0,0,1,5344.4,-0.102612)">
            <g id="cara" transform="matrix(3.1441,0,0,1.09138,6087.24,1157.95)">
                <path d="M964.937,1713.54L964.937,1798.24C964.937,1806.71 958.06,1813.59 949.59,1813.59L864.886,1813.59C856.416,1813.59 849.539,1806.71 849.539,1798.24L849.539,1713.54C849.539,1705.07 856.416,1698.19 864.886,1698.19L949.59,1698.19C958.06,1698.19 964.937,1705.07 964.937,1713.54ZM907.238,1705.58C880.253,1706.45 858.53,1728.89 858.53,1755.89C858.53,1782.89 880.253,1805.32 907.238,1806.19C934.223,1805.32 955.946,1782.89 955.946,1755.89C955.946,1728.89 934.223,1706.45 907.238,1705.58ZM907.238,1712.66L907.238,1712.68L907.264,1712.68C930.98,1712.68 950.496,1732.2 950.496,1755.92C950.496,1779.62 930.997,1799.13 907.29,1799.15L907.264,1799.15C883.541,1799.15 864.02,1779.63 864.02,1755.9C864.02,1732.19 883.525,1712.67 907.238,1712.66ZM930.242,1775.1L923.247,1764.54C923.247,1764.54 916.172,1768.6 911.771,1768.6C904.382,1768.6 898.88,1762.99 898.88,1756.13L898.878,1755.91C898.878,1749.06 904.52,1743.42 911.376,1743.42L911.509,1743.42C915.12,1743.32 918.651,1744.51 921.465,1746.77L929.614,1736C924.504,1731.55 917.352,1729.35 909.753,1729.35C893.823,1729.35 880.932,1741.35 880.932,1756.13C880.932,1770.9 892.068,1782.43 907.972,1782.43C916.277,1782.43 924.976,1780.34 930.242,1775.1Z" style="fill:url(#_Linear1);"/>
            </g>
        </g>
    </g>
    <defs>
        <linearGradient id="_Linear1" x1="0" y1="0" x2="1" y2="0" gradientUnits="userSpaceOnUse" gradientTransform="matrix(9.71676e-15,-138.848,158.687,8.50202e-15,519.782,1837.03)"><stop offset="0" style="stop-color:rgb(255,234,64);stop-opacity:1"/><stop offset="0.57" style="stop-color:rgb(232,0,136);stop-opacity:1"/><stop offset="1" style="stop-color:rgb(60,3,115);stop-opacity:1"/></linearGradient>
    </defs>
</svg>
