<?xml version="1.0" encoding="UTF-8" standalone="no"?>
<!DOCTYPE svg PUBLIC "-//W3C//DTD SVG 1.1//EN" "http://www.w3.org/Graphics/SVG/1.1/DTD/svg11.dtd">
<svg width="100%" height="100%" viewBox="0 0 127 127" version="1.1" xmlns="http://www.w3.org/2000/svg" xmlns:xlink="http://www.w3.org/1999/xlink" xml:space="preserve" xmlns:serif="http://www.serif.com/" style="fill-rule:evenodd;clip-rule:evenodd;stroke-linejoin:round;stroke-miterlimit:2;">
    <g transform="matrix(1,0,0,1,-8832,-3011)">
        <g transform="matrix(0.34712,0,0,1,5344.4,-0.102612)">
            <g id="codepen" transform="matrix(3.1441,0,0,1.09138,7377.48,1157.95)">
                <path d="M964.937,1713.54L964.937,1798.24C964.937,1806.71 958.06,1813.59 949.59,1813.59L864.886,1813.59C856.416,1813.59 849.539,1806.71 849.539,1798.24L849.539,1713.54C849.539,1705.07 856.416,1698.19 864.886,1698.19L949.59,1698.19C958.06,1698.19 964.937,1705.07 964.937,1713.54ZM908.223,1710.04C882.993,1710.04 862.54,1730.49 862.54,1755.72C862.54,1780.95 882.993,1801.4 908.223,1801.4C933.453,1801.4 953.905,1780.95 953.905,1755.72C953.905,1730.49 933.453,1710.04 908.223,1710.04ZM908.223,1793.9C887.17,1793.9 870.043,1776.77 870.043,1755.72C870.043,1734.66 887.17,1717.54 908.223,1717.54C929.275,1717.54 946.402,1734.66 946.402,1755.72C946.402,1776.77 929.275,1793.9 908.223,1793.9ZM936.469,1747.11C936.567,1746.32 936.047,1745.48 935.388,1745.09L909.569,1727.88C908.754,1727.34 907.692,1727.34 906.876,1727.88L881.057,1745.09C880.469,1745.41 879.898,1746.29 879.976,1747.11L879.976,1764.32C879.968,1765.13 880.413,1765.89 881.057,1766.34L906.876,1783.56C907.284,1783.83 907.753,1783.96 908.223,1783.96C908.692,1783.96 909.161,1783.83 909.569,1783.56L935.388,1766.34C935.824,1766.02 936.456,1765.09 936.469,1764.32L936.469,1747.11ZM908.223,1761.46L899.637,1755.72L908.223,1749.97L916.808,1755.72L908.223,1761.46ZM910.65,1777L910.65,1765.68L921.174,1758.64L929.67,1764.32L910.65,1777ZM910.65,1734.43L929.67,1747.11L921.174,1752.8L910.65,1745.76L910.65,1734.43ZM905.795,1734.43L905.795,1745.76L895.271,1752.8L886.775,1747.11L905.795,1734.43ZM884.832,1751.65L890.905,1755.72L884.832,1759.78L884.832,1751.65ZM931.614,1759.78L925.541,1755.72L931.614,1751.65L931.614,1759.78ZM905.795,1777L886.775,1764.32L895.271,1758.64L905.795,1765.68L905.795,1777Z" style="fill:url(#_Linear1);"/>
            </g>
        </g>
    </g>
    <defs>
        <linearGradient id="_Linear1" x1="0" y1="0" x2="1" y2="0" gradientUnits="userSpaceOnUse" gradientTransform="matrix(9.71676e-15,-138.848,158.687,8.50202e-15,519.782,1837.03)"><stop offset="0" style="stop-color:rgb(255,234,64);stop-opacity:1"/><stop offset="0.57" style="stop-color:rgb(232,0,136);stop-opacity:1"/><stop offset="1" style="stop-color:rgb(60,3,115);stop-opacity:1"/></linearGradient>
    </defs>
</svg>
