<?xml version="1.0" encoding="UTF-8" standalone="no"?>
<!DOCTYPE svg PUBLIC "-//W3C//DTD SVG 1.1//EN" "http://www.w3.org/Graphics/SVG/1.1/DTD/svg11.dtd">
<svg width="100%" height="100%" viewBox="0 0 128 129" version="1.1" xmlns="http://www.w3.org/2000/svg" xmlns:xlink="http://www.w3.org/1999/xlink" xml:space="preserve" xmlns:serif="http://www.serif.com/" style="fill-rule:evenodd;clip-rule:evenodd;stroke-linejoin:round;stroke-miterlimit:2;">
    <g transform="matrix(1,0,0,1,-8642,-3471)">
        <g transform="matrix(0.34712,0,0,1,5344.4,-0.102612)">
            <g id="copyright" transform="matrix(0.114095,0,0,0.0634183,9340.44,3465.37)">
                <path d="M3013.46,2110.09C2791.97,2110.09 2583.29,2084.21 2387.41,2032.46C2191.54,1980.71 2019.39,1908.96 1870.98,1817.22C1722.57,1725.47 1606.55,1618.21 1522.93,1495.41C1439.3,1372.62 1397.49,1241.12 1397.49,1100.92C1397.49,958.832 1439.3,826.863 1522.93,705.01C1606.55,583.156 1722.57,476.358 1870.98,384.615C2019.39,292.872 2191.54,221.124 2387.41,169.372C2583.29,117.619 2791.97,91.743 3013.46,91.743C3234.95,91.743 3443.63,117.619 3639.51,169.372C3835.38,221.124 4007.34,292.872 4155.37,384.615C4303.41,476.358 4419.43,583.156 4503.43,705.01C4587.43,826.863 4629.43,958.832 4629.43,1100.92C4629.43,1241.12 4587.43,1372.62 4503.43,1495.41C4419.43,1618.21 4303.41,1725.47 4155.37,1817.22C4007.34,1908.96 3835.38,1980.71 3639.51,2032.46C3443.63,2084.21 3234.95,2110.09 3013.46,2110.09ZM3013.46,1926.6C3195.02,1926.6 3365.66,1905.67 3525.37,1863.8C3685.08,1821.92 3825.77,1763.35 3947.44,1688.07C4069.11,1612.8 4163.85,1525.05 4231.65,1424.84C4299.45,1324.63 4333.35,1216.65 4333.35,1100.92C4333.35,984.238 4299.45,876.146 4231.65,776.64C4163.85,677.134 4069.11,589.625 3947.44,514.114C3825.77,438.602 3685.08,379.91 3525.37,338.038C3365.66,296.165 3195.02,275.229 3013.46,275.229C2831.9,275.229 2661.83,296.165 2503.24,338.038C2344.66,379.91 2204.53,438.602 2082.87,514.114C1961.2,589.625 1865.9,677.134 1796.96,776.64C1728.03,876.146 1693.56,984.238 1693.56,1100.92C1693.56,1216.65 1727.47,1324.63 1795.27,1424.84C1863.07,1525.05 1957.81,1612.8 2079.47,1688.07C2201.14,1763.35 2341.83,1821.92 2501.55,1863.8C2661.26,1905.67 2831.9,1926.6 3013.46,1926.6ZM3092.56,1689.48C2923.81,1689.48 2765.22,1665.37 2616.81,1617.15C2468.4,1568.92 2348.61,1500.7 2257.46,1412.49C2166.3,1324.28 2120.72,1220.42 2120.72,1100.92C2120.72,994.118 2163.47,896.259 2248.98,807.338C2334.49,718.418 2450.88,647.141 2598.17,593.507C2745.45,539.872 2910.25,513.055 3092.56,513.055C3267.34,513.055 3425.17,538.461 3566.05,589.272C3615.77,603.857 3644.59,628.322 3652.5,662.667C3660.41,697.012 3648.92,727.122 3618.03,752.998C3592.42,774.64 3558.52,786.99 3516.33,790.048C3474.14,793.107 3434.59,788.755 3397.68,776.993C3352.47,761.937 3304.45,750.411 3253.59,742.413C3202.74,734.415 3149.06,730.415 3092.56,730.415C2973.53,730.415 2867.31,747.117 2773.89,780.521C2680.47,813.925 2606.64,858.503 2552.4,914.254C2498.16,970.006 2471.04,1032.23 2471.04,1100.92C2471.04,1176.66 2499.29,1242.53 2555.79,1298.52C2612.29,1354.5 2687.63,1397.43 2781.8,1427.31C2875.97,1457.18 2979.56,1472.12 3092.56,1472.12C3146.8,1472.12 3199.35,1468.01 3250.2,1459.77C3301.06,1451.54 3350.59,1440.13 3398.81,1425.55C3434.97,1413.78 3474.14,1409.9 3516.33,1413.9C3558.52,1417.9 3592.42,1430.72 3618.03,1452.36C3653.44,1480.12 3665.68,1510.47 3654.76,1543.4C3643.84,1576.33 3615.4,1600.56 3569.44,1616.09C3496.37,1640.55 3419.33,1658.9 3338.35,1671.13C3257.36,1683.37 3175.43,1689.48 3092.56,1689.48Z" style="fill:rgb(60,3,115);fill-rule:nonzero;"/>
            </g>
        </g>
    </g>
</svg>
