<?xml version="1.0" encoding="UTF-8" standalone="no"?>
<!DOCTYPE svg PUBLIC "-//W3C//DTD SVG 1.1//EN" "http://www.w3.org/Graphics/SVG/1.1/DTD/svg11.dtd">
<svg width="100%" height="100%" viewBox="0 0 128 128" version="1.1" xmlns="http://www.w3.org/2000/svg" xmlns:xlink="http://www.w3.org/1999/xlink" xml:space="preserve" xmlns:serif="http://www.serif.com/" style="fill-rule:evenodd;clip-rule:evenodd;stroke-linejoin:round;stroke-miterlimit:2;">
    <g transform="matrix(1,0,0,1,-8980,-3298)">
        <g transform="matrix(0.34712,0,0,1,5344.4,-0.102612)">
            <g id="discord" transform="matrix(3.19543,0,0,1.1092,7758.98,1414.48)">
                <path d="M964.937,1713.54L964.937,1798.24C964.937,1806.71 958.06,1813.59 949.59,1813.59L864.886,1813.59C856.416,1813.59 849.539,1806.71 849.539,1798.24L849.539,1713.54C849.539,1705.07 856.416,1698.19 864.886,1698.19L949.59,1698.19C958.06,1698.19 964.937,1705.07 964.937,1713.54ZM935.116,1730.01C929.917,1727.58 924.358,1725.81 918.546,1724.8C917.832,1726.09 916.998,1727.83 916.423,1729.21C910.245,1728.28 904.123,1728.28 898.059,1729.21C897.484,1727.83 896.631,1726.09 895.911,1724.8C890.093,1725.81 884.527,1727.58 879.328,1730.02C868.841,1745.87 865.998,1761.32 867.42,1776.56C874.375,1781.75 881.116,1784.91 887.742,1786.97C889.379,1784.72 890.838,1782.33 892.095,1779.8C889.701,1778.89 887.408,1777.77 885.241,1776.47C885.816,1776.04 886.378,1775.6 886.921,1775.14C900.137,1781.32 914.496,1781.32 927.554,1775.14C928.104,1775.6 928.666,1776.04 929.235,1776.47C927.062,1777.78 924.762,1778.9 922.368,1779.81C923.625,1782.33 925.078,1784.73 926.721,1786.98C933.354,1784.91 940.101,1781.76 947.056,1776.56C948.724,1758.9 944.207,1743.59 935.116,1730.01ZM920.58,1767.19C916.613,1767.19 913.359,1763.48 913.359,1758.97C913.359,1754.46 916.543,1750.75 920.58,1750.75C924.617,1750.75 927.87,1754.46 927.801,1758.97C927.801,1763.48 924.617,1767.19 920.58,1767.19ZM893.896,1767.19C889.928,1767.19 886.675,1763.48 886.675,1758.97C886.675,1754.46 889.859,1750.75 893.896,1750.75C897.932,1750.75 901.186,1754.46 901.116,1758.97C901.123,1763.48 897.932,1767.19 893.896,1767.19Z" style="fill:url(#_Linear1);"/>
            </g>
        </g>
    </g>
    <defs>
        <linearGradient id="_Linear1" x1="0" y1="0" x2="1" y2="0" gradientUnits="userSpaceOnUse" gradientTransform="matrix(9.71676e-15,-138.848,158.687,8.50202e-15,519.782,1837.03)"><stop offset="0" style="stop-color:rgb(255,234,64);stop-opacity:1"/><stop offset="0.57" style="stop-color:rgb(232,0,136);stop-opacity:1"/><stop offset="1" style="stop-color:rgb(60,3,115);stop-opacity:1"/></linearGradient>
    </defs>
</svg>
