<?xml version="1.0" encoding="UTF-8" standalone="no"?>
<!DOCTYPE svg PUBLIC "-//W3C//DTD SVG 1.1//EN" "http://www.w3.org/Graphics/SVG/1.1/DTD/svg11.dtd">
<svg width="100%" height="100%" viewBox="0 0 129 129" version="1.1" xmlns="http://www.w3.org/2000/svg" xmlns:xlink="http://www.w3.org/1999/xlink" xml:space="preserve" xmlns:serif="http://www.serif.com/" style="fill-rule:evenodd;clip-rule:evenodd;stroke-linejoin:round;stroke-miterlimit:2;">
    <g transform="matrix(1,0,0,1,-8381,-3154)">
        <g transform="matrix(0.34712,0,0,1,5344.4,-0.102612)">
            <g id="email" transform="matrix(3.19543,0,0,1.1092,6035.66,1270.61)">
                <path d="M964.937,1713.54L964.937,1798.24C964.937,1806.71 958.06,1813.59 949.59,1813.59L864.886,1813.59C856.416,1813.59 849.539,1806.71 849.539,1798.24L849.539,1713.54C849.539,1705.07 856.416,1698.19 864.886,1698.19L949.59,1698.19C958.06,1698.19 964.937,1705.07 964.937,1713.54ZM888.778,1748.99L888.782,1748.99C893.299,1745.29 901.887,1743.05 907.251,1753.72C914.054,1743.85 920.801,1745.29 925.318,1748.99L925.519,1749.15L945.749,1718.01C944.609,1717.58 943.376,1717.35 942.089,1717.35L872.387,1717.35C871.105,1717.35 869.877,1717.58 868.74,1718L888.778,1748.99ZM884.825,1757.04L862.597,1724.12C862.162,1725.27 861.924,1726.51 861.924,1727.81L861.924,1783.97C861.924,1789.74 866.612,1794.43 872.387,1794.43L942.089,1794.43C947.864,1794.43 952.552,1789.74 952.552,1783.97L952.552,1727.81C952.552,1726.52 952.316,1725.28 951.884,1724.13L929.683,1757.02C929.912,1759.79 929.164,1762.93 927.096,1766.31C923.934,1771.85 914.957,1773.18 907.251,1783.28C898.443,1772.22 893.857,1773.57 889.183,1768.88C885.593,1765.28 884.435,1760.9 884.825,1757.04Z" style="fill:url(#_Linear1);"/>
            </g>
        </g>
    </g>
    <defs>
        <linearGradient id="_Linear1" x1="0" y1="0" x2="1" y2="0" gradientUnits="userSpaceOnUse" gradientTransform="matrix(9.71676e-15,-138.848,158.687,8.50202e-15,519.782,1837.03)"><stop offset="0" style="stop-color:rgb(255,234,64);stop-opacity:1"/><stop offset="0.57" style="stop-color:rgb(232,0,136);stop-opacity:1"/><stop offset="1" style="stop-color:rgb(60,3,115);stop-opacity:1"/></linearGradient>
    </defs>
</svg>
