<?xml version="1.0" encoding="UTF-8" standalone="no"?>
<!DOCTYPE svg PUBLIC "-//W3C//DTD SVG 1.1//EN" "http://www.w3.org/Graphics/SVG/1.1/DTD/svg11.dtd">
<svg width="100%" height="100%" viewBox="0 0 118 133" version="1.1" xmlns="http://www.w3.org/2000/svg" xmlns:xlink="http://www.w3.org/1999/xlink" xml:space="preserve" xmlns:serif="http://www.serif.com/" style="fill-rule:evenodd;clip-rule:evenodd;stroke-linejoin:round;stroke-miterlimit:2;">
    <g transform="matrix(1,0,0,1,-8791,-3461)">
        <g transform="matrix(0.34712,0,0,1,5344.4,-0.102612)">
            <g id="gift" transform="matrix(1.90854,0,0,0.662492,9907.95,3461.43)">
                <path d="M181,41.5L165,41.5C171.271,37.219 175.031,30.098 175.031,22.505C175.031,9.887 164.649,-0.495 152.031,-0.495C145.338,-0.495 138.967,2.427 134.6,7.5L115,28.9C112,25.5 107.7,23.3 102.8,23.3L96.8,23.3C91.8,23.3 87.5,25.5 84.5,28.9L65,7.5C60.635,2.531 54.333,-0.321 47.72,-0.321C35.103,-0.321 24.72,10.061 24.72,22.679C24.72,30.165 28.374,37.197 34.5,41.5L18.6,41.5C14.486,41.5 11.1,44.886 11.1,49L11.1,89.7C11.1,93.7 14.1,96.9 18.1,97.1L18.1,192.1C18.1,196.1 21.5,199.5 25.6,199.5L173.9,199.5C178.1,199.5 181.4,196.2 181.4,192L181.4,97.1C185.4,96.9 188.4,93.6 188.4,89.7L188.4,49C188.4,44.8 185.1,41.5 180.9,41.5L181,41.5ZM99.7,90.9C115.2,66.7 130.7,70.3 141,79.3C151.3,88.3 155.4,103.6 145,121.7C137.8,135.3 117.3,138.6 99.7,163.3C79.5,136.3 69.1,139.5 58.4,128C43,111.5 47.1,88.4 57.4,79.3C67.8,70.3 87.4,64.8 99.7,90.9ZM40.6,25.7C40.261,24.805 40.087,23.857 40.087,22.9C40.087,18.566 43.653,15 47.987,15C47.991,15 47.996,15 48,15C50.2,15 52.3,16 53.8,17.6L75.6,41.5L74.6,41.5L45.2,30.4C43.05,29.588 41.365,27.867 40.6,25.7ZM159,25.7C158.2,27.9 156.5,29.6 154.3,30.4L124.8,41.4L123.8,41.4L145.6,17.6C147.099,15.924 149.252,14.975 151.5,15C154.4,15 157,16.5 158.4,19C159.6,21 159.8,23.4 159,25.7Z" style="fill:rgb(60,3,115);fill-rule:nonzero;"/>
            </g>
        </g>
    </g>
</svg>
