<?xml version="1.0" encoding="UTF-8" standalone="no"?>
<!DOCTYPE svg PUBLIC "-//W3C//DTD SVG 1.1//EN" "http://www.w3.org/Graphics/SVG/1.1/DTD/svg11.dtd">
<svg width="100%" height="100%" viewBox="0 0 127 127" version="1.1" xmlns="http://www.w3.org/2000/svg" xmlns:xlink="http://www.w3.org/1999/xlink" xml:space="preserve" xmlns:serif="http://www.serif.com/" style="fill-rule:evenodd;clip-rule:evenodd;stroke-linejoin:round;stroke-miterlimit:2;">
    <g transform="matrix(1,0,0,1,-8981,-3011)">
        <g transform="matrix(0.34712,0,0,1,5344.4,-0.102612)">
            <g id="girhub" transform="matrix(3.1441,0,0,1.09138,7807.56,1157.95)">
                <path d="M964.937,1713.54L964.937,1798.24C964.937,1806.71 958.06,1813.59 949.59,1813.59L864.886,1813.59C856.416,1813.59 849.539,1806.71 849.539,1798.24L849.539,1713.54C849.539,1705.07 856.416,1698.19 864.886,1698.19L949.59,1698.19C958.06,1698.19 964.937,1705.07 964.937,1713.54ZM903.946,1708.2C876.932,1708.2 855.052,1730.08 855.052,1757.1C855.052,1778.73 869.048,1797.01 888.483,1803.48C890.928,1803.91 891.845,1802.44 891.845,1801.16C891.845,1800 891.784,1796.15 891.784,1792.06C879.499,1794.32 876.321,1789.06 875.343,1786.31C874.793,1784.9 872.41,1780.57 870.332,1779.4C868.62,1778.49 866.176,1776.23 870.27,1776.16C874.121,1776.1 876.871,1779.71 877.788,1781.18C882.188,1788.57 889.217,1786.49 892.028,1785.21C892.456,1782.03 893.74,1779.89 895.145,1778.67C884.266,1777.45 872.898,1773.23 872.898,1754.53C872.898,1749.21 874.793,1744.81 877.91,1741.39C877.421,1740.17 875.71,1735.15 878.399,1728.43C878.399,1728.43 882.494,1727.15 891.845,1733.44C895.756,1732.34 899.912,1731.79 904.068,1731.79C908.224,1731.79 912.38,1732.34 916.292,1733.44C925.643,1727.09 929.738,1728.43 929.738,1728.43C932.427,1735.15 930.716,1740.17 930.227,1741.39C933.344,1744.81 935.238,1749.15 935.238,1754.53C935.238,1773.29 923.809,1777.45 912.931,1778.67C914.703,1780.2 916.231,1783.13 916.231,1787.72C916.231,1794.26 916.17,1799.51 916.17,1801.16C916.17,1802.44 917.087,1803.97 919.531,1803.48C939.387,1796.79 952.841,1778.05 952.84,1757.1C952.84,1730.08 930.96,1708.2 903.946,1708.2Z" style="fill:url(#_Linear1);"/>
            </g>
        </g>
    </g>
    <defs>
        <linearGradient id="_Linear1" x1="0" y1="0" x2="1" y2="0" gradientUnits="userSpaceOnUse" gradientTransform="matrix(9.71676e-15,-138.848,158.687,8.50202e-15,519.782,1837.03)"><stop offset="0" style="stop-color:rgb(255,234,64);stop-opacity:1"/><stop offset="0.57" style="stop-color:rgb(232,0,136);stop-opacity:1"/><stop offset="1" style="stop-color:rgb(60,3,115);stop-opacity:1"/></linearGradient>
    </defs>
</svg>
