<?xml version="1.0" encoding="UTF-8" standalone="no"?>
<!DOCTYPE svg PUBLIC "-//W3C//DTD SVG 1.1//EN" "http://www.w3.org/Graphics/SVG/1.1/DTD/svg11.dtd">
<svg width="100%" height="100%" viewBox="0 0 129 129" version="1.1" xmlns="http://www.w3.org/2000/svg" xmlns:xlink="http://www.w3.org/1999/xlink" xml:space="preserve" xmlns:serif="http://www.serif.com/" style="fill-rule:evenodd;clip-rule:evenodd;stroke-linejoin:round;stroke-miterlimit:2;">
    <g transform="matrix(1,0,0,1,-8531,-3154)">
        <g transform="matrix(0.34712,0,0,1,5344.4,-0.102612)">
            <g id="googleplay" transform="matrix(3.19543,0,0,1.1092,6466.49,1270.61)">
                <path d="M964.937,1713.54L964.937,1798.24C964.937,1806.71 958.06,1813.59 949.59,1813.59L864.886,1813.59C856.416,1813.59 849.539,1806.71 849.539,1798.24L849.539,1713.54C849.539,1705.07 856.416,1698.19 864.886,1698.19L949.59,1698.19C958.06,1698.19 964.937,1705.07 964.937,1713.54ZM924.382,1776.68L907.749,1761.33L871.94,1794.39C873.038,1800.01 879.372,1803.18 884.525,1800.15L924.382,1776.68ZM871.94,1720.84L907.749,1753.9L924.382,1738.54L884.525,1715.07C879.372,1712.03 873.038,1715.21 871.94,1720.84ZM944.027,1765.12C949.693,1761.79 949.693,1753.44 944.027,1750.1L929.306,1741.44L911.776,1757.61L929.3,1773.79L944.027,1765.12ZM871.776,1787.1L903.721,1757.61L871.776,1728.12L871.776,1787.1Z" style="fill:url(#_Linear1);"/>
            </g>
        </g>
    </g>
    <defs>
        <linearGradient id="_Linear1" x1="0" y1="0" x2="1" y2="0" gradientUnits="userSpaceOnUse" gradientTransform="matrix(9.71676e-15,-138.848,158.687,8.50202e-15,519.782,1837.03)"><stop offset="0" style="stop-color:rgb(255,234,64);stop-opacity:1"/><stop offset="0.57" style="stop-color:rgb(232,0,136);stop-opacity:1"/><stop offset="1" style="stop-color:rgb(60,3,115);stop-opacity:1"/></linearGradient>
    </defs>
</svg>
