<?xml version="1.0" encoding="UTF-8" standalone="no"?>
<!DOCTYPE svg PUBLIC "-//W3C//DTD SVG 1.1//EN" "http://www.w3.org/Graphics/SVG/1.1/DTD/svg11.dtd">
<svg width="100%" height="100%" viewBox="0 0 128 112" version="1.1" xmlns="http://www.w3.org/2000/svg" xmlns:xlink="http://www.w3.org/1999/xlink" xml:space="preserve" xmlns:serif="http://www.serif.com/" style="fill-rule:evenodd;clip-rule:evenodd;stroke-linejoin:round;stroke-miterlimit:2;">
    <g transform="matrix(1,0,0,1,-9541,-3007)">
        <g transform="matrix(0.34712,0,0,1,6374.4,-0.102612)">
            <g id="heart_smile" transform="matrix(3.98405,0,0,1.33979,7722.93,2749.52)">
                <path d="M397.598,209.706C411.6,187.62 425.487,190.841 434.784,199.11C444.08,207.378 447.741,221.347 438.444,237.884C431.936,250.287 413.46,253.261 397.598,275.854C379.47,251.104 370.03,254.119 360.412,243.638C346.583,228.57 350.289,207.378 359.586,199.11C368.882,190.841 386.558,185.825 397.598,209.706ZM403.681,238.881C403.681,241.619 400.689,243.64 397.201,243.64C393.713,243.64 390.721,241.619 390.721,238.881C390.721,237.957 389.952,237.207 389.005,237.207C388.058,237.207 387.29,237.957 387.29,238.881C387.29,243.247 391.639,246.988 397.201,246.988C402.763,246.988 407.112,243.247 407.112,238.881C407.112,237.957 406.344,237.207 405.397,237.207C404.45,237.207 403.681,237.957 403.681,238.881ZM417.166,227.337C414.926,227.337 413.107,228.128 413.107,229.103C413.107,230.078 414.926,230.87 417.166,230.87C419.406,230.87 421.225,230.078 421.225,229.103C421.225,228.128 419.406,227.337 417.166,227.337ZM410.015,216.143C408.661,216.143 407.562,218.363 407.562,221.097C407.562,223.831 408.661,226.051 410.015,226.051C411.37,226.051 412.469,223.831 412.469,221.097C412.469,218.363 411.37,216.143 410.015,216.143ZM377.06,227.337C374.819,227.337 373,228.128 373,229.103C373,230.078 374.819,230.87 377.06,230.87C379.3,230.87 381.119,230.078 381.119,229.103C381.119,228.128 379.3,227.337 377.06,227.337ZM384.21,216.143C382.856,216.143 381.757,218.363 381.757,221.097C381.757,223.831 382.856,226.051 384.21,226.051C385.564,226.051 386.664,223.831 386.664,221.097C386.664,218.363 385.564,216.143 384.21,216.143Z" style="fill:white;"/>
            </g>
        </g>
    </g>
</svg>
