<?xml version="1.0" encoding="UTF-8" standalone="no"?>
<!DOCTYPE svg PUBLIC "-//W3C//DTD SVG 1.1//EN" "http://www.w3.org/Graphics/SVG/1.1/DTD/svg11.dtd">
<svg width="100%" height="100%" viewBox="0 0 127 127" version="1.1" xmlns="http://www.w3.org/2000/svg" xmlns:xlink="http://www.w3.org/1999/xlink" xml:space="preserve" xmlns:serif="http://www.serif.com/" style="fill-rule:evenodd;clip-rule:evenodd;stroke-linejoin:round;stroke-miterlimit:2;">
    <g transform="matrix(1,0,0,1,-8533,-3011)">
        <g transform="matrix(0.34712,0,0,1,5344.4,-0.102612)">
            <g id="linkedin" transform="matrix(3.1441,0,0,1.09138,6517.32,1157.95)">
                <path d="M964.937,1713.54L964.937,1798.24C964.937,1806.71 958.06,1813.59 949.59,1813.59L864.886,1813.59C856.416,1813.59 849.539,1806.71 849.539,1798.24L849.539,1713.54C849.539,1705.07 856.416,1698.19 864.886,1698.19L949.59,1698.19C958.06,1698.19 964.937,1705.07 964.937,1713.54ZM884.743,1748.1C884.743,1743.99 881.408,1740.66 877.299,1740.66C873.191,1740.66 869.855,1743.99 869.855,1748.1L869.855,1796.53C869.855,1800.64 873.191,1803.97 877.299,1803.97C881.408,1803.97 884.743,1800.64 884.743,1796.53L884.743,1748.1ZM900.226,1747.5C897.126,1753.71 899.317,1794.35 899.317,1794.35C899.287,1795.67 900.541,1801.61 906.434,1801.52L906.534,1801.52L906.635,1801.52L906.676,1801.52C914.439,1801.81 913.833,1794.98 913.845,1794.4L914.018,1770.47C916.115,1757.2 932.638,1754.38 938.806,1765.51C943.845,1774.6 939.49,1785.66 942.115,1795.51C944.031,1802.7 954.492,1803.69 956.447,1794.26C957.91,1787.19 958.147,1772.15 954.201,1761.56C948.435,1746.07 927.649,1739.89 913.717,1747.86C911.464,1741.75 902.936,1742.07 900.226,1747.5ZM877.311,1713.97C872.48,1705.53 864.747,1707.31 860.679,1710.23C856.611,1713.15 854.99,1720.63 861.04,1725.96C865.249,1729.66 869.379,1728.6 877.311,1737.34C884.251,1729.36 892.335,1728.31 895.182,1723.92C899.25,1718.08 897.649,1713.15 893.581,1710.23C889.513,1707.31 883.437,1706.17 877.311,1713.97Z" style="fill:url(#_Linear1);"/>
            </g>
        </g>
    </g>
    <defs>
        <linearGradient id="_Linear1" x1="0" y1="0" x2="1" y2="0" gradientUnits="userSpaceOnUse" gradientTransform="matrix(9.71676e-15,-138.848,158.687,8.50202e-15,519.782,1837.03)"><stop offset="0" style="stop-color:rgb(255,234,64);stop-opacity:1"/><stop offset="0.57" style="stop-color:rgb(232,0,136);stop-opacity:1"/><stop offset="1" style="stop-color:rgb(60,3,115);stop-opacity:1"/></linearGradient>
    </defs>
</svg>
