<?xml version="1.0" encoding="UTF-8" standalone="no"?>
<!DOCTYPE svg PUBLIC "-//W3C//DTD SVG 1.1//EN" "http://www.w3.org/Graphics/SVG/1.1/DTD/svg11.dtd">
<svg width="100%" height="100%" viewBox="0 0 128 128" version="1.1" xmlns="http://www.w3.org/2000/svg" xmlns:xlink="http://www.w3.org/1999/xlink" xml:space="preserve" xmlns:serif="http://www.serif.com/" style="fill-rule:evenodd;clip-rule:evenodd;stroke-linejoin:round;stroke-miterlimit:2;">
    <g transform="matrix(1,0,0,1,-8384,-3298)">
        <g transform="matrix(0.34712,0,0,1,5344.4,-0.102612)">
            <g id="paypal" transform="matrix(3.19543,0,0,1.1092,6041.99,1414.48)">
                <path d="M964.937,1713.54L964.937,1798.24C964.937,1806.71 958.06,1813.59 949.59,1813.59L864.886,1813.59C856.416,1813.59 849.539,1806.71 849.539,1798.24L849.539,1713.54C849.539,1705.07 856.416,1698.19 864.886,1698.19L949.59,1698.19C958.06,1698.19 964.937,1705.07 964.937,1713.54ZM936.822,1731.78C937.497,1725.75 936.299,1721.47 932.874,1717.57C928.768,1712.89 921.367,1710.89 911.884,1710.89L884.37,1710.89C882.444,1710.89 880.786,1712.31 880.484,1714.21L869.021,1786.87C869.002,1786.99 868.992,1787.12 868.992,1787.24C868.992,1788.54 870.059,1789.61 871.355,1789.61L886.856,1789.61L885.72,1796.8C885.691,1796.99 885.677,1797.17 885.677,1797.36C885.677,1799.29 887.27,1800.89 889.207,1800.89L903.526,1800.89C905.939,1800.89 907.987,1799.14 908.375,1796.78L908.515,1796.04L911.215,1778.93L911.384,1778.01L911.389,1777.97C911.536,1777.01 912.374,1776.29 913.347,1776.3L915.484,1776.3C922.604,1776.3 929.123,1774.86 934.297,1771.18C936.434,1769.67 938.296,1767.78 939.882,1765.53C942.507,1761.87 944.205,1757.64 944.831,1753.18C946.192,1746.17 945.563,1739.93 941.625,1735.44C940.411,1734.09 938.963,1732.97 937.351,1732.12L936.822,1731.78L936.822,1731.78ZM894.544,1760.5C895.102,1760.21 895.721,1760.06 896.35,1760.05L904.426,1760.05C920.287,1760.05 932.7,1753.62 936.327,1734.99L936.344,1734.9C937.567,1735.6 938.594,1736.42 939.426,1737.37C942.497,1740.87 943.245,1746 941.957,1752.61C940.428,1760.47 937.087,1765.58 932.604,1768.77C928.093,1771.98 922.244,1773.36 915.489,1773.36L913.352,1773.36C910.948,1773.35 908.874,1775.11 908.498,1777.48L908.33,1778.41L905.63,1795.52L905.495,1796.25L905.489,1796.28C905.34,1797.23 904.502,1797.95 903.532,1797.94L889.213,1797.94L889.211,1797.94C888.883,1797.94 888.614,1797.67 888.614,1797.34C888.614,1797.31 888.617,1797.28 888.622,1797.25L889.792,1789.82L894.544,1760.5Z" style="fill:url(#_Linear1);"/>
            </g>
        </g>
    </g>
    <defs>
        <linearGradient id="_Linear1" x1="0" y1="0" x2="1" y2="0" gradientUnits="userSpaceOnUse" gradientTransform="matrix(9.71676e-15,-138.848,158.687,8.50202e-15,519.782,1837.03)"><stop offset="0" style="stop-color:rgb(255,234,64);stop-opacity:1"/><stop offset="0.57" style="stop-color:rgb(232,0,136);stop-opacity:1"/><stop offset="1" style="stop-color:rgb(60,3,115);stop-opacity:1"/></linearGradient>
    </defs>
</svg>
