<?xml version="1.0" encoding="UTF-8" standalone="no"?>
<!DOCTYPE svg PUBLIC "-//W3C//DTD SVG 1.1//EN" "http://www.w3.org/Graphics/SVG/1.1/DTD/svg11.dtd">
<svg width="100%" height="100%" viewBox="0 0 129 128" version="1.1" xmlns="http://www.w3.org/2000/svg" xmlns:xlink="http://www.w3.org/1999/xlink" xml:space="preserve" xmlns:serif="http://www.serif.com/" style="fill-rule:evenodd;clip-rule:evenodd;stroke-linejoin:round;stroke-miterlimit:2;">
    <g transform="matrix(1,0,0,1,-8232,-3298)">
        <g transform="matrix(0.34712,0,0,1,5344.4,-0.102612)">
            <g id="reddit" transform="matrix(3.19543,0,0,1.1092,5604.83,1414.48)">
                <path d="M964.937,1713.54L964.937,1798.24C964.937,1806.71 958.06,1813.59 949.59,1813.59L864.886,1813.59C856.416,1813.59 849.539,1806.71 849.539,1798.24L849.539,1713.54C849.539,1705.07 856.416,1698.19 864.886,1698.19L949.59,1698.19C958.06,1698.19 964.937,1705.07 964.937,1713.54ZM949.531,1755.1C949.531,1749.74 945.234,1745.38 939.951,1745.38C937.515,1745.38 935.219,1746.31 933.459,1747.96C927.137,1743.79 918.67,1741.09 909.293,1740.72L914.466,1724.71L928.05,1727.95C928.054,1732.36 931.59,1735.94 935.938,1735.94C940.285,1735.94 943.825,1732.35 943.825,1727.94C943.825,1723.53 940.285,1719.94 935.938,1719.94C932.681,1719.94 929.886,1721.95 928.68,1724.81L912.364,1720.91L905.978,1740.68C896.246,1740.87 887.428,1743.55 880.869,1747.83C879.13,1746.26 876.88,1745.38 874.52,1745.38C869.242,1745.38 864.945,1749.74 864.945,1755.1C864.945,1758.5 866.696,1761.62 869.496,1763.37C866.946,1778.65 884.696,1791.84 907.06,1791.84C929.332,1791.84 947.023,1778.77 944.663,1763.56C947.657,1761.86 949.531,1758.67 949.531,1755.1ZM920.869,1778.43C918.023,1781.31 913.561,1782.72 907.234,1782.72C900.903,1782.72 896.445,1781.31 893.603,1778.43C892.985,1777.8 892.985,1776.79 893.603,1776.16C894.216,1775.54 895.218,1775.54 895.836,1776.16C898.056,1778.41 901.782,1779.51 907.234,1779.51C912.681,1779.51 916.411,1778.41 918.636,1776.16C919.249,1775.54 920.251,1775.54 920.869,1776.16C921.486,1776.79 921.486,1777.8 920.869,1778.43ZM888.595,1761.6C888.595,1758.34 891.294,1755.6 894.512,1755.6C897.731,1755.6 900.34,1758.34 900.34,1761.6C900.34,1764.86 897.731,1767.51 894.512,1767.51C891.294,1767.51 888.595,1764.86 888.595,1761.6ZM920.048,1767.51C916.826,1767.51 914.123,1764.86 914.123,1761.6C914.123,1758.33 916.826,1755.6 920.048,1755.6C923.267,1755.6 925.876,1758.33 925.876,1761.6C925.876,1764.86 923.271,1767.51 920.048,1767.51Z" style="fill:url(#_Linear1);"/>
            </g>
        </g>
    </g>
    <defs>
        <linearGradient id="_Linear1" x1="0" y1="0" x2="1" y2="0" gradientUnits="userSpaceOnUse" gradientTransform="matrix(9.71676e-15,-138.848,158.687,8.50202e-15,519.782,1837.03)"><stop offset="0" style="stop-color:rgb(255,234,64);stop-opacity:1"/><stop offset="0.57" style="stop-color:rgb(232,0,136);stop-opacity:1"/><stop offset="1" style="stop-color:rgb(60,3,115);stop-opacity:1"/></linearGradient>
    </defs>
</svg>
