<?xml version="1.0" encoding="UTF-8" standalone="no"?>
<!DOCTYPE svg PUBLIC "-//W3C//DTD SVG 1.1//EN" "http://www.w3.org/Graphics/SVG/1.1/DTD/svg11.dtd">
<svg width="100%" height="100%" viewBox="0 0 100 129" version="1.1" xmlns="http://www.w3.org/2000/svg" xmlns:xlink="http://www.w3.org/1999/xlink" xml:space="preserve" xmlns:serif="http://www.serif.com/" style="fill-rule:evenodd;clip-rule:evenodd;stroke-linejoin:round;stroke-miterlimit:2;">
    <g transform="matrix(1,0,0,1,-8411,-3471)">
        <g transform="matrix(0.34712,0,0,1,5344.4,-0.102612)">
            <g id="search" transform="matrix(6.98778,0,0,2.4256,-12295.7,19.2934)">
                <path d="M3031.06,1459.06L3024.24,1471.43C3023.44,1472.88 3023.96,1474.71 3025.41,1475.51C3026.86,1476.31 3028.69,1475.78 3029.49,1474.33L3036.17,1462.23C3045.6,1466.34 3056.86,1462.81 3062.13,1453.73C3067.79,1443.98 3064.43,1431.48 3054.62,1425.84C3044.82,1420.22 3032.27,1423.57 3026.61,1433.31C3021.58,1441.97 3023.67,1452.79 3031.06,1459.06ZM3051.63,1431.05C3058.55,1435.02 3060.93,1443.84 3056.94,1450.72C3052.93,1457.62 3044.05,1459.98 3037.11,1456C3030.19,1452.02 3027.8,1443.21 3031.8,1436.32C3035.81,1429.42 3044.69,1427.06 3051.63,1431.05ZM3044.37,1440.24C3046.7,1436.73 3049.01,1437.25 3050.56,1438.56C3052.11,1439.87 3052.72,1442.08 3051.17,1444.7C3050.09,1446.67 3047.01,1447.14 3044.37,1450.72C3041.36,1446.8 3039.79,1447.28 3038.19,1445.61C3035.89,1443.23 3036.5,1439.87 3038.05,1438.56C3039.6,1437.25 3042.54,1436.45 3044.37,1440.24Z" style="fill:rgb(232,0,136);"/>
            </g>
        </g>
    </g>
</svg>
