<?xml version="1.0" encoding="UTF-8" standalone="no"?>
<!DOCTYPE svg PUBLIC "-//W3C//DTD SVG 1.1//EN" "http://www.w3.org/Graphics/SVG/1.1/DTD/svg11.dtd">
<svg width="100%" height="100%" viewBox="0 0 128 128" version="1.1" xmlns="http://www.w3.org/2000/svg" xmlns:xlink="http://www.w3.org/1999/xlink" xml:space="preserve" xmlns:serif="http://www.serif.com/" style="fill-rule:evenodd;clip-rule:evenodd;stroke-linejoin:round;stroke-miterlimit:2;">
    <g transform="matrix(1,0,0,1,-8831,-3298)">
        <g transform="matrix(0.34712,0,0,1,5344.4,-0.102612)">
            <g id="telegram" transform="matrix(3.19543,0,0,1.1092,7329.73,1414.48)">
                <path d="M964.937,1713.54L964.937,1798.24C964.937,1806.71 958.06,1813.59 949.59,1813.59L864.886,1813.59C856.416,1813.59 849.539,1806.71 849.539,1798.24L849.539,1713.54C849.539,1705.07 856.416,1698.19 864.886,1698.19L949.59,1698.19C958.06,1698.19 964.937,1705.07 964.937,1713.54ZM911.321,1734.79C903.991,1738.25 889.35,1745.41 867.398,1756.26C863.839,1757.87 861.972,1759.44 861.797,1760.99C861.514,1763.58 864.385,1764.61 868.292,1766.01L869.939,1766.59C873.78,1768.01 878.958,1769.67 881.64,1769.73C884.088,1769.8 886.812,1768.66 889.811,1766.32C910.327,1750.61 920.914,1742.67 921.573,1742.5C922.043,1742.37 922.702,1742.22 923.135,1742.67C923.568,1743.12 923.531,1743.95 923.484,1744.17C923.201,1745.55 911.933,1757.43 906.106,1763.58C904.29,1765.5 903,1766.86 902.736,1767.17C902.156,1767.84 901.566,1768.51 900.967,1769.16C897.389,1773.07 894.716,1775.99 901.108,1780.78C904.186,1783.09 906.652,1784.98 909.109,1786.88C911.783,1788.95 914.456,1791.01 917.92,1793.6C918.799,1794.25 919.646,1794.92 920.462,1795.59C923.578,1798.11 926.393,1800.38 929.847,1800.02C931.862,1799.8 933.942,1797.67 934.997,1791.26C937.491,1776.12 942.396,1743.34 943.525,1729.83C943.596,1728.7 943.555,1727.58 943.403,1726.46C943.312,1725.57 942.929,1724.74 942.33,1724.14C941.472,1723.48 940.452,1723.13 939.412,1723.15C936.587,1723.2 932.229,1724.92 911.321,1734.79Z" style="fill:url(#_Linear1);"/>
            </g>
        </g>
    </g>
    <defs>
        <linearGradient id="_Linear1" x1="0" y1="0" x2="1" y2="0" gradientUnits="userSpaceOnUse" gradientTransform="matrix(9.71676e-15,-138.848,158.687,8.50202e-15,519.782,1837.03)"><stop offset="0" style="stop-color:rgb(255,234,64);stop-opacity:1"/><stop offset="0.57" style="stop-color:rgb(232,0,136);stop-opacity:1"/><stop offset="1" style="stop-color:rgb(60,3,115);stop-opacity:1"/></linearGradient>
    </defs>
</svg>
