<?xml version="1.0" encoding="UTF-8" standalone="no"?>
<!DOCTYPE svg PUBLIC "-//W3C//DTD SVG 1.1//EN" "http://www.w3.org/Graphics/SVG/1.1/DTD/svg11.dtd">
<svg width="100%" height="100%" viewBox="0 0 127 127" version="1.1" xmlns="http://www.w3.org/2000/svg" xmlns:xlink="http://www.w3.org/1999/xlink" xml:space="preserve" xmlns:serif="http://www.serif.com/" style="fill-rule:evenodd;clip-rule:evenodd;stroke-linejoin:round;stroke-miterlimit:2;">
    <g transform="matrix(1,0,0,1,-8683,-3011)">
        <g transform="matrix(0.34712,0,0,1,5344.4,-0.102612)">
            <g id="tiktok" transform="matrix(3.1441,0,0,1.09138,6947.4,1157.95)">
                <path d="M964.937,1713.54L964.937,1798.24C964.937,1806.71 958.06,1813.59 949.59,1813.59L864.886,1813.59C856.416,1813.59 849.539,1806.71 849.539,1798.24L849.539,1713.54C849.539,1705.07 856.416,1698.19 864.886,1698.19L949.59,1698.19C958.06,1698.19 964.937,1705.07 964.937,1713.54ZM913.376,1706.79L913.376,1774.3C913.376,1784.4 905.064,1792.72 894.963,1792.72C884.862,1792.72 876.55,1784.4 876.55,1774.3C876.55,1764.2 884.862,1755.89 894.963,1755.89L894.963,1743.61C878.128,1743.61 864.275,1757.47 864.275,1774.3C864.275,1791.14 878.128,1804.99 894.963,1804.99C911.798,1804.99 925.651,1791.14 925.651,1774.3L925.651,1732.39C931.359,1738.62 939.442,1743.61 950.201,1743.61L950.201,1731.34C942.818,1731.34 937.282,1727.59 933.108,1722.21C928.842,1716.71 926.412,1711.18 925.528,1706.79L913.376,1706.79Z" style="fill:url(#_Linear1);"/>
            </g>
        </g>
    </g>
    <defs>
        <linearGradient id="_Linear1" x1="0" y1="0" x2="1" y2="0" gradientUnits="userSpaceOnUse" gradientTransform="matrix(9.71676e-15,-138.848,158.687,8.50202e-15,519.782,1837.03)"><stop offset="0" style="stop-color:rgb(255,234,64);stop-opacity:1"/><stop offset="0.57" style="stop-color:rgb(232,0,136);stop-opacity:1"/><stop offset="1" style="stop-color:rgb(60,3,115);stop-opacity:1"/></linearGradient>
    </defs>
</svg>
