<?xml version="1.0" encoding="UTF-8" standalone="no"?>
<!DOCTYPE svg PUBLIC "-//W3C//DTD SVG 1.1//EN" "http://www.w3.org/Graphics/SVG/1.1/DTD/svg11.dtd">
<svg width="100%" height="100%" viewBox="0 0 129 129" version="1.1" xmlns="http://www.w3.org/2000/svg" xmlns:xlink="http://www.w3.org/1999/xlink" xml:space="preserve" xmlns:serif="http://www.serif.com/" style="fill-rule:evenodd;clip-rule:evenodd;stroke-linejoin:round;stroke-miterlimit:2;">
    <g transform="matrix(1,0,0,1,-8232,-3011)">
        <g transform="matrix(0.34712,0,0,1,5344.4,-0.102612)">
            <g id="vgen" transform="matrix(3.19543,0,0,1.1092,5604.83,1127.69)">
                <path d="M964.937,1713.54L964.937,1798.24C964.937,1806.71 958.06,1813.59 949.59,1813.59L864.886,1813.59C856.416,1813.59 849.539,1806.71 849.539,1798.24L849.539,1713.54C849.539,1705.07 856.416,1698.19 864.886,1698.19L949.59,1698.19C958.06,1698.19 964.937,1705.07 964.937,1713.54ZM895.068,1745.32L895.063,1745.32C891.955,1741.27 891.342,1740.19 890.138,1738.46C886.899,1733.79 883.205,1731.79 880.245,1731.25C876.021,1730.48 871.977,1730.62 867.173,1736.3C864.083,1739.96 862.563,1745.13 863.058,1750.31C863.692,1757.82 868.639,1768.81 885.257,1785.51C890.045,1790.33 895.019,1795.11 902.116,1797.42C909.81,1799.91 919.243,1798.15 927.714,1791.12C937.985,1782.59 941.711,1775.26 946.171,1768.46C951.221,1760.77 954.592,1754.66 953.497,1745.19C952.222,1734.16 942.92,1712.2 920.327,1713.33C916.458,1713.53 911.014,1714.99 906.762,1719.08C900.677,1724.93 894.056,1734.22 895.068,1745.32ZM905.268,1770.48C907.156,1771.24 914.417,1769.69 913.109,1767.69C908.562,1760.75 903.26,1758.71 902.642,1743.93C902.313,1736.11 906.937,1730.06 911.117,1726.04C913.711,1723.55 918.209,1722.61 920.567,1722.46C933.175,1721.66 941.519,1738.86 942.012,1745.02C942.74,1754.08 928.059,1771.61 921.076,1778.28C906.849,1791.9 894.751,1778.72 892.168,1776.39C880.218,1765.6 875.025,1757.39 872.278,1751.86C867.474,1742.17 876.026,1735.36 882.286,1745.9C888.436,1756.26 891.43,1758.98 897.925,1765.83C901.164,1769.24 902.932,1769.54 905.268,1770.48ZM922.258,1758.34L922.258,1758.33C922.258,1758.33 929.279,1751.26 929.405,1744.57C929.613,1733.34 914.226,1732.45 914.138,1744.24C914.078,1752.44 922.258,1758.34 922.258,1758.34Z" style="fill:url(#_Linear1);"/>
            </g>
        </g>
    </g>
    <defs>
        <linearGradient id="_Linear1" x1="0" y1="0" x2="1" y2="0" gradientUnits="userSpaceOnUse" gradientTransform="matrix(9.71676e-15,-138.848,158.687,8.50202e-15,519.782,1837.03)"><stop offset="0" style="stop-color:rgb(255,234,64);stop-opacity:1"/><stop offset="0.57" style="stop-color:rgb(232,0,136);stop-opacity:1"/><stop offset="1" style="stop-color:rgb(60,3,115);stop-opacity:1"/></linearGradient>
    </defs>
</svg>
