<?xml version="1.0" encoding="UTF-8" standalone="no"?>
<!DOCTYPE svg PUBLIC "-//W3C//DTD SVG 1.1//EN" "http://www.w3.org/Graphics/SVG/1.1/DTD/svg11.dtd">
<svg width="100%" height="100%" viewBox="0 0 128 129" version="1.1" xmlns="http://www.w3.org/2000/svg" xmlns:xlink="http://www.w3.org/1999/xlink" xml:space="preserve" xmlns:serif="http://www.serif.com/" style="fill-rule:evenodd;clip-rule:evenodd;stroke-linejoin:round;stroke-miterlimit:2;">
    <g transform="matrix(1,0,0,1,-8980,-3154)">
        <g transform="matrix(0.34712,0,0,1,5344.4,-0.102612)">
            <g id="webtoon" transform="matrix(3.19543,0,0,1.1092,7758.98,1270.61)">
                <path d="M964.937,1713.54L964.937,1798.24C964.937,1806.71 958.06,1813.59 949.59,1813.59L864.886,1813.59C856.416,1813.59 849.539,1806.71 849.539,1798.24L849.539,1713.54C849.539,1705.07 856.416,1698.19 864.886,1698.19L949.59,1698.19C958.06,1698.19 964.937,1705.07 964.937,1713.54ZM878.699,1792.01L908.997,1788.27L908.997,1800.03L944.466,1783.59L949.011,1754.05L938.184,1754.05L940.857,1720.1L872.415,1730.66L878.297,1752.71L865.465,1752.71L878.699,1792.01Z" style="fill:url(#_Linear1);"/>
            </g>
        </g>
    </g>
    <defs>
        <linearGradient id="_Linear1" x1="0" y1="0" x2="1" y2="0" gradientUnits="userSpaceOnUse" gradientTransform="matrix(9.71676e-15,-138.848,158.687,8.50202e-15,519.782,1837.03)"><stop offset="0" style="stop-color:rgb(255,234,64);stop-opacity:1"/><stop offset="0.57" style="stop-color:rgb(232,0,136);stop-opacity:1"/><stop offset="1" style="stop-color:rgb(60,3,115);stop-opacity:1"/></linearGradient>
    </defs>
</svg>
