<?xml version="1.0" encoding="UTF-8" standalone="no"?>
<svg
   version="1.1"
   id="svg35"
   sodipodi:docname="AllIcons.svg"
   inkscape:version="1.4.3 (0d15f75042, 2025-12-25)"
   width="16"
   height="16"
   inkscape:export-filename="sprites.svg"
   inkscape:export-xdpi="96"
   inkscape:export-ydpi="96"
   xml:space="preserve"
   xmlns:inkscape="http://www.inkscape.org/namespaces/inkscape"
   xmlns:sodipodi="http://sodipodi.sourceforge.net/DTD/sodipodi-0.dtd"
   xmlns="http://www.w3.org/2000/svg"
   xmlns:svg="http://www.w3.org/2000/svg"><defs
     id="defs35" /><sodipodi:namedview
     id="namedview35"
     pagecolor="#ffffff"
     bordercolor="#000000"
     borderopacity="0.25"
     inkscape:showpageshadow="2"
     inkscape:pageopacity="0.0"
     inkscape:pagecheckerboard="0"
     inkscape:deskcolor="#424242"
     inkscape:zoom="11.313709"
     inkscape:cx="3.8890873"
     inkscape:cy="-7.1594562"
     inkscape:window-width="1920"
     inkscape:window-height="1052"
     inkscape:window-x="0"
     inkscape:window-y="0"
     inkscape:window-maximized="1"
     inkscape:current-layer="svg35"
     showborder="false"
     showgrid="true"
     showguides="false"><inkscape:page
       x="0"
       y="0"
       width="16"
       height="16"
       id="page7"
       margin="0"
       bleed="0"
       inkscape:label="Heart"
       inkscape:export-filename="Apple.svg"
       inkscape:export-xdpi="96"
       inkscape:export-ydpi="96" /><inkscape:page
       x="21"
       y="0"
       width="16"
       height="16"
       id="page8"
       margin="0"
       bleed="0"
       inkscape:label="ArrowLeft" /><inkscape:page
       x="42"
       y="0"
       width="16"
       height="16"
       id="page9"
       margin="0"
       bleed="0"
       inkscape:label="ArrowRight" /><inkscape:page
       x="63"
       y="0"
       width="16"
       height="16"
       id="page10"
       margin="0"
       bleed="0"
       inkscape:label="ArrowUp" /><inkscape:page
       x="84"
       y="0"
       width="16"
       height="16"
       id="page11"
       margin="0"
       bleed="0"
       inkscape:label="BuyMeACoffee" /><inkscape:page
       x="105.02028"
       y="0"
       width="16"
       height="16"
       id="page12"
       margin="0"
       bleed="0"
       inkscape:label="Calendar" /><inkscape:page
       x="0"
       y="21"
       width="16"
       height="16"
       id="page13"
       margin="0"
       bleed="0"
       inkscape:label="Copyright" /><inkscape:page
       x="21"
       y="21"
       width="16"
       height="16"
       id="page14"
       margin="0"
       bleed="0"
       inkscape:label="Search" /><inkscape:page
       x="42"
       y="21"
       width="16"
       height="16"
       id="page15"
       margin="0"
       bleed="0"
       inkscape:label="Gift" /><inkscape:page
       x="63"
       y="21"
       width="16"
       height="16"
       id="page16"
       margin="0"
       bleed="0"
       inkscape:label="Bag" /><inkscape:page
       x="84.020279"
       y="21"
       width="16"
       height="16"
       id="page17"
       margin="0"
       bleed="0"
       inkscape:label="HeartSmile" /><inkscape:page
       x="105.02028"
       y="21"
       width="16"
       height="16"
       id="page18"
       margin="0"
       bleed="0"
       inkscape:label="Menu" /><inkscape:page
       x="0"
       y="41.891575"
       width="16"
       height="16"
       id="page19"
       margin="0"
       bleed="0"
       inkscape:label="Danger" /><inkscape:page
       x="21"
       y="41.891575"
       width="16"
       height="16"
       id="page20"
       margin="0"
       bleed="0"
       inkscape:export-filename="Página 14.svg"
       inkscape:export-xdpi="96"
       inkscape:export-ydpi="96"
       inkscape:label="Facebook" /><inkscape:page
       x="42"
       y="41.891575"
       width="16"
       height="16"
       id="page21"
       margin="0"
       bleed="0"
       inkscape:label="Link" /><inkscape:page
       x="63"
       y="41.891575"
       width="16"
       height="16"
       id="page22"
       margin="0"
       bleed="0"
       inkscape:label="Amazon" /><inkscape:page
       x="84"
       y="41.891575"
       width="16"
       height="16"
       id="page23"
       margin="0"
       bleed="0"
       inkscape:label="BlueSky" /><inkscape:page
       x="105.02028"
       y="41.891575"
       width="16"
       height="16"
       id="page24"
       margin="0"
       bleed="0"
       inkscape:label="Patreon" /><inkscape:page
       x="0"
       y="62.891575"
       width="16"
       height="16"
       id="page25"
       margin="0"
       bleed="0"
       inkscape:label="BuyMeACoffee" /><inkscape:page
       x="21"
       y="62.891575"
       width="16"
       height="16"
       id="page26"
       margin="0"
       bleed="0"
       inkscape:label="Cara" /><sodipodi:guide
       position="6.257132,16"
       orientation="0,-1"
       id="guide27"
       inkscape:locked="false" /><sodipodi:guide
       position="0,2.3960616"
       orientation="1,0"
       id="guide28"
       inkscape:locked="false" /><sodipodi:guide
       position="21,16.115797"
       orientation="1,0"
       id="guide29"
       inkscape:locked="false" /><sodipodi:guide
       position="41.99901,-28.320575"
       orientation="1,0"
       id="guide30"
       inkscape:locked="false" /><sodipodi:guide
       position="63,21"
       orientation="1,0"
       id="guide31"
       inkscape:locked="false" /><sodipodi:guide
       position="79,13.220868"
       orientation="1,0"
       id="guide32"
       inkscape:locked="false" /><sodipodi:guide
       position="84,17.736958"
       orientation="1,0"
       id="guide33"
       inkscape:locked="false" /><inkscape:page
       x="84.928959"
       y="0"
       width="0.52935853"
       height="0"
       id="page33" /><sodipodi:guide
       position="100.02028,20.96547"
       orientation="1,0"
       id="guide34"
       inkscape:locked="false" /><sodipodi:guide
       position="105.02028,15.96547"
       orientation="1,0"
       id="guide35"
       inkscape:locked="false" /><sodipodi:guide
       position="2.5,-5"
       orientation="0,-1"
       id="guide36"
       inkscape:locked="false" /><sodipodi:guide
       position="1.3100955,-25.891575"
       orientation="0,-1"
       id="guide37"
       inkscape:locked="false" /><sodipodi:guide
       position="2.5,-46.891575"
       orientation="0,-1"
       id="guide38"
       inkscape:locked="false" /><sodipodi:guide
       position="-2.0181794,-67.903327"
       orientation="0,-1"
       id="guide39"
       inkscape:locked="false" /><inkscape:page
       x="42"
       y="62.891575"
       width="16"
       height="16"
       id="page39"
       margin="0"
       bleed="0"
       inkscape:label="CodePen" /><inkscape:page
       x="63"
       y="62.891575"
       width="16"
       height="16"
       id="page40"
       margin="0"
       bleed="0"
       inkscape:label="Discord" /><inkscape:page
       x="84"
       y="62.891575"
       width="16"
       height="16"
       id="page41"
       margin="0"
       bleed="0"
       inkscape:label="Github" /><inkscape:page
       x="105.02028"
       y="62.891575"
       width="16"
       height="16"
       id="page42"
       margin="0"
       bleed="0"
       inkscape:label="GooglePlay" /><inkscape:page
       x="0"
       y="83.903328"
       width="16"
       height="16"
       id="page43"
       margin="0"
       bleed="0"
       inkscape:label="LinkedIn" /><inkscape:page
       x="21"
       y="83.903328"
       width="16"
       height="16"
       id="page44"
       margin="0"
       bleed="0"
       inkscape:label="Vgen" /><inkscape:page
       x="42"
       y="83.903328"
       width="16"
       height="16"
       id="page45"
       margin="0"
       bleed="0"
       inkscape:label="Telegram" /><sodipodi:guide
       position="0,-88.903328"
       orientation="0,-1"
       id="guide45"
       inkscape:locked="false" /><inkscape:page
       x="126.01481"
       y="0"
       width="16"
       height="16"
       id="page46"
       margin="0"
       bleed="0"
       inkscape:label="Tag" /><inkscape:page
       x="126.01481"
       y="21"
       width="16"
       height="16"
       id="page47"
       margin="0"
       bleed="0"
       inkscape:export-filename="Página 31.svg"
       inkscape:export-xdpi="96"
       inkscape:export-ydpi="96"
       inkscape:label="Interrogation" /><inkscape:page
       x="126.01481"
       y="62.891575"
       width="16"
       height="16"
       id="page48"
       margin="0"
       bleed="0"
       inkscape:label="Pinterest" /><sodipodi:guide
       position="121.02027,13"
       orientation="1,0"
       id="guide48"
       inkscape:locked="false" /><sodipodi:guide
       position="126.01481,17.450463"
       orientation="1,0"
       id="guide49"
       inkscape:locked="false" /><inkscape:page
       x="63"
       y="83.903328"
       width="16"
       height="16"
       id="page49"
       margin="0"
       bleed="0"
       inkscape:label="TikTok" /><inkscape:page
       x="126.01481"
       y="41.891575"
       width="16"
       height="16"
       id="page50"
       margin="0"
       bleed="0"
       inkscape:label="Webtoon" /><inkscape:page
       x="84.020279"
       y="83.903328"
       width="16"
       height="16"
       id="page51"
       margin="0"
       bleed="0"
       inkscape:label="Reddit" /><inkscape:page
       x="105.02027"
       y="83.903328"
       width="16"
       height="16"
       id="page52"
       margin="0"
       bleed="0"
       inkscape:label="PayPal" /><inkscape:page
       x="126.01481"
       y="83.903328"
       width="16"
       height="16"
       id="page53"
       margin="0"
       bleed="0"
       inkscape:label="Youtube" /><sodipodi:guide
       position="1.143132,-41.94648"
       orientation="0,-1"
       id="guide1"
       inkscape:locked="false" /><sodipodi:guide
       position="37,8.0000001"
       orientation="1,0"
       id="guide2"
       inkscape:locked="false" /><sodipodi:guide
       position="58,9e-06"
       orientation="1,0"
       id="guide3"
       inkscape:locked="false" /><sodipodi:guide
       position="4.1025285,0"
       orientation="0,-1"
       id="guide4"
       inkscape:locked="false" /><sodipodi:guide
       position="11.248869,-21.000061"
       orientation="0,-1"
       id="guide5"
       inkscape:locked="false" /><sodipodi:guide
       position="-17.452344,-62.886465"
       orientation="0,-1"
       id="guide6"
       inkscape:locked="false" /><sodipodi:guide
       position="15.996094,16.730469"
       orientation="1,0"
       id="guide7"
       inkscape:locked="false" /><sodipodi:guide
       position="-2.1213203,-83.923027"
       orientation="0,-1"
       id="guide8"
       inkscape:locked="false" /><inkscape:page
       x="101.11627"
       y="116.31907"
       width="0"
       height="0.70710679"
       id="page1" /><inkscape:page
       x="0"
       y="104.90333"
       width="16"
       height="16"
       id="page2"
       margin="0"
       bleed="0"
       inkscape:label="Email" /><inkscape:page
       x="21"
       y="104.90333"
       width="16"
       height="16"
       id="page3"
       margin="0"
       bleed="0"
       inkscape:label="Apple" /><sodipodi:guide
       position="-3.40625,-104.89063"
       orientation="0,-1"
       id="guide9"
       inkscape:locked="false" /></sodipodi:namedview><path
     id="social-youtube"
     d="m 128.14181,83.903328 a 2.13,2.13 0 0 0 -2.127,2.129 v 11.741 a 2.13,2.13 0 0 0 2.127,2.130002 h 11.746 a 2.13,2.13 0 0 0 2.127,-2.129002 v -11.741 a 2.13,2.13 0 0 0 -2.127,-2.13 z m 5.812,3.605 h 0.245 c 0.71,0.003 4.306,0.029 5.275,0.29 a 1.74,1.74 0 0 1 1.22,1.224 c 0.088,0.328 0.149,0.763 0.19,1.211 l 0.01,0.09 0.018,0.225 0.007,0.09 c 0.056,0.788 0.064,1.527 0.065,1.689 v 0.064 c -0.001,0.168 -0.01,0.956 -0.072,1.778 l -0.006,0.091 -0.008,0.09 c -0.043,0.494 -0.108,0.983 -0.203,1.344 a 1.74,1.74 0 0 1 -1.221,1.227 c -1.001,0.269 -4.809,0.288 -5.336,0.289 h -0.123 c -0.267,0 -1.369,-0.006 -2.525,-0.045 l -0.147,-0.004 -0.076,-0.004 -0.147,-0.006 -0.148,-0.006 c -0.958,-0.042 -1.87,-0.11 -2.291,-0.224 a 1.74,1.74 0 0 1 -1.223,-1.227 c -0.095,-0.36 -0.158,-0.85 -0.2,-1.344 l -0.009,-0.092 -0.007,-0.09 a 27,27 0 0 1 -0.07,-1.755 v -0.108 c 0.001,-0.185 0.01,-0.827 0.056,-1.535 l 0.006,-0.088 0.002,-0.045 0.006,-0.09 0.02,-0.224 0.009,-0.09 c 0.041,-0.448 0.102,-0.884 0.19,-1.21 a 1.74,1.74 0 0 1 1.22,-1.225 c 0.42,-0.113 1.333,-0.182 2.291,-0.225 l 0.148,-0.006 0.149,-0.006 0.074,-0.002 0.147,-0.006 a 86,86 0 0 1 2.464,-0.045 m -1.257,2.77 v 4.16 l 3.588,-2.078 z" /><path
     d="m 128.14481,41.891575 a 2.13,2.13 0 0 0 -2.13,2.13 v 11.74 a 2.13,2.13 0 0 0 2.13,2.13 h 11.74 a 2.13,2.13 0 0 0 2.13,-2.13 v -11.74 a 2.13,2.13 0 0 0 -2.13,-2.13 z m 10.53,3.04 -0.37,4.7 h 1.5 l -0.63,4.1 -4.92,2.28 v -1.63 l -4.2,0.52 -1.83,-5.45 h 1.78 l -0.82,-3.06 z m -2.09,3.04 h -0.05 l -1.16,0.1 v 2.11 h 1.34 c 0.57,-0.25 0.57,-0.71 0.34,-0.94 a 0.5,0.5 0 0 0 -0.34,-0.14 0.5,0.5 0 0 0 0.33,-0.15 0.5,0.5 0 0 0 0.15,-0.37 0.6,0.6 0 0 0 -0.6,-0.61 m -1.43,0.1 -1.44,0.1 v 1.94 l 1.44,0.07 v -0.52 l -0.92,-0.01 v -0.24 h 0.81 v -0.56 l -0.8,0.03 v -0.23 l 0.9,-0.05 z m -1.58,0.11 -0.53,0.04 -0.3,1.14 -0.28,-1.1 -0.49,0.04 -0.26,1.05 -0.25,-1.02 -0.51,0.05 0.43,1.68 h 0.57 l 0.25,-0.9 0.27,0.9 h 0.57 z m 2.74,0.31 a 0.2,0.2 0 0 1 0.17,0.17 0.2,0.2 0 0 1 -0.17,0.17 h -0.39 v -0.32 z m 0.06,0.9 a 0.17,0.17 0 0 1 0,0.32 h -0.44 v -0.31 z m -6.17,1.1 v 0.56 h 0.66 v 1.7 l 0.63,-0.03 v -1.63 h 0.6 v -0.57 z m 3.02,0.02 a 1.1,1.1 0 0 0 -1.1,1.08 1.09,1.09 0 0 0 2.18,0 c 0,-0.6 -0.48,-1.08 -1.09,-1.08 m 2.22,0.05 a 0.97,0.97 0 0 0 -0.95,1 c 0,0.54 0.42,0.99 0.95,0.99 0.53,0 0.96,-0.45 0.96,-1 0,-0.55 -0.43,-0.99 -0.96,-0.99 m 1.12,0.05 v 1.81 l 0.57,-0.01 v -0.9 l 0.57,0.87 0.47,-0.03 0.04,-1.71 h -0.55 v 0.88 l -0.58,-0.9 z m -3.3,0.47 c 0.25,0 0.46,0.23 0.46,0.52 0,0.29 -0.2,0.52 -0.47,0.52 -0.27,0 -0.46,-0.23 -0.46,-0.52 0,-0.29 0.2,-0.52 0.46,-0.52 m 2.2,0.01 c 0.23,0 0.42,0.21 0.42,0.47 0,0.26 -0.19,0.47 -0.42,0.47 -0.23,0 -0.41,-0.2 -0.41,-0.47 0,-0.27 0.19,-0.47 0.41,-0.47"
     id="social-webtoon" /><path
     d="m 37,86.03333 v 11.740004 c 0,1.18 -0.95,2.13 -2.13,2.13 H 23.13 a 2.13,2.13 0 0 1 -2.13,-2.13 V 86.03333 c 0,-1.170003 0.95,-2.130003 2.13,-2.130003 h 11.74 c 1.18,0 2.13,0.96 2.13,2.130003 m -9.7,4.4 c -0.43,-0.55 -0.52,-0.7 -0.68,-0.94 a 2.2,2.2 0 0 0 -1.37,-1 c -0.59,-0.11 -1.15,-0.1 -1.82,0.7 -0.42,0.5 -0.64,1.22 -0.57,1.94 0.1,1.04 0.78,2.56 3.08,4.88 a 6,6 0 0 0 2.34,1.650004 c 1.07,0.35 2.37,0.1 3.55,-0.87 1.42,-1.180004 1.94,-2.200004 2.56,-3.140004 0.7,-1.07 1.16,-1.92 1.01,-3.23 -0.17,-1.53 -1.46,-4.57 -4.6,-4.42 a 3,3 0 0 0 -1.88,0.8 c -0.82,0.8 -1.75,2.1 -1.61,3.64 m 1.42,3.49 c 0.26,0.1 1.26,-0.11 1.08,-0.4 -0.63,-0.95 -1.36,-1.24 -1.45,-3.29 -0.04,-1.08 0.6,-1.92 1.18,-2.48 0.36,-0.34 0.98,-0.47 1.3,-0.5 1.75,-0.1 2.91,2.28 2.98,3.14 0.1,1.25 -1.93,3.68 -2.9,4.6 -1.98,1.900004 -3.65,0.07 -4.01,-0.25 a 12,12 0 0 1 -2.76,-3.4 c -0.66,-1.35 0.52,-2.3 1.39,-0.83 0.85,1.43 1.27,1.81 2.17,2.76 0.45,0.47 0.7,0.52 1.02,0.65 m 2.35,-1.69 c 0,0 0.97,-0.98 1,-1.9 0.02,-1.56 -2.11,-1.69 -2.12,-0.05 -0.01,1.13 1.12,1.95 1.12,1.95"
     id="social-vgen" /><path
     d="m 99.999001,86.031337 v 11.744 a 2.13,2.13 0 0 1 -2.128,2.128002 H 86.126 A 2.13,2.13 0 0 1 84,97.775337 v -11.744 a 2.13,2.13 0 0 1 2.126,-2.12801 h 11.745001 a 2.13,2.13 0 0 1 2.128,2.12801 m -2.137,5.763 a 1.34,1.34 0 0 0 -1.328,-1.348 1.3,1.3 0 0 0 -0.9,0.358 c -0.876001,-0.579 -2.050001,-0.953 -3.350001,-1.004 l 0.716,-2.22 1.883,0.45 c 0,0.61 0.491,1.107 1.094001,1.107 0.603,0 1.093,-0.498 1.093,-1.11 0,-0.612 -0.49,-1.108 -1.093,-1.108 -0.452001,0 -0.840001,0.278 -1.007001,0.675 l -2.262,-0.54 -0.885,2.74 c -1.35,0.027 -2.572,0.398 -3.482,0.992 a 1.3,1.3 0 0 0 -0.88,-0.34 1.34,1.34 0 0 0 -1.327,1.348 c 0,0.471 0.242,0.904 0.63,1.146 -0.353,2.119 2.108,3.948 5.209,3.948 3.088,0 5.540001,-1.813 5.214001,-3.921 a 1.34,1.34 0 0 0 0.674,-1.173 m -3.974001,3.234 c -0.394,0.4 -1.013,0.595 -1.89,0.595 -0.878,0 -1.496,-0.195 -1.89,-0.595 a 0.225,0.225 0 0 1 0,-0.314 0.22,0.22 0 0 1 0.31,0 c 0.307,0.312 0.824,0.464 1.58,0.464 0.755,0 1.272,-0.152 1.58,-0.464 a 0.22,0.22 0 0 1 0.31,0 0.225,0.225 0 0 1 0,0.314 m -4.473,-2.333 c 0,-0.452 0.374,-0.832 0.82,-0.832 0.446,0 0.808,0.38 0.808,0.832 0,0.452 -0.362,0.82 -0.808,0.82 a 0.825,0.825 0 0 1 -0.82,-0.82 m 4.36,0.82 a 0.825,0.825 0 0 1 -0.82,-0.82 c 0,-0.454 0.374,-0.832 0.82,-0.832 0.447,0 0.809,0.378 0.809,0.832 0,0.452 -0.361,0.82 -0.808,0.82"
     id="social-reddit" /><path
     d="m 121.02027,86.033327 v 11.74 c 0,1.18 -0.95,2.13 -2.13,2.13 h -11.73999 a 2.13,2.13 0 0 1 -2.13,-2.13 v -11.74 c 0,-1.17 0.95,-2.13 2.13,-2.13 h 11.73999 c 1.18,0 2.13,0.96 2.13,2.13 m -3.9,2.53 c 0.1,-0.84 -0.07,-1.43 -0.55,-1.97 -0.57,-0.65 -1.6,-0.93 -2.9,-0.93 h -3.82999 a 0.55,0.55 0 0 0 -0.54,0.46 l -1.58,10.08 a 0.33,0.33 0 0 0 0.32,0.38 h 2.15 l -0.15,1 -0.01,0.07 c 0,0.27 0.22,0.5 0.49,0.5 h 1.97999 a 0.7,0.7 0 0 0 0.68,-0.58 l 0.02,-0.1 0.37,-2.37 0.02,-0.13 a 0.3,0.3 0 0 1 0.28,-0.24 h 0.3 c 0.98,0 1.88,-0.2 2.6,-0.7 q 0.45,-0.33 0.77,-0.79 a 4,4 0 0 0 0.7,-1.71 c 0.18,-0.97 0.1,-1.84 -0.45,-2.46 a 2,2 0 0 0 -0.6,-0.46 z m -5.85999,3.98 0.25,-0.06 h 1.10999 c 2.2,0 3.92,-0.9 4.42,-3.47 v -0.02 q 0.26,0.14 0.43,0.35 0.63,0.73 0.35,2.1 a 3.4,3.4 0 0 1 -1.3,2.25 q -0.94,0.65 -2.37,0.64 h -0.3 a 0.7,0.7 0 0 0 -0.67,0.57 l -0.02,0.13 -0.37,2.37 -0.02,0.1 a 0.3,0.3 0 0 1 -0.28,0.23 h -1.96999 a 0.1,0.1 0 0 1 -0.08,-0.1 l 0.16,-1.02 z"
     id="social-paypal" /><path
     d="m 131.39481,78.891575 h -3.25 a 2.13,2.13 0 0 1 -2.13,-2.13 v -11.74 c 0,-1.17 0.95,-2.13 2.13,-2.13 h 11.74 c 1.18,0 2.13,0.96 2.13,2.13 v 11.74 c 0,1.18 -0.95,2.13 -2.13,2.13 h -7.83 c 0.95,-0.95 1.35,-2.22 1.67,-3.88 0,0 1.1,0.59 1.99,0.66 3.28,0.25 5.05,-3.44 4.6,-6.64 -0.4,-2.84 -3.27,-4.3 -6.34,-3.95 -2.42,0.27 -4.84,2.2 -4.94,4.96 -0.05,1.2 0.04,2.43 0.91,2.78 0,0 1.09,-0.41 0.77,-1.86 -0.8,-3.6 4.28,-5.76 6.82,-3.22 1.76,1.76 0.74,6.6 -2.1,6.04 -2.72,-0.54 1.18,-4.64 -1,-5.49 -1.76,-0.69 -2.7,2.1 -1.86,3.5 -0.46,2.24 -1.43,4.36 -1.18,7.1"
     id="social-pinterest" /><path
     d="m 121.02028,44.021575 v 11.74 c 0,1.18 -0.95,2.13 -2.13,2.13 h -11.74 a 2.13,2.13 0 0 1 -2.13,-2.13 v -11.74 c 0,-1.17 0.95,-2.13 2.13,-2.13 h 11.74 c 1.18,0 2.13,0.96 2.13,2.13 m -11.14,0.25 h -2.06 v 11.24 h 2.06 z m 5.4,0 a 4.2150005,4.2150005 0 1 0 0,8.43 4.2150005,4.2150005 0 0 0 0,-8.43"
     id="social-patreon" /><path
     d="m 78.999,86.031327 v 11.744 a 2.13,2.13 0 0 1 -2.128,2.128002 H 65.126 A 2.13,2.13 0 0 1 63,97.775327 v -11.744 a 2.13,2.13 0 0 1 2.126,-2.128 h 11.745 a 2.13,2.13 0 0 1 2.128,2.128 m -7.15,-0.936 v 9.36 c 0,1.401 -1.152,2.555 -2.552,2.555 -1.4,0 -2.553,-1.154 -2.553,-2.554 0,-1.4 1.152,-2.553 2.553,-2.553 v -1.702 c -2.335,0 -4.255,1.921 -4.255,4.255 0,2.335 1.92,4.255 4.255,4.255 2.335,0 4.255,-1.92 4.255,-4.255 v -5.811 c 0.79,0.864 1.912,1.556 3.403,1.556 v -1.702 c -1.023,0 -1.79,-0.52 -2.37,-1.266 -0.591,-0.762 -0.928,-1.529 -1.05,-2.138 z"
     id="social-tiktok" /><path
     d="m 58,86.033331 v 11.740001 c 0,1.18 -0.95,2.129996 -2.13,2.129996 H 44.13 A 2.13,2.13 0 0 1 42,97.773332 V 86.033331 c 0,-1.17 0.95,-2.13 2.13,-2.13 h 11.74 c 1.18,0 2.13,0.96 2.13,2.13 m -7.44,2.95 q -1.51,0.72 -6.09,2.97 -0.74,0.34 -0.77,0.66 c -0.04,0.36 0.36,0.5 0.9,0.7 l 0.23,0.08 c 0.53,0.2 1.25,0.42 1.62,0.43 q 0.51,0.01 1.13,-0.47 4.27,-3.27 4.4,-3.3 c 0.07,-0.02 0.16,-0.04 0.22,0.02 0.06,0.06 0.06,0.18 0.05,0.2 -0.04,0.2 -1.6,1.85 -2.4,2.7 l -0.48,0.5 -0.24,0.27 c -0.5,0.55 -0.87,0.95 0.02,1.61 a 92,92 0 0 1 2.33,1.780001 l 0.35,0.28 c 0.43,0.35 0.82,0.66 1.3,0.61 0.28,-0.03 0.57,-0.32 0.72,-1.21 a 168,168 0 0 0 1.18,-8.520001 q 0.01,-0.23 -0.02,-0.47 a 0.5,0.5 0 0 0 -0.15,-0.32 0.6,0.6 0 0 0 -0.4,-0.14 c -0.4,0.01 -1,0.25 -3.9,1.62"
     id="social-telegram" /><path
     d="m 16.000001,86.033327 v 11.74 c 0,1.18 -0.95,2.13 -2.13,2.13 H 2.13 a 2.13,2.13 0 0 1 -2.13,-2.13 v -11.74 c 0,-1.17 0.95,-2.13 2.13,-2.13 h 11.740001 c 1.18,0 2.13,0.96 2.13,2.13 m -11.1200012,4.8 c 0,-0.58 -0.46,-1.04 -1.0299998,-1.04 a 1.03,1.03 0 0 0 -1.03,1.03 v 6.72 c 0,0.57 0.46,1.03 1.03,1.03 a 1.03,1.03 0 0 0 1.0299998,-1.03 z m 2.15,-0.09 c -0.43,0.86 -0.13,6.5 -0.13,6.5 0,0.18 0.17,1 0.99,0.99 h 0.03 c 1.08,0.04 1,-0.9 1,-0.99 l 0.02,-3.32 a 1.84,1.84 0 0 1 3.4400012,-0.68 c 0.7,1.26 0.09,2.8 0.45,4.16 0.27,1 1.72,1.13 2,-0.18 a 10,10 0 0 0 -0.32,-4.53 c -0.8,-2.15 -3.680001,-3 -5.6100012,-1.9 -0.32,-0.85 -1.5,-0.8 -1.87,-0.05 M 3.85,86.093327 c -0.67,-1.17 -1.74,-0.92 -2.3,-0.52 -0.56,0.4 -0.8,1.44 0.04,2.18 0.59,0.52 1.16,0.37 2.26,1.58 0.9599998,-1.1 2.0799998,-1.25 2.4799998,-1.86 0.56,-0.8 0.34,-1.5 -0.22,-1.9 -0.56,-0.4 -1.41,-0.56 -2.2599998,0.52"
     id="social-linkedin" /><path
     d="m 121.02027,65.021575 v 11.740001 c 0,1.18 -0.95,2.13 -2.13,2.13 h -11.73999 a 2.13,2.13 0 0 1 -2.13,-2.13 V 65.021575 c 0,-1.17 0.95,-2.13 2.13,-2.13 h 11.73999 c 1.18,0 2.13,0.96 2.13,2.13 m -5.62,8.76 -2.31,-2.13 -4.96999,4.580001 a 1.18,1.18 0 0 0 1.75,0.8 z m -7.27999,-7.75 4.96999,4.59 2.3,-2.13 -5.51999,-3.26 c -0.72,-0.42 -1.6,0.02 -1.75,0.8 m 9.99999,6.14 c 0.78,-0.46 0.78,-1.62 0,-2.08 l -2.04,-1.2 -2.43,2.24 2.43,2.24 z m -10.01999,3.050001 4.42999,-4.090001 -4.42999,-4.09 z"
     id="social-googleplay" /><path
     d="m 99.999,65.019575 v 11.744 a 2.13,2.13 0 0 1 -2.128,2.128 H 86.126 A 2.13,2.13 0 0 1 84,76.763575 v -11.744 a 2.13,2.13 0 0 1 2.126,-2.128 h 11.745 a 2.13,2.13 0 0 1 2.128,2.128 m -8.457,-0.74 a 6.777,6.777 0 0 0 -6.779,6.779 6.77,6.77 0 0 0 4.635,6.43 c 0.34,0.06 0.466,-0.144 0.466,-0.321 0,-0.161 -0.008,-0.695 -0.008,-1.262 -1.703,0.313 -2.144,-0.416 -2.28,-0.797 -0.076,-0.196 -0.406,-0.796 -0.694,-0.958 -0.238,-0.126 -0.577,-0.44 -0.01,-0.45 0.535,-0.008 0.916,0.493 1.043,0.697 0.61,1.024 1.585,0.736 1.975,0.558 0.059,-0.44 0.237,-0.737 0.432,-0.906 -1.509,-0.17 -3.085,-0.755 -3.085,-3.347 0,-0.738 0.263,-1.348 0.695,-1.822 -0.068,-0.17 -0.305,-0.865 0.068,-1.797 0,0 0.568,-0.178 1.864,0.694 0.543,-0.152 1.119,-0.228 1.695,-0.228 0.576,0 1.152,0.076 1.695,0.228 1.296,-0.88 1.864,-0.694 1.864,-0.694 0.373,0.932 0.136,1.628 0.068,1.797 0.432,0.474 0.695,1.076 0.695,1.822 0,2.6 -1.585,3.177 -3.093,3.347 0.246,0.212 0.457,0.618 0.457,1.254 0,0.907 -0.008,1.635 -0.008,1.864 0,0.177 0.127,0.39 0.466,0.322 a 6.8,6.8 0 0 0 4.618,-6.431 6.777,6.777 0 0 0 -6.779,-6.78"
     id="social-github" /><path
     d="m 79,65.021575 v 11.74 c 0,1.18 -0.95,2.13 -2.13,2.13 H 65.13 a 2.13,2.13 0 0 1 -2.13,-2.13 v -11.74 c 0,-1.17 0.95,-2.13 2.13,-2.13 h 11.74 c 1.18,0 2.13,0.96 2.13,2.13 m -4.14,2.28 a 9,9 0 0 0 -2.3,-0.72 l -0.29,0.61 q -1.27,-0.19 -2.54,0 l -0.3,-0.6 a 9,9 0 0 0 -2.3,0.72 9.6,9.6 0 0 0 -1.65,6.45 c 0.96,0.72 1.9,1.16 2.82,1.44 a 7,7 0 0 0 0.6,-1 6,6 0 0 1 -0.95,-0.45 l 0.23,-0.19 a 6.5,6.5 0 0 0 5.64,0 l 0.23,0.19 a 6,6 0 0 1 -0.95,0.46 7,7 0 0 0 0.6,1 9,9 0 0 0 2.82,-1.45 9.6,9.6 0 0 0 -1.66,-6.46 m -2.01,5.16 c -0.55,0 -1,-0.51 -1,-1.14 0,-0.63 0.44,-1.14 1,-1.14 0.56,0 1,0.51 1,1.14 0,0.63 -0.44,1.14 -1,1.14 m -3.7,0 c -0.55,0 -1,-0.51 -1,-1.14 0,-0.63 0.44,-1.14 1,-1.14 0.56,0 1,0.51 1,1.14 0,0.63 -0.44,1.14 -1,1.14"
     id="social-discord" /><path
     d="m 58,65.021575 v 11.74 c 0,1.18 -0.95,2.13 -2.13,2.13 H 44.13 a 2.13,2.13 0 0 1 -2.13,-2.13 v -11.74 c 0,-1.17 0.95,-2.13 2.13,-2.13 h 11.74 c 1.18,0 2.13,0.96 2.13,2.13 m -7.86,-0.48 a 6.33,6.33 0 1 0 0,12.66 6.33,6.33 0 0 0 0,-12.66 m 0,11.62 a 5.3,5.3 0 1 1 0,-10.6 5.3,5.3 0 0 1 0,10.6 m 3.91,-6.48 c 0.02,-0.11 -0.06,-0.23 -0.15,-0.28 l -3.58,-2.39 a 0.3,0.3 0 0 0 -0.37,0 l -3.58,2.39 a 0.3,0.3 0 0 0 -0.15,0.28 v 2.38 q 0,0.18 0.15,0.28 l 3.58,2.39 a 0.3,0.3 0 0 0 0.37,0 l 3.58,-2.39 a 0.4,0.4 0 0 0 0.15,-0.28 z m -3.91,1.99 -1.2,-0.8 1.2,-0.8 1.19,0.8 z m 0.33,2.15 v -1.57 l 1.46,-0.98 1.18,0.8 z m 0,-5.9 2.64,1.76 -1.18,0.78 -1.46,-0.97 z m -0.67,0 v 1.57 l -1.46,0.97 -1.18,-0.78 z m -2.9,2.39 0.83,0.56 -0.84,0.56 z m 6.48,1.12 -0.84,-0.56 0.84,-0.56 z m -3.58,2.39 -2.64,-1.76 1.18,-0.79 1.46,0.98 z"
     id="social-codepen" /><path
     d="m 37.000005,65.021575 v 11.74 c 0,1.18 -0.95,2.13 -2.13,2.13 h -11.74 A 2.13,2.13 0 0 1 21,76.761575 v -11.74 c 0,-1.18 0.95,-2.13 2.130005,-2.13 h 11.74 c 1.18,0 2.13,0.95 2.13,2.13 m -8,-1.1 a 7,7 0 0 0 -6.750005,6.97 7,7 0 0 0 6.750005,6.97 7,7 0 0 0 6.75,-6.97 7,7 0 0 0 -6.75,-6.98 m 0,0.99 c 3.3,0 6,2.7 6,6 0,3.27 -2.7,5.99 -6,5.99 -3.3,0 -6.000002,-2.7 -6.000002,-6 0,-3.3 2.710002,-6 6.000002,-6 m 3.19,8.66 -0.97,-1.46 c 0,0 -0.98,0.56 -1.6,0.56 a 1.74,1.74 0 0 1 -1.78,-1.73 v -0.03 c 0,-0.95 0.78,-1.73 1.73,-1.73 h 0.02 a 2,2 0 0 1 1.38,0.47 l 1.13,-1.5 c -0.7,-0.61 -1.7,-0.92 -2.75,-0.92 -2.21,0 -4,1.66 -4,3.71 a 3.6,3.6 0 0 0 3.75,3.65 c 1.15,0 2.36,-0.29 3.09,-1.02"
     id="social-cara" /><path
     d="m 15.999999,65.021575 v 11.74 c 0,1.18 -0.95,2.13 -2.129999,2.13 H 2.13 a 2.13,2.13 0 0 1 -2.13,-2.13 v -11.74 c 0,-1.17 0.95,-2.13 2.13,-2.13 h 11.74 c 1.179999,0 2.129999,0.96 2.129999,2.13 m -3.239999,2.97 -0.07,-0.36 c -0.06,-0.32 -0.2,-0.63 -0.54,-0.75 -0.1,-0.03 -0.23,-0.05 -0.3,-0.13 -0.09,-0.07 -0.11,-0.2 -0.13,-0.3 l -0.1,-0.62 q -0.04,-0.27 -0.14,-0.53 c -0.1,-0.22 -0.32,-0.34 -0.54,-0.43 l -0.34,-0.1 q -0.8099999,-0.2 -1.6599999,-0.23 -1,-0.06 -2,0.04 c -0.5,0.04 -1.02,0.1 -1.49,0.27 q -0.27,0.08 -0.48,0.27 a 0.5,0.5 0 0 0 -0.1,0.62 1,1 0 0 0 0.38,0.3 q 0.3,0.15 0.6,0.2 0.89,0.2 1.78,0.2 a 14,14 0 0 0 1.98,-0.06 l 0.4799999,-0.06 c 0.2,-0.03 0.31,-0.28 0.26,-0.45 -0.07,-0.2 -0.25,-0.29 -0.4499999,-0.26 q -0.4,0.06 -0.75,0.08 -0.96,0.07 -1.91,0 l -0.63,-0.05 -0.14,-0.02 -0.39,-0.07 a 0.06,0.06 0 0 1 0,-0.12 l 0.46,-0.08 0.21,-0.02 a 14,14 0 0 1 2.94,0.01 l 0.13,0.02 0.4299999,0.07 c 0.21,0.05 0.48,0.07 0.58,0.3 q 0.04,0.1 0.06,0.23 l 0.17,0.8 a 0.13,0.13 0 0 1 -0.1,0.16 h -0.07 a 20,20 0 0 1 -5.3299999,-0.03 l -0.53,-0.09 a 1,1 0 0 0 -0.6000001,0.09 1,1 0 0 0 -0.37,0.38 c -0.08,0.17 -0.1,0.35 -0.14,0.54 -0.04,0.18 -0.1,0.38 -0.08,0.57 0.05,0.4 0.33,0.74 0.74,0.81 q 3.0600001,0.54 6.14,0.2 h 0.03 a 0.26,0.26 0 0 1 0.26,0.3 l -0.04,0.37 -0.55,5.36 q -0.02,0.34 -0.07,0.66 -0.12,0.52 -0.6399999,0.64 -0.47,0.1 -0.95,0.1 h -1.06 c -0.38,0 -0.84,-0.04 -1.13,-0.32 -0.26,-0.24 -0.3,-0.63 -0.33,-0.97 l -0.4,-3.79 -0.17,-1.67 c -0.02,-0.2 -0.16,-0.38 -0.37,-0.37 -0.18,0 -0.39,0.16 -0.36,0.37 l 0.12,1.18 0.51,4.93 c 0.08,0.73 0.64,1.12 1.33,1.23 q 0.6,0.08 1.22,0.08 c 0.52,0.01 1.05,0.03 1.56,-0.06 0.7599999,-0.14 1.3299999,-0.65 1.4099999,-1.44 l 0.56,-5.4 0.11,-1.14 q 0.04,-0.17 0.22,-0.23 0.33,-0.04 0.58,-0.28 0.36,-0.4 0.2,-0.95 m -0.8,0.42 c -0.07,0.07 -0.2,0.1 -0.3,0.12 a 22,22 0 0 1 -6.7799999,-0.02 q -0.15,0 -0.2500001,-0.1 c -0.12,-0.12 -0.06,-0.38 -0.03,-0.53 0.03,-0.14 0.08,-0.33 0.2500001,-0.35 0.26,-0.03 0.57,0.08 0.83,0.12 l 0.94,0.11 q 2.02,0.18 4.0399999,-0.07 l 0.72,-0.12 c 0.22,-0.04 0.46,-0.11 0.59,0.11 0.09,0.149999 0.1,0.359999 0.09,0.529999 a 0.3,0.3 0 0 1 -0.1,0.2 m -3.3299999,2.08 c -0.46,0.2 -1,0.43 -1.68,0.43 q -0.43,0 -0.85,-0.11 l 0.48,4.86 a 0.8,0.8 0 0 0 0.81,0.75 c 0,0 0.67,0.04 0.9,0.04 l 0.96,-0.04 a 0.8,0.8 0 0 0 0.8099999,-0.75 l 0.51,-5.38 a 2,2 0 0 0 -0.7099999,-0.13 c -0.45,0 -0.81,0.16 -1.23,0.34"
     id="social-buymeacoffee" /><path
     d="m 99.999989,44.021575 v 11.74 c 0,1.18 -0.95,2.13 -2.13,2.13 H 86.129999 A 2.13,2.13 0 0 1 84,55.761575 v -11.74 c 0,-1.17 0.949999,-2.13 2.129999,-2.13 h 11.73999 c 1.18,0 2.13,0.96 2.13,2.13 m -11.71999,0.57 c -1.1,-0.86 -2.9,-1.53 -2.9,0.6 0,0.42 0.24,3.57 0.38,4.08 0.47,1.77 2.21,2.22 3.76,1.95 -2.7,0.48 -3.4,2.06 -1.9,3.65 2.82,3.01 4.04999,-0.75 4.36999,-1.72 q 0.08,-0.28 0.09,-0.19 0,-0.1 0.08,0.19 c 0.32,0.97 1.55,4.73 4.38,1.72 1.48,-1.59 0.8,-3.17 -1.91,-3.65 1.55,0.27 3.29,-0.18 3.77,-1.95 0.13,-0.51 0.37,-3.66 0.37,-4.08 0,-2.13 -1.8,-1.46 -2.9,-0.6 a 16,16 0 0 0 -3.8,4.93 16,16 0 0 0 -3.77999,-4.93"
     id="social-bluesky" /><path
     d="m 78.99999,44.021574 v 11.74 c 0,1.18 -0.95,2.13 -2.13,2.13 h -11.74 A 2.13,2.13 0 0 1 63,55.761574 v -11.74 c 0,-1.169999 0.94999,-2.129999 2.12999,-2.129999 h 11.74 c 1.18,0 2.13,0.96 2.13,2.129999 m -13.55,9.03 -0.1,-0.06 c -0.13,-0.08 -0.34,0.01 -0.16,0.22 0.67,0.8 2.83,2.74 5.66,2.74 a 6.6,6.6 0 0 0 4.73,-1.82 c 0.2,-0.26 0.06,-0.41 -0.15,-0.32 -4.9,2.33 -7.99,0.45 -9.98,-0.76 m 10.15,-0.16 c -0.43,0.05 -1.08,0.31 -1.02,0.47 q 0.01,0.05 0.2,0.02 l 0.18,-0.01 0.07,-0.01 c 0.34,-0.04 1.07,-0.11 1.23,0.1 0.17,0.22 -0.26,1.3 -0.34,1.48 -0.08,0.18 0.03,0.22 0.17,0.1 0.14,-0.12 0.4,-0.41 0.58,-0.84 0.18,-0.43 0.28,-1.02 0.17,-1.16 -0.13,-0.17 -0.81,-0.2 -1.24,-0.15 m -2.3,0 q 0.2,0.1 0.38,-0.04 0.6,-0.54 1.23,-1.06 c 0.13,-0.11 0.1,-0.28 0,-0.43 l -0.1,-0.13 a 2,2 0 0 1 -0.5,-1.35 v -2.74 c 0,-0.96 0,-1.83 -0.7,-2.5 -0.62,-0.6 -1.64,-0.8 -2.42,-0.8 -1.52,0 -3.22,0.57 -3.58,2.45 -0.04,0.2 0.1,0.3 0.24,0.34 l 1.55,0.16 c 0.15,0 0.25,-0.15 0.28,-0.3 0.13,-0.64 0.68,-0.95 1.29,-0.95 0.33,0 0.7,0.12 0.9,0.41 0.2,0.3 0.2,0.7 0.2,1.05 v 0.32 l -0.48,0.05 a 9,9 0 0 0 -2.54,0.5 2.7,2.7 0 0 0 -1.71,2.63 c 0,1.66 1.05,2.5 2.4,2.5 1.14,0 1.76,-0.27 2.64,-1.17 l 0.12,0.18 c 0.21,0.31 0.35,0.51 0.8,0.89 z m -3.61,-2.67 c 0,-1.37 1.22,-1.61 2.38,-1.61 v 0.43 c 0,0.59 0,1.08 -0.3,1.61 -0.26,0.45 -0.66,0.73 -1.11,0.73 -0.61,0 -0.97,-0.47 -0.97,-1.16"
     id="social-amazon" /><path
     d="m 15.99999,107.03133 v 11.744 a 2.13,2.13 0 0 1 -2.128,2.128 H 2.128 A 2.13,2.13 0 0 1 0,118.77533 v -11.744 a 2.13,2.13 0 0 1 2.128,-2.128 h 11.74399 a 2.13,2.13 0 0 1 2.128,2.128 M 5.44,111.94633 h 10e-4 c 0.626,-0.513 1.81699,-0.823 2.55999,0.656 0.944,-1.368 1.88,-1.169 2.506,-0.656 l 0.028,0.023 2.805,-4.318 a 1.4,1.4 0 0 0 -0.508,-0.091 H 3.168 q -0.268,0 -0.506,0.09 z m -0.547,1.117 -3.082,-4.565 c -0.06,0.16 -0.094,0.332 -0.094,0.512 v 7.786 c 0,0.8 0.65,1.45 1.45,1.45 h 9.66499 c 0.8,0 1.45,-0.65 1.45,-1.45 v -7.786 q -0.001,-0.27 -0.092,-0.51 l -3.078,4.56 c 0.032,0.384 -0.072,0.82 -0.359,1.288 -0.438,0.768 -1.683,0.952 -2.751,2.353 -1.222,-1.534 -1.85699,-1.348 -2.50499,-1.998 a 2.02,2.02 0 0 1 -0.605,-1.642"
     id="icon-mail"
     inkscape:label="social-mail" /><path
     d="m 127.19253,0 a 1.1777,1.1777 0 0 0 -1.1777,1.1777 v 5.401 a 1.178,1.178 0 0 0 0.345,0.8326 l 8.244,8.2439 a 1.1777,1.1777 0 0 0 1.6652,0 l 5.401,-5.401 a 1.1777,1.1777 0 0 0 0,-1.6652 l -8.244,-8.244 A 1.178,1.178 0 0 0 132.59353,0 Z m 4.7108,4.122 a 1.7666,1.7666 0 1 1 -3.5331,0 1.7666,1.7666 0 0 1 3.5331,0"
     id="icon-tag" /><path
     d="m 25.44625,31.926301 -2.17,3.75001 c -0.25,0.44 -0.09,1 0.37,1.23 0.46,0.23 1.04,0.09 1.3,-0.35 l 2.11,-3.67 a 6.7,6.7 0 0 0 8.23,-2.58001 6.03,6.03 0 0 0 -2.38,-8.46 6.7,6.7 0 0 0 -8.88,2.27 6,6 0 0 0 1.41,7.8 m 6.52,-8.49 a 4.26,4.26 0 0 1 1.68,5.97 4.73,4.73 0 0 1 -6.28,1.6 4.26,4.26 0 0 1 -1.68,-5.97 4.73,4.73 0 0 1 6.28,-1.6 m -2.3,2.8 c 0.74,-1.07 1.47,-0.92 1.96,-0.52 0.49,0.4 0.69,1.07 0.2,1.86 -0.35,0.6 -1.32,0.74 -2.16,1.83 -0.95,-1.19 -1.45,-1.04 -1.96,-1.55 -0.73,-0.72 -0.53,-1.74 -0.04,-2.14 0.49,-0.4 1.42,-0.64 2,0.51"
     id="icon-search" /><path
     d="m 134.01091,21.000072 c -0.38,0 -0.76,0.22 -0.98,0.64999 l -6.85,13.329999 c -0.46,0.89 0.09,2.02 0.98,2.02 h 13.7 c 0.9,0 1.44,-1.13 0.99,-2.02 l -6.86,-13.329999 a 1.1,1.1 0 0 0 -0.98,-0.64999 m 0.03,5.32999 q 0.84,0 1.5,0.31 0.65,0.32 1,0.85 a 2.1,2.1 0 0 1 0.15,2.049999 q -0.2,0.37 -0.48,0.65 -0.27,0.27 -1,0.91 l -0.32,0.32 a 1,1 0 0 0 -0.27,0.48 l -0.09,0.4 q -0.1,0.6 -0.7,0.61 a 0.7,0.7 0 0 1 -0.51,-0.2 q -0.2,-0.2 -0.2,-0.59 0,-0.5 0.14,-0.85 0.15,-0.36 0.4,-0.63 0.26,-0.27 0.69,-0.65 0.38,-0.33 0.54,-0.5 0.16,-0.17 0.28,-0.37 a 1,1 0 0 0 0.12,-0.44 q 0,-0.479999 -0.36,-0.799999 a 1.3,1.3 0 0 0 -0.9,-0.32 q -0.63,0 -0.94,0.33 -0.3,0.319999 -0.52,0.959999 -0.2,0.66 -0.75,0.66 a 0.8,0.8 0 0 1 -0.56,-0.23 0.7,0.7 0 0 1 -0.22,-0.5 q 0,-0.57 0.36,-1.129999 0.35,-0.57 1.04,-0.95 0.69,-0.37 1.6,-0.37 m -0.14,7.119999 q 0.36,0 0.62,0.25 0.25,0.25 0.25,0.62 0,0.41 -0.26,0.64 a 0.94,0.94 0 0 1 -1.24,0 0.8,0.8 0 0 1 -0.26,-0.64 q 0,-0.37 0.25,-0.62 a 1,1 0 0 1 0.64,-0.25"
     id="icon-question" /><path
     d="m 106.32528,33.269999 a 0.6,0.6 0 0 1 0.60999,-0.62 h 12.17001 a 0.61,0.61 0 0 1 0,1.22 h -12.17001 a 0.6,0.6 0 0 1 -0.59999,-0.6 m 0,-4.879999 a 0.6,0.6 0 0 1 0.59999,-0.6 h 12.17001 a 0.60500005,0.60500005 0 0 1 0,1.21 h -12.17001 a 0.6,0.6 0 0 1 -0.59999,-0.6 m 0,-4.87 a 0.6,0.6 0 0 1 0.59999,-0.61 h 12.17001 a 0.605,0.605 0 0 1 0,1.21 h -12.17001 a 0.6,0.6 0 0 1 -0.59999,-0.6"
     id="icon-menu" /><path
     id="icon-mail-5"
     inkscape:label="social-facebook"
     d="M 23.128906,41.947266 C 21.954101,41.948369 21.0011,42.899414 21,44.074219 v 11.74414 c 0.0011,1.174805 0.954101,2.127807 2.128906,2.128907 H 34.871094 C 36.045899,57.946163 36.9989,56.993164 37,55.818359 v -11.74414 c -0.0011,-1.174805 -0.954101,-2.125853 -2.128906,-2.126953 z m 6.578125,2.1875 c 1.623236,0 2.302735,0.234375 2.302735,0.234375 l -0.320313,1.904297 c 0,-10e-7 -0.534578,-0.154297 -1.035156,-0.154297 -0.500579,0 -0.947266,0.179108 -0.947266,0.679687 v 1.453125 h 2.050781 l -0.142578,1.861328 h -1.908203 v 6.464844 h -2.412109 v -6.464844 h -1.28711 v -1.861328 h 1.28711 v -1.248047 c 0,-0.549178 0.01554,-1.399948 0.414062,-1.929687 0.422819,-0.558899 1.001749,-0.939453 1.998047,-0.939453 z"
     sodipodi:nodetypes="cccccccccsccssccccccccccscs" /><path
     d="m 91.978497,24.95092 c 2.42,-3.697999 4.82,-3.158999 6.428,-1.774 1.608003,1.385 2.240003,3.724 0.633,6.493001 -1.125,2.077999 -4.32,2.575999 -7.061,6.359999 -3.134,-4.146 -4.766,-3.64 -6.42901,-5.396 -2.38999,-2.523 -1.74999,-6.072 -0.142,-7.456999 1.60801,-1.385 4.66201,-2.225001 6.57001,1.773999 m 1.052,4.886001 c 0,0.458999 -0.517,0.796999 -1.12,0.796999 -0.603,0 -1.12,-0.338 -1.12,-0.796999 0,-0.154001 -0.133,-0.28 -0.297,-0.28 -0.164,0 -0.296,0.125999 -0.296,0.28 0,0.731999 0.752,1.357999 1.713,1.357999 0.961,0 1.713,-0.625 1.713,-1.357999 0,-0.154001 -0.132,-0.28 -0.296,-0.28 -0.164,0 -0.297,0.125999 -0.297,0.28 m 2.331,-1.933 c -0.387,0 -0.701,0.133 -0.701,0.296 0,0.162999 0.314,0.296 0.701,0.296 0.387,0 0.702,-0.133 0.702,-0.296 0,-0.163 -0.314,-0.296 -0.702,-0.296 m -1.236,-1.874001 c -0.234,0 -0.424,0.372 -0.424,0.83 0,0.458 0.19,0.83 0.424,0.83 0.235,0 0.425,-0.372 0.425,-0.83 0,-0.458 -0.19,-0.83 -0.425,-0.83 m -5.697,1.874001 c -0.387,0 -0.701,0.133 -0.701,0.296 0,0.162999 0.314,0.296 0.701,0.296 0.387,0 0.702,-0.133 0.702,-0.296 0,-0.163 -0.314,-0.296 -0.702,-0.296 m 1.236,-1.874001 c -0.234,0 -0.424,0.372 -0.424,0.83 0,0.458 0.19,0.83 0.424,0.83 0.234,0 0.425,-0.372 0.425,-0.83 0,-0.458 -0.19,-0.83 -0.426,-0.83"
     id="icon-heartsmile" /><path
     d="m 8.0043486,4.4209995 c 2.4200014,-3.697999 4.8200014,-3.159 6.4280014,-1.773999 1.608,1.384999 2.24,3.723999 0.633,6.492999 C 13.94035,11.218 10.74535,11.716 8.0043486,15.5 c -3.134,-4.146 -4.766,-3.64 -6.42901,-5.396 -2.38998988,-2.5230005 -1.74998988,-6.0720005 -0.142,-7.4569995 1.60801,-1.385001 4.66201,-2.224998 6.57001,1.774"
     id="icon-heart" /><path
     d="M 57.33,24.360002 H 55.9 a 2.08,1.84 0 0 0 0.9,-1.52 c 0,-1 -0.93,-1.84 -2.07,-1.84 a 2.08,1.84 0 0 0 -1.58,0.64 l -1.77,1.71 a 1.6,1.6 0 0 0 -1.1,-0.45 h -0.55 c -0.45,0 -0.84,0.18 -1.1,0.45 l -1.78,-1.71 a 2.08,1.84 0 0 0 -1.55,-0.63 c -1.13,0 -2.07,0.83 -2.07,1.84 a 2.08,1.84 0 0 0 0.88,1.51 h -1.43 c -0.37,0 -0.68,0.27 -0.68,0.6 v 3.26 c 0,0.32 0.27,0.57 0.63,0.59 v 7.599999 c 0,0.32 0.3,0.59 0.68,0.59 h 13.38 c 0.38,0 0.68,-0.26 0.68,-0.6 v -7.599999 c 0.36,0 0.63,-0.27 0.63,-0.58 v -3.26 c 0,-0.34 -0.3,-0.6 -0.68,-0.6 z m -7.33,3.95 c 1.4,-1.93 2.8,-1.65 3.73,-0.93 0.93,0.72 1.3,1.949999 0.36,3.399999 -0.65,1.08 -2.5,1.35 -4.09,3.32 -1.82,-2.16 -2.76,-1.9 -3.72,-2.82 -1.4,-1.32 -1.02,-3.169999 -0.1,-3.899999 0.95,-0.72 2.71,-1.16 3.82,0.93 m -5.34,-5.21 a 0.71,0.63 0 0 1 -0.04,-0.23 c 0,-0.34 0.32,-0.63 0.7,-0.63 h 0.01 q 0.31,0.01 0.52,0.2 l 1.97,1.92 h -0.09 l -2.65,-0.89 a 0.7,0.62 0 0 1 -0.42,-0.37 m 10.69,0 a 0.7,0.7 0 0 1 -0.43,0.37 l -2.66,0.88 h -0.09 l 1.97,-1.9 a 0.7,0.62 0 0 1 0.53,-0.21 c 0.26,0 0.5,0.12 0.62,0.32 q 0.17,0.25 0.06,0.54"
     id="icon-gift" /><path
     d="m 8.977132,42.59548 a 1.13,1.291 0 0 0 -1.96,0 l -6.85399997,13.331 c -0.457,0.889 0.091,2.02 0.97999997,2.02 h 13.71 c 0.89,0 1.438,-1.132 0.98,-2.02 z m -0.98,3.924 c 0.534,0 0.953,0.528 0.9,1.137 l -0.35,4.007 a 0.552,0.63 0 0 1 -1.1,0 l -0.35,-4.006999 a 0.905,1.034 0 0 1 0.9,-1.137 m 0,6.855999 a 1,1.143 0 1 1 0,2.286 1,1.143 0 0 1 0,-2.286"
     id="icon-excalamation" /><path
     d="m 8.000305,21.000043 a 8,8 0 0 0 -5.65999,2.32 8,8 0 0 0 -2.3399899722,5.68 A 7.9,7.9 0 0 0 4.900305,36.380044 q 1.45,0.62 3.1,0.62 a 8,8 0 0 0 5.65,-2.32 q 1.1,-1.1 1.73,-2.54 0.62,-1.45 0.62,-3.140001 a 8,8 0 0 0 -2.35,-5.68 8,8 0 0 0 -5.65,-2.32 m 0,1.45 a 6.5,6.5 0 0 1 6.53,6.55 q 0,1.39 -0.5,2.570001 -0.5,1.18 -1.4,2.08 -0.9,0.9 -2.1,1.4 -1.2,0.5 -2.53,0.5 a 6.4,6.4 0 0 1 -4.6,-1.9 6.6,6.6 0 0 1 -1.42999,-7.220002 6.4,6.4 0 0 1 3.49999,-3.479999 q 1.18,-0.5 2.53,-0.5 m 0.4,1.88 q -1.26,0 -2.36,0.58 -1.1,0.57 -1.78,1.62 -0.68,1.05 -0.68,2.47 0,1.27 0.63,2.330001 a 4.8,4.8 0 0 0 4.18,2.33 q 1.3,0 2.35,-0.6 a 0.7,0.7 0 0 0 0.42,-0.59 q 0.06,-0.4 -0.17,-0.71 -0.19,-0.26 -0.5,-0.3 -0.31,-0.04 -0.59,0.1 a 3,3 0 0 1 -1.5,0.38 q -0.9,0 -1.59,-0.4 -0.69,-0.4 -1.1,-1.060001 -0.41,-0.66 -0.4,-1.48 0,-0.9 0.42,-1.57 a 3,3 0 0 1 1.12,-1.020001 3.4,3.4 0 0 1 3.06,0.02 q 0.27,0.130001 0.58,0.09 0.31,-0.04 0.5,-0.3 a 0.8,0.8 0 0 0 0.18,-0.729999 q -0.08,-0.39 -0.42,-0.57 a 5,5 0 0 0 -2.36,-0.59"
     id="icon-copyright" /><path
     d="m 108.52028,0 a 0.5,0.5 0 0 0 -0.5,0.5 V 1 h -1 a 2,2 0 0 0 -2,2 v 11 a 2,2 0 0 0 2,2.000001 h 11.99999 a 2,2 0 0 0 2,-2.000001 V 3 a 2,2 0 0 0 -2,-2 h -1 V 0.5 a 0.5,0.5 0 0 0 -1,0 V 1 h -7.99999 V 0.5 a 0.5,0.5 0 0 0 -0.5,-0.5 m -1.5,2 h 11.99999 a 1,1 0 0 1 1,1 V 4 H 106.02028 V 3 a 1,1 0 0 1 1,-1 m -1,3 h 13.99999 v 9 a 1,1 0 0 1 -1,1 h -11.99999 a 1,1 0 0 1 -1,-1 z m 5.193,1.502 c -0.517,0.019 -1.005,0.2669999 -1.355,0.5679999 -0.8,0.69 -1.118,2.457 0.072,3.7130001 0.828,0.874 1.64,0.623 3.2,2.686 1.364,-1.884 2.955,-2.132 3.515,-3.166 0.79999,-1.3790001 0.48299,-2.5430001 -0.316,-3.2330001 -0.8,-0.6889999 -1.995,-0.9559999 -3.2,0.885 -0.534,-1.12 -1.25,-1.4769999 -1.916,-1.4529999"
     id="icon-calendar" /><path
     id="icon-buymeacoffee"
     d="m 92.741624,0.32269037 a 17,17 0 0 0 -2.40039,0.0508 c -0.6,0.06 -1.21953,0.0986 -1.76953,0.30859 a 2,2 0 0 0 -0.58985,0.33008003 0.64,0.64 0 0 0 -0.10156,0.7499999 1,1 0 0 0 0.45117,0.38086 3,3 0 0 0 0.69922,0.20898 14,14 0 0 0 2.13086,0.25977 c 0.78667,0.0267 1.56961,-0.003 2.34961,-0.0898 l 0.58008,-0.0801 c 0.21,-0.03 0.35882,-0.3293 0.29882,-0.5293 -0.1,-0.24667 -0.27906,-0.34745 -0.53906,-0.30078 l -0.11914,0.0215 -0.26172,0.0195 c -0.92,0.0933 -1.84596,0.10573 -2.77929,0.0391 l -0.74024,-0.0586 -0.0898,-0.0215 h -0.0801 c -0.17333,-0.02 -0.3307,-0.0498 -0.4707,-0.0898 a 0.065,0.065 0 1 1 0,-0.1289 l 0.40039,-0.0801 0.15039,-0.0195 0.24023,-0.0312 a 16,16 0 0 1 3.2793,0 l 0.24024,0.0312 0.0898,0.0195 h 0.041 l 0.50976,0.0801 c 0.28,0.07 0.59922,0.0698 0.69922,0.33984 l 0.0898,0.28906 v 0.10157 l 0.19141,0.84961 a 0.2,0.2 0 0 1 -0.13086,0.18945 h -0.0801 a 24,24 0 0 1 -5.78906,0.0508 l -0.28125,-0.0703 h -0.0801 l -0.18946,-0.0195 -0.61914,-0.10157 a 1,1 0 0 0 -0.75,0.1211 c -0.18667,0.10667 -0.33164,0.24969 -0.43164,0.42969 l -0.1582,0.64062 c -0.0667,0.24 -0.10156,0.46945 -0.10156,0.68945 a 1.1,1.1 0 0 0 0.90039,1.000001 26,26 0 0 0 6.85937,0.2793 l 0.46094,-0.0488 h 0.0195 a 0.3,0.3 0 0 1 0.32031,0.32032 v 0.0195 l -0.0391,0.4492199 -0.28125,2.68945 -0.38867,3.6718698 a 4,4 0 0 1 -0.0801,0.79883 c -0.0867,0.40667 -0.33667,0.65357 -0.75,0.74024 a 5,5 0 0 1 -1.13086,0.13086 h -1.2793 c -0.45,0 -1.01156,-0.0409 -1.35156,-0.38086 -0.3,-0.3 -0.33891,-0.75016 -0.37891,-1.16016 l -0.16992,-1.58008 -0.28125,-2.9296898 -0.20898,-1.90039 v -0.0996 c -0.02,-0.21 -0.16922,-0.4296799 -0.44922,-0.4296799 -0.21,0 -0.45164,0.1994499 -0.43164,0.4394499 l 0.15039,1.40039 0.30078,2.9296898 0.25977,2.4707 0.0606,0.46875 c 0.09,0.88 0.74859,1.35047 1.55859,1.48047 a 9,9 0 0 0 1.4707,0.0801 c 0.62667,0.0467 1.23985,0.023 1.83985,-0.0703 0.91,-0.16 1.60093,-0.75922 1.71093,-1.69922 l 0.0801,-0.83008 0.21875,-2.68945 0.33985,-2.9511698 0.13086,-1.3496099 a 0.4,0.4 0 0 1 0.25976,-0.26953 c 0.25334,-0.0333 0.48589,-0.14032 0.69922,-0.32032 0.28,-0.326661 0.35094,-0.704191 0.21094,-1.130851 l -0.0606,-0.42969 c -0.09,-0.38 -0.26063,-0.74891 -0.64063,-0.87891 -0.16,-0.0267 -0.28247,-0.0771 -0.36914,-0.15039 -0.1,-0.11333 -0.15039,-0.24086 -0.15039,-0.38086 l -0.1289,-0.73047 c -0.0267,-0.21333 -0.0771,-0.42224 -0.15039,-0.6289 -0.16667,-0.26666993 -0.38063,-0.43333993 -0.64063,-0.49999993 l -0.41992,-0.13086 c -0.65333,-0.15334 -1.30565,-0.24597 -1.95898,-0.2793 z m -4.73633,3.56249993 c 0.27426,-10e-4 0.58523,0.10171 0.86523,0.13671 a 22,22 0 0 0 5.93946,0.041 l 0.85156,-0.13086 c 0.26,-0.04 0.52969,-0.11914 0.67969,0.13086 a 1,1 0 0 1 0.0996,0.64063 0.3,0.3 0 0 1 -0.0996,0.22851 v 0.01 a 0.6,0.6 0 0 1 -0.38086,0.14062 26,26 0 0 1 -4.69922,0.300781 40,40 0 0 1 -3.34961,-0.320311 c -0.1,-0.0133 -0.20078,-0.0463 -0.30078,-0.0996 -0.12,-0.17 -0.0595,-0.47062 -0.0195,-0.64062 0.02,-0.19 0.0788,-0.42969 0.29883,-0.42969 0.0375,-0.005 0.0761,-0.008 0.11523,-0.008 z m 5.7832,2.8789009 a 4,4 0 0 0 -1.48047,0.38086 l 0.0195,0.01 c -0.56,0.25 -1.18023,0.50977 -1.99023,0.50977 a 4,4 0 0 1 -1.01953,-0.12891 l 0.58008,5.7792998 a 0.96,0.96 0 0 0 0.96093,0.90039 l 1.04883,0.0488 c 0.3,0 0.66016,-0.0488 1.16016,-0.0488 a 0.96,0.96 0 0 0 0.96094,-0.90039 l 0.61914,-6.4003898 a 3,3 0 0 0 -0.85938,-0.15039 z m -2.00976,7.6015598 h 0.0293 z" /><path
     d="m 70.96,21.809999 c -1.580001,0 -3.160001,1.05 -3.160001,3.160001 v 0.45 h -3.16 v 9.03 c 0,1 0.8,1.8 1.8,1.8 H 75.47 c 1,0 1.8,-0.8 1.8,-1.8 v -9.03 h -3.15 v -0.45 c 0,-2.100001 -1.58,-3.16 -3.16,-3.16 m 0,0.9 c 1.13,0 2.25,0.76 2.25,2.26 v 0.45 h -4.490001 v -0.45 c 0,-1.5 1.12,-2.26 2.250001,-2.26 m -5.430001,3.61 H 76.37 v 8.129998 c 0,0.5 -0.4,0.9 -0.9,0.9 h -9.020001 a 0.9,0.9 0 0 1 -0.9,-0.9 z m 3.65,1.310001 c -0.49,0.02 -0.95,0.259999 -1.28,0.54 -0.75,0.649999 -1.05,2.31 0.07,3.499999 0.78,0.82 1.54,0.58 3.010001,2.519999 1.29,-1.769999 2.78,-2 3.31,-2.979999 0.75,-1.299999 0.46,-2.39 -0.3,-3.039999 -0.75,-0.65 -1.87,-0.9 -3,0.829999 -0.52,-1.049999 -1.180001,-1.39 -1.810001,-1.369999"
     id="icon-bag" /><path
     d="m 71,0.99998993 c -3.84,0 -7,3.15999997 -7,6.99999987 0,3.8400002 3.16,7.0000012 7,7.0000012 3.84,0 7,-3.160001 7,-7.0000012 C 78,4.1599899 74.84,0.99998993 71,0.99998993 M 71,15.999991 c -4.389,0 -8,-3.611001 -8,-8.0000012 C 63,3.6109899 66.611,0 71,0 c 4.389,0 8,3.6109899 8,7.9999898 0,4.3890002 -3.611,8.0000012 -8,8.0000012 m 0.5,-4.500001 c 0,0.274 -0.226,0.5 -0.5,0.5 a 0.503,0.503 0 0 1 -0.5,-0.5 V 5.7069899 l -2.146,2.1469999 a 0.5006316,0.5006316 0 1 1 -0.708,-0.708 l 3,-2.9999999 a 0.5,0.5 0 0 1 0.708,0 l 3,2.9999999 a 0.5006316,0.5006316 0 1 1 -0.708,0.708 L 71.5,5.7069899 Z"
     id="icon-arrowup" /><path
     d="m 57,7.9999899 c 0,3.8400001 -3.16,7.0000011 -7,7.0000011 -3.84,0 -7,-3.160001 -7,-7.0000011 0,-3.8399999 3.16,-6.99999992 7,-6.99999992 3.84,0 7,3.16000002 7,6.99999992 m -15,0 c 0,4.3890001 3.611,8.0000011 8,8.0000011 4.389,0 8,-3.611001 8,-8.0000011 C 58,3.61099 54.389,0 50,0 45.611,0 42,3.61099 42,7.9999899 m 4.5,-0.5 c -0.274,0 -0.5,0.226 -0.5,0.5 0,0.274 0.226,0.5 0.5,0.5 h 5.793 L 50.146,10.64599 a 0.50063171,0.50063171 0 1 0 0.708,0.708 l 3,-3.0000001 a 0.5,0.5 0 0 0 0,-0.708 l -3,-2.9999999 a 0.5006316,0.5006316 0 1 0 -0.708,0.708 l 2.147,2.1459999 z"
     id="icon-arrowright" /><path
     d="m 21.999999,7.9999999 c 0,3.8400011 3.16,7.0000001 7,7.0000001 C 32.84,15 36,11.840001 36,7.9999999 36,4.16 32.84,1 28.999999,1 c -3.84,0 -7,3.16 -7,6.9999999 m 15.000001,0 C 37,12.389001 33.389,16 28.999999,16 24.610999,16 21.000005,12.389001 21.000005,7.9999999 21.000005,3.611 24.610999,0 28.999999,0 33.389,0 37,3.161 37,7.9999999 m -4.500001,-0.5 c 0.274001,0 0.500001,0.226 0.500001,0.5 0,0.274 -0.226,0.5 -0.500001,0.5 h -5.793 l 2.147,2.1460011 a 0.50063164,0.50063164 0 1 1 -0.708,0.707999 l -3,-3.0000001 a 0.5,0.5 0 0 1 0,-0.708 l 3,-2.9999999 a 0.50063174,0.50063174 0 1 1 0.708,0.708 l -2.147,2.1459999 z"
     id="icon-arrowleft" /><path
     id="path1"
     style="fill:#000000;stroke-width:1.09033"
     d="M 53.001953 43.904297 A 3.2712535 3.2712535 0 0 0 50.576172 44.861328 L 48.583984 46.853516 A 3.2709762 3.2709762 0 0 0 49.486328 52.117188 L 50.332031 51.271484 A 2.1806508 2.1806508 0 0 1 49.353516 47.623047 L 51.345703 45.630859 A 2.1818635 2.1818635 0 1 1 54.431641 48.714844 L 53.566406 49.580078 C 53.688523 50.038014 53.73647 50.511401 53.707031 50.982422 L 55.203125 49.486328 A 3.2712535 3.2712535 0 0 0 53.001953 43.904297 z M 50.763672 47.755859 L 50.125 48.394531 A 1.0903254 1.0903254 0 0 0 49.957031 48.611328 A 2.1806508 2.1806508 0 0 1 50.896484 52.25 L 48.904297 54.244141 A 2.1820873 2.1820873 0 0 1 45.818359 51.158203 L 46.683594 50.294922 A 4.3613016 4.3613016 0 0 1 46.542969 48.892578 L 45.046875 50.388672 A 3.2712533 3.2712533 0 1 0 49.673828 55.013672 L 51.666016 53.019531 A 3.2709762 3.2709762 0 0 0 50.763672 47.755859 z "
     inkscape:label="icon-link" /><path
     d="m 23.1,104.90333 c -1.1,0 -2.1,1 -2.1,2.1 v 11.9 c 0,1 1,2 2.1,2 H 35 c 1.1,0 2.1,-1 2.1,-2.1 v -11.9 c -0.1,-1 -1.1,-2 -2.2,-2 z m 8.2,1.4 q 0,1.2 -0.7,2 -0.7,1 -1.8,1 0,-1.3 0.6,-2 0.8,-0.9 1.9,-1 m -0.2,3 h 0.1 c 0.5,0 1.6,0.2 2.3,1.3 0,0 -1.3,0.8 -1.3,2.4 0,1.8 1.6,2.5 1.6,2.5 0,0 -0.2,0.9 -0.8,1.7 q -0.6,1.4 -2,1.6 c -0.7,0 -1,-0.5 -2,-0.5 -1,0 -1.2,0.5 -2,0.5 q -1.2,-0.2 -2,-1.6 c -1,-1.5 -1.7,-4.3 -0.6,-6.3 a 3,3 0 0 1 2.5,-1.5 c 0.8,0 1.6,0.5 2,0.5 0.5,0 1.4,-0.6 2.3,-0.6"
     id="path1-5"
     inkscape:label="social-apple" /></svg>
