<?xml version="1.0" encoding="UTF-8" standalone="no"?>
<svg
   version="1.1"
   id="svg35"
   sodipodi:docname="sprites.svg"
   inkscape:version="1.4.3 (0d15f75042, 2025-12-25)"
   width="120"
   height="120"
   inkscape:export-filename="sprites.svg"
   inkscape:export-xdpi="96"
   inkscape:export-ydpi="96"
   xmlns:inkscape="http://www.inkscape.org/namespaces/inkscape"
   xmlns:sodipodi="http://sodipodi.sourceforge.net/DTD/sodipodi-0.dtd"
   xmlns="http://www.w3.org/2000/svg"
   xmlns:svg="http://www.w3.org/2000/svg">
  <defs
     id="defs35" />
  <sodipodi:namedview
     id="namedview35"
     pagecolor="#ffffff"
     bordercolor="#000000"
     borderopacity="0.25"
     inkscape:showpageshadow="2"
     inkscape:pageopacity="0.0"
     inkscape:pagecheckerboard="0"
     inkscape:deskcolor="#6b6b6b"
     inkscape:zoom="4.6333333"
     inkscape:cx="53.417266"
     inkscape:cy="45.971223"
     inkscape:window-width="1920"
     inkscape:window-height="1052"
     inkscape:window-x="0"
     inkscape:window-y="0"
     inkscape:window-maximized="1"
     inkscape:current-layer="svg35"
     showborder="false"
     showgrid="true" />
  <path
     id="social-youtube"
     d="m 64.455882,98.488067 a 2.13,2.13 0 0 0 -2.127,2.129003 v 11.741 a 2.13,2.13 0 0 0 2.127,2.13 h 11.746 a 2.13,2.13 0 0 0 2.127,-2.129 v -11.741 a 2.13,2.13 0 0 0 -2.127,-2.130003 z m 5.812,3.605003 h 0.245 c 0.71,0.003 4.306,0.029 5.275,0.29 a 1.74,1.74 0 0 1 1.22,1.224 c 0.088,0.328 0.149,0.763 0.19,1.211 l 0.01,0.09 0.018,0.225 0.007,0.09 c 0.056,0.788 0.064,1.527 0.065,1.689 v 0.064 c -0.001,0.168 -0.01,0.956 -0.072,1.778 l -0.006,0.091 -0.008,0.09 c -0.043,0.494 -0.108,0.983 -0.203,1.344 a 1.74,1.74 0 0 1 -1.221,1.227 c -1.001,0.269 -4.809,0.288 -5.336,0.289 h -0.123 c -0.267,0 -1.369,-0.006 -2.525,-0.045 l -0.147,-0.004 -0.076,-0.004 -0.147,-0.006 -0.148,-0.006 c -0.958,-0.042 -1.87,-0.11 -2.291,-0.224 a 1.74,1.74 0 0 1 -1.223,-1.227 c -0.095,-0.36 -0.158,-0.85 -0.2,-1.344 l -0.009,-0.092 -0.007,-0.09 a 27,27 0 0 1 -0.07,-1.755 v -0.108 c 0.001,-0.185 0.01,-0.827 0.056,-1.535 l 0.006,-0.088 0.002,-0.045 0.006,-0.09 0.02,-0.224 0.009,-0.09 c 0.041,-0.448 0.102,-0.884 0.19,-1.21 a 1.74,1.74 0 0 1 1.22,-1.225 c 0.42,-0.113 1.333,-0.182 2.291,-0.225 l 0.148,-0.006 0.149,-0.006 0.074,-0.002 0.147,-0.006 a 86,86 0 0 1 2.464,-0.045 m -1.257,2.77 v 4.16 l 3.588,-2.078 z" />
  <path
     d="m 45.458216,98.488067 a 2.13,2.13 0 0 0 -2.129994,2.130003 v 11.74 a 2.13,2.13 0 0 0 2.129994,2.13 h 11.74 a 2.13,2.13 0 0 0 2.130002,-2.13 v -11.74 a 2.13,2.13 0 0 0 -2.130002,-2.130003 z m 10.53,3.040003 -0.37,4.7 h 1.5 l -0.63,4.1 -4.92,2.28 v -1.63 l -4.2,0.52 -1.83,-5.45 h 1.78 l -0.82,-3.06 z m -2.09,3.04 h -0.05 l -1.16,0.1 v 2.11 h 1.34 c 0.57,-0.25 0.57,-0.71 0.34,-0.94 a 0.5,0.5 0 0 0 -0.34,-0.14 0.5,0.5 0 0 0 0.33,-0.15 0.5,0.5 0 0 0 0.15,-0.37 0.6,0.6 0 0 0 -0.6,-0.61 m -1.43,0.1 -1.44,0.1 v 1.94 l 1.44,0.07 v -0.52 l -0.92,-0.01 v -0.24 h 0.81 v -0.56 l -0.8,0.03 v -0.23 l 0.9,-0.05 z m -1.58,0.11 -0.53,0.04 -0.3,1.14 -0.28,-1.1 -0.49,0.04 -0.26,1.05 -0.25,-1.02 -0.51,0.05 0.43,1.68 h 0.57 l 0.25,-0.9 0.27,0.9 h 0.57 z m 2.74,0.31 a 0.2,0.2 0 0 1 0.17,0.17 0.2,0.2 0 0 1 -0.17,0.17 h -0.39 v -0.32 z m 0.06,0.9 a 0.17,0.17 0 0 1 0,0.32 h -0.44 v -0.31 z m -6.17,1.1 v 0.56 h 0.66 v 1.7 l 0.63,-0.03 v -1.63 h 0.6 v -0.57 z m 3.02,0.02 a 1.1,1.1 0 0 0 -1.1,1.08 1.09,1.09 0 0 0 2.18,0 c 0,-0.6 -0.48,-1.08 -1.09,-1.08 m 2.22,0.05 a 0.97,0.97 0 0 0 -0.95,1 c 0,0.54 0.42,0.99 0.95,0.99 0.53,0 0.96,-0.45 0.96,-1 0,-0.55 -0.43,-0.99 -0.96,-0.99 m 1.12,0.05 v 1.81 l 0.57,-0.01 v -0.9 l 0.57,0.87 0.47,-0.03 0.04,-1.71 h -0.55 v 0.88 l -0.58,-0.9 z m -3.3,0.47 c 0.25,0 0.46,0.23 0.46,0.52 0,0.29 -0.2,0.52 -0.47,0.52 -0.27,0 -0.46,-0.23 -0.46,-0.52 0,-0.29 0.2,-0.52 0.46,-0.52 m 2.2,0.01 c 0.23,0 0.42,0.21 0.42,0.47 0,0.26 -0.19,0.47 -0.42,0.47 -0.23,0 -0.41,-0.2 -0.41,-0.47 0,-0.27 0.19,-0.47 0.41,-0.47"
     id="social-webtoon" />
  <path
     d="m 40.327558,100.61807 v 11.74 c 0,1.18 -0.95,2.13 -2.13,2.13 h -11.74 a 2.13,2.13 0 0 1 -2.13,-2.13 v -11.74 c 0,-1.170003 0.95,-2.130003 2.13,-2.130003 h 11.74 c 1.18,0 2.13,0.96 2.13,2.130003 m -9.7,4.4 c -0.43,-0.55 -0.52,-0.7 -0.68,-0.94 a 2.2,2.2 0 0 0 -1.37,-1 c -0.59,-0.11 -1.15,-0.1 -1.82,0.7 -0.42,0.5 -0.64,1.22 -0.57,1.94 0.1,1.04 0.78,2.56 3.08,4.88 a 6,6 0 0 0 2.34,1.65 c 1.07,0.35 2.37,0.1 3.55,-0.87 1.42,-1.18 1.94,-2.2 2.56,-3.14 0.7,-1.07 1.16,-1.92 1.01,-3.23 -0.17,-1.53 -1.46,-4.57 -4.6,-4.42 a 3,3 0 0 0 -1.88,0.8 c -0.82,0.8 -1.75,2.1 -1.61,3.64 m 1.42,3.49 c 0.26,0.1 1.26,-0.11 1.08,-0.4 -0.63,-0.95 -1.36,-1.24 -1.45,-3.29 -0.04,-1.08 0.6,-1.92 1.18,-2.48 0.36,-0.34 0.98,-0.47 1.3,-0.5 1.75,-0.1 2.91,2.28 2.98,3.14 0.1,1.25 -1.93,3.68 -2.9,4.6 -1.98,1.9 -3.65,0.07 -4.01,-0.25 a 12,12 0 0 1 -2.76,-3.4 c -0.66,-1.35 0.52,-2.3 1.39,-0.83 0.85,1.43 1.27,1.81 2.17,2.76 0.45,0.47 0.7,0.52 1.02,0.65 m 2.35,-1.69 c 0,0 0.97,-0.98 1,-1.9 0.02,-1.56 -2.11,-1.69 -2.12,-0.05 -0.01,1.13 1.12,1.95 1.12,1.95"
     id="social-vgen" />
  <path
     d="m 21.326396,100.61607 v 11.744 a 2.13,2.13 0 0 1 -2.128,2.128 H 7.4533954 a 2.13,2.13 0 0 1 -2.126,-2.128 v -11.744 a 2.13,2.13 0 0 1 2.126,-2.128004 H 19.198396 a 2.13,2.13 0 0 1 2.128,2.128004 m -2.137,5.763 a 1.34,1.34 0 0 0 -1.328,-1.348 1.3,1.3 0 0 0 -0.9,0.358 c -0.876001,-0.579 -2.050001,-0.953 -3.350001,-1.004 l 0.716,-2.22 1.883,0.45 c 0,0.61 0.491,1.107 1.094001,1.107 0.603,0 1.093,-0.498 1.093,-1.11 0,-0.612 -0.49,-1.108 -1.093,-1.108 -0.452001,0 -0.840001,0.278 -1.007001,0.675 l -2.262,-0.54 -0.885,2.74 c -1.35,0.027 -2.572,0.398 -3.4819996,0.992 a 1.3,1.3 0 0 0 -0.88,-0.34 1.34,1.34 0 0 0 -1.327,1.348 c 0,0.471 0.242,0.904 0.63,1.146 -0.353,2.119 2.1079996,3.948 5.2089996,3.948 3.088,0 5.540001,-1.813 5.214001,-3.921 a 1.34,1.34 0 0 0 0.674,-1.173 m -3.974001,3.234 c -0.394,0.4 -1.013,0.595 -1.89,0.595 -0.878,0 -1.496,-0.195 -1.89,-0.595 a 0.225,0.225 0 0 1 0,-0.314 0.22,0.22 0 0 1 0.31,0 c 0.307,0.312 0.824,0.464 1.58,0.464 0.755,0 1.272,-0.152 1.58,-0.464 a 0.22,0.22 0 0 1 0.31,0 0.225,0.225 0 0 1 0,0.314 m -4.473,-2.333 c 0,-0.452 0.374,-0.832 0.82,-0.832 0.446,0 0.808,0.38 0.808,0.832 0,0.452 -0.362,0.82 -0.808,0.82 a 0.825,0.825 0 0 1 -0.82,-0.82 m 4.36,0.82 a 0.825,0.825 0 0 1 -0.82,-0.82 c 0,-0.454 0.374,-0.832 0.82,-0.832 0.447,0 0.809,0.378 0.809,0.832 0,0.452 -0.361,0.82 -0.808,0.82"
     id="social-reddit" />
  <path
     d="m 116.3302,81.618007 v 11.74 c 0,1.18 -0.95,2.13 -2.13,2.13 h -11.73999 a 2.13,2.13 0 0 1 -2.13,-2.13 v -11.74 c 0,-1.17 0.95,-2.13 2.13,-2.13 h 11.73999 c 1.18,0 2.13,0.96 2.13,2.13 m -3.9,2.53 c 0.1,-0.84 -0.07,-1.43 -0.55,-1.97 -0.57,-0.65 -1.6,-0.93 -2.9,-0.93 h -3.82999 a 0.55,0.55 0 0 0 -0.54,0.46 l -1.58,10.08 a 0.33,0.33 0 0 0 0.32,0.38 h 2.15 l -0.15,1 -0.01,0.07 c 0,0.27 0.22,0.5 0.49,0.5 h 1.97999 a 0.7,0.7 0 0 0 0.68,-0.58 l 0.02,-0.1 0.37,-2.37 0.02,-0.13 a 0.3,0.3 0 0 1 0.28,-0.24 h 0.3 c 0.98,0 1.88,-0.2 2.6,-0.7 q 0.45,-0.33 0.77,-0.79 a 4,4 0 0 0 0.7,-1.71 c 0.18,-0.97 0.1,-1.84 -0.45,-2.46 a 2,2 0 0 0 -0.6,-0.46 z m -5.85999,3.98 0.25,-0.06 h 1.10999 c 2.2,0 3.92,-0.9 4.42,-3.47 v -0.02 q 0.26,0.14 0.43,0.35 0.63,0.73 0.35,2.1 a 3.4,3.4 0 0 1 -1.3,2.25 q -0.94,0.65 -2.37,0.64 h -0.3 a 0.7,0.7 0 0 0 -0.67,0.57 l -0.02,0.13 -0.37,2.37 -0.02,0.1 a 0.3,0.3 0 0 1 -0.28,0.23 h -1.96999 a 0.1,0.1 0 0 1 -0.08,-0.1 l 0.16,-1.02 z"
     id="social-paypal" />
  <path
     d="m 86.709544,95.488007 h -3.25 a 2.13,2.13 0 0 1 -2.13,-2.13 v -11.74 c 0,-1.17 0.95,-2.13 2.13,-2.13 h 11.74 c 1.18,0 2.13,0.96 2.13,2.13 v 11.74 c 0,1.18 -0.95,2.13 -2.13,2.13 h -7.83 c 0.949999,-0.95 1.349999,-2.22 1.67,-3.88 0,0 1.1,0.59 1.99,0.66 3.28,0.25 5.05,-3.44 4.6,-6.64 -0.4,-2.84 -3.27,-4.3 -6.34,-3.95 -2.42,0.27 -4.84,2.2 -4.94,4.96 -0.05,1.2 0.04,2.43 0.91,2.78 0,0 1.09,-0.41 0.77,-1.86 -0.8,-3.6 4.28,-5.76 6.82,-3.22 1.76,1.76 0.74,6.6 -2.1,6.04 -2.720001,-0.54 1.18,-4.64 -1,-5.49 -1.760001,-0.69 -2.7,2.1 -1.860001,3.5 -0.459999,2.24 -1.429999,4.36 -1.179999,7.1"
     id="social-pinterest" />
  <path
     d="m 78.328882,81.618007 v 11.740001 c 0,1.18 -0.95,2.13 -2.13,2.13 h -11.74 a 2.13,2.13 0 0 1 -2.13,-2.13 V 81.618007 c 0,-1.17 0.95,-2.13 2.13,-2.13 h 11.74 c 1.18,0 2.13,0.96 2.13,2.13 m -11.14,0.25 h -2.06 v 11.240001 h 2.06 z m 5.4,0 a 4.2150005,4.2150005 0 1 0 0,8.43 4.2150005,4.2150005 0 0 0 0,-8.43"
     id="social-patreon" />
  <path
     d="m 59.327722,81.616007 v 11.744 a 2.13,2.13 0 0 1 -2.128,2.128 h -11.745 a 2.13,2.13 0 0 1 -2.126005,-2.128 v -11.744 a 2.13,2.13 0 0 1 2.126005,-2.128 h 11.745 a 2.13,2.13 0 0 1 2.128,2.128 m -7.15,-0.936 v 9.36 c 0,1.401 -1.152,2.555 -2.552,2.555 -1.4,0 -2.553,-1.154 -2.553,-2.554 0,-1.4 1.152,-2.553 2.553,-2.553 v -1.702 c -2.335,0 -4.255002,1.921 -4.255002,4.255 0,2.335 1.920002,4.255 4.255002,4.255 2.335,0 4.255,-1.92 4.255,-4.255 v -5.811 c 0.79,0.864 1.912,1.556 3.403,1.556 v -1.702 c -1.023,0 -1.79,-0.52 -2.37,-1.266 -0.591,-0.762 -0.928,-1.529 -1.05,-2.138 z"
     id="social-tiktok" />
  <path
     d="m 40.327558,81.618007 v 11.740001 c 0,1.18 -0.95,2.13 -2.13,2.13 h -11.74 a 2.13,2.13 0 0 1 -2.13,-2.13 V 81.618007 c 0,-1.17 0.95,-2.13 2.13,-2.13 h 11.74 c 1.18,0 2.13,0.96 2.13,2.13 m -7.44,2.95 q -1.51,0.72 -6.09,2.97 -0.74,0.34 -0.77,0.66 c -0.04,0.36 0.36,0.5 0.9,0.7 l 0.23,0.08 c 0.53,0.2 1.25,0.42 1.62,0.43 q 0.51,0.01 1.13,-0.47 4.27,-3.27 4.4,-3.3 c 0.07,-0.02 0.16,-0.04 0.22,0.02 0.06,0.06 0.06,0.18 0.05,0.2 -0.04,0.2 -1.6,1.85 -2.4,2.7 l -0.48,0.5 -0.24,0.27 c -0.5,0.55 -0.87,0.95 0.02,1.61 a 92,92 0 0 1 2.33,1.780001 l 0.35,0.28 c 0.43,0.35 0.82,0.66 1.3,0.61 0.28,-0.03 0.57,-0.32 0.72,-1.21 a 168,168 0 0 0 1.18,-8.520001 q 0.01,-0.23 -0.02,-0.47 a 0.5,0.5 0 0 0 -0.15,-0.32 0.6,0.6 0 0 0 -0.4,-0.14 c -0.4,0.01 -1,0.25 -3.9,1.62"
     id="social-telegram" />
  <path
     d="m 21.326896,81.618007 v 11.74 c 0,1.18 -0.95,2.13 -2.13,2.13 H 7.4568954 a 2.13,2.13 0 0 1 -2.13,-2.13 v -11.74 c 0,-1.17 0.95,-2.13 2.13,-2.13 H 19.196896 c 1.18,0 2.13,0.96 2.13,2.13 m -11.120001,4.8 c 0,-0.58 -0.4599996,-1.04 -1.0299996,-1.04 a 1.03,1.03 0 0 0 -1.03,1.03 v 6.72 c 0,0.57 0.46,1.03 1.03,1.03 a 1.03,1.03 0 0 0 1.0299996,-1.03 z m 2.15,-0.09 c -0.43,0.86 -0.13,6.5 -0.13,6.5 0,0.18 0.17,1 0.99,0.99 h 0.03 c 1.08,0.04 1,-0.9 1,-0.99 l 0.02,-3.32 a 1.84,1.84 0 0 1 3.440001,-0.68 c 0.7,1.26 0.09,2.8 0.45,4.16 0.27,1 1.72,1.13 2,-0.18 a 10,10 0 0 0 -0.32,-4.53 c -0.8,-2.15 -3.680001,-3 -5.610001,-1.9 -0.32,-0.85 -1.5,-0.8 -1.87,-0.05 m -3.1799996,-4.65 c -0.67,-1.17 -1.74,-0.92 -2.3,-0.52 -0.56,0.4 -0.8,1.44 0.04,2.18 0.59,0.52 1.16,0.37 2.26,1.58 0.9599996,-1.1 2.0799996,-1.25 2.4799996,-1.86 0.56,-0.8 0.34,-1.5 -0.22,-1.9 -0.56,-0.4 -1.41,-0.56 -2.2599996,0.52"
     id="social-linkedin" />
  <path
     d="m 116.3302,62.617947 v 11.740001 c 0,1.18 -0.95,2.13 -2.13,2.13 h -11.73999 a 2.13,2.13 0 0 1 -2.13,-2.13 V 62.617947 c 0,-1.17 0.95,-2.13 2.13,-2.13 h 11.73999 c 1.18,0 2.13,0.96 2.13,2.13 m -5.62,8.76 -2.31,-2.13 -4.96999,4.580001 a 1.18,1.18 0 0 0 1.75,0.8 z m -7.27999,-7.75 4.96999,4.59 2.3,-2.13 -5.51999,-3.26 c -0.72,-0.42 -1.6,0.02 -1.75,0.8 m 9.99999,6.14 c 0.78,-0.46 0.78,-1.62 0,-2.08 l -2.04,-1.2 -2.43,2.24 2.43,2.24 z m -10.01999,3.050001 4.42999,-4.090001 -4.42999,-4.09 z"
     id="social-googleplay" />
  <path
     d="m 97.329044,62.615947 v 11.744 a 2.13,2.13 0 0 1 -2.128,2.128 h -11.745 a 2.13,2.13 0 0 1 -2.126,-2.128 v -11.744 a 2.13,2.13 0 0 1 2.126,-2.128 h 11.745 a 2.13,2.13 0 0 1 2.128,2.128 m -8.457,-0.74 a 6.777,6.777 0 0 0 -6.779,6.779 6.77,6.77 0 0 0 4.635,6.43 c 0.34,0.06 0.466,-0.144 0.466,-0.321 0,-0.161 -0.008,-0.695 -0.008,-1.262 -1.703,0.313 -2.144,-0.416 -2.28,-0.797 -0.076,-0.196 -0.406,-0.796 -0.694,-0.958 -0.238,-0.126 -0.577,-0.44 -0.01,-0.45 0.535,-0.008 0.916,0.493 1.043,0.697 0.61,1.024 1.585,0.736 1.975,0.558 0.059,-0.44 0.237,-0.737 0.432,-0.906 -1.509,-0.17 -3.085,-0.755 -3.085,-3.347 0,-0.738 0.263,-1.348 0.695,-1.822 -0.068,-0.17 -0.305,-0.865 0.068,-1.797 0,0 0.568,-0.178 1.864,0.694 0.543,-0.152 1.119,-0.228 1.695,-0.228 0.576,0 1.152,0.076 1.695,0.228 1.296,-0.88 1.864,-0.694 1.864,-0.694 0.373,0.932 0.136,1.628 0.068,1.797 0.432,0.474 0.695,1.076 0.695,1.822 0,2.6 -1.585,3.177 -3.093,3.347 0.246,0.212 0.457,0.618 0.457,1.254 0,0.907 -0.008,1.635 -0.008,1.864 0,0.177 0.127,0.39 0.466,0.322 a 6.8,6.8 0 0 0 4.618,-6.431 6.777,6.777 0 0 0 -6.779,-6.78"
     id="social-github" />
  <path
     d="m 78.328882,62.617947 v 11.74 c 0,1.18 -0.95,2.13 -2.13,2.13 h -11.74 a 2.13,2.13 0 0 1 -2.13,-2.13 v -11.74 c 0,-1.17 0.95,-2.13 2.13,-2.13 h 11.74 c 1.18,0 2.13,0.96 2.13,2.13 m -4.14,2.28 a 9,9 0 0 0 -2.3,-0.72 l -0.29,0.61 q -1.27,-0.19 -2.54,0 l -0.3,-0.6 a 9,9 0 0 0 -2.3,0.72 9.6,9.6 0 0 0 -1.65,6.45 c 0.96,0.72 1.9,1.16 2.82,1.44 a 7,7 0 0 0 0.6,-1 6,6 0 0 1 -0.95,-0.45 l 0.23,-0.19 a 6.5,6.5 0 0 0 5.64,0 l 0.23,0.19 a 6,6 0 0 1 -0.95,0.46 7,7 0 0 0 0.6,1 9,9 0 0 0 2.82,-1.45 9.6,9.6 0 0 0 -1.66,-6.46 m -2.01,5.16 c -0.55,0 -1,-0.51 -1,-1.14 0,-0.63 0.44,-1.14 1,-1.14 0.56,0 1,0.51 1,1.14 0,0.63 -0.44,1.14 -1,1.14 m -3.7,0 c -0.55,0 -1,-0.51 -1,-1.14 0,-0.63 0.44,-1.14 1,-1.14 0.56,0 1,0.51 1,1.14 0,0.63 -0.44,1.14 -1,1.14"
     id="social-discord" />
  <path
     d="m 59.32822,62.617947 v 11.74 c 0,1.18 -0.95,2.13 -2.13,2.13 h -11.74 a 2.13,2.13 0 0 1 -2.13,-2.13 v -11.74 c 0,-1.17 0.95,-2.13 2.13,-2.13 h 11.74 c 1.18,0 2.13,0.96 2.13,2.13 m -7.86,-0.48 a 6.33,6.33 0 1 0 0,12.66 6.33,6.33 0 0 0 0,-12.66 m 0,11.62 a 5.3,5.3 0 1 1 0,-10.6 5.3,5.3 0 0 1 0,10.6 m 3.91,-6.48 c 0.02,-0.11 -0.06,-0.23 -0.15,-0.28 l -3.58,-2.39 a 0.3,0.3 0 0 0 -0.37,0 l -3.58,2.39 a 0.3,0.3 0 0 0 -0.15,0.28 v 2.38 q 0,0.18 0.15,0.28 l 3.58,2.39 a 0.3,0.3 0 0 0 0.37,0 l 3.58,-2.39 a 0.4,0.4 0 0 0 0.15,-0.28 z m -3.91,1.99 -1.2,-0.8 1.2,-0.8 1.19,0.8 z m 0.33,2.15 v -1.57 l 1.46,-0.98 1.18,0.8 z m 0,-5.9 2.64,1.76 -1.18,0.78 -1.46,-0.97 z m -0.67,0 v 1.57 l -1.46,0.97 -1.18,-0.78 z m -2.9,2.39 0.83,0.56 -0.84,0.56 z m 6.48,1.12 -0.84,-0.56 0.84,-0.56 z m -3.58,2.39 -2.64,-1.76 1.18,-0.79 1.46,0.98 z"
     id="social-codepen" />
  <path
     d="m 40.32756,62.617947 v 11.74 c 0,1.18 -0.95,2.13 -2.13,2.13 h -11.74 a 2.13,2.13 0 0 1 -2.130005,-2.13 v -11.74 c 0,-1.18 0.95,-2.13 2.130005,-2.13 h 11.74 c 1.18,0 2.13,0.95 2.13,2.13 m -8,-1.1 a 7,7 0 0 0 -6.750005,6.97 7,7 0 0 0 6.750005,6.97 7,7 0 0 0 6.75,-6.97 7,7 0 0 0 -6.75,-6.98 m 0,0.99 c 3.3,0 6,2.7 6,6 0,3.27 -2.7,5.99 -6,5.99 -3.3,0 -6.000002,-2.7 -6.000002,-6 0,-3.3 2.710002,-6 6.000002,-6 m 3.19,8.66 -0.97,-1.46 c 0,0 -0.98,0.56 -1.6,0.56 a 1.74,1.74 0 0 1 -1.78,-1.73 v -0.03 c 0,-0.95 0.78,-1.73 1.73,-1.73 h 0.02 a 2,2 0 0 1 1.38,0.47 l 1.13,-1.5 c -0.7,-0.61 -1.7,-0.92 -2.75,-0.92 -2.21,0 -4,1.66 -4,3.71 a 3.6,3.6 0 0 0 3.75,3.65 c 1.15,0 2.36,-0.29 3.09,-1.02"
     id="social-cara" />
  <path
     d="m 21.326895,62.617947 v 11.74 c 0,1.18 -0.95,2.13 -2.129999,2.13 H 7.4568959 a 2.13,2.13 0 0 1 -2.13,-2.13 v -11.74 c 0,-1.17 0.95,-2.13 2.13,-2.13 H 19.196896 c 1.179999,0 2.129999,0.96 2.129999,2.13 m -3.239999,2.97 -0.07,-0.36 c -0.06,-0.32 -0.2,-0.63 -0.54,-0.75 -0.1,-0.03 -0.23,-0.05 -0.3,-0.13 -0.09,-0.07 -0.11,-0.2 -0.13,-0.3 l -0.1,-0.62 q -0.04,-0.27 -0.14,-0.53 c -0.1,-0.22 -0.32,-0.34 -0.54,-0.43 l -0.34,-0.1 q -0.81,-0.2 -1.66,-0.23 -1,-0.06 -2,0.04 c -0.5,0.04 -1.02,0.1 -1.49,0.27 q -0.27,0.08 -0.48,0.27 a 0.5,0.5 0 0 0 -0.1,0.62 1,1 0 0 0 0.38,0.3 q 0.3,0.15 0.6,0.2 0.89,0.2 1.78,0.2 a 14,14 0 0 0 1.98,-0.06 l 0.48,-0.06 c 0.2,-0.03 0.31,-0.28 0.26,-0.45 -0.07,-0.2 -0.25,-0.29 -0.45,-0.26 q -0.4,0.06 -0.75,0.08 -0.96,0.07 -1.91,0 l -0.63,-0.05 -0.14,-0.02 -0.39,-0.07 a 0.06,0.06 0 0 1 0,-0.12 l 0.46,-0.08 0.21,-0.02 a 14,14 0 0 1 2.94,0.01 l 0.13,0.02 0.43,0.07 c 0.21,0.05 0.48,0.07 0.58,0.3 q 0.04,0.1 0.06,0.23 l 0.17,0.8 a 0.13,0.13 0 0 1 -0.1,0.16 h -0.07 a 20,20 0 0 1 -5.33,-0.03 l -0.53,-0.09 a 1,1 0 0 0 -0.6000001,0.09 1,1 0 0 0 -0.37,0.38 c -0.08,0.17 -0.1,0.35 -0.14,0.54 -0.04,0.18 -0.1,0.38 -0.08,0.57 0.05,0.4 0.33,0.74 0.74,0.81 q 3.0600001,0.54 6.1400001,0.2 h 0.03 a 0.26,0.26 0 0 1 0.26,0.3 l -0.04,0.37 -0.55,5.36 q -0.02,0.34 -0.07,0.66 -0.12,0.52 -0.64,0.64 -0.47,0.1 -0.95,0.1 h -1.06 c -0.38,0 -0.84,-0.04 -1.13,-0.32 -0.26,-0.24 -0.3,-0.63 -0.33,-0.97 l -0.4,-3.79 -0.17,-1.67 c -0.02,-0.2 -0.16,-0.38 -0.37,-0.37 -0.18,0 -0.39,0.16 -0.36,0.37 l 0.12,1.18 0.51,4.93 c 0.08,0.73 0.64,1.12 1.33,1.23 q 0.6,0.08 1.22,0.08 c 0.52,0.01 1.05,0.03 1.56,-0.06 0.76,-0.14 1.33,-0.65 1.41,-1.44 l 0.56,-5.4 0.11,-1.14 q 0.04,-0.17 0.22,-0.23 0.33,-0.04 0.58,-0.28 0.36,-0.4 0.2,-0.95 m -0.8,0.42 c -0.07,0.07 -0.2,0.1 -0.3,0.12 a 22,22 0 0 1 -6.78,-0.02 q -0.15,0 -0.2500001,-0.1 c -0.12,-0.12 -0.06,-0.38 -0.03,-0.53 0.03,-0.14 0.08,-0.33 0.2500001,-0.35 0.26,-0.03 0.57,0.08 0.83,0.12 l 0.94,0.11 q 2.02,0.18 4.04,-0.07 l 0.72,-0.12 c 0.22,-0.04 0.46,-0.11 0.59,0.11 0.09,0.149999 0.1,0.359999 0.09,0.529999 a 0.3,0.3 0 0 1 -0.1,0.2 m -3.33,2.08 c -0.46,0.2 -1,0.43 -1.68,0.43 q -0.43,0 -0.85,-0.11 l 0.48,4.86 a 0.8,0.8 0 0 0 0.81,0.75 c 0,0 0.67,0.04 0.9,0.04 l 0.96,-0.04 a 0.8,0.8 0 0 0 0.81,-0.75 l 0.51,-5.38 a 2,2 0 0 0 -0.71,-0.13 c -0.45,0 -0.81,0.16 -1.23,0.34"
     id="social-buymeacoffee" />
  <path
     d="m 116.3302,43.617887 v 11.74 c 0,1.18 -0.95,2.13 -2.13,2.13 h -11.73999 a 2.13,2.13 0 0 1 -2.13,-2.13 v -11.74 c 0,-1.17 0.95,-2.13 2.13,-2.13 h 11.73999 c 1.18,0 2.13,0.96 2.13,2.13 m -11.71999,0.57 c -1.1,-0.86 -2.9,-1.53 -2.9,0.6 0,0.42 0.24,3.57 0.38,4.08 0.47,1.77 2.21,2.22 3.76,1.95 -2.7,0.48 -3.4,2.06 -1.9,3.65 2.82,3.01 4.04999,-0.75 4.36999,-1.72 q 0.08,-0.28 0.09,-0.19 0,-0.1 0.08,0.19 c 0.32,0.97 1.55,4.73 4.38,1.72 1.48,-1.59 0.8,-3.17 -1.91,-3.65 1.55,0.27 3.29,-0.18 3.77,-1.95 0.13,-0.51 0.37,-3.66 0.37,-4.08 0,-2.13 -1.8,-1.46 -2.9,-0.6 a 16,16 0 0 0 -3.8,4.93 16,16 0 0 0 -3.77999,-4.93"
     id="social-bluesky" />
  <path
     d="m 97.329541,43.617887 v 11.74 c 0,1.18 -0.95,2.13 -2.13,2.13 h -11.74 a 2.13,2.13 0 0 1 -2.129994,-2.13 v -11.74 c 0,-1.169999 0.949994,-2.129999 2.129994,-2.129999 h 11.74 c 1.18,0 2.13,0.96 2.13,2.129999 m -13.55,9.03 -0.1,-0.06 c -0.13,-0.08 -0.34,0.01 -0.16,0.22 0.67,0.8 2.83,2.74 5.66,2.74 a 6.6,6.6 0 0 0 4.73,-1.82 c 0.2,-0.26 0.06,-0.41 -0.15,-0.32 -4.9,2.33 -7.99,0.45 -9.98,-0.76 m 10.15,-0.16 c -0.43,0.05 -1.08,0.31 -1.02,0.47 q 0.01,0.05 0.2,0.02 l 0.18,-0.01 0.07,-0.01 c 0.34,-0.04 1.07,-0.11 1.23,0.1 0.17,0.22 -0.26,1.3 -0.34,1.48 -0.08,0.18 0.03,0.22 0.17,0.1 0.14,-0.12 0.4,-0.41 0.58,-0.84 0.18,-0.43 0.28,-1.02 0.17,-1.16 -0.13,-0.17 -0.81,-0.2 -1.24,-0.15 m -2.3,0 q 0.2,0.1 0.38,-0.04 0.6,-0.54 1.23,-1.06 c 0.13,-0.11 0.1,-0.28 0,-0.43 l -0.1,-0.13 a 2,2 0 0 1 -0.5,-1.35 v -2.74 c 0,-0.96 0,-1.83 -0.7,-2.5 -0.62,-0.6 -1.64,-0.8 -2.42,-0.8 -1.52,0 -3.22,0.57 -3.58,2.45 -0.04,0.2 0.1,0.3 0.24,0.34 l 1.55,0.16 c 0.15,0 0.25,-0.15 0.28,-0.3 0.13,-0.64 0.68,-0.95 1.29,-0.95 0.33,0 0.7,0.12 0.9,0.41 0.2,0.3 0.2,0.7 0.2,1.05 v 0.32 l -0.48,0.05 a 9,9 0 0 0 -2.54,0.5 2.7,2.7 0 0 0 -1.71,2.63 c 0,1.66 1.05,2.5 2.4,2.5 1.14,0 1.76,-0.27 2.64,-1.17 l 0.12,0.18 c 0.21,0.31 0.35,0.51 0.8,0.89 z m -3.61,-2.67 c 0,-1.37 1.22,-1.61 2.38,-1.61 v 0.43 c 0,0.59 0,1.08 -0.3,1.61 -0.26,0.45 -0.66,0.73 -1.11,0.73 -0.61,0 -0.97,-0.47 -0.97,-1.16"
     id="social-amazon" />
  <path
     d="m 63.506592,41.487897 a 1.1777,1.1777 0 0 0 -1.1777,1.1777 v 5.401 a 1.178,1.178 0 0 0 0.345,0.8326 l 8.244,8.2439 a 1.1777,1.1777 0 0 0 1.6652,0 l 5.401,-5.401 a 1.1777,1.1777 0 0 0 0,-1.6652 l -8.244,-8.244 a 1.178,1.178 0 0 0 -0.8325,-0.345 z m 4.7108,4.122 a 1.7666,1.7666 0 1 1 -3.5331,0 1.7666,1.7666 0 0 1 3.5331,0"
     id="icon-tag" />
  <path
     d="m 47.119592,52.398026 -2.17,3.75001 c -0.25,0.44 -0.09,1 0.37,1.23 0.46,0.23 1.04,0.09 1.3,-0.35 l 2.11,-3.67 a 6.7,6.7 0 0 0 8.23,-2.58001 6.03,6.03 0 0 0 -2.38,-8.46 6.7,6.7 0 0 0 -8.88,2.27 6,6 0 0 0 1.41,7.8 m 6.52,-8.49 a 4.26,4.26 0 0 1 1.68,5.97 4.73,4.73 0 0 1 -6.28,1.6 4.26,4.26 0 0 1 -1.68,-5.97 4.73,4.73 0 0 1 6.28,-1.6 m -2.3,2.8 c 0.74,-1.07 1.47,-0.92 1.96,-0.52 0.49,0.4 0.69,1.07 0.2,1.86 -0.35,0.6 -1.32,0.74 -2.16,1.83 -0.95,-1.19 -1.45,-1.04 -1.96,-1.55 -0.73,-0.72 -0.53,-1.74 -0.04,-2.14 0.49,-0.4 1.42,-0.64 2,0.51"
     id="icon-search" />
  <path
     d="m 32.324735,41.487893 c -0.38,0 -0.76,0.22 -0.98,0.64999 l -6.85,13.329999 c -0.46,0.89 0.09,2.02 0.98,2.02 h 13.7 c 0.9,0 1.44,-1.13 0.99,-2.02 l -6.86,-13.329999 a 1.1,1.1 0 0 0 -0.98,-0.64999 m 0.03,5.32999 q 0.84,0 1.5,0.31 0.65,0.32 1,0.85 a 2.1,2.1 0 0 1 0.15,2.049999 q -0.2,0.37 -0.48,0.65 -0.27,0.27 -1,0.91 l -0.32,0.32 a 1,1 0 0 0 -0.27,0.48 l -0.09,0.4 q -0.1,0.6 -0.7,0.61 a 0.7,0.7 0 0 1 -0.51,-0.2 q -0.2,-0.2 -0.2,-0.59 0,-0.5 0.14,-0.85 0.15,-0.36 0.4,-0.63 0.26,-0.27 0.69,-0.65 0.38,-0.33 0.54,-0.5 0.16,-0.17 0.28,-0.37 a 1,1 0 0 0 0.12,-0.44 q 0,-0.479999 -0.36,-0.799999 a 1.3,1.3 0 0 0 -0.9,-0.32 q -0.63,0 -0.94,0.33 -0.3,0.319999 -0.52,0.959999 -0.2,0.66 -0.75,0.66 a 0.8,0.8 0 0 1 -0.56,-0.23 0.7,0.7 0 0 1 -0.22,-0.5 q 0,-0.57 0.36,-1.129999 0.35,-0.57 1.04,-0.95 0.69,-0.37 1.6,-0.37 m -0.14,7.119999 q 0.36,0 0.62,0.25 0.25,0.25 0.25,0.62 0,0.41 -0.26,0.64 a 0.94,0.94 0 0 1 -1.24,0 0.8,0.8 0 0 1 -0.26,-0.64 q 0,-0.37 0.25,-0.62 a 1,1 0 0 1 0.64,-0.25"
     id="icon-question" />
  <path
     d="m 6.6320636,54.362887 a 0.6,0.6 0 0 1 0.60999,-0.62 H 19.412064 a 0.61,0.61 0 0 1 0,1.22 H 7.2420536 a 0.6,0.6 0 0 1 -0.59999,-0.6 m 0,-4.879999 a 0.6,0.6 0 0 1 0.59999,-0.6 H 19.412064 a 0.60500005,0.60500005 0 0 1 0,1.21 H 7.2420536 a 0.6,0.6 0 0 1 -0.59999,-0.6 m 0,-4.87 a 0.6,0.6 0 0 1 0.59999,-0.61 H 19.412064 a 0.605,0.605 0 0 1 0,1.21 H 7.2420536 a 0.6,0.6 0 0 1 -0.59999,-0.6"
     id="icon-menu" />
  <path
     d="m 116.3302,24.615828 v 11.744 a 2.13,2.13 0 0 1 -2.128,2.127999 h -11.74399 a 2.13,2.13 0 0 1 -2.128,-2.127999 v -11.744 a 2.13,2.13 0 0 1 2.128,-2.128 h 11.74399 a 2.13,2.13 0 0 1 2.128,2.128 m -10.55999,4.915 h 10e-4 c 0.626,-0.513 1.81699,-0.823 2.55999,0.656 0.944,-1.368 1.88,-1.169 2.506,-0.656 l 0.028,0.023 2.805,-4.318 a 1.4,1.4 0 0 0 -0.508,-0.091 h -9.66399 q -0.268,0 -0.506,0.09 z m -0.547,1.117 -3.082,-4.565 c -0.06,0.16 -0.094,0.332 -0.094,0.512 v 7.786 c 0,0.8 0.65,1.45 1.45,1.45 h 9.66499 c 0.8,0 1.45,-0.65 1.45,-1.45 v -7.786 q -0.001,-0.27 -0.092,-0.51 l -3.078,4.56 c 0.032,0.384 -0.072,0.82 -0.359,1.288 -0.438,0.768 -1.683,0.952 -2.751,2.353 -1.222,-1.534 -1.85699,-1.348 -2.50499,-1.998 a 2.02,2.02 0 0 1 -0.605,-1.642"
     id="icon-mail" />
  <path
     d="m 89.334226,26.409107 c 2.42,-3.698 4.819997,-3.159 6.427997,-1.774 1.608,1.385 2.24,3.724 0.633,6.493 -1.125,2.078 -4.320001,2.576 -7.060997,6.36 -3.134,-4.146 -4.766,-3.64 -6.42901,-5.396 -2.389996,-2.523 -1.749996,-6.072 -0.142,-7.457 1.60801,-1.385 4.66201,-2.225 6.57001,1.774 m 1.052,4.886 c 0,0.459 -0.517,0.797 -1.12,0.797 -0.603,0 -1.12,-0.338 -1.12,-0.797 0,-0.154 -0.133,-0.28 -0.297,-0.28 -0.164,0 -0.296,0.126 -0.296,0.28 0,0.732 0.752,1.358 1.713,1.358 0.961,0 1.713,-0.625 1.713,-1.358 0,-0.154 -0.132,-0.28 -0.296,-0.28 -0.164,0 -0.297,0.126 -0.297,0.28 m 2.330996,-1.933 c -0.387,0 -0.700996,0.133 -0.700996,0.296 0,0.163 0.313996,0.296 0.700996,0.296 0.387,0 0.702,-0.133 0.702,-0.296 0,-0.163 -0.314,-0.296 -0.702,-0.296 m -1.235996,-1.874 c -0.234,0 -0.424,0.372 -0.424,0.83 0,0.458 0.19,0.83 0.424,0.83 0.235,0 0.425,-0.372 0.425,-0.83 0,-0.458 -0.19,-0.83 -0.425,-0.83 m -5.697,1.874 c -0.387,0 -0.701,0.133 -0.701,0.296 0,0.163 0.314,0.296 0.701,0.296 0.387,0 0.702,-0.133 0.702,-0.296 0,-0.163 -0.314,-0.296 -0.702,-0.296 m 1.236,-1.874 c -0.234,0 -0.424,0.372 -0.424,0.83 0,0.458 0.19,0.83 0.424,0.83 0.234,0 0.425,-0.372 0.425,-0.83 0,-0.458 -0.19,-0.83 -0.426,-0.83"
     id="icon-heartsmile" />
  <path
     d="m 70.333563,26.409107 c 2.42,-3.698 4.82,-3.159 6.428,-1.774 1.608,1.385 2.24,3.724 0.633,6.493 -1.125,2.078 -4.32,2.576 -7.061,6.36 -3.134,-4.146 -4.766,-3.64 -6.42901,-5.396 -2.389996,-2.523 -1.749996,-6.072 -0.142,-7.457 1.60801,-1.385 4.66201,-2.224998 6.57001,1.774"
     id="icon-heart" />
  <path
     d="m 58.65822,25.847829 h -1.43 a 2.08,1.84 0 0 0 0.9,-1.52 c 0,-1 -0.93,-1.84 -2.07,-1.84 a 2.08,1.84 0 0 0 -1.58,0.64 l -1.77,1.71 a 1.6,1.6 0 0 0 -1.1,-0.45 h -0.55 c -0.45,0 -0.84,0.18 -1.1,0.45 l -1.78,-1.71 a 2.08,1.84 0 0 0 -1.55,-0.63 c -1.13,0 -2.07,0.83 -2.07,1.84 a 2.08,1.84 0 0 0 0.88,1.51 h -1.43 c -0.37,0 -0.68,0.27 -0.68,0.6 v 3.26 c 0,0.32 0.27,0.57 0.63,0.59 v 7.599999 c 0,0.32 0.3,0.59 0.68,0.59 h 13.38 c 0.38,0 0.68,-0.26 0.68,-0.6 v -7.599999 c 0.36,0 0.63,-0.27 0.63,-0.58 v -3.26 c 0,-0.34 -0.3,-0.6 -0.68,-0.6 z m -7.33,3.95 c 1.4,-1.93 2.8,-1.65 3.73,-0.93 0.93,0.72 1.3,1.949999 0.36,3.399999 -0.65,1.08 -2.5,1.35 -4.09,3.32 -1.82,-2.16 -2.76,-1.9 -3.72,-2.82 -1.4,-1.32 -1.02,-3.169999 -0.1,-3.899999 0.95,-0.72 2.71,-1.16 3.82,0.93 m -5.34,-5.21 a 0.71,0.63 0 0 1 -0.04,-0.23 c 0,-0.34 0.32,-0.63 0.7,-0.63 h 0.01 q 0.31,0.01 0.52,0.2 l 1.97,1.92 h -0.09 l -2.65,-0.89 a 0.7,0.62 0 0 1 -0.42,-0.37 m 10.69,0 a 0.7,0.7 0 0 1 -0.43,0.37 l -2.66,0.88 h -0.09 l 1.97,-1.9 a 0.7,0.62 0 0 1 0.53,-0.21 c 0.26,0 0.5,0.12 0.62,0.32 q 0.17,0.25 0.06,0.54"
     id="icon-gift" />
  <path
     d="m 33.306278,23.136458 a 1.13,1.291 0 0 0 -1.96,0 l -6.853999,13.331 c -0.457,0.889 0.091,2.02 0.979999,2.02 h 13.71 c 0.89,0 1.438,-1.132 0.98,-2.02 z m -0.98,3.924 c 0.534,0 0.953,0.528 0.9,1.137 l -0.35,4.007 a 0.552,0.63 0 0 1 -1.1,0 l -0.35,-4.007 a 0.905,1.034 0 0 1 0.9,-1.137 m 0,6.856 a 1,1.143 0 1 1 0,2.286 1,1.143 0 0 1 0,-2.286"
     id="icon-excalamation" />
  <path
     d="m 13.327042,22.487841 a 8,8 0 0 0 -5.6599895,2.32 8,8 0 0 0 -2.3399959,5.68 7.9,7.9 0 0 0 4.8999864,7.38 q 1.45,0.62 3.099999,0.62 a 8,8 0 0 0 5.650001,-2.32 q 1.1,-1.1 1.73,-2.54 0.62,-1.45 0.62,-3.14 a 8,8 0 0 0 -2.35,-5.68 8,8 0 0 0 -5.650001,-2.32 m 0,1.45 a 6.5,6.5 0 0 1 6.530001,6.55 q 0,1.39 -0.5,2.57 -0.5,1.18 -1.4,2.08 -0.9,0.9 -2.1,1.4 -1.2,0.5 -2.530001,0.5 a 6.4,6.4 0 0 1 -4.5999994,-1.9 6.6,6.6 0 0 1 -1.4299901,-7.220001 6.4,6.4 0 0 1 3.4999905,-3.479999 q 1.18,-0.5 2.529999,-0.5 m 0.400001,1.88 q -1.260001,0 -2.36,0.58 -1.1,0.57 -1.7800004,1.62 -0.68,1.05 -0.68,2.47 0,1.27 0.63,2.33 a 4.8,4.8 0 0 0 4.1800004,2.33 q 1.3,0 2.35,-0.6 a 0.7,0.7 0 0 0 0.42,-0.59 q 0.06,-0.4 -0.17,-0.71 -0.19,-0.26 -0.5,-0.3 -0.31,-0.04 -0.59,0.1 a 3,3 0 0 1 -1.5,0.38 q -0.900001,0 -1.59,-0.4 -0.69,-0.4 -1.1,-1.06 -0.41,-0.66 -0.4,-1.48 0,-0.9 0.42,-1.57 a 3,3 0 0 1 1.119999,-1.020001 3.4,3.4 0 0 1 3.060001,0.02 q 0.27,0.130001 0.58,0.09 0.31,-0.04 0.5,-0.3 a 0.8,0.8 0 0 0 0.18,-0.729999 q -0.08,-0.39 -0.42,-0.57 a 5,5 0 0 0 -2.36,-0.59"
     id="icon-copyright" />
  <path
     d="m 103.83021,3.4877671 a 0.5,0.5 0 0 0 -0.5,0.5 v 0.5 h -1 a 2,2 0 0 0 -2,2 V 17.487767 a 2,2 0 0 0 2,2.000001 h 11.99999 a 2,2 0 0 0 2,-2.000001 V 6.4877671 a 2,2 0 0 0 -2,-2 h -1 v -0.5 a 0.5,0.5 0 0 0 -1,0 v 0.5 h -7.99999 v -0.5 a 0.5,0.5 0 0 0 -0.5,-0.5 m -1.5,2 h 11.99999 a 1,1 0 0 1 1,1 v 1 h -13.99999 v -1 a 1,1 0 0 1 1,-1 m -1,3 h 13.99999 v 8.9999999 a 1,1 0 0 1 -1,1 h -11.99999 a 1,1 0 0 1 -1,-1 z m 5.193,1.502 c -0.517,0.019 -1.005,0.2669999 -1.355,0.5679999 -0.8,0.69 -1.118,2.457 0.072,3.713 0.828,0.874 1.64,0.623 3.2,2.686 1.364,-1.884 2.955,-2.132 3.515,-3.166 0.79999,-1.379 0.48299,-2.543 -0.316,-3.233 -0.8,-0.6889999 -1.995,-0.9559999 -3.2,0.885 -0.534,-1.12 -1.25,-1.4769999 -1.916,-1.4529999"
     id="icon-calendar" />
  <path
     id="icon-buymeacoffee"
     d="m 90.090696,3.7765031 a 17,17 0 0 0 -2.40039,0.0508 c -0.6,0.06 -1.21953,0.0986 -1.76953,0.30859 a 2,2 0 0 0 -0.58985,0.33008 0.64,0.64 0 0 0 -0.10156,0.75 1,1 0 0 0 0.45117,0.38086 3,3 0 0 0 0.69922,0.20898 14,14 0 0 0 2.13086,0.25977 c 0.78667,0.0267 1.56961,-0.003 2.34961,-0.0898 l 0.58008,-0.0801 c 0.21,-0.03 0.35882,-0.3293 0.29882,-0.5293 -0.1,-0.24667 -0.27906,-0.34745 -0.53906,-0.30078 l -0.11914,0.0215 -0.26172,0.0195 c -0.92,0.0933 -1.84596,0.10573 -2.77929,0.0391 l -0.74024,-0.0586 -0.0898,-0.0215 h -0.0801 c -0.17333,-0.02 -0.3307,-0.0498 -0.4707,-0.0898 a 0.065,0.065 0 1 1 0,-0.1289 l 0.40039,-0.0801 0.15039,-0.0195 0.24023,-0.0312 a 16,16 0 0 1 3.2793,0 l 0.24024,0.0312 0.0898,0.0195 h 0.041 l 0.50976,0.0801 c 0.28,0.07 0.59922,0.0698 0.69922,0.33984 l 0.0898,0.28906 v 0.10157 l 0.19141,0.84961 a 0.2,0.2 0 0 1 -0.13086,0.18945 h -0.0801 a 24,24 0 0 1 -5.78906,0.0508 l -0.28125,-0.0703 h -0.0801 l -0.18946,-0.0195 -0.61914,-0.10157 a 1,1 0 0 0 -0.75,0.1211 c -0.18667,0.10667 -0.33164,0.24969 -0.43164,0.42969 l -0.1582,0.64062 c -0.0667,0.24 -0.10156,0.46945 -0.10156,0.68945 a 1.1,1.1 0 0 0 0.90039,1.000001 26,26 0 0 0 6.85937,0.2793 l 0.46094,-0.0488 h 0.0195 a 0.3,0.3 0 0 1 0.32031,0.32032 v 0.0195 l -0.0391,0.4492199 -0.28125,2.68945 -0.38867,3.67187 a 4,4 0 0 1 -0.0801,0.79883 c -0.0867,0.40667 -0.33667,0.65357 -0.75,0.74024 a 5,5 0 0 1 -1.13086,0.13086 h -1.2793 c -0.45,0 -1.01156,-0.0409 -1.35156,-0.38086 -0.3,-0.3 -0.33891,-0.75016 -0.37891,-1.16016 l -0.16992,-1.58008 -0.28125,-2.92969 -0.20898,-1.90039 v -0.0996 c -0.02,-0.21 -0.16922,-0.4296799 -0.44922,-0.4296799 -0.21,0 -0.45164,0.1994499 -0.43164,0.4394499 l 0.15039,1.40039 0.30078,2.92969 0.25977,2.4707 0.0606,0.46875 c 0.09,0.88 0.74859,1.35047 1.55859,1.48047 a 9,9 0 0 0 1.4707,0.0801 c 0.62667,0.0467 1.23985,0.023 1.83985,-0.0703 0.91,-0.16 1.60093,-0.75922 1.71093,-1.69922 l 0.0801,-0.83008 0.21875,-2.68945 0.33985,-2.95117 0.13086,-1.3496099 a 0.4,0.4 0 0 1 0.25976,-0.26953 c 0.25334,-0.0333 0.48589,-0.14032 0.69922,-0.32032 0.28,-0.326661 0.35094,-0.704191 0.21094,-1.130851 l -0.0606,-0.42969 c -0.09,-0.38 -0.26063,-0.74891 -0.64063,-0.87891 -0.16,-0.0267 -0.28247,-0.0771 -0.36914,-0.15039 -0.1,-0.11333 -0.15039,-0.24086 -0.15039,-0.38086 l -0.1289,-0.73047 c -0.0267,-0.21333 -0.0771,-0.42224 -0.15039,-0.6289 -0.16667,-0.26667 -0.38063,-0.43334 -0.64063,-0.5 l -0.41992,-0.13086 c -0.65333,-0.15334 -1.30565,-0.24597 -1.95898,-0.2793 z m -4.73633,3.5625 c 0.27426,-0.001 0.58523,0.10171 0.86523,0.13671 a 22,22 0 0 0 5.93946,0.041 l 0.85156,-0.13086 c 0.26,-0.04 0.52969,-0.11914 0.67969,0.13086 a 1,1 0 0 1 0.0996,0.64063 0.3,0.3 0 0 1 -0.0996,0.22851 v 0.01 a 0.6,0.6 0 0 1 -0.38086,0.14062 26,26 0 0 1 -4.69922,0.300781 40,40 0 0 1 -3.34961,-0.320311 c -0.1,-0.0133 -0.20078,-0.0463 -0.30078,-0.0996 -0.12,-0.17 -0.0595,-0.47062 -0.0195,-0.64062 0.02,-0.19 0.0788,-0.42969 0.29883,-0.42969 0.0375,-0.005 0.0761,-0.008 0.11523,-0.008 z m 5.7832,2.8789009 a 4,4 0 0 0 -1.48047,0.38086 l 0.0195,0.01 c -0.56,0.25 -1.18023,0.50977 -1.99023,0.50977 a 4,4 0 0 1 -1.01953,-0.12891 l 0.58008,5.7793 a 0.96,0.96 0 0 0 0.96093,0.90039 l 1.04883,0.0488 c 0.3,0 0.66016,-0.0488 1.16016,-0.0488 a 0.96,0.96 0 0 0 0.96094,-0.90039 l 0.61914,-6.40039 a 3,3 0 0 0 -0.85938,-0.15039 z m -2.00976,7.60156 h 0.0293 z" />
  <path
     d="m 70.333883,4.2677671 c -1.580001,0 -3.160001,1.05 -3.160001,3.160001 v 0.45 h -3.16 v 9.0299999 c 0,1 0.8,1.8 1.8,1.8 h 9.030001 c 1,0 1.8,-0.8 1.8,-1.8 V 7.8777681 h -3.15 v -0.45 c 0,-2.100001 -1.58,-3.16 -3.16,-3.16 m 0,0.9 c 1.13,0 2.25,0.76 2.25,2.26 v 0.45 h -4.490001 v -0.45 c 0,-1.5 1.12,-2.26 2.250001,-2.26 m -5.430001,3.61 h 10.830001 v 8.1299989 c 0,0.5 -0.4,0.9 -0.9,0.9 h -9.020001 a 0.9,0.9 0 0 1 -0.9,-0.9 z m 3.65,1.3100009 c -0.49,0.02 -0.95,0.259999 -1.28,0.54 -0.75,0.649999 -1.05,2.31 0.07,3.5 0.78,0.82 1.54,0.579999 3.010001,2.519998 1.29,-1.769998 2.78,-1.999999 3.31,-2.979998 0.75,-1.3 0.46,-2.390001 -0.3,-3.04 -0.75,-0.6499999 -1.87,-0.8999999 -3,0.829999 -0.52,-1.049999 -1.180001,-1.39 -1.810001,-1.369999"
     id="icon-bag" />
  <path
     d="m 51.32822,4.4877621 c -3.84,0 -7,3.16 -7,6.9999999 0,3.84 3.16,7.000001 7,7.000001 3.84,0 7,-3.160001 7,-7.000001 0,-3.8399999 -3.16,-6.9999999 -7,-6.9999999 m 0,15.0000009 c -4.389,0 -8,-3.611001 -8,-8.000001 0,-4.3889999 3.611,-7.9999899 8,-7.9999899 4.389,0 8,3.61099 8,7.9999899 0,4.389 -3.611,8.000001 -8,8.000001 m 0.5,-4.500001 c 0,0.274 -0.226,0.5 -0.5,0.5 a 0.503,0.503 0 0 1 -0.5,-0.5 V 9.1947621 l -2.146,2.1469999 a 0.5006316,0.5006316 0 1 1 -0.708,-0.708 l 3,-2.9999999 a 0.5,0.5 0 0 1 0.708,0 l 3,2.9999999 a 0.5006316,0.5006316 0 1 1 -0.708,0.708 l -2.146,-2.1469999 z"
     id="icon-arrowup" />
  <path
     d="m 39.327558,11.487762 c 0,3.84 -3.16,7.000001 -7,7.000001 -3.84,0 -7,-3.160001 -7,-7.000001 0,-3.8399999 3.16,-6.9999999 7,-6.9999999 3.84,0 7,3.16 7,6.9999999 m -15,0 c 0,4.389 3.611,8.000001 8,8.000001 4.389,0 8,-3.611001 8,-8.000001 0,-4.3889999 -3.611,-7.9999899 -8,-7.9999899 -4.389,0 -8,3.61099 -8,7.9999899 m 4.5,-0.5 c -0.274,0 -0.5,0.226 -0.5,0.5 0,0.274 0.226,0.5 0.5,0.5 h 5.793 l -2.147,2.146 a 0.5006316,0.5006316 0 1 0 0.708,0.708 l 3,-3 a 0.5,0.5 0 0 0 0,-0.708 l -3,-2.9999999 a 0.5006316,0.5006316 0 1 0 -0.708,0.708 l 2.147,2.1459999 z"
     id="icon-arrowright" />
  <path
     d="m 6.3268923,11.487768 c 0,3.840001 3.16,7 6.9999997,7 3.840001,0 7.000001,-3.159999 7.000001,-7 0,-3.8399999 -3.16,-6.9999999 -7.000001,-6.9999999 -3.8399997,0 -6.9999997,3.16 -6.9999997,6.9999999 m 15.0000007,0 c 0,4.389001 -3.611,8 -8.000001,8 -4.3889997,0 -7.9999937,-3.610999 -7.9999937,-8 0,-4.3889999 3.610994,-7.9999999 7.9999937,-7.9999999 4.389001,0 8.000001,3.161 8.000001,7.9999999 m -4.500001,-0.5 c 0.274001,0 0.500001,0.226 0.500001,0.5 0,0.274 -0.226,0.5 -0.500001,0.5 h -5.793 l 2.147,2.146001 a 0.50063164,0.50063164 0 1 1 -0.708,0.707999 l -2.9999997,-3 a 0.5,0.5 0 0 1 0,-0.708 L 12.472892,8.1337681 a 0.50063174,0.50063174 0 1 1 0.708,0.708 l -2.147,2.1459999 z"
     id="icon-arrowleft" />
</svg>
