<?xml version="1.0" encoding="UTF-8" standalone="no"?>
<svg
   version="1.1"
   id="svg35"
   sodipodi:docname="icons.svg"
   inkscape:version="1.4.3 (0d15f75042, 2025-12-25)"
   width="16"
   height="16"
   inkscape:export-filename="tag.svg"
   inkscape:export-xdpi="96"
   inkscape:export-ydpi="96"
   xmlns:inkscape="http://www.inkscape.org/namespaces/inkscape"
   xmlns:sodipodi="http://sodipodi.sourceforge.net/DTD/sodipodi-0.dtd"
   xmlns="http://www.w3.org/2000/svg"
   xmlns:svg="http://www.w3.org/2000/svg">
  <defs
     id="defs35" />
  <sodipodi:namedview
     id="namedview35"
     pagecolor="#ffffff"
     bordercolor="#000000"
     borderopacity="0.25"
     inkscape:showpageshadow="2"
     inkscape:pageopacity="0.0"
     inkscape:pagecheckerboard="false"
     inkscape:deskcolor="#6b6b6b"
     inkscape:zoom="22.627417"
     inkscape:cx="6.5628348"
     inkscape:cy="3.9774757"
     inkscape:window-width="1920"
     inkscape:window-height="1052"
     inkscape:window-x="0"
     inkscape:window-y="0"
     inkscape:window-maximized="1"
     inkscape:current-layer="svg35"
     showborder="false"
     showgrid="true"
     showguides="true">
    <inkscape:page
       x="0"
       y="0"
       width="16"
       height="16"
       id="page27"
       margin="0"
       bleed="0" />
  </sodipodi:namedview>
  <path
     id="social-youtube"
     d="M 2.127,1.5e-6 A 2.13,2.13 0 0 0 0,2.1290215 V 13.870017 a 2.13,2.13 0 0 0 2.127,2.13 H 13.873 A 2.13,2.13 0 0 0 16,13.871017 V 2.1300215 A 2.13,2.13 0 0 0 13.873,1.5e-6 Z m 5.812,3.60502 h 0.245 c 0.71,0.003 4.306,0.029 5.275,0.29 a 1.74,1.74 0 0 1 1.22,1.224 c 0.088,0.328 0.149,0.762996 0.19,1.210996 l 0.01,0.09 0.018,0.225 0.007,0.09 c 0.056,0.788 0.064,1.527 0.065,1.689 v 0.064 c -10e-4,0.168 -0.01,0.956 -0.072,1.7779995 l -0.006,0.091 -0.008,0.09 c -0.043,0.494 -0.108,0.983 -0.203,1.344 a 1.74,1.74 0 0 1 -1.221,1.227 c -1.001,0.269 -4.809,0.288 -5.336,0.289 H 8 c -0.267,0 -1.369,-0.006 -2.525,-0.045 l -0.147,-0.004 -0.076,-0.004 -0.147,-0.006 -0.148,-0.006 c -0.958,-0.042 -1.87,-0.11 -2.291,-0.224 a 1.74,1.74 0 0 1 -1.223,-1.227 c -0.095,-0.36 -0.158,-0.85 -0.2,-1.344 l -0.009,-0.092 -0.007,-0.09 A 27,27 0 0 1 1.157,8.5100175 v -0.108 c 10e-4,-0.185 0.01,-0.827 0.056,-1.535 l 0.006,-0.088 0.002,-0.045 0.006,-0.09 0.02,-0.224 0.009,-0.09 c 0.041,-0.448 0.102,-0.883996 0.19,-1.209996 a 1.74,1.74 0 0 1 1.22,-1.225 c 0.42,-0.113 1.333,-0.182 2.291,-0.225 l 0.148,-0.006 0.149,-0.006 0.074,-0.002 0.147,-0.006 a 86,86 0 0 1 2.464,-0.045 M 6.682,6.3750175 V 10.535017 L 10.27,8.4570175 Z"
     style="display:none" />
  <path
     d="M 2.12999,1.5e-6 A 2.13,2.13 0 0 0 0,2.1300215 V 13.870018 a 2.13,2.13 0 0 0 2.12999,2.129999 h 11.74 A 2.13,2.13 0 0 0 16,13.870018 V 2.1300215 A 2.13,2.13 0 0 0 13.86999,1.5e-6 Z m 10.53,3.04002 -0.37,4.699996 h 1.5 l -0.63,4.0999995 -4.92,2.28 v -1.63 l -4.2,0.52 -1.83,-5.4499995 h 1.78 l -0.82,-3.059996 z m -2.09,3.039996 h -0.05 l -1.16,0.1 v 2.11 h 1.34 c 0.57,-0.25 0.57,-0.71 0.34,-0.94 a 0.5,0.5 0 0 0 -0.34,-0.14 0.5,0.5 0 0 0 0.33,-0.15 0.5,0.5 0 0 0 0.15,-0.37 0.6,0.6 0 0 0 -0.6,-0.61 m -1.43,0.1 -1.44,0.1 v 1.94 l 1.44,0.07 v -0.52 l -0.92,-0.01 v -0.24 h 0.81 v -0.56 l -0.8,0.03 v -0.23 l 0.9,-0.05 z m -1.58,0.11 -0.53,0.04 -0.3,1.14 -0.28,-1.1 -0.49,0.04 -0.26,1.05 -0.25,-1.02 -0.51,0.05 0.43,1.68 h 0.57 l 0.25,-0.9 0.27,0.9 h 0.57 z m 2.74,0.31 a 0.2,0.2 0 0 1 0.17,0.17 0.2,0.2 0 0 1 -0.17,0.17 h -0.39 v -0.32 z m 0.06,0.9 a 0.17,0.17 0 0 1 0,0.32 h -0.44 v -0.31 z m -6.17,1.1 v 0.56 h 0.66 v 1.6999995 l 0.63,-0.03 V 9.2000175 h 0.6 v -0.57 z m 3.02,0.02 a 1.1,1.1 0 0 0 -1.1,1.08 1.09,1.09 0 0 0 2.18,0 c 0,-0.6 -0.48,-1.08 -1.09,-1.08 m 2.22,0.05 a 0.97,0.97 0 0 0 -0.95,1 c 0,0.5399995 0.42,0.9899995 0.95,0.9899995 0.53,0 0.96,-0.45 0.96,-0.9999995 0,-0.55 -0.43,-0.99 -0.96,-0.99 m 1.12,0.05 v 1.8099995 l 0.57,-0.01 V 9.6200175 l 0.57,0.8699995 0.47,-0.03 0.04,-1.7099995 h -0.55 v 0.88 l -0.58,-0.9 z m -3.3,0.47 c 0.25,0 0.46,0.23 0.46,0.52 0,0.2899995 -0.2,0.5199995 -0.47,0.5199995 -0.27,0 -0.46,-0.23 -0.46,-0.5199995 0,-0.29 0.2,-0.52 0.46,-0.52 m 2.2,0.01 c 0.23,0 0.42,0.21 0.42,0.47 0,0.26 -0.19,0.4699995 -0.42,0.4699995 -0.23,0 -0.41,-0.1999995 -0.41,-0.4699995 0,-0.27 0.19,-0.47 0.41,-0.47"
     id="social-webtoon"
     style="display:none" />
  <path
     d="M 16,2.1300215 V 13.870018 c 0,1.18 -0.95,2.129999 -2.13,2.129999 H 2.13 A 2.13,2.13 0 0 1 0,13.870018 V 2.1300215 C 0,0.9600015 0.95,1.5e-6 2.13,1.5e-6 h 11.74 c 1.18,0 2.13,0.96 2.13,2.13002 m -9.7,4.399996 c -0.43,-0.55 -0.52,-0.7 -0.68,-0.939996 a 2.2,2.2 0 0 0 -1.37,-1 c -0.59,-0.11 -1.15,-0.1 -1.82,0.7 -0.42,0.499996 -0.64,1.219996 -0.57,1.939996 0.1,1.04 0.78,2.56 3.08,4.8799995 a 6,6 0 0 0 2.34,1.650001 c 1.07,0.349999 2.37,0.1 3.55,-0.870001 1.42,-1.18 1.94,-2.2 2.56,-3.1399995 0.7,-1.07 1.16,-1.92 1.01,-3.23 -0.17,-1.529996 -1.46,-4.569996 -4.6,-4.419996 a 3,3 0 0 0 -1.88,0.8 c -0.82,0.8 -1.75,2.1 -1.61,3.639996 m 1.42,3.4899995 c 0.26,0.1 1.26,-0.1099995 1.08,-0.3999995 -0.63,-0.95 -1.36,-1.24 -1.45,-3.29 -0.04,-1.079996 0.6,-1.919996 1.18,-2.479996 0.36,-0.34 0.98,-0.47 1.3,-0.5 1.75,-0.1 2.91,2.28 2.98,3.139996 0.1,1.25 -1.93,3.6799995 -2.9,4.5999995 -1.98,1.9 -3.65,0.07 -4.01,-0.25 A 12,12 0 0 1 3.15,7.4500175 c -0.66,-1.35 0.52,-2.299996 1.39,-0.83 0.85,1.43 1.27,1.81 2.17,2.76 0.45,0.47 0.7,0.52 1.02,0.6499995 m 2.35,-1.6899995 c 0,0 0.97,-0.98 1,-1.9 0.02,-1.559996 -2.11,-1.689996 -2.12,-0.05 -0.01,1.13 1.12,1.95 1.12,1.95"
     id="social-vgen"
     style="display:none" />
  <path
     d="M 15.99899,2.1280155 V 13.872015 a 2.13,2.13 0 0 1 -2.128,2.128 H 2.126 A 2.13,2.13 0 0 1 0,13.872015 V 2.1280155 A 2.13,2.13 0 0 1 2.126,3.5e-6 h 11.74499 a 2.13,2.13 0 0 1 2.128,2.128012 m -2.137,5.763 a 1.34,1.34 0 0 0 -1.328,-1.348 1.3,1.3 0 0 0 -0.9,0.358 c -0.876,-0.579 -2.05,-0.953 -3.35,-1.004 l 0.716,-2.22 1.883,0.45 c 0,0.61 0.491,1.107 1.094,1.107 0.603,0 1.093,-0.498 1.093,-1.11 0,-0.612 -0.49,-1.108 -1.093,-1.108 -0.452,0 -0.84,0.278 -1.007,0.675 l -2.262,-0.54 -0.885,2.74 c -1.35,0.027 -2.572,0.398 -3.48199,0.992 a 1.3,1.3 0 0 0 -0.88,-0.34 1.34,1.34 0 0 0 -1.327,1.348 c 0,0.471 0.242,0.904 0.63,1.146 -0.353,2.1189995 2.10799,3.9479995 5.20899,3.9479995 3.088,0 5.54,-1.813 5.214,-3.9209995 a 1.34,1.34 0 0 0 0.674,-1.173 m -3.974,3.2339995 c -0.394,0.4 -1.013,0.595 -1.89,0.595 -0.878,0 -1.496,-0.195 -1.89,-0.595 a 0.225,0.225 0 0 1 0,-0.314 0.22,0.22 0 0 1 0.31,0 c 0.307,0.312 0.824,0.464 1.58,0.464 0.755,0 1.272,-0.152 1.58,-0.464 a 0.22,0.22 0 0 1 0.31,0 0.225,0.225 0 0 1 0,0.314 m -4.473,-2.3329995 c 0,-0.452 0.374,-0.832 0.82,-0.832 0.446,0 0.808,0.38 0.808,0.832 0,0.452 -0.362,0.82 -0.808,0.82 a 0.825,0.825 0 0 1 -0.82,-0.82 m 4.36,0.82 a 0.825,0.825 0 0 1 -0.82,-0.82 c 0,-0.454 0.374,-0.832 0.82,-0.832 0.447,0 0.809,0.378 0.809,0.832 0,0.452 -0.361,0.82 -0.808,0.82"
     id="social-reddit"
     style="display:none" />
  <path
     d="m 15.99999,2.13001 v 11.739999 c 0,1.18 -0.95,2.13 -2.13,2.13 H 2.13 A 2.13,2.13 0 0 1 0,13.870009 V 2.13001 c 0,-1.17 0.95,-2.13 2.13,-2.13 h 11.73999 c 1.18,0 2.13,0.96 2.13,2.13 m -3.9,2.53 c 0.1,-0.84 -0.07,-1.43 -0.55,-1.97 -0.57,-0.65 -1.6,-0.93 -2.9,-0.93 H 4.82 a 0.55,0.55 0 0 0 -0.54,0.46 L 2.7,12.300009 a 0.33,0.33 0 0 0 0.32,0.38 h 2.15 l -0.15,1 -0.01,0.07 c 0,0.27 0.22,0.5 0.49,0.5 h 1.97999 a 0.7,0.7 0 0 0 0.68,-0.58 l 0.02,-0.1 0.37,-2.37 0.02,-0.13 a 0.3,0.3 0 0 1 0.28,-0.24 h 0.3 c 0.98,0 1.88,-0.2 2.6,-0.7 q 0.45,-0.33 0.77,-0.79 a 4,4 0 0 0 0.7,-1.71 c 0.18,-0.97 0.1,-1.839999 -0.45,-2.459999 a 2,2 0 0 0 -0.6,-0.46 z M 6.24,8.640009 l 0.25,-0.06 h 1.10999 c 2.2,0 3.92,-0.9 4.42,-3.469999 v -0.02 q 0.26,0.14 0.43,0.35 0.63,0.73 0.35,2.099999 a 3.4,3.4 0 0 1 -1.3,2.25 q -0.94,0.65 -2.37,0.64 h -0.3 a 0.7,0.7 0 0 0 -0.67,0.57 l -0.02,0.13 -0.37,2.37 -0.02,0.1 a 0.3,0.3 0 0 1 -0.28,0.23 H 5.5 a 0.1,0.1 0 0 1 -0.08,-0.1 l 0.16,-1.02 z"
     id="social-paypal"
     style="display:none" />
  <path
     d="M 5.38,16.000009 H 2.13 A 2.13,2.13 0 0 1 0,13.870009 V 2.13001 c 0,-1.17 0.95,-2.13 2.13,-2.13 h 11.74 c 1.18,0 2.13,0.96 2.13,2.13 v 11.739999 c 0,1.18 -0.95,2.13 -2.13,2.13 H 6.04 c 0.95,-0.95 1.35,-2.22 1.67,-3.88 0,0 1.1,0.59 1.99,0.66 3.28,0.25 5.05,-3.44 4.6,-6.639999 -0.4,-2.84 -3.27,-4.3 -6.34,-3.95 -2.42,0.27 -4.84,2.2 -4.94,4.959999 -0.05,1.2 0.04,2.43 0.91,2.78 0,0 1.09,-0.41 0.77,-1.86 C 3.9,4.47001 8.98,2.31001 11.52,4.85001 c 1.76,1.759999 0.74,6.599999 -2.1,6.039999 -2.72,-0.54 1.18,-4.639999 -1,-5.489999 -1.76,-0.69 -2.7,2.099999 -1.86,3.499999 -0.46,2.24 -1.43,4.36 -1.18,7.1"
     id="social-pinterest"
     style="display:none" />
  <path
     d="M 16,2.130009 V 13.87001 c 0,1.18 -0.95,2.13 -2.13,2.13 H 2.13 A 2.13,2.13 0 0 1 0,13.87001 V 2.130009 c 0,-1.17 0.95,-2.13 2.13,-2.13 h 11.74 c 1.18,0 2.13,0.96 2.13,2.13 m -11.14,0.25 H 2.8 V 13.62001 h 2.06 z m 5.4,0 a 4.2150005,4.2150005 0 1 0 0,8.43 4.2150005,4.2150005 0 0 0 0,-8.43"
     id="social-patreon"
     style="display:none" />
  <path
     d="M 15.99901,2.1280095 V 13.872006 a 2.13,2.13 0 0 1 -2.128,2.127999 H 2.12601 A 2.13,2.13 0 0 1 0,13.872006 V 2.1280095 A 2.13,2.13 0 0 1 2.12601,1.35e-5 h 11.745 a 2.13,2.13 0 0 1 2.128,2.127996 m -7.15,-0.935994 v 9.3599905 c 0,1.401 -1.152,2.555 -2.552,2.555 -1.4,0 -2.553,-1.154 -2.553,-2.554 0,-1.4000005 1.152,-2.5530005 2.553,-2.5530005 v -1.702 c -2.335,0 -4.255,1.921 -4.255,4.2550005 0,2.335 1.92,4.255 4.255,4.255 2.335,0 4.255,-1.92 4.255,-4.255 V 4.7420095 c 0.79,0.864 1.912,1.555996 3.403,1.555996 v -1.701996 c -1.023,0 -1.79,-0.52 -2.37,-1.266 -0.591,-0.762 -0.928,-1.529 -1.05,-2.137994 z"
     id="social-tiktok"
     style="display:none" />
  <path
     d="m 15.99999,2.130009 v 11.74001 c 0,1.18 -0.95,2.13 -2.13,2.13 H 2.13 A 2.13,2.13 0 0 1 0,13.870019 V 2.130009 C 0,0.96 0.95,0 2.13,0 h 11.73999 c 1.18,0 2.13,0.96 2.13,2.130009 m -7.44,2.95 q -1.51,0.72 -6.08999,2.97 -0.74,0.34 -0.77,0.66 c -0.04,0.36 0.36,0.5 0.9,0.7 l 0.23,0.08 c 0.53,0.2 1.25,0.42 1.62,0.43 q 0.51,0.01 1.12999,-0.47 4.27,-3.27 4.4,-3.3 c 0.07,-0.02 0.16,-0.04 0.22,0.02 0.06,0.06 0.06,0.18 0.05,0.2 -0.04,0.2 -1.6,1.85 -2.4,2.7 l -0.48,0.5 -0.24,0.27 c -0.5,0.55 -0.87,0.95 0.02,1.61 a 92,92 0 0 1 2.33,1.78001 l 0.35,0.28 c 0.43,0.35 0.82,0.66 1.3,0.61 0.28,-0.03 0.57,-0.32 0.72,-1.21 a 168,168 0 0 0 1.18,-8.52001 q 0.01,-0.23 -0.02,-0.47 a 0.5,0.5 0 0 0 -0.15,-0.32 0.6,0.6 0 0 0 -0.4,-0.14 c -0.4,0.01 -1,0.25 -3.9,1.62"
     id="social-telegram"
     style="display:none" />
  <path
     d="m 16,2.13001 v 11.739999 c 0,1.18 -0.95,2.13 -2.13,2.13 H 2.13 A 2.13,2.13 0 0 1 0,13.870009 V 2.13001 c 0,-1.17 0.95,-2.13 2.13,-2.13 h 11.74 c 1.18,0 2.13,0.96 2.13,2.13 M 4.88,6.930009 C 4.88,6.35001 4.42,5.89001 3.85,5.89001 A 1.03,1.03 0 0 0 2.82,6.920009 v 6.72 c 0,0.57 0.46,1.03 1.03,1.03 a 1.03,1.03 0 0 0 1.03,-1.03 z m 2.15,-0.09 c -0.43,0.86 -0.13,6.5 -0.13,6.5 0,0.18 0.17,1 0.99,0.99 h 0.03 c 1.08,0.04 1,-0.9 1,-0.99 l 0.02,-3.32 a 1.84,1.84 0 0 1 3.44,-0.68 c 0.7,1.26 0.09,2.8 0.45,4.16 0.27,1 1.72,1.13 2,-0.18 a 10,10 0 0 0 -0.32,-4.53 c -0.8,-2.15 -3.68,-2.999999 -5.61,-1.9 C 8.58,6.04001 7.4,6.09001 7.03,6.840009 M 3.85,2.19001 c -0.67,-1.17 -1.74,-0.92 -2.3,-0.52 -0.56,0.4 -0.8,1.44 0.04,2.18 0.59,0.52 1.16,0.37 2.26,1.58 0.96,-1.1 2.08,-1.25 2.48,-1.86 0.56,-0.8 0.34,-1.5 -0.22,-1.9 -0.56,-0.4 -1.41,-0.56 -2.26,0.52"
     id="social-linkedin"
     style="display:none" />
  <path
     d="M 15.99998,2.130009 V 13.87001 c 0,1.18 -0.95,2.13 -2.13,2.13 H 2.13 A 2.13,2.13 0 0 1 0,13.87001 V 2.130009 c 0,-1.17 0.95,-2.13 2.13,-2.13 h 11.73998 c 1.18,0 2.13,0.96 2.13,2.13 m -5.62,8.76 -2.31,-2.13 L 3.1,13.34001 a 1.18,1.18 0 0 0 1.75,0.8 z m -7.27998,-7.75 4.96998,4.59 2.3,-2.13 -5.51998,-3.26 c -0.72,-0.42 -1.6,0.02 -1.75,0.8 m 9.99998,6.14 c 0.78,-0.46 0.78,-1.62 0,-2.08 l -2.04,-1.2 -2.43,2.24 2.43,2.24 z M 3.08,12.33001 7.50998,8.240009 3.08,4.150009 Z"
     id="social-googleplay"
     style="display:none" />
  <path
     d="M 15.999,2.1280095 V 13.872009 a 2.13,2.13 0 0 1 -2.128,2.128 H 2.126 A 2.13,2.13 0 0 1 0,13.872009 V 2.1280095 a 2.13,2.13 0 0 1 2.126,-2.128 h 11.745 a 2.13,2.13 0 0 1 2.128,2.128 m -8.457,-0.74 a 6.777,6.777 0 0 0 -6.779,6.779 6.77,6.77 0 0 0 4.635,6.4299995 c 0.34,0.06 0.466,-0.144 0.466,-0.321 0,-0.161 -0.008,-0.695 -0.008,-1.262 -1.703,0.313 -2.144,-0.416 -2.28,-0.797 -0.076,-0.196 -0.406,-0.796 -0.694,-0.958 -0.238,-0.125999 -0.577,-0.439999 -0.01,-0.45 0.535,-0.008 0.916,0.493 1.043,0.697 0.61,1.024 1.585,0.736 1.975,0.558 0.059,-0.439999 0.237,-0.737 0.432,-0.906 -1.509,-0.17 -3.085,-0.755 -3.085,-3.3469995 0,-0.738 0.263,-1.348 0.695,-1.822 -0.068,-0.17 -0.305,-0.865 0.068,-1.797 0,0 0.568,-0.178 1.864,0.694 0.543,-0.152 1.119,-0.228 1.695,-0.228 0.576,0 1.152,0.076 1.695,0.228 1.296,-0.88 1.864,-0.694 1.864,-0.694 0.373,0.932 0.136,1.628 0.068,1.797 0.432,0.474 0.695,1.076 0.695,1.822 0,2.5999995 -1.585,3.1769995 -3.093,3.3469995 0.246,0.212001 0.457,0.618001 0.457,1.254 0,0.907 -0.008,1.635 -0.008,1.864 0,0.177 0.127,0.39 0.466,0.322 a 6.8,6.8 0 0 0 4.618,-6.4309995 6.777,6.777 0 0 0 -6.779,-6.78"
     id="social-github"
     style="display:none" />
  <path
     d="m 15.99999,2.12801 v 11.744 a 2.13,2.13 0 0 1 -2.128,2.127999 H 2.128 A 2.13,2.13 0 0 1 0,13.87201 V 2.12801 A 2.13,2.13 0 0 1 2.128,1e-5 h 11.74399 a 2.13,2.13 0 0 1 2.128,2.128 M 5.44,7.04301 h 10e-4 c 0.626,-0.513 1.81699,-0.823 2.55999,0.656 0.944,-1.368 1.88,-1.169 2.506,-0.656 l 0.028,0.023 2.805,-4.318 a 1.4,1.4 0 0 0 -0.508,-0.091 H 3.168 q -0.268,0 -0.506,0.09 z m -0.547,1.117 -3.082,-4.565 c -0.06,0.16 -0.094,0.332 -0.094,0.512 v 7.786 c 0,0.8 0.65,1.45 1.45,1.45 h 9.66499 c 0.8,0 1.45,-0.65 1.45,-1.45 v -7.786 q -0.001,-0.27 -0.092,-0.51 l -3.078,4.56 c 0.032,0.384 -0.072,0.82 -0.359,1.288 -0.438,0.768 -1.683,0.952 -2.751,2.353 -1.222,-1.534 -1.85699,-1.348 -2.50499,-1.998 a 2.02,2.02 0 0 1 -0.605,-1.642"
     id="social-email"
     style="display:none" />
  <path
     d="M 16,2.1300095 V 13.870009 c 0,1.18 -0.95,2.13 -2.13,2.13 H 2.13 A 2.13,2.13 0 0 1 0,13.870009 V 2.1300095 c 0,-1.17 0.95,-2.13 2.13,-2.13 h 11.74 c 1.18,0 2.13,0.96 2.13,2.13 m -4.14,2.28 a 9,9 0 0 0 -2.3,-0.72 l -0.29,0.61 q -1.27,-0.19 -2.54,0 l -0.3,-0.6 a 9,9 0 0 0 -2.3,0.72 9.6,9.6 0 0 0 -1.65,6.4499995 c 0.96,0.72 1.9,1.16 2.82,1.44 a 7,7 0 0 0 0.6,-1 6,6 0 0 1 -0.95,-0.45 l 0.23,-0.19 a 6.5,6.5 0 0 0 5.64,0 l 0.23,0.19 a 6,6 0 0 1 -0.95,0.46 7,7 0 0 0 0.6,1 9,9 0 0 0 2.82,-1.45 9.6,9.6 0 0 0 -1.66,-6.4599995 m -2.01,5.16 c -0.55,0 -1,-0.51 -1,-1.14 0,-0.63 0.44,-1.14 1,-1.14 0.56,0 1,0.51 1,1.14 0,0.63 -0.44,1.14 -1,1.14 m -3.7,0 c -0.55,0 -1,-0.51 -1,-1.14 0,-0.63 0.44,-1.14 1,-1.14 0.56,0 1,0.51 1,1.14 0,0.63 -0.44,1.14 -1,1.14"
     id="social-discord"
     style="display:none" />
  <path
     d="M 16,2.1300095 V 13.87001 c 0,1.18 -0.95,2.13 -2.13,2.13 H 2.13 A 2.13,2.13 0 0 1 0,13.87001 V 2.1300095 c 0,-1.17 0.95,-2.13 2.13,-2.13 h 11.74 c 1.18,0 2.13,0.96 2.13,2.13 m -7.86,-0.48 a 6.3300003,6.3300003 0 1 0 0,12.6600005 6.3300003,6.3300003 0 0 0 0,-12.6600005 m 0,11.6200005 a 5.3000002,5.3000002 0 1 1 0,-10.6000005 5.3000002,5.3000002 0 0 1 0,10.6000005 m 3.91,-6.4800005 c 0.02,-0.11 -0.06,-0.23 -0.15,-0.28 l -3.58,-2.39 a 0.3,0.3 0 0 0 -0.37,0 l -3.58,2.39 a 0.3,0.3 0 0 0 -0.15,0.28 v 2.38 q 0,0.18 0.15,0.28 L 7.95,11.84001 a 0.3,0.3 0 0 0 0.37,0 L 11.9,9.4500095 a 0.4,0.4 0 0 0 0.15,-0.28 z m -3.91,1.99 -1.2,-0.8 1.2,-0.8 1.19,0.8 z M 8.47,10.93001 V 9.3600095 l 1.46,-0.98 1.18,0.8 z m 0,-5.9000005 2.64,1.76 -1.18,0.78 -1.46,-0.97 z m -0.67,0 v 1.57 l -1.46,0.97 -1.18,-0.78 z m -2.9,2.39 0.83,0.56 -0.84,0.56 z m 6.48,1.12 -0.84,-0.56 0.84,-0.56 z M 7.8,10.93001 5.16,9.1700095 l 1.18,-0.79 1.46,0.98 z"
     id="social-codepen"
     style="display:none" />
  <path
     d="M 15.999999,2.1300095 V 13.870009 c 0,1.18 -0.95,2.13 -2.13,2.13 H 2.13 A 2.13,2.13 0 0 1 0,13.870009 V 2.1300095 c 0,-1.18 0.95,-2.13 2.13,-2.13 h 11.739999 c 1.18,0 2.13,0.95 2.13,2.13 m -8,-1.1 a 7,7 0 0 0 -6.749999,6.97 7,7 0 0 0 6.749999,6.9699995 7,7 0 0 0 6.75,-6.9699995 7,7 0 0 0 -6.75,-6.98 m 0,0.99 c 3.3,0 6,2.7 6,6 0,3.2699995 -2.7,5.9899995 -6,5.9899995 -3.3,0 -5.999999,-2.7 -5.999999,-5.9999995 0,-3.3 2.709999,-6 5.999999,-6 m 3.19,8.6599995 -0.97,-1.4599995 c 0,0 -0.98,0.56 -1.6,0.56 a 1.74,1.74 0 0 1 -1.78,-1.73 v -0.03 c 0,-0.95 0.78,-1.73 1.73,-1.73 h 0.02 a 2,2 0 0 1 1.38,0.47 l 1.13,-1.5 c -0.7,-0.61 -1.7,-0.92 -2.75,-0.92 -2.21,0 -3.999999,1.66 -3.999999,3.71 a 3.6,3.6 0 0 0 3.749999,3.6499995 c 1.15,0 2.36,-0.29 3.09,-1.02"
     id="social-cara"
     style="display:none" />
  <path
     d="M 15.99999,2.1300095 V 13.870009 c 0,1.18 -0.95,2.13 -2.13,2.13 H 2.13 A 2.13,2.13 0 0 1 0,13.870009 V 2.1300095 c 0,-1.17 0.95,-2.13 2.13,-2.13 h 11.73999 c 1.18,0 2.13,0.96 2.13,2.13 m -3.24,2.97 -0.07,-0.36 c -0.06,-0.32 -0.2,-0.63 -0.54,-0.75 -0.1,-0.03 -0.23,-0.05 -0.3,-0.13 -0.09,-0.07 -0.11,-0.2 -0.13,-0.3 l -0.1,-0.62 q -0.04,-0.27 -0.14,-0.53 c -0.1,-0.22 -0.32,-0.34 -0.54,-0.43 l -0.34,-0.1 q -0.81,-0.2 -1.66,-0.23 -1,-0.06 -2,0.04 c -0.5,0.04 -1.02,0.1 -1.49,0.27 q -0.27,0.08 -0.47999,0.27 a 0.5,0.5 0 0 0 -0.1,0.62 1,1 0 0 0 0.37999,0.3 q 0.3,0.15 0.6,0.2 0.89,0.2 1.78,0.2 a 14,14 0 0 0 1.98,-0.06 l 0.48,-0.06 c 0.2,-0.03 0.31,-0.28 0.26,-0.45 -0.07,-0.2 -0.25,-0.29 -0.45,-0.26 q -0.4,0.06 -0.75,0.08 -0.96,0.07 -1.91,0 l -0.63,-0.05 -0.14,-0.02 -0.39,-0.07 a 0.06,0.06 0 0 1 0,-0.12 l 0.46,-0.08 0.21,-0.02 a 14,14 0 0 1 2.94,0.01 l 0.13,0.02 0.43,0.07 c 0.21,0.05 0.48,0.07 0.58,0.3 q 0.04,0.1 0.06,0.23 l 0.17,0.8 a 0.13,0.13 0 0 1 -0.1,0.16 h -0.07 a 20,20 0 0 1 -5.33,-0.03 l -0.53,-0.09 a 1,1 0 0 0 -0.59999,0.09 1,1 0 0 0 -0.37,0.38 c -0.08,0.17 -0.1,0.35 -0.14,0.54 -0.04,0.18 -0.1,0.38 -0.08,0.57 0.05,0.4 0.33,0.74 0.74,0.81 q 3.05999,0.54 6.13999,0.2 h 0.03 a 0.26,0.26 0 0 1 0.26,0.3 l -0.04,0.37 -0.55,5.3599995 q -0.02,0.34 -0.07,0.66 -0.12,0.52 -0.64,0.64 -0.47,0.1 -0.95,0.1 h -1.06 c -0.38,0 -0.84,-0.04 -1.13,-0.32 -0.26,-0.24 -0.3,-0.63 -0.33,-0.97 l -0.4,-3.7899995 -0.17,-1.67 c -0.02,-0.2 -0.16,-0.38 -0.37,-0.37 -0.18,0 -0.38999,0.16 -0.35999,0.37 l 0.11999,1.18 0.51,4.9299995 c 0.08,0.73 0.64,1.12 1.33,1.23 q 0.6,0.08 1.22,0.08 c 0.52,0.01 1.05,0.03 1.56,-0.06 0.76,-0.14 1.33,-0.65 1.41,-1.44 l 0.56,-5.3999995 0.11,-1.14 q 0.04,-0.17 0.22,-0.23 0.33,-0.04 0.58,-0.28 0.36,-0.4 0.2,-0.95 m -0.8,0.42 c -0.07,0.07 -0.2,0.1 -0.3,0.12 a 22,22 0 0 1 -6.77999,-0.02 q -0.15,0 -0.25,-0.1 c -0.12,-0.12 -0.06,-0.38 -0.03,-0.53 0.03,-0.14 0.08,-0.33 0.25,-0.35 0.25999,-0.03 0.56999,0.08 0.82999,0.12 l 0.94,0.11 q 2.02,0.18 4.04,-0.07 l 0.72,-0.12 c 0.22,-0.04 0.46,-0.11 0.59,0.11 0.09,0.149999 0.1,0.359999 0.09,0.529999 a 0.3,0.3 0 0 1 -0.1,0.2 m -3.33,2.08 c -0.46,0.2 -1,0.43 -1.68,0.43 q -0.43,0 -0.85,-0.11 l 0.48,4.8599995 a 0.8,0.8 0 0 0 0.81,0.75 c 0,0 0.67,0.04 0.9,0.04 l 0.96,-0.04 a 0.8,0.8 0 0 0 0.81,-0.75 l 0.51,-5.3799995 a 2,2 0 0 0 -0.71,-0.13 c -0.45,0 -0.81,0.16 -1.23,0.34"
     id="social-buymeacoffee"
     style="display:none" />
  <path
     d="M 15.99999,2.1300095 V 13.870009 c 0,1.18 -0.95,2.13 -2.13,2.13 H 2.13 A 2.13,2.13 0 0 1 0,13.870009 V 2.1300095 c 0,-1.17 0.95,-2.13 2.13,-2.13 h 11.73999 c 1.18,0 2.13,0.96 2.13,2.13 m -11.71999,0.57 c -1.1,-0.86 -2.9,-1.53 -2.9,0.6 0,0.42 0.24,3.57 0.38,4.08 0.47,1.77 2.21,2.22 3.76,1.95 -2.7,0.48 -3.4,2.0599995 -1.9,3.6499995 2.82,3.01 4.04999,-0.75 4.36999,-1.72 q 0.08,-0.28 0.09,-0.19 0,-0.1 0.08,0.19 c 0.32,0.97 1.55,4.73 4.38,1.72 1.48,-1.59 0.8,-3.1699995 -1.91,-3.6499995 1.55,0.27 3.29,-0.18 3.77,-1.95 0.13,-0.51 0.37,-3.66 0.37,-4.08 0,-2.13 -1.8,-1.46 -2.9,-0.6 a 16,16 0 0 0 -3.8,4.93 16,16 0 0 0 -3.77999,-4.93"
     id="social-bluesky"
     style="display:none" />
  <path
     d="M 16,2.1300085 V 13.870009 c 0,1.180001 -0.95,2.13 -2.13,2.13 H 2.13 A 2.13,2.13 0 0 1 0,13.870009 V 2.1300085 C 0,0.9600095 0.95,9.5e-6 2.13,9.5e-6 h 11.74 c 1.18,0 2.13,0.96 2.13,2.129999 M 2.45,11.16001 l -0.1,-0.06 c -0.13,-0.08 -0.34,0.01 -0.16,0.22 0.67,0.8 2.83,2.74 5.66,2.74 a 6.6,6.6 0 0 0 4.73,-1.820001 c 0.2,-0.26 0.06,-0.41 -0.15,-0.32 -4.9,2.33 -7.99,0.45 -9.98,-0.76 m 10.15,-0.16 c -0.43,0.05 -1.08,0.31 -1.02,0.47 q 0.01,0.05 0.2,0.02 l 0.18,-0.01 0.07,-0.01 c 0.34,-0.04 1.07,-0.11 1.23,0.1 0.17,0.22 -0.26,1.3 -0.34,1.48 -0.08,0.18 0.03,0.22 0.17,0.1 0.14,-0.12 0.4,-0.41 0.58,-0.84 0.18,-0.43 0.28,-1.02 0.17,-1.16 -0.13,-0.17 -0.81,-0.2 -1.24,-0.15 m -2.3,0 q 0.2,0.1 0.38,-0.04 0.6,-0.54 1.23,-1.0599995 c 0.13,-0.11 0.1,-0.28 0,-0.43 l -0.1,-0.13 a 2,2 0 0 1 -0.5,-1.35 v -2.740001 c 0,-0.96 0,-1.83 -0.7,-2.5 -0.62,-0.6 -1.64,-0.8 -2.42,-0.8 -1.52,0 -3.22,0.57 -3.58,2.45 -0.04,0.2 0.1,0.3 0.24,0.34 l 1.55,0.16 c 0.15,0 0.25,-0.15 0.28,-0.3 0.13,-0.64 0.68,-0.95 1.29,-0.95 0.33,0 0.7,0.12 0.9,0.41 0.2,0.3 0.2,0.7 0.2,1.05 v 0.32 l -0.48,0.05 a 9,9 0 0 0 -2.54,0.5 2.7,2.7 0 0 0 -1.71,2.630001 c 0,1.6600005 1.05,2.5000005 2.4,2.5000005 1.14,0 1.76,-0.27 2.64,-1.1700005 L 9.5,10.12001 c 0.21,0.31 0.35,0.51 0.8,0.89 z M 6.69,8.3300095 c 0,-1.37 1.22,-1.61 2.38,-1.61 v 0.43 c 0,0.59 0,1.08 -0.3,1.61 -0.26,0.45 -0.66,0.73 -1.11,0.73 -0.61,0 -0.97,-0.47 -0.97,-1.16"
     id="social-amazon"
     style="display:none" />
  <path
     d="M 1.1777,1.9140902e-5 A 1.1777,1.1777 0 0 0 0,1.1777191 v 5.401 a 1.178,1.178 0 0 0 0.345,0.8326 l 8.2440003,8.2438999 a 1.1777,1.1777 0 0 0 1.6651997,0 l 5.401,-5.401 a 1.1777,1.1777 0 0 0 0,-1.6651999 L 7.4112003,0.34501914 A 1.178,1.178 0 0 0 6.5787003,1.9140902e-5 Z M 5.8885,4.1220191 a 1.7666,1.7666 0 1 1 -3.5331,0 1.7666,1.7666 0 0 1 3.5331,0"
     id="icon-tag"
     inkscape:export-filename="icon-tag.svg"
     inkscape:export-xdpi="96"
     inkscape:export-ydpi="96"
     style="display:none" />
  <path
     d="m 2.2876551,10.910148 -2.17000004,3.75001 c -0.25,0.44 -0.09,1 0.37,1.23 0.46,0.23 1.04000004,0.09 1.30000004,-0.35 l 2.1099996,-3.67 A 6.7,6.7 0 0 0 12.127655,9.2901485 6.03,6.03 0 0 0 9.7476547,0.83014748 6.7,6.7 0 0 0 0.86765506,3.1001475 6,6 0 0 0 2.2776551,10.900148 M 8.7976547,2.4101475 a 4.26,4.26 0 0 1 1.6800003,5.970001 4.73,4.73 0 0 1 -6.2800003,1.6 4.26,4.26 0 0 1 -1.6799996,-5.970001 4.73,4.73 0 0 1 6.2799996,-1.6 m -2.3,2.8 c 0.74,-1.07 1.47,-0.92 1.96,-0.52 0.49,0.4 0.69,1.07 0.2,1.860001 -0.35,0.6 -1.32,0.74 -2.16,1.83 -0.95,-1.19 -1.45,-1.04 -1.96,-1.55 -0.73,-0.720001 -0.53,-1.740001 -0.04,-2.140001 0.49,-0.4 1.42,-0.64 2,0.51"
     id="icon-search"
     style="display:none" />
  <path
     d="m 7.9961022,1.45e-5 c -0.38,0 -0.76,0.22 -0.98,0.64999 L 0.16610244,13.980004 c -0.46,0.89 0.09,2.02 0.97999996,2.02 H 14.846101 c 0.9,0 1.44,-1.13 0.99,-2.02 L 8.9761012,0.6500045 A 1.1,1.1 0 0 0 7.9961022,1.45e-5 m 0.03,5.32999 q 0.84,0 1.499999,0.31 0.6499998,0.32 0.9999998,0.85 a 2.1,2.1 0 0 1 0.15,2.05 q -0.2,0.37 -0.48,0.65 -0.2699998,0.27 -0.9999998,0.9099995 l -0.319999,0.32 a 1,1 0 0 0 -0.27,0.48 l -0.09,0.4 q -0.1,0.6 -0.7,0.61 a 0.7,0.7 0 0 1 -0.51,-0.2 q -0.2,-0.2 -0.2,-0.59 0,-0.5 0.14,-0.85 0.15,-0.3599996 0.4,-0.6299995 0.26,-0.27 0.69,-0.65 0.38,-0.33 0.54,-0.5 0.159999,-0.17 0.279999,-0.37 a 1,1 0 0 0 0.12,-0.44 q 0,-0.479999 -0.359999,-0.799999 a 1.3,1.3 0 0 0 -0.9,-0.32 q -0.63,0 -0.94,0.33 -0.3,0.319999 -0.52,0.959999 -0.2,0.66 -0.7499998,0.66 a 0.8,0.8 0 0 1 -0.56,-0.23 0.7,0.7 0 0 1 -0.22,-0.5 q 0,-0.57 0.36,-1.129999 0.35,-0.570001 1.0399998,-0.950001 0.69,-0.37 1.6,-0.37 m -0.14,7.1199995 q 0.36,0 0.62,0.25 0.25,0.25 0.25,0.62 0,0.41 -0.26,0.64 a 0.94,0.94 0 0 1 -1.24,0 0.8,0.8 0 0 1 -0.26,-0.64 q 0,-0.37 0.25,-0.62 a 1,1 0 0 1 0.64,-0.25"
     id="icon-question"
     style="display:none" />
  <path
     d="m 1.3051709,12.875 a 0.6,0.6 0 0 1 0.60999,-0.62 H 14.085166 a 0.61,0.61 0 0 1 0,1.22 H 1.9151609 a 0.6,0.6 0 0 1 -0.59999,-0.6 m 0,-4.8799995 a 0.6,0.6 0 0 1 0.59999,-0.6 H 14.085166 a 0.60500005,0.60500005 0 0 1 0,1.21 H 1.9151609 a 0.6,0.6 0 0 1 -0.59999,-0.6 m 0,-4.87 a 0.6,0.6 0 0 1 0.59999,-0.61 H 14.085166 a 0.605,0.605 0 0 1 0,1.21 H 1.9151609 a 0.6,0.6 0 0 1 -0.59999,-0.6"
     id="icon-menu"
     inkscape:export-filename="icon-menu.svg"
     inkscape:export-xdpi="96"
     inkscape:export-ydpi="96"
     style="display:none" />
  <path
     d="m 8.0046782,3.9212801 c 2.4199998,-3.69799996 4.8199998,-3.15899996 6.4279998,-1.774 1.608,1.385 2.24,3.724 0.633,6.493 -1.125,2.0779999 -4.32,2.5759999 -7.0609998,6.3599999 -3.1339997,-4.146 -4.7659997,-3.64 -6.4290097,-5.3959999 -2.38999002,-2.523 -1.74999002,-6.072 -0.142,-7.457 1.60801,-1.38499996 4.6620097,-2.22499995 6.5700097,1.774 m 1.052,4.886 c 0,0.459 -0.517,0.797 -1.12,0.797 -0.603,0 -1.12,-0.338 -1.12,-0.797 0,-0.154 -0.133,-0.28 -0.297,-0.28 -0.164,0 -0.296,0.126 -0.296,0.28 0,0.732 0.752,1.3579999 1.713,1.3579999 0.961,0 1.713,-0.6249999 1.713,-1.3579999 0,-0.154 -0.132,-0.28 -0.296,-0.28 -0.164,0 -0.297,0.126 -0.297,0.28 m 2.3309998,-1.933 c -0.387,0 -0.701,0.133 -0.701,0.296 0,0.163 0.314,0.296 0.701,0.296 0.387,0 0.702,-0.133 0.702,-0.296 0,-0.163 -0.314,-0.296 -0.702,-0.296 m -1.236,-1.874 c -0.2339998,0 -0.4239998,0.372 -0.4239998,0.83 0,0.458 0.19,0.83 0.4239998,0.83 0.235,0 0.425,-0.372 0.425,-0.83 0,-0.458 -0.19,-0.83 -0.425,-0.83 m -5.6969995,1.874 c -0.387,0 -0.701,0.133 -0.701,0.296 0,0.163 0.314,0.296 0.701,0.296 0.387,0 0.702,-0.133 0.702,-0.296 0,-0.163 -0.314,-0.296 -0.702,-0.296 m 1.236,-1.874 c -0.234,0 -0.424,0.372 -0.424,0.83 0,0.458 0.19,0.83 0.424,0.83 0.234,0 0.4249997,-0.372 0.4249997,-0.83 0,-0.458 -0.1899997,-0.83 -0.4259997,-0.83"
     id="icon-heartsmile"
     style="display:none" />
  <path
     d="m 8.004683,3.9212797 c 2.42,-3.69800008 4.82,-3.15900008 6.428,-1.774 1.608,1.385 2.24,3.724 0.633,6.493 -1.125,2.0780003 -4.32,2.5760003 -7.061,6.3600003 -3.1340015,-4.146 -4.7660015,-3.64 -6.4290115,-5.3960003 -2.39000005,-2.523 -1.75000005,-6.072 -0.142,-7.457 1.60801,-1.38500008 4.6620115,-2.22499807 6.5700115,1.774"
     id="icon-heart"
     style="display:none" />
  <path
     d="M 15.33,3.3600111 H 13.9 a 2.08,1.84 0 0 0 0.9,-1.52 c 0,-1 -0.93,-1.840000002001 -2.07,-1.840000002001 A 2.08,1.84 0 0 0 11.15,0.6400111 l -1.77,1.71 a 1.6,1.6 0 0 0 -1.1,-0.45 H 7.73 c -0.45,0 -0.84,0.18 -1.1,0.45 l -1.78,-1.71 a 2.08,1.84 0 0 0 -1.55,-0.63 c -1.13,0 -2.07,0.83 -2.07,1.84 a 2.08,1.84 0 0 0 0.88,1.51 H 0.68 c -0.37,0 -0.68,0.27 -0.68,0.6 v 3.26 c 0,0.32 0.27,0.57 0.63,0.59 V 15.41001 c 0,0.32 0.3,0.59 0.68,0.59 h 13.38 c 0.38,0 0.68,-0.26 0.68,-0.6 V 7.8000111 c 0.36,0 0.63,-0.27 0.63,-0.58 v -3.26 c 0,-0.34 -0.3,-0.6 -0.68,-0.6 z m -7.33,3.95 c 1.4,-1.93 2.8,-1.65 3.73,-0.93 0.93,0.72 1.3,1.949999 0.36,3.399999 C 11.44,10.86001 9.59,11.13001 8,13.10001 c -1.82,-2.16 -2.76,-1.9 -3.72,-2.82 -1.4,-1.3199999 -1.02,-3.1699989 -0.1,-3.8999989 0.95,-0.72 2.71,-1.16 3.82,0.93 m -5.34,-5.21 a 0.71,0.63 0 0 1 -0.04,-0.23 c 0,-0.34 0.32,-0.63 0.7,-0.63 h 0.01 q 0.31,0.01 0.52,0.2 l 1.97,1.92 H 5.73 l -2.65,-0.89 a 0.7,0.62 0 0 1 -0.42,-0.37 m 10.69,0 a 0.7,0.7 0 0 1 -0.43,0.37 l -2.66,0.88 h -0.09 l 1.97,-1.9 a 0.7,0.62 0 0 1 0.53,-0.21 c 0.26,0 0.5,0.12 0.62,0.32 q 0.17,0.25 0.06,0.54"
     id="icon-gift"
     style="display:none" />
  <path
     d="m 8.978692,0.64864 a 1.13,1.291 0 0 0 -1.96,0 l -6.85399005,13.331 c -0.457,0.889 0.091,2.02 0.97998995,2.02 H 14.854692 c 0.89,0 1.438,-1.132 0.98,-2.02 z m -0.98,3.924 c 0.534,0 0.953,0.528 0.9,1.137 l -0.35,4.007 a 0.552,0.63 0 0 1 -1.1,0 l -0.35,-4.007 a 0.905,1.034 0 0 1 0.9,-1.137 m 0,6.856 a 1,1.143 0 1 1 0,2.286 1,1.143 0 0 1 0,-2.286"
     id="icon-danger"
     style="display:none" />
  <path
     d="m 3.5,9e-6 a 0.5,0.5 0 0 0 -0.5,0.5 v 0.5 H 2 a 2,2 0 0 0 -2,2 v 11 a 2,2 0 0 0 2,2.000001 h 11.99999 a 2,2 0 0 0 2,-2.000001 v -11 a 2,2 0 0 0 -2,-2 h -1 v -0.5 a 0.5,0.5 0 0 0 -1,0 v 0.5 H 4 v -0.5 A 0.5,0.5 0 0 0 3.5,9e-6 m -1.5,2 h 11.99999 a 1,1 0 0 1 1,1 v 1 H 1 v -1 a 1,1 0 0 1 1,-1 m -1,3 h 13.99999 v 9 a 1,1 0 0 1 -1,1 H 2 a 1,1 0 0 1 -1,-1 z m 5.193,1.502 c -0.517,0.019 -1.005,0.267 -1.355,0.568 -0.8,0.69 -1.118,2.457 0.072,3.713 0.828,0.874 1.64,0.623 3.2,2.686 1.364,-1.884 2.955,-2.132 3.515,-3.166 0.79999,-1.379 0.48299,-2.543 -0.316,-3.233 -0.8,-0.689 -1.995,-0.956 -3.2,0.885 -0.534,-1.12 -1.25,-1.477 -1.916,-1.453"
     id="icon-calendar"
     style="display:none" />
  <path
     d="m 8.005,0.7799995 c -1.58,0 -3.16,1.05 -3.16,3.160001 v 0.45 H 1.685 V 13.42 c 0,1 0.8,1.8 1.8,1.8 h 9.03 c 1,0 1.8,-0.8 1.8,-1.8 V 4.3900005 h -3.15 v -0.45 c 0,-2.100001 -1.58,-3.16 -3.16,-3.16 m 0,0.9 c 1.13,0 2.25,0.76 2.25,2.26 v 0.45 h -4.49 v -0.45 c 0,-1.5 1.12,-2.26 2.25,-2.26 m -5.43,3.61 h 10.83 v 8.1299985 c 0,0.5 -0.4,0.9 -0.9,0.9 h -9.02 a 0.9,0.9 0 0 1 -0.9,-0.9 z m 3.65,1.3100011 c -0.49,0.02 -0.95,0.259999 -1.28,0.54 -0.75,0.649999 -1.05,2.31 0.07,3.4999994 0.78,0.82 1.54,0.579999 3.01,2.519998 1.29,-1.769998 2.78,-1.999999 3.31,-2.979998 0.75,-1.2999994 0.46,-2.3900004 -0.3,-3.0399994 -0.75,-0.6500002 -1.87,-0.9000001 -3,0.829999 -0.52,-1.049999 -1.18,-1.39 -1.81,-1.369999"
     id="icon-bag"
     style="display:inline" />
</svg>
