<?xml version="1.0" encoding="UTF-8" standalone="no"?>
<svg
   version="1.1"
   id="svg33"
   sodipodi:docname="icons.svg"
   width="16"
   height="16"
   inkscape:version="1.4.3 (0d15f75042, 2025-12-25)"
   xml:space="preserve"
   xmlns:inkscape="http://www.inkscape.org/namespaces/inkscape"
   xmlns:sodipodi="http://sodipodi.sourceforge.net/DTD/sodipodi-0.dtd"
   xmlns="http://www.w3.org/2000/svg"
   xmlns:svg="http://www.w3.org/2000/svg"><defs
     id="defs33" /><sodipodi:namedview
     id="namedview33"
     pagecolor="#ffffff"
     bordercolor="#000000"
     borderopacity="0.25"
     inkscape:showpageshadow="2"
     inkscape:pageopacity="0.0"
     inkscape:pagecheckerboard="0"
     inkscape:deskcolor="#626262"
     inkscape:zoom="23.573333"
     inkscape:cx="2.8846154"
     inkscape:cy="2.1210408"
     inkscape:window-width="1920"
     inkscape:window-height="1052"
     inkscape:window-x="0"
     inkscape:window-y="0"
     inkscape:window-maximized="1"
     inkscape:current-layer="svg33"
     showborder="false" /><symbol
     id="icon-arrowleft"
     viewBox="0 0 16 16"><path
       d="m 1,8 c 0,3.84 3.16,7 7,7 3.84,0 7,-3.16 7,-7 C 15,4.16 11.84,1 8,1 4.16,1 1,4.16 1,8 m 15,0 c 0,4.389 -3.611,8 -8,8 C 3.611,16 0,12.389 0,8 0,3.611 3.611,0 8,0 c 4.389,0 8,3.161 8,8 M 11.5,7.5 C 11.774,7.5 12,7.726 12,8 12,8.274 11.774,8.5 11.5,8.5 H 5.707 l 2.147,2.146 a 0.5006316,0.5006316 0 1 1 -0.708,0.708 l -3,-3 a 0.5,0.5 0 0 1 0,-0.708 l 3,-3 A 0.5006316,0.5006316 0 1 1 7.854,5.354 L 5.707,7.5 Z"
       id="path1" /></symbol><symbol
     id="icon-arrowright"
     viewBox="0 0 16 16"><path
       d="m 15,8 c 0,3.84 -3.16,7 -7,7 C 4.16,15 1,11.84 1,8 1,4.16 4.16,1 8,1 c 3.84,0 7,3.16 7,7 M 0,8 c 0,4.389 3.611,8 8,8 4.389,0 8,-3.611 8,-8 C 16,3.611 12.389,0 8,0 3.611,0 0,3.611 0,8 M 4.5,7.5 C 4.226,7.5 4,7.726 4,8 4,8.274 4.226,8.5 4.5,8.5 h 5.793 l -2.147,2.146 a 0.5006316,0.5006316 0 1 0 0.708,0.708 l 3,-3 a 0.5,0.5 0 0 0 0,-0.708 l -3,-3 A 0.5006316,0.5006316 0 1 0 8.146,5.354 L 10.293,7.5 Z"
       id="path2" /></symbol><symbol
     id="icon-arrowup"
     viewBox="0 0 16 16"><path
       d="M 8,1 C 4.16,1 1,4.16 1,8 c 0,3.84 3.16,7 7,7 3.84,0 7,-3.16 7,-7 C 15,4.16 11.84,1 8,1 M 8,16 C 3.611,16 0,12.389 0,8 0,3.611 3.611,0 8,0 c 4.389,0 8,3.611 8,8 0,4.389 -3.611,8 -8,8 M 8.5,11.5 C 8.5,11.774 8.274,12 8,12 A 0.503,0.503 0 0 1 7.5,11.5 V 5.707 L 5.354,7.854 A 0.5006316,0.5006316 0 1 1 4.646,7.146 l 3,-3 a 0.5,0.5 0 0 1 0.708,0 l 3,3 A 0.5006316,0.5006316 0 1 1 10.646,7.854 L 8.5,5.707 Z"
       id="path3" /></symbol><symbol
     id="icon-bag"
     viewBox="0 0 16 16"><path
       d="M 8.14,0.76 C 6.56,0.76 4.98,1.81 4.98,3.92 V 4.37 H 1.82 v 9.03 c 0,1 0.8,1.8 1.8,1.8 h 9.03 c 1,0 1.8,-0.8 1.8,-1.8 V 4.37 H 11.3 V 3.92 C 11.3,1.82 9.72,0.76 8.14,0.76 m 0,0.9 c 1.13,0 2.25,0.76 2.25,2.26 V 4.37 H 5.9 V 3.92 C 5.9,2.42 7.02,1.66 8.15,1.66 M 2.72,5.27 h 10.83 v 8.13 c 0,0.5 -0.4,0.9 -0.9,0.9 H 3.63 A 0.9,0.9 0 0 1 2.73,13.4 Z M 6.37,6.58 C 5.88,6.6 5.42,6.84 5.09,7.12 c -0.75,0.65 -1.05,2.31 0.07,3.5 0.78,0.82 1.54,0.58 3.01,2.52 1.29,-1.77 2.78,-2 3.31,-2.98 0.75,-1.3 0.46,-2.39 -0.3,-3.04 C 10.43,6.47 9.31,6.22 8.18,7.95 7.66,6.9 7,6.56 6.37,6.58"
       id="path4" /></symbol><symbol
     id="icon-buymeacoffee"
     viewBox="0 0 16 16"><path
       d="m 13.47,4.25 q 0.21,0.64 -0.21,1.13 -0.32,0.27 -0.7,0.32 A 0.4,0.4 0 0 0 12.3,5.97 l -0.13,1.35 -0.34,2.95 -0.22,2.69 -0.08,0.83 c -0.11,0.94 -0.8,1.54 -1.71,1.7 q -0.9,0.14 -1.84,0.07 A 9,9 0 0 1 6.51,15.48 C 5.7,15.35 5.04,14.88 4.95,14 L 4.89,13.53 4.63,11.06 4.33,8.13 4.18,6.73 C 4.16,6.49 4.4,6.29 4.61,6.29 c 0.28,0 0.43,0.22 0.45,0.43 v 0.1 l 0.21,1.9 0.28,2.93 0.17,1.58 c 0.04,0.41 0.08,0.86 0.38,1.16 0.34,0.34 0.9,0.38 1.35,0.38 h 1.28 a 5,5 0 0 0 1.13,-0.13 q 0.62,-0.13 0.75,-0.74 a 4,4 0 0 0 0.08,-0.8 L 11.08,9.43 11.36,6.74 11.4,6.29 V 6.27 A 0.3,0.3 0 0 0 11.08,5.95 H 11.06 L 10.6,6 a 26,26 0 0 1 -6.86,-0.28 1.1,1.1 0 0 1 -0.9,-1 q 0,-0.33 0.1,-0.69 L 3.1,3.39 Q 3.25,3.12 3.53,2.96 A 1,1 0 0 1 4.28,2.84 l 0.62,0.1 0.19,0.02 h 0.08 l 0.28,0.07 a 24,24 0 0 0 5.79,-0.05 h 0.08 A 0.2,0.2 0 0 0 11.45,2.79 L 11.26,1.94 V 1.84 L 11.17,1.55 C 11.07,1.28 10.75,1.28 10.47,1.21 L 9.96,1.13 H 9.92 L 9.83,1.11 9.59,1.08 a 16,16 0 0 0 -3.28,0 L 6.07,1.11 5.92,1.13 5.52,1.21 a 0.065,0.065 0 1 0 0,0.13 Q 5.73,1.4 5.99,1.43 H 6.07 L 6.16,1.45 6.9,1.51 Q 8.3,1.61 9.68,1.47 L 9.94,1.45 10.06,1.43 q 0.39,-0.07 0.54,0.3 c 0.06,0.2 -0.09,0.5 -0.3,0.53 L 9.72,2.34 Q 8.55,2.47 7.37,2.43 A 14,14 0 0 1 5.24,2.17 3,3 0 0 1 4.54,1.96 1,1 0 0 1 4.09,1.58 0.64,0.64 0 0 1 4.19,0.83 2,2 0 0 1 4.78,0.5 C 5.33,0.29 5.95,0.25 6.55,0.19 a 17,17 0 0 1 2.4,-0.05 q 0.98,0.05 1.96,0.28 l 0.42,0.13 q 0.39,0.1 0.64,0.5 0.11,0.31 0.15,0.63 l 0.13,0.73 q 0,0.21 0.15,0.38 0.13,0.11 0.37,0.15 c 0.38,0.13 0.55,0.5 0.64,0.88 z m -0.92,0.5 a 0.3,0.3 0 0 0 0.1,-0.23 1,1 0 0 0 -0.1,-0.64 C 12.4,3.63 12.13,3.71 11.87,3.75 L 11.02,3.88 A 22,22 0 0 1 5.08,3.84 C 4.76,3.8 4.4,3.67 4.1,3.71 3.88,3.71 3.82,3.95 3.8,4.14 3.76,4.31 3.7,4.61 3.82,4.78 q 0.15,0.08 0.3,0.1 A 40,40 0 0 0 7.47,5.2 26,26 0 0 0 12.17,4.9 0.6,0.6 0 0 0 12.55,4.76 M 3.75,4.54 v 0.05 z"
       id="path5" /><path
       d="M 8.05,14.45 H 8.02 Z M 8.55,7.23 A 4,4 0 0 1 10.03,6.85 3,3 0 0 1 10.89,7 l -0.62,6.4 a 0.96,0.96 0 0 1 -0.96,0.9 c -0.5,0 -0.86,0.05 -1.16,0.05 L 7.1,14.3 A 0.96,0.96 0 0 1 6.14,13.4 L 5.56,7.62 a 4,4 0 0 0 1.02,0.13 c 0.81,0 1.43,-0.26 1.99,-0.51"
       id="path6" /></symbol><symbol
     id="icon-calendar"
     viewBox="0 0 16 16"><path
       d="M 3.5,0 A 0.5,0.5 0 0 0 3,0.5 V 1 H 2 A 2,2 0 0 0 0,3 v 11 a 2,2 0 0 0 2,2 h 12 a 2,2 0 0 0 2,-2 V 3 A 2,2 0 0 0 14,1 H 13 V 0.5 a 0.5,0.5 0 0 0 -1,0 V 1 H 4 V 0.5 A 0.5,0.5 0 0 0 3.5,0 M 2,2 h 12 a 1,1 0 0 1 1,1 V 4 H 1 V 3 A 1,1 0 0 1 2,2 M 1,5 h 14 v 9 a 1,1 0 0 1 -1,1 H 2 A 1,1 0 0 1 1,14 Z M 6.193,6.502 C 5.676,6.521 5.188,6.769 4.838,7.07 4.038,7.76 3.72,9.527 4.91,10.783 c 0.828,0.874 1.64,0.623 3.2,2.686 1.364,-1.884 2.955,-2.132 3.515,-3.166 C 12.425,8.924 12.108,7.76 11.309,7.07 10.509,6.381 9.314,6.114 8.109,7.955 7.575,6.835 6.859,6.478 6.193,6.502"
       id="path7" /></symbol><symbol
     id="icon-copyright"
     viewBox="0 0 16 16"><path
       d="M 8,0 A 8,8 0 0 0 2.34,2.32 8,8 0 0 0 0,8 7.9,7.9 0 0 0 4.9,15.38 Q 6.35,16 8,16 a 8,8 0 0 0 5.65,-2.32 q 1.1,-1.1 1.73,-2.54 Q 16,9.69 16,8 A 8,8 0 0 0 13.65,2.32 8,8 0 0 0 8,0 M 8,1.45 A 6.5,6.5 0 0 1 14.53,8 q 0,1.39 -0.5,2.57 -0.5,1.18 -1.4,2.08 -0.9,0.9 -2.1,1.4 -1.2,0.5 -2.53,0.5 A 6.4,6.4 0 0 1 3.4,12.65 6.6,6.6 0 0 1 1.97,5.43 6.4,6.4 0 0 1 5.47,1.95 Q 6.65,1.45 8,1.45 M 8.4,3.33 Q 7.14,3.33 6.04,3.91 4.94,4.48 4.26,5.53 3.58,6.58 3.58,8 q 0,1.27 0.63,2.33 a 4.8,4.8 0 0 0 4.18,2.33 q 1.3,0 2.35,-0.6 a 0.7,0.7 0 0 0 0.42,-0.59 q 0.06,-0.4 -0.17,-0.71 -0.19,-0.26 -0.5,-0.3 -0.31,-0.04 -0.59,0.1 a 3,3 0 0 1 -1.5,0.38 q -0.9,0 -1.59,-0.4 Q 6.12,10.14 5.71,9.48 5.3,8.82 5.31,8 5.31,7.1 5.73,6.43 A 3,3 0 0 1 6.85,5.41 3.4,3.4 0 0 1 9.91,5.43 q 0.27,0.13 0.58,0.09 0.31,-0.04 0.5,-0.3 A 0.8,0.8 0 0 0 11.17,4.49 Q 11.09,4.1 10.75,3.92 A 5,5 0 0 0 8.39,3.33"
       id="path8" /></symbol><symbol
     id="icon-danger"
     viewBox="0 0 16 16"><path
       d="m 8.98,0.649 a 1.13,1.291 0 0 0 -1.96,0 L 0.166,13.98 C -0.291,14.869 0.257,16 1.146,16 h 13.71 c 0.89,0 1.438,-1.132 0.98,-2.02 z M 8,4.573 c 0.534,0 0.953,0.528 0.9,1.137 L 8.55,9.717 a 0.552,0.63 0 0 1 -1.1,0 L 7.1,5.71 A 0.905,1.034 0 0 1 8,4.573 m 0,6.856 a 1,1.143 0 1 1 0,2.286 1,1.143 0 0 1 0,-2.286"
       id="path9" /></symbol><symbol
     id="icon-gift"
     viewBox="0 0 16 16"><path
       d="M 15.33,3.36 H 13.9 A 2.08,1.84 0 0 0 14.8,1.84 C 14.8,0.84 13.87,0 12.73,0 A 2.08,1.84 0 0 0 11.15,0.64 L 9.38,2.35 A 1.6,1.6 0 0 0 8.28,1.9 H 7.73 C 7.28,1.9 6.89,2.08 6.63,2.35 L 4.85,0.64 A 2.08,1.84 0 0 0 3.3,0.01 C 2.17,0.01 1.23,0.84 1.23,1.85 A 2.08,1.84 0 0 0 2.11,3.36 H 0.68 C 0.31,3.36 0,3.63 0,3.96 v 3.26 c 0,0.32 0.27,0.57 0.63,0.59 v 7.6 c 0,0.32 0.3,0.59 0.68,0.59 h 13.38 c 0.38,0 0.68,-0.26 0.68,-0.6 V 7.8 C 15.73,7.8 16,7.53 16,7.22 V 3.96 C 16,3.62 15.7,3.36 15.32,3.36 Z M 8,7.31 c 1.4,-1.93 2.8,-1.65 3.73,-0.93 0.93,0.72 1.3,1.95 0.36,3.4 C 11.44,10.86 9.59,11.13 8,13.1 6.18,10.94 5.24,11.2 4.28,10.28 2.88,8.96 3.26,7.11 4.18,6.38 5.13,5.66 6.89,5.22 8,7.31 M 2.66,2.1 A 0.71,0.63 0 0 1 2.62,1.87 c 0,-0.34 0.32,-0.63 0.7,-0.63 h 0.01 q 0.31,0.01 0.52,0.2 L 5.82,3.36 H 5.73 L 3.08,2.47 A 0.7,0.62 0 0 1 2.66,2.1 m 10.69,0 a 0.7,0.7 0 0 1 -0.43,0.37 l -2.66,0.88 h -0.09 l 1.97,-1.9 a 0.7,0.62 0 0 1 0.53,-0.21 c 0.26,0 0.5,0.12 0.62,0.32 q 0.17,0.25 0.06,0.54"
       id="path10" /></symbol><symbol
     id="icon-heart"
     viewBox="0 0 16 16"><path
       d="m 8.006,3.921 c 2.42,-3.698 4.82,-3.159 6.428,-1.774 1.608,1.385 2.24,3.724 0.633,6.493 C 13.942,10.718 10.747,11.216 8.006,15 4.872,10.854 3.24,11.36 1.577,9.604 -0.813,7.081 -0.173,3.532 1.435,2.147 3.043,0.762 6.097,-0.078 8.005,3.921"
       id="path11" /></symbol><symbol
     id="icon-heartsmile"
     viewBox="0 0 16 16"><path
       d="m 8.006,3.921 c 2.42,-3.698 4.82,-3.159 6.428,-1.774 1.608,1.385 2.24,3.724 0.633,6.493 C 13.942,10.718 10.747,11.216 8.006,15 4.872,10.854 3.24,11.36 1.577,9.604 -0.813,7.081 -0.173,3.532 1.435,2.147 3.043,0.762 6.097,-0.078 8.005,3.921 m 1.052,4.886 c 0,0.459 -0.517,0.797 -1.12,0.797 -0.603,0 -1.12,-0.338 -1.12,-0.797 0,-0.154 -0.133,-0.28 -0.297,-0.28 -0.164,0 -0.296,0.126 -0.296,0.28 0,0.732 0.752,1.358 1.713,1.358 0.961,0 1.713,-0.625 1.713,-1.358 0,-0.154 -0.132,-0.28 -0.296,-0.28 -0.164,0 -0.297,0.126 -0.297,0.28 m 2.331,-1.933 c -0.387,0 -0.701,0.133 -0.701,0.296 0,0.163 0.314,0.296 0.701,0.296 0.387,0 0.702,-0.133 0.702,-0.296 0,-0.163 -0.314,-0.296 -0.702,-0.296 M 10.152,5 C 9.918,5 9.728,5.372 9.728,5.83 c 0,0.458 0.19,0.83 0.424,0.83 0.235,0 0.425,-0.372 0.425,-0.83 C 10.577,5.372 10.387,5 10.152,5 M 4.455,6.874 c -0.387,0 -0.701,0.133 -0.701,0.296 0,0.163 0.314,0.296 0.701,0.296 0.387,0 0.702,-0.133 0.702,-0.296 0,-0.163 -0.314,-0.296 -0.702,-0.296 M 5.691,5 C 5.457,5 5.267,5.372 5.267,5.83 c 0,0.458 0.19,0.83 0.424,0.83 0.234,0 0.425,-0.372 0.425,-0.83 C 6.116,5.372 5.926,5 5.69,5"
       id="path12" /></symbol><symbol
     id="icon-question"
     viewBox="0 0 16 16"><path
       d="M 8,0 C 7.62,0 7.24,0.22 7.02,0.65 L 0.17,13.98 C -0.29,14.87 0.26,16 1.15,16 h 13.7 c 0.9,0 1.44,-1.13 0.99,-2.02 L 8.98,0.65 A 1.1,1.1 0 0 0 8,0 m 0.03,5.33 q 0.84,0 1.5,0.31 0.65,0.32 1,0.85 a 2.1,2.1 0 0 1 0.15,2.05 Q 10.48,8.91 10.2,9.19 9.93,9.46 9.2,10.1 L 8.88,10.42 A 1,1 0 0 0 8.61,10.9 l -0.09,0.4 q -0.1,0.6 -0.7,0.61 a 0.7,0.7 0 0 1 -0.51,-0.2 q -0.2,-0.2 -0.2,-0.59 0,-0.5 0.14,-0.85 Q 7.4,9.91 7.65,9.64 7.91,9.37 8.34,8.99 8.72,8.66 8.88,8.49 9.04,8.32 9.16,8.12 A 1,1 0 0 0 9.28,7.68 Q 9.28,7.2 8.92,6.88 A 1.3,1.3 0 0 0 8.02,6.56 Q 7.39,6.56 7.08,6.89 6.78,7.21 6.56,7.85 6.36,8.51 5.81,8.51 A 0.8,0.8 0 0 1 5.25,8.28 0.7,0.7 0 0 1 5.03,7.78 Q 5.03,7.21 5.39,6.65 5.74,6.08 6.43,5.7 7.12,5.33 8.03,5.33 m -0.14,7.12 q 0.36,0 0.62,0.25 0.25,0.25 0.25,0.62 0,0.41 -0.26,0.64 a 0.94,0.94 0 0 1 -1.24,0 A 0.8,0.8 0 0 1 7,13.32 Q 7,12.95 7.25,12.7 a 1,1 0 0 1 0.64,-0.25"
       id="path13" /></symbol><symbol
     id="icon-search"
     viewBox="0 0 16 16"><path
       d="m 4.3,10.89 -2.17,3.75 c -0.25,0.44 -0.09,1 0.37,1.23 0.46,0.23 1.04,0.09 1.3,-0.35 l 2.11,-3.67 a 6.7,6.7 0 0 0 8.23,-2.58 6.03,6.03 0 0 0 -2.38,-8.46 6.7,6.7 0 0 0 -8.88,2.27 6,6 0 0 0 1.41,7.8 m 6.52,-8.49 a 4.26,4.26 0 0 1 1.68,5.97 4.73,4.73 0 0 1 -6.28,1.6 4.26,4.26 0 0 1 -1.68,-5.97 4.73,4.73 0 0 1 6.28,-1.6 m -2.3,2.8 c 0.74,-1.07 1.47,-0.92 1.96,-0.52 0.49,0.4 0.69,1.07 0.2,1.86 C 10.32,7.13 9.35,7.27 8.51,8.36 7.56,7.17 7.06,7.32 6.55,6.81 5.82,6.09 6.02,5.07 6.51,4.67 7,4.27 7.93,4.03 8.51,5.18"
       id="path14" /></symbol><symbol
     id="social-amazon"
     viewBox="0 0 16 16"><path
       d="M 16,2.13 V 13.87 C 16,15.05 15.05,16 13.87,16 H 2.13 A 2.13,2.13 0 0 1 0,13.87 V 2.13 C 0,0.96 0.95,0 2.13,0 H 13.87 C 15.05,0 16,0.96 16,2.13 M 2.45,11.16 2.35,11.1 c -0.13,-0.08 -0.34,0.01 -0.16,0.22 0.67,0.8 2.83,2.74 5.66,2.74 a 6.6,6.6 0 0 0 4.73,-1.82 c 0.2,-0.26 0.06,-0.41 -0.15,-0.32 -4.9,2.33 -7.99,0.45 -9.98,-0.76 M 12.6,11 c -0.43,0.05 -1.08,0.31 -1.02,0.47 q 0.01,0.05 0.2,0.02 l 0.18,-0.01 0.07,-0.01 c 0.34,-0.04 1.07,-0.11 1.23,0.1 0.17,0.22 -0.26,1.3 -0.34,1.48 -0.08,0.18 0.03,0.22 0.17,0.1 0.14,-0.12 0.4,-0.41 0.58,-0.84 0.18,-0.43 0.28,-1.02 0.17,-1.16 C 13.71,10.98 13.03,10.95 12.6,11 m -2.3,0 q 0.2,0.1 0.38,-0.04 0.6,-0.54 1.23,-1.06 c 0.13,-0.11 0.1,-0.28 0,-0.43 L 11.81,9.34 A 2,2 0 0 1 11.31,7.99 V 5.25 c 0,-0.96 0,-1.83 -0.7,-2.5 C 9.99,2.15 8.97,1.95 8.19,1.95 6.67,1.95 4.97,2.52 4.61,4.4 4.57,4.6 4.71,4.7 4.85,4.74 L 6.4,4.9 C 6.55,4.9 6.65,4.75 6.68,4.6 6.81,3.96 7.36,3.65 7.97,3.65 c 0.33,0 0.7,0.12 0.9,0.41 0.2,0.3 0.2,0.7 0.2,1.05 V 5.43 L 8.59,5.48 A 9,9 0 0 0 6.05,5.98 2.7,2.7 0 0 0 4.34,8.61 c 0,1.66 1.05,2.5 2.4,2.5 1.14,0 1.76,-0.27 2.64,-1.17 l 0.12,0.18 c 0.21,0.31 0.35,0.51 0.8,0.89 z M 6.69,8.33 c 0,-1.37 1.22,-1.61 2.38,-1.61 v 0.43 c 0,0.59 0,1.08 -0.3,1.61 C 8.51,9.21 8.11,9.49 7.66,9.49 7.05,9.49 6.69,9.02 6.69,8.33"
       id="path15" /></symbol><symbol
     id="social-bluesky"
     viewBox="0 0 16 16"><path
       d="M 16,2.13 V 13.87 C 16,15.05 15.05,16 13.87,16 H 2.13 A 2.13,2.13 0 0 1 0,13.87 V 2.13 C 0,0.96 0.95,0 2.13,0 H 13.87 C 15.05,0 16,0.96 16,2.13 M 4.28,2.7 c -1.1,-0.86 -2.9,-1.53 -2.9,0.6 0,0.42 0.24,3.57 0.38,4.08 0.47,1.77 2.21,2.22 3.76,1.95 -2.7,0.48 -3.4,2.06 -1.9,3.65 2.82,3.01 4.05,-0.75 4.37,-1.72 q 0.08,-0.28 0.09,-0.19 0,-0.1 0.08,0.19 c 0.32,0.97 1.55,4.73 4.38,1.72 1.48,-1.59 0.8,-3.17 -1.91,-3.65 1.55,0.27 3.29,-0.18 3.77,-1.95 0.13,-0.51 0.37,-3.66 0.37,-4.08 0,-2.13 -1.8,-1.46 -2.9,-0.6 A 16,16 0 0 0 8.07,7.63 16,16 0 0 0 4.29,2.7"
       id="path16" /></symbol><symbol
     id="social-buymeacoffee"
     viewBox="0 0 16 16"><path
       d="M 16,2.13 V 13.87 C 16,15.05 15.05,16 13.87,16 H 2.13 A 2.13,2.13 0 0 1 0,13.87 V 2.13 C 0,0.96 0.95,0 2.13,0 H 13.87 C 15.05,0 16,0.96 16,2.13 M 12.76,5.1 12.69,4.74 C 12.63,4.42 12.49,4.11 12.15,3.99 12.05,3.96 11.92,3.94 11.85,3.86 11.76,3.79 11.74,3.66 11.72,3.56 L 11.62,2.94 Q 11.58,2.67 11.48,2.41 C 11.38,2.19 11.16,2.07 10.94,1.98 L 10.6,1.88 Q 9.79,1.68 8.94,1.65 q -1,-0.06 -2,0.04 C 6.44,1.73 5.92,1.79 5.45,1.96 Q 5.18,2.04 4.97,2.23 a 0.5,0.5 0 0 0 -0.1,0.62 1,1 0 0 0 0.38,0.3 q 0.3,0.15 0.6,0.2 0.89,0.2 1.78,0.2 A 14,14 0 0 0 9.61,3.49 L 10.09,3.43 C 10.29,3.4 10.4,3.15 10.35,2.98 10.28,2.78 10.1,2.69 9.9,2.72 Q 9.5,2.78 9.15,2.8 8.19,2.87 7.24,2.8 L 6.61,2.75 6.47,2.73 6.08,2.66 a 0.06,0.06 0 0 1 0,-0.12 L 6.54,2.46 6.75,2.44 a 14,14 0 0 1 2.94,0.01 l 0.13,0.02 0.43,0.07 c 0.21,0.05 0.48,0.07 0.58,0.3 q 0.04,0.1 0.06,0.23 l 0.17,0.8 a 0.13,0.13 0 0 1 -0.1,0.16 H 10.89 A 20,20 0 0 1 5.56,4 L 5.03,3.91 A 1,1 0 0 0 4.43,4 1,1 0 0 0 4.06,4.38 C 3.98,4.55 3.96,4.73 3.92,4.92 3.88,5.1 3.82,5.3 3.84,5.49 3.89,5.89 4.17,6.23 4.58,6.3 q 3.06,0.54 6.14,0.2 h 0.03 a 0.26,0.26 0 0 1 0.26,0.3 l -0.04,0.37 -0.55,5.36 q -0.02,0.34 -0.07,0.66 -0.12,0.52 -0.64,0.64 -0.47,0.1 -0.95,0.1 H 7.7 C 7.32,13.93 6.86,13.89 6.57,13.61 6.31,13.37 6.27,12.98 6.24,12.64 L 5.84,8.85 5.67,7.18 C 5.65,6.98 5.51,6.8 5.3,6.81 5.12,6.81 4.91,6.97 4.94,7.18 l 0.12,1.18 0.51,4.93 c 0.08,0.73 0.64,1.12 1.33,1.23 q 0.6,0.08 1.22,0.08 c 0.52,0.01 1.05,0.03 1.56,-0.06 0.76,-0.14 1.33,-0.65 1.41,-1.44 l 0.56,-5.4 0.11,-1.14 q 0.04,-0.17 0.22,-0.23 0.33,-0.04 0.58,-0.28 0.36,-0.4 0.2,-0.95 m -0.8,0.42 c -0.07,0.07 -0.2,0.1 -0.3,0.12 A 22,22 0 0 1 4.88,5.62 q -0.15,0 -0.25,-0.1 C 4.51,5.4 4.57,5.14 4.6,4.99 4.63,4.85 4.68,4.66 4.85,4.64 5.11,4.61 5.42,4.72 5.68,4.76 L 6.62,4.87 Q 8.64,5.05 10.66,4.8 l 0.72,-0.12 c 0.22,-0.04 0.46,-0.11 0.59,0.11 0.09,0.15 0.1,0.36 0.09,0.53 a 0.3,0.3 0 0 1 -0.1,0.2 M 8.63,7.6 C 8.17,7.8 7.63,8.03 6.95,8.03 Q 6.52,8.03 6.1,7.92 l 0.48,4.86 a 0.8,0.8 0 0 0 0.81,0.75 c 0,0 0.67,0.04 0.9,0.04 l 0.96,-0.04 a 0.8,0.8 0 0 0 0.81,-0.75 L 10.57,7.4 A 2,2 0 0 0 9.86,7.27 c -0.45,0 -0.81,0.16 -1.23,0.34"
       id="path17" /></symbol><symbol
     id="social-cara"
     viewBox="0 0 16 16"><path
       d="M 16,2.13 V 13.87 C 16,15.05 15.05,16 13.87,16 H 2.13 A 2.13,2.13 0 0 1 0,13.87 V 2.13 C 0,0.95 0.95,0 2.13,0 H 13.87 C 15.05,0 16,0.95 16,2.13 M 8,1.03 A 7,7 0 0 0 1.25,8 7,7 0 0 0 8,14.97 7,7 0 0 0 14.75,8 7,7 0 0 0 8,1.02 m 0,0.99 c 3.3,0 6,2.7 6,6 C 14,11.28 11.3,14 8,14 4.7,14 2,11.3 2,8 2,4.7 4.71,2 8,2 m 3.19,8.66 -0.97,-1.46 c 0,0 -0.98,0.56 -1.6,0.56 A 1.74,1.74 0 0 1 6.84,8.03 V 8 C 6.84,7.05 7.62,6.27 8.57,6.27 H 8.59 A 2,2 0 0 1 9.97,6.74 L 11.1,5.24 C 10.4,4.63 9.4,4.32 8.35,4.32 c -2.21,0 -4,1.66 -4,3.71 a 3.6,3.6 0 0 0 3.75,3.65 c 1.15,0 2.36,-0.29 3.09,-1.02"
       id="path18" /></symbol><symbol
     id="social-codepen"
     viewBox="0 0 16 16"><path
       d="M 16,2.13 V 13.87 C 16,15.05 15.05,16 13.87,16 H 2.13 A 2.13,2.13 0 0 1 0,13.87 V 2.13 C 0,0.96 0.95,0 2.13,0 H 13.87 C 15.05,0 16,0.96 16,2.13 M 8.14,1.65 a 6.33,6.33 0 1 0 0,12.66 6.33,6.33 0 0 0 0,-12.66 m 0,11.62 a 5.3,5.3 0 1 1 0,-10.6 5.3,5.3 0 0 1 0,10.6 M 12.05,6.79 C 12.07,6.68 11.99,6.56 11.9,6.51 L 8.32,4.12 a 0.3,0.3 0 0 0 -0.37,0 L 4.37,6.51 A 0.3,0.3 0 0 0 4.22,6.79 v 2.38 q 0,0.18 0.15,0.28 l 3.58,2.39 a 0.3,0.3 0 0 0 0.37,0 L 11.9,9.45 a 0.4,0.4 0 0 0 0.15,-0.28 z m -3.91,1.99 -1.2,-0.8 1.2,-0.8 1.19,0.8 z m 0.33,2.15 V 9.36 l 1.46,-0.98 1.18,0.8 z m 0,-5.9 2.64,1.76 L 9.93,7.57 8.47,6.6 Z m -0.67,0 V 6.6 L 6.34,7.57 5.16,6.79 Z M 4.9,7.42 5.73,7.98 4.89,8.54 Z M 11.38,8.54 10.54,7.98 11.38,7.42 Z M 7.8,10.93 5.16,9.17 6.34,8.38 7.8,9.36 Z"
       id="path19" /></symbol><symbol
     id="social-discord"
     viewBox="0 0 16 16"><path
       d="M 16,2.13 V 13.87 C 16,15.05 15.05,16 13.87,16 H 2.13 A 2.13,2.13 0 0 1 0,13.87 V 2.13 C 0,0.96 0.95,0 2.13,0 H 13.87 C 15.05,0 16,0.96 16,2.13 M 11.86,4.41 A 9,9 0 0 0 9.56,3.69 L 9.27,4.3 Q 8,4.11 6.73,4.3 L 6.43,3.7 a 9,9 0 0 0 -2.3,0.72 9.6,9.6 0 0 0 -1.65,6.45 c 0.96,0.72 1.9,1.16 2.82,1.44 a 7,7 0 0 0 0.6,-1 6,6 0 0 1 -0.95,-0.45 l 0.23,-0.19 a 6.5,6.5 0 0 0 5.64,0 l 0.23,0.19 a 6,6 0 0 1 -0.95,0.46 7,7 0 0 0 0.6,1 9,9 0 0 0 2.82,-1.45 9.6,9.6 0 0 0 -1.66,-6.46 M 9.85,9.57 c -0.55,0 -1,-0.51 -1,-1.14 0,-0.63 0.44,-1.14 1,-1.14 0.56,0 1,0.51 1,1.14 0,0.63 -0.44,1.14 -1,1.14 m -3.7,0 c -0.55,0 -1,-0.51 -1,-1.14 0,-0.63 0.44,-1.14 1,-1.14 0.56,0 1,0.51 1,1.14 0,0.63 -0.44,1.14 -1,1.14"
       id="path20" /></symbol><symbol
     id="social-email"
     viewBox="0 0 16 16"><path
       d="M 16,2.128 V 13.872 A 2.13,2.13 0 0 1 13.872,16 H 2.128 A 2.13,2.13 0 0 1 0,13.872 V 2.128 A 2.13,2.13 0 0 1 2.128,0 H 13.872 A 2.13,2.13 0 0 1 16,2.128 M 5.44,7.043 H 5.441 C 6.067,6.53 7.258,6.22 8.001,7.699 8.945,6.331 9.881,6.53 10.507,7.043 L 10.535,7.066 13.34,2.748 A 1.4,1.4 0 0 0 12.832,2.657 H 3.168 q -0.268,0 -0.506,0.09 z M 4.893,8.16 1.811,3.595 C 1.751,3.755 1.717,3.927 1.717,4.107 v 7.786 c 0,0.8 0.65,1.45 1.45,1.45 h 9.665 c 0.8,0 1.45,-0.65 1.45,-1.45 V 4.107 Q 14.281,3.837 14.19,3.597 l -3.078,4.56 C 11.144,8.541 11.04,8.977 10.753,9.445 10.315,10.213 9.07,10.397 8.002,11.798 6.78,10.264 6.145,10.45 5.497,9.8 A 2.02,2.02 0 0 1 4.892,8.158"
       id="path21" /></symbol><symbol
     id="social-github"
     viewBox="0 0 16 16"><path
       d="m 15.999,2.131 v 11.744 a 2.13,2.13 0 0 1 -2.128,2.128 H 2.126 A 2.13,2.13 0 0 1 0,13.875 V 2.131 A 2.13,2.13 0 0 1 2.126,0.003 h 11.745 a 2.13,2.13 0 0 1 2.128,2.128 M 7.542,1.391 A 6.777,6.777 0 0 0 0.763,8.17 6.77,6.77 0 0 0 5.398,14.6 c 0.34,0.06 0.466,-0.144 0.466,-0.321 0,-0.161 -0.008,-0.695 -0.008,-1.262 C 4.153,13.33 3.712,12.601 3.576,12.22 3.5,12.024 3.17,11.424 2.882,11.262 2.644,11.136 2.305,10.822 2.872,10.812 3.407,10.804 3.788,11.305 3.915,11.509 4.525,12.533 5.5,12.245 5.89,12.067 5.949,11.627 6.127,11.33 6.322,11.161 4.813,10.991 3.237,10.406 3.237,7.814 3.237,7.076 3.5,6.466 3.932,5.992 3.864,5.822 3.627,5.127 4,4.195 c 0,0 0.568,-0.178 1.864,0.694 0.543,-0.152 1.119,-0.228 1.695,-0.228 0.576,0 1.152,0.076 1.695,0.228 1.296,-0.88 1.864,-0.694 1.864,-0.694 0.373,0.932 0.136,1.628 0.068,1.797 0.432,0.474 0.695,1.076 0.695,1.822 0,2.6 -1.585,3.177 -3.093,3.347 0.246,0.212 0.457,0.618 0.457,1.254 0,0.907 -0.008,1.635 -0.008,1.864 0,0.177 0.127,0.39 0.466,0.322 A 6.8,6.8 0 0 0 14.321,8.17 6.777,6.777 0 0 0 7.542,1.39"
       id="path22" /></symbol><symbol
     id="social-googleplay"
     viewBox="0 0 16 16"><path
       d="M 16,2.13 V 13.87 C 16,15.05 15.05,16 13.87,16 H 2.13 A 2.13,2.13 0 0 1 0,13.87 V 2.13 C 0,0.96 0.95,0 2.13,0 H 13.87 C 15.05,0 16,0.96 16,2.13 M 10.38,10.89 8.07,8.76 3.1,13.34 a 1.18,1.18 0 0 0 1.75,0.8 z M 3.1,3.14 8.07,7.73 10.37,5.6 4.85,2.34 C 4.13,1.92 3.25,2.36 3.1,3.14 m 10,6.14 c 0.78,-0.46 0.78,-1.62 0,-2.08 L 11.06,6 8.63,8.24 11.06,10.48 Z M 3.08,12.33 7.51,8.24 3.08,4.15 Z"
       id="path23" /></symbol><symbol
     id="social-linkedin"
     viewBox="0 0 16 16"><path
       d="M 16,2.13 V 13.87 C 16,15.05 15.05,16 13.87,16 H 2.13 A 2.13,2.13 0 0 1 0,13.87 V 2.13 C 0,0.96 0.95,0 2.13,0 H 13.87 C 15.05,0 16,0.96 16,2.13 M 4.88,6.93 C 4.88,6.35 4.42,5.89 3.85,5.89 A 1.03,1.03 0 0 0 2.82,6.92 v 6.72 c 0,0.57 0.46,1.03 1.03,1.03 A 1.03,1.03 0 0 0 4.88,13.64 Z M 7.03,6.84 C 6.6,7.7 6.9,13.34 6.9,13.34 c 0,0.18 0.17,1 0.99,0.99 h 0.03 c 1.08,0.04 1,-0.9 1,-0.99 l 0.02,-3.32 a 1.84,1.84 0 0 1 3.44,-0.68 c 0.7,1.26 0.09,2.8 0.45,4.16 0.27,1 1.72,1.13 2,-0.18 A 10,10 0 0 0 14.51,8.79 C 13.71,6.64 10.83,5.79 8.9,6.89 8.58,6.04 7.4,6.09 7.03,6.84 M 3.85,2.19 C 3.18,1.02 2.11,1.27 1.55,1.67 0.99,2.07 0.75,3.11 1.59,3.85 2.18,4.37 2.75,4.22 3.85,5.43 4.81,4.33 5.93,4.18 6.33,3.57 6.89,2.77 6.67,2.07 6.11,1.67 5.55,1.27 4.7,1.11 3.85,2.19"
       id="path24" /></symbol><symbol
     id="social-patreon"
     viewBox="0 0 16 16"><path
       d="M 16,2.13 V 13.87 C 16,15.05 15.05,16 13.87,16 H 2.13 A 2.13,2.13 0 0 1 0,13.87 V 2.13 C 0,0.96 0.95,0 2.13,0 H 13.87 C 15.05,0 16,0.96 16,2.13 M 4.86,2.38 H 2.8 v 11.24 h 2.06 z m 5.4,0 a 4.215,4.215 0 1 0 0,8.43 4.215,4.215 0 0 0 0,-8.43"
       id="path25" /></symbol><symbol
     id="social-paypal"
     viewBox="0 0 16 16"><path
       d="M 16,2.13 V 13.87 C 16,15.05 15.05,16 13.87,16 H 2.13 A 2.13,2.13 0 0 1 0,13.87 V 2.13 C 0,0.96 0.95,0 2.13,0 H 13.87 C 15.05,0 16,0.96 16,2.13 M 12.1,4.66 C 12.2,3.82 12.03,3.23 11.55,2.69 10.98,2.04 9.95,1.76 8.65,1.76 H 4.82 A 0.55,0.55 0 0 0 4.28,2.22 L 2.7,12.3 a 0.33,0.33 0 0 0 0.32,0.38 h 2.15 l -0.15,1 -0.01,0.07 c 0,0.27 0.22,0.5 0.49,0.5 h 1.98 a 0.7,0.7 0 0 0 0.68,-0.58 l 0.02,-0.1 0.37,-2.37 0.02,-0.13 a 0.3,0.3 0 0 1 0.28,-0.24 h 0.3 c 0.98,0 1.88,-0.2 2.6,-0.7 Q 12.2,9.8 12.52,9.34 a 4,4 0 0 0 0.7,-1.71 C 13.4,6.66 13.32,5.79 12.77,5.17 A 2,2 0 0 0 12.17,4.71 Z M 6.24,8.64 6.49,8.58 H 7.6 c 2.2,0 3.92,-0.9 4.42,-3.47 V 5.09 q 0.26,0.14 0.43,0.35 0.63,0.73 0.35,2.1 a 3.4,3.4 0 0 1 -1.3,2.25 q -0.94,0.65 -2.37,0.64 H 8.83 A 0.7,0.7 0 0 0 8.16,11 L 8.14,11.13 7.77,13.5 7.75,13.6 A 0.3,0.3 0 0 1 7.47,13.83 H 5.5 a 0.1,0.1 0 0 1 -0.08,-0.1 l 0.16,-1.02 z"
       id="path26" /></symbol><symbol
     id="social-pinterest"
     viewBox="0 0 16 16"><path
       d="M 5.38,16 H 2.13 A 2.13,2.13 0 0 1 0,13.87 V 2.13 C 0,0.96 0.95,0 2.13,0 H 13.87 C 15.05,0 16,0.96 16,2.13 V 13.87 C 16,15.05 15.05,16 13.87,16 H 6.04 c 0.95,-0.95 1.35,-2.22 1.67,-3.88 0,0 1.1,0.59 1.99,0.66 3.28,0.25 5.05,-3.44 4.6,-6.64 C 13.9,3.3 11.03,1.84 7.96,2.19 5.54,2.46 3.12,4.39 3.02,7.15 c -0.05,1.2 0.04,2.43 0.91,2.78 0,0 1.09,-0.41 0.77,-1.86 -0.8,-3.6 4.28,-5.76 6.82,-3.22 1.76,1.76 0.74,6.6 -2.1,6.04 C 6.7,10.35 10.6,6.25 8.42,5.4 6.66,4.71 5.72,7.5 6.56,8.9 6.1,11.14 5.13,13.26 5.38,16"
       id="path27" /></symbol><symbol
     id="social-reddit"
     viewBox="0 0 16 16"><path
       d="m 15.999,2.131 v 11.744 a 2.13,2.13 0 0 1 -2.128,2.128 H 2.126 A 2.13,2.13 0 0 1 0,13.875 V 2.131 A 2.13,2.13 0 0 1 2.126,0.003 h 11.745 a 2.13,2.13 0 0 1 2.128,2.128 m -2.137,5.763 a 1.34,1.34 0 0 0 -1.328,-1.348 1.3,1.3 0 0 0 -0.9,0.358 C 10.758,6.325 9.584,5.951 8.284,5.9 L 9,3.68 10.883,4.13 c 0,0.61 0.491,1.107 1.094,1.107 0.603,0 1.093,-0.498 1.093,-1.11 0,-0.612 -0.49,-1.108 -1.093,-1.108 -0.452,0 -0.84,0.278 -1.007,0.675 L 8.708,3.154 7.823,5.894 C 6.473,5.921 5.251,6.292 4.341,6.886 A 1.3,1.3 0 0 0 3.461,6.546 1.34,1.34 0 0 0 2.134,7.894 c 0,0.471 0.242,0.904 0.63,1.146 -0.353,2.119 2.108,3.948 5.209,3.948 3.088,0 5.54,-1.813 5.214,-3.921 a 1.34,1.34 0 0 0 0.674,-1.173 m -3.974,3.234 c -0.394,0.4 -1.013,0.595 -1.89,0.595 -0.878,0 -1.496,-0.195 -1.89,-0.595 a 0.225,0.225 0 0 1 0,-0.314 0.22,0.22 0 0 1 0.31,0 c 0.307,0.312 0.824,0.464 1.58,0.464 0.755,0 1.272,-0.152 1.58,-0.464 a 0.22,0.22 0 0 1 0.31,0 0.225,0.225 0 0 1 0,0.314 M 5.414,8.795 c 0,-0.452 0.374,-0.832 0.82,-0.832 0.446,0 0.808,0.38 0.808,0.832 0,0.452 -0.362,0.82 -0.808,0.82 a 0.825,0.825 0 0 1 -0.82,-0.82 m 4.36,0.82 a 0.825,0.825 0 0 1 -0.82,-0.82 c 0,-0.454 0.374,-0.832 0.82,-0.832 0.447,0 0.809,0.378 0.809,0.832 0,0.452 -0.361,0.82 -0.808,0.82"
       id="path28" /></symbol><symbol
     id="social-telegram"
     viewBox="0 0 16 16"><path
       d="M 16,2.13 V 13.87 C 16,15.05 15.05,16 13.87,16 H 2.13 A 2.13,2.13 0 0 1 0,13.87 V 2.13 C 0,0.96 0.95,0 2.13,0 H 13.87 C 15.05,0 16,0.96 16,2.13 M 8.56,5.08 Q 7.05,5.8 2.47,8.05 1.73,8.39 1.7,8.71 c -0.04,0.36 0.36,0.5 0.9,0.7 l 0.23,0.08 c 0.53,0.2 1.25,0.42 1.62,0.43 Q 4.96,9.93 5.58,9.45 9.85,6.18 9.98,6.15 c 0.07,-0.02 0.16,-0.04 0.22,0.02 0.06,0.06 0.06,0.18 0.05,0.2 -0.04,0.2 -1.6,1.85 -2.4,2.7 L 7.37,9.57 7.13,9.84 c -0.5,0.55 -0.87,0.95 0.02,1.61 a 92,92 0 0 1 2.33,1.78 l 0.35,0.28 c 0.43,0.35 0.82,0.66 1.3,0.61 0.28,-0.03 0.57,-0.32 0.72,-1.21 A 168,168 0 0 0 13.03,4.39 Q 13.04,4.16 13.01,3.92 A 0.5,0.5 0 0 0 12.86,3.6 0.6,0.6 0 0 0 12.46,3.46 c -0.4,0.01 -1,0.25 -3.9,1.62"
       id="path29" /></symbol><symbol
     id="social-tiktok"
     viewBox="0 0 16 16"><path
       d="m 15.999,2.131 v 11.744 a 2.13,2.13 0 0 1 -2.128,2.128 H 2.126 A 2.13,2.13 0 0 1 0,13.875 V 2.131 A 2.13,2.13 0 0 1 2.126,0.003 h 11.745 a 2.13,2.13 0 0 1 2.128,2.128 M 8.849,1.195 v 9.36 c 0,1.401 -1.152,2.555 -2.552,2.555 -1.4,0 -2.553,-1.154 -2.553,-2.554 0,-1.4 1.152,-2.553 2.553,-2.553 V 6.301 c -2.335,0 -4.255,1.921 -4.255,4.255 0,2.335 1.92,4.255 4.255,4.255 2.335,0 4.255,-1.92 4.255,-4.255 V 4.745 c 0.79,0.864 1.912,1.556 3.403,1.556 V 4.599 c -1.023,0 -1.79,-0.52 -2.37,-1.266 -0.591,-0.762 -0.928,-1.529 -1.05,-2.138 z"
       id="path30" /></symbol><symbol
     id="social-vgen"
     viewBox="0 0 16 16"><path
       d="M 16,2.13 V 13.87 C 16,15.05 15.05,16 13.87,16 H 2.13 A 2.13,2.13 0 0 1 0,13.87 V 2.13 C 0,0.96 0.95,0 2.13,0 H 13.87 C 15.05,0 16,0.96 16,2.13 M 6.3,6.53 C 5.87,5.98 5.78,5.83 5.62,5.59 a 2.2,2.2 0 0 0 -1.37,-1 C 3.66,4.48 3.1,4.49 2.43,5.29 2.01,5.79 1.79,6.51 1.86,7.23 c 0.1,1.04 0.78,2.56 3.08,4.88 a 6,6 0 0 0 2.34,1.65 c 1.07,0.35 2.37,0.1 3.55,-0.87 1.42,-1.18 1.94,-2.2 2.56,-3.14 C 14.09,8.68 14.55,7.83 14.4,6.52 14.23,4.99 12.94,1.95 9.8,2.1 A 3,3 0 0 0 7.92,2.9 C 7.1,3.7 6.17,5 6.31,6.54 m 1.42,3.49 C 7.99,10.13 8.99,9.92 8.81,9.63 8.18,8.68 7.45,8.39 7.36,6.34 7.32,5.26 7.96,4.42 8.54,3.86 8.9,3.52 9.52,3.39 9.84,3.36 c 1.75,-0.1 2.91,2.28 2.98,3.14 0.1,1.25 -1.93,3.68 -2.9,4.6 C 7.94,13 6.27,11.17 5.91,10.85 A 12,12 0 0 1 3.15,7.45 C 2.49,6.1 3.67,5.15 4.54,6.62 5.39,8.05 5.81,8.43 6.71,9.38 7.16,9.85 7.41,9.9 7.73,10.03 m 2.35,-1.69 c 0,0 0.97,-0.98 1,-1.9 C 11.1,4.88 8.97,4.75 8.96,6.39 8.95,7.52 10.08,8.34 10.08,8.34"
       id="path31" /></symbol><symbol
     id="social-webtoon"
     viewBox="0 0 16 16"><path
       d="M 2.13,0 A 2.13,2.13 0 0 0 0,2.13 V 13.87 A 2.13,2.13 0 0 0 2.13,16 H 13.87 A 2.13,2.13 0 0 0 16,13.87 V 2.13 A 2.13,2.13 0 0 0 13.87,0 Z m 10.53,3.04 -0.37,4.7 h 1.5 l -0.63,4.1 -4.92,2.28 V 12.49 L 4.04,13.01 2.21,7.56 H 3.99 L 3.17,4.5 Z M 10.57,6.08 H 10.52 L 9.36,6.18 V 8.29 H 10.7 C 11.27,8.04 11.27,7.58 11.04,7.35 A 0.5,0.5 0 0 0 10.7,7.21 0.5,0.5 0 0 0 11.03,7.06 0.5,0.5 0 0 0 11.18,6.69 0.6,0.6 0 0 0 10.58,6.08 M 9.15,6.18 7.71,6.28 V 8.22 L 9.15,8.29 V 7.77 L 8.23,7.76 V 7.52 H 9.04 V 6.96 L 8.24,6.99 V 6.76 L 9.14,6.71 Z M 7.57,6.29 7.04,6.33 6.74,7.47 6.46,6.37 5.97,6.41 5.71,7.46 5.46,6.44 4.95,6.49 5.38,8.17 h 0.57 l 0.25,-0.9 0.27,0.9 h 0.57 z m 2.74,0.31 a 0.2,0.2 0 0 1 0.17,0.17 0.2,0.2 0 0 1 -0.17,0.17 H 9.92 V 6.62 Z m 0.06,0.9 a 0.17,0.17 0 0 1 0,0.32 H 9.93 V 7.51 Z M 4.2,8.6 v 0.56 h 0.66 v 1.7 L 5.49,10.83 V 9.2 h 0.6 V 8.63 Z M 7.22,8.62 A 1.1,1.1 0 0 0 6.12,9.7 1.09,1.09 0 0 0 8.3,9.7 C 8.3,9.1 7.82,8.62 7.21,8.62 m 2.22,0.05 a 0.97,0.97 0 0 0 -0.95,1 c 0,0.54 0.42,0.99 0.95,0.99 0.53,0 0.96,-0.45 0.96,-1 0,-0.55 -0.43,-0.99 -0.96,-0.99 m 1.12,0.05 v 1.81 l 0.57,-0.01 v -0.9 l 0.57,0.87 0.47,-0.03 0.04,-1.71 h -0.55 v 0.88 l -0.58,-0.9 z m -3.3,0.47 c 0.25,0 0.46,0.23 0.46,0.52 0,0.29 -0.2,0.52 -0.47,0.52 -0.27,0 -0.46,-0.23 -0.46,-0.52 0,-0.29 0.2,-0.52 0.46,-0.52 m 2.2,0.01 c 0.23,0 0.42,0.21 0.42,0.47 0,0.26 -0.19,0.47 -0.42,0.47 C 9.21,10.14 9.03,9.94 9.03,9.67 9.03,9.4 9.22,9.2 9.44,9.2"
       id="path32" /></symbol><symbol
     id="social-youtube"
     viewBox="0 0 16 16"><path
       d="M 2.127,0 A 2.13,2.13 0 0 0 0,2.129 V 13.87 A 2.13,2.13 0 0 0 2.127,16 H 13.873 A 2.13,2.13 0 0 0 16,13.871 V 2.13 A 2.13,2.13 0 0 0 13.873,0 Z m 5.812,3.605 h 0.245 c 0.71,0.003 4.306,0.029 5.275,0.29 a 1.74,1.74 0 0 1 1.22,1.224 c 0.088,0.328 0.149,0.763 0.19,1.211 l 0.01,0.09 0.018,0.225 0.007,0.09 c 0.056,0.788 0.064,1.527 0.065,1.689 v 0.064 c -10e-4,0.168 -0.01,0.956 -0.072,1.778 l -0.006,0.091 -0.008,0.09 c -0.043,0.494 -0.108,0.983 -0.203,1.344 a 1.74,1.74 0 0 1 -1.221,1.227 C 12.458,13.287 8.65,13.306 8.123,13.307 H 8 c -0.267,0 -1.369,-0.006 -2.525,-0.045 L 5.328,13.258 5.252,13.254 5.105,13.248 4.957,13.242 C 3.999,13.2 3.087,13.132 2.666,13.018 A 1.74,1.74 0 0 1 1.443,11.791 c -0.095,-0.36 -0.158,-0.85 -0.2,-1.344 L 1.234,10.355 1.227,10.265 A 27,27 0 0 1 1.157,8.51 V 8.402 C 1.158,8.217 1.167,7.575 1.213,6.867 L 1.219,6.779 1.221,6.734 1.227,6.644 1.247,6.42 1.256,6.33 C 1.297,5.882 1.358,5.446 1.446,5.12 A 1.74,1.74 0 0 1 2.666,3.895 C 3.086,3.782 3.999,3.713 4.957,3.67 L 5.105,3.664 5.254,3.658 5.328,3.656 5.475,3.65 A 86,86 0 0 1 7.939,3.605 m -1.257,2.77 v 4.16 L 10.27,8.457 Z"
       id="path33" /></symbol></svg>
