<?xml version="1.0" encoding="UTF-8" standalone="no"?>
<svg
   version="1.1"
   id="svg35"
   width="16"
   height="16"
   xmlns="http://www.w3.org/2000/svg"
   xmlns:svg="http://www.w3.org/2000/svg">
  <defs
     id="defs35" />
  <path
     d="m 1.3051709,12.875 a 0.6,0.6 0 0 1 0.60999,-0.62 H 14.085166 a 0.61,0.61 0 0 1 0,1.22 H 1.9151609 a 0.6,0.6 0 0 1 -0.59999,-0.6 m 0,-4.8799995 a 0.6,0.6 0 0 1 0.59999,-0.6 H 14.085166 a 0.60500005,0.60500005 0 0 1 0,1.21 H 1.9151609 a 0.6,0.6 0 0 1 -0.59999,-0.6 m 0,-4.87 a 0.6,0.6 0 0 1 0.59999,-0.61 H 14.085166 a 0.605,0.605 0 0 1 0,1.21 H 1.9151609 a 0.6,0.6 0 0 1 -0.59999,-0.6"
     id="icon-menu" />
</svg>
