<svg xmlns="http://www.w3.org/2000/svg" style="display: none;">


  <symbol id="icon_arrowleft" viewBox="0 0 16 16">
<g style=""><path d="M1 8c0 3.84 3.16 7 7 7s7-3.16 7-7-3.16-7-7-7-7 3.16-7 7m15 0c0 4.389-3.611 8-8 8s-8-3.611-8-8 3.611-8 8-8 8 3.611 8 8m-4.5-.5c.274 0 .5.226.5.5s-.226.5-.5.5H5.707l2.147 2.146a.5.5 0 1 1-.708.708l-3-3a.5.5 0 0 1 0-.708l3-3a.5.5 0 1 1 .708.708L5.707 7.5Z" style="fill-opacity:1"/></g>  </symbol>
  <symbol id="icon_arrowright" viewBox="0 0 16 16">
<path d="M8.982 1.566a1.13 1.13 0 0 0-1.96 0L.165 13.233c-.457.778.091 1.767.98 1.767h13.713c.889 0 1.438-.99.98-1.767zM8 5c.535 0 .954.462.9.995l-.35 3.507a.552.552 0 0 1-1.1 0L7.1 5.995A.905.905 0 0 1 8 5m.002 6a1 1 0 1 1 0 2 1 1 0 0 1 0-2" style="fill:currentColor" transform="matrix(.99982 0 0 1.14274 0 -1.141)"/>  </symbol>
  <symbol id="icon_buymeacoffee" viewBox="0 0 16 16">
<g style=""><g style=""><path d="M35.151 7.932q.411 1.232-.411 2.178-.617.534-1.356.616a.82.82 0 0 0-.494.534l-.246 2.589-.658 5.672-.411 5.178-.164 1.602c-.206 1.809-1.521 2.959-3.288 3.288q-1.725.247-3.534.123a16.5 16.5 0 0 1-2.836-.164c-1.561-.247-2.835-1.151-3-2.836l-.123-.904-.493-4.767-.575-5.63-.288-2.712c-.041-.452.411-.822.822-.822.534 0 .822.411.863.822v.205l.411 3.658.534 5.63.329 3.041c.082.781.164 1.644.74 2.219.657.658 1.726.74 2.589.74h2.465a10.3 10.3 0 0 0 2.178-.247q1.192-.247 1.439-1.438a7.4 7.4 0 0 0 .164-1.521l.74-7.068.534-5.178.082-.863.002-.043a.62.62 0 0 0-.617-.616l-.042.001-.863.082a49.3 49.3 0 0 1-13.192-.534 2.06 2.06 0 0 1-1.726-1.931q0-.617.164-1.315l.329-1.233c.189-.348.475-.633.822-.822a2.05 2.05 0 0 1 1.438-.247l1.192.206.37.041h.164l.535.123c3.702.424 7.441.396 11.137-.082h.164a.41.41 0 0 0 .247-.37l-.37-1.644v-.205l-.165-.535c-.205-.534-.821-.534-1.356-.657l-.986-.164h-.082l-.165-.042-.452-.041a31.3 31.3 0 0 0-6.328 0l-.452.041-.288.042-.781.164a.123.123 0 1 0 0 .246q.41.124.904.165h.165l.164.041 1.438.123c1.78.116 3.567.089 5.343-.082l.493-.041.246-.041q.74-.123 1.028.575c.123.411-.165.986-.576 1.028l-1.109.164q-2.26.246-4.521.164a26 26 0 0 1-4.109-.493 6 6 0 0 1-1.356-.411 1.64 1.64 0 0 1-.863-.739 1.235 1.235 0 0 1 .205-1.439 2.9 2.9 0 0 1 1.11-.616c1.068-.411 2.26-.493 3.411-.617a32 32 0 0 1 4.602-.082q1.891.083 3.781.534l.822.247q.74.206 1.233.945.206.616.288 1.233l.246 1.397q0 .411.288.74.246.205.699.288c.739.246 1.068.945 1.232 1.685zm-1.767.986a.63.63 0 0 0 .205-.452 2.1 2.1 0 0 0-.205-1.233c-.288-.493-.822-.329-1.316-.247l-1.643.247A41.5 41.5 0 0 1 19 7.151c-.616-.083-1.315-.329-1.89-.247-.411 0-.535.452-.576.822-.082.329-.205.904.041 1.233q.288.164.576.205a76 76 0 0 0 6.452.617 49.5 49.5 0 0 0 9.041-.576 1.23 1.23 0 0 0 .74-.287m-16.932-.411v.082z" style="" transform="translate(-4.793 .124)scale(.51957)"/><path d="M24.712 27.575h-.041zm.987-13.89c.986-.411 1.808-.74 2.835-.74a4.9 4.9 0 0 1 1.644.288l-1.192 12.329a1.856 1.856 0 0 1-1.849 1.726c-.97-.002-1.644.082-2.219.082l-2.055-.082a1.856 1.856 0 0 1-1.849-1.726l-1.11-11.137a8 8 0 0 0 1.973.246c1.561 0 2.753-.493 3.822-.986" style="" transform="translate(-4.793 .124)scale(.51957)"/></g></g>  </symbol>
  <symbol id="icon_calendar" viewBox="0 0 16 16">
<path d="M3.5 0a.5.5 0 0 0-.5.5V1H2a2 2 0 0 0-2 2v11a2 2 0 0 0 2 2h12a2 2 0 0 0 2-2V3a2 2 0 0 0-2-2h-1V.5a.5.5 0 0 0-1 0V1H4V.5a.5.5 0 0 0-.5-.5M2 2h12a1 1 0 0 1 1 1v1H1V3a1 1 0 0 1 1-1M1 5h14v9a1 1 0 0 1-1 1H2a1 1 0 0 1-1-1Zm5.193 1.502c-.517.019-1.005.267-1.355.568-.8.69-1.118 2.457.072 3.713.828.874 1.64.623 3.2 2.686 1.364-1.884 2.955-2.132 3.515-3.166.8-1.379.483-2.543-.316-3.233-.8-.689-1.995-.956-3.2.885-.534-1.12-1.25-1.477-1.916-1.453" style=""/>  </symbol>
  <symbol id="icon_copyright" viewBox="0 0 16 16">
<g style=""><g style=""><path d="M3013.46 2110.09c-221.49 0-430.17-25.88-626.05-77.63-195.87-51.75-368.02-123.5-516.43-215.24-148.41-91.75-264.43-199.01-348.05-321.81-83.63-122.79-125.44-254.29-125.44-394.49 0-142.088 41.81-274.057 125.44-395.91 83.62-121.854 199.64-228.652 348.05-320.395s320.56-163.491 516.43-215.243c195.88-51.753 404.56-77.629 626.05-77.629s430.17 25.876 626.05 77.629c195.87 51.752 367.83 123.5 515.86 215.243q222.06 137.614 348.06 320.395 126 182.779 126 395.91c0 140.2-42 271.7-126 394.49-84 122.8-200.02 230.06-348.06 321.81-148.03 91.74-319.99 163.49-515.86 215.24-195.88 51.75-404.56 77.63-626.05 77.63m0-183.49c181.56 0 352.2-20.93 511.91-62.8 159.71-41.88 300.4-100.45 422.07-175.73 121.67-75.27 216.41-163.02 284.21-263.23s101.7-208.19 101.7-323.92q0-175.022-101.7-324.28c-67.8-99.506-162.54-187.015-284.21-262.526q-182.505-113.268-422.07-176.076c-159.71-41.873-330.35-62.809-511.91-62.809s-351.63 20.936-510.22 62.809c-158.58 41.872-298.71 100.564-420.37 176.076-121.67 75.511-216.97 163.02-285.91 262.526-68.93 99.506-103.4 207.598-103.4 324.28 0 115.73 33.91 223.71 101.71 323.92s162.54 187.96 284.2 263.23c121.67 75.28 262.36 133.85 422.08 175.73 159.71 41.87 330.35 62.8 511.91 62.8m79.1-237.12c-168.75 0-327.34-24.11-475.75-72.33-148.41-48.23-268.2-116.45-359.35-204.66-91.16-88.21-136.74-192.07-136.74-311.57 0-106.802 42.75-204.661 128.26-293.582s201.9-160.197 349.19-213.831c147.28-53.635 312.08-80.452 494.39-80.452q262.17 0 473.49 76.217c49.72 14.585 78.54 39.05 86.45 73.395q11.865 51.517-34.47 90.331-38.415 32.463-101.7 37.05-63.285 4.588-118.65-13.055c-45.21-15.056-93.23-26.582-144.09-34.58-50.85-7.998-104.53-11.998-161.03-11.998-119.03 0-225.25 16.702-318.67 50.106q-140.13 50.106-221.49 133.733-81.36 83.63-81.36 186.666c0 75.74 28.25 141.61 84.75 197.6 56.5 55.98 131.84 98.91 226.01 128.79 94.17 29.87 197.76 44.81 310.76 44.81 54.24 0 106.79-4.11 157.64-12.35 50.86-8.23 100.39-19.64 148.61-34.22 36.16-11.77 75.33-15.65 117.52-11.65q63.285 6 101.7 38.46c35.41 27.76 47.65 58.11 36.73 91.04q-16.38 49.395-85.32 72.69c-73.07 24.46-150.11 42.81-231.09 55.04-80.99 12.24-162.92 18.35-245.79 18.35" style="fill-rule:nonzero;stroke:none;stroke-opacity:1;fill-opacity:1" transform="matrix(.00495 0 0 -.00793 -6.918 16.727)"/></g></g>  </symbol>
  <symbol id="icon_gift" viewBox="0 0 16 16">
<g style="clip-rule:evenodd;fill-rule:evenodd;stroke-linejoin:round;stroke-miterlimit:2"><path d="M181 41.5h-16a23.02 23.02 0 0 0 10.031-18.995c0-12.618-10.382-23-23-23A23.01 23.01 0 0 0 134.6 7.5L115 28.9c-3-3.4-7.3-5.6-12.2-5.6h-6c-5 0-9.3 2.2-12.3 5.6L65 7.5A23 23 0 0 0 47.72-.321c-12.617 0-23 10.382-23 23A23.02 23.02 0 0 0 34.5 41.5H18.6c-4.114 0-7.5 3.386-7.5 7.5v40.7c0 4 3 7.2 7 7.4v95c0 4 3.4 7.4 7.5 7.4h148.3c4.2 0 7.5-3.3 7.5-7.5V97.1c4-.2 7-3.5 7-7.4V49c0-4.2-3.3-7.5-7.5-7.5zM99.7 90.9c15.5-24.2 31-20.6 41.3-11.6s14.4 24.3 4 42.4c-7.2 13.6-27.7 16.9-45.3 41.6-20.2-27-30.6-23.8-41.3-35.3-15.4-16.5-11.3-39.6-1-48.7 10.4-9 30-14.5 42.3 11.6M40.6 25.7a7.9 7.9 0 0 1-.513-2.8c0-4.334 3.566-7.9 7.9-7.9H48c2.2 0 4.3 1 5.8 2.6l21.8 23.9h-1L45.2 30.4a7.8 7.8 0 0 1-4.6-4.7m118.4 0c-.8 2.2-2.5 3.9-4.7 4.7l-29.5 11h-1l21.8-23.8a7.8 7.8 0 0 1 5.9-2.6c2.9 0 5.5 1.5 6.9 4 1.2 2 1.4 4.4.6 6.7" style="fill-rule:nonzero" transform="matrix(.09024 0 0 .08 -1.002 .04)"/></g>  </symbol>
  <symbol id="icon_heartsmile" viewBox="0 0 16 16">
<g style=""><path d="M397.598 209.706c14.002-22.086 27.889-18.865 37.186-10.596 9.296 8.268 12.957 22.237 3.66 38.774-6.508 12.403-24.984 15.377-40.846 37.97-18.128-24.75-27.568-21.735-37.186-32.216-13.829-15.068-10.123-36.26-.826-44.528s26.972-13.285 38.012 10.596m6.083 29.175c0 2.738-2.992 4.759-6.48 4.759s-6.48-2.021-6.48-4.759c0-.924-.769-1.674-1.716-1.674s-1.715.75-1.715 1.674c0 4.366 4.349 8.107 9.911 8.107s9.911-3.741 9.911-8.107c0-.924-.768-1.674-1.715-1.674s-1.716.75-1.716 1.674m13.485-11.544c-2.24 0-4.059.791-4.059 1.766s1.819 1.767 4.059 1.767 4.059-.792 4.059-1.767-1.819-1.766-4.059-1.766m-7.151-11.194c-1.354 0-2.453 2.22-2.453 4.954s1.099 4.954 2.453 4.954c1.355 0 2.454-2.22 2.454-4.954s-1.099-4.954-2.454-4.954m-32.955 11.194c-2.241 0-4.06.791-4.06 1.766s1.819 1.767 4.06 1.767 4.059-.792 4.059-1.767-1.819-1.766-4.059-1.766m7.15-11.194c-1.354 0-2.453 2.22-2.453 4.954s1.099 4.954 2.453 4.954 2.454-2.22 2.454-4.954-1.1-4.954-2.454-4.954" style="" transform="matrix(.17287 0 0 .16747 -60.727 -31.198)"/></g>  </symbol>
  <symbol id="icon_heart" viewBox="0 0 16 16">
<g style=""><path d="M397.598 209.706c14.002-22.086 27.889-18.865 37.186-10.596 9.296 8.268 12.957 22.237 3.66 38.774-6.508 12.403-24.984 15.377-40.846 37.97-18.128-24.75-27.568-21.735-37.186-32.216-13.829-15.068-10.123-36.26-.826-44.528s26.972-13.285 38.012 10.596" style="" transform="matrix(.17287 0 0 .16747 -60.727 -31.198)"/></g>  </symbol>
  <symbol id="icon_search" viewBox="0 0 16 16">
<g style=""><path d="m3031.06 1459.06-6.82 12.37c-.8 1.45-.28 3.28 1.17 4.08s3.28.27 4.08-1.18l6.68-12.1c9.43 4.11 20.69.58 25.96-8.5 5.66-9.75 2.3-22.25-7.51-27.89-9.8-5.62-22.35-2.27-28.01 7.47-5.03 8.66-2.94 19.48 4.45 25.75m20.57-28.01c6.92 3.97 9.3 12.79 5.31 19.67-4.01 6.9-12.89 9.26-19.83 5.28-6.92-3.98-9.31-12.79-5.31-19.68 4.01-6.9 12.89-9.26 19.83-5.27m-7.26 9.19c2.33-3.51 4.64-2.99 6.19-1.68s2.16 3.52.61 6.14c-1.08 1.97-4.16 2.44-6.8 6.02-3.01-3.92-4.58-3.44-6.18-5.11-2.3-2.38-1.69-5.74-.14-7.05s4.49-2.11 6.32 1.68" style="fill-opacity:1" transform="matrix(.31692 0 0 .3032 -956.311 -431.5)"/></g>  </symbol>
  <symbol id="social-amazon" viewBox="0 0 16 16">
<path d="M964.937 1713.54v84.7c0 8.47-6.877 15.35-15.347 15.35h-84.704c-8.47 0-15.347-6.88-15.347-15.35v-84.7c0-8.47 6.877-15.35 15.347-15.35h84.704c8.47 0 15.347 6.88 15.347 15.35m-97.701 65.13-.775-.47c-.89-.55-2.396.13-1.086 1.63 4.771 5.79 20.405 19.73 40.809 19.73 20.427 0 32.578-11.14 34.101-13.09 1.507-1.93.442-2.99-1.086-2.35-35.4 16.85-57.612 3.3-71.963-5.45m73.109-1.26c-3.1.37-7.757 2.26-7.353 3.4.159.33.443.29 1.496.18.331-.04.755-.09 1.272-.13l.491-.05c2.446-.26 7.708-.81 8.871.71 1.25 1.64-1.911 9.46-2.484 10.71-.562 1.27.218 1.59 1.256.75 1.037-.84 2.904-3.01 4.159-6.09 1.25-3.09 2.009-7.4 1.272-8.36-.966-1.26-5.885-1.5-8.98-1.12m-16.458.14c.857.45 1.965.4 2.73-.27l.027.02c2.922-2.59 5.876-5.14 8.859-7.67.945-.78.781-2.03.033-3.07l-.682-.93c-1.883-2.53-3.674-4.94-3.674-9.77v-18.02l.006-1.83c.043-6.9.076-13.21-5.093-18.04-4.438-4.25-11.775-5.75-17.398-5.75-10.988 0-23.254 4.09-25.841 17.69-.257 1.44.78 2.2 1.725 2.41l11.212 1.21c1.037-.05 1.801-1.08 1.998-2.12.961-4.68 4.891-6.93 9.296-6.93 2.375 0 5.071.87 6.485 3 1.441 2.13 1.419 4.96 1.403 7.51v2.36c-1.092.12-2.222.24-3.39.35-6.075.62-13.084 1.34-18.341 3.66-7.239 3.12-12.332 9.51-12.332 18.89 0 12.01 7.572 18 17.294 18 8.221 0 12.708-1.93 19.045-8.41l.912 1.34c1.496 2.22 2.489 3.69 5.715 6.37zm-26.109-19.31c0-9.85 8.827-11.63 17.179-11.63v3.11c.005 4.24.011 7.83-2.162 11.65-1.834 3.24-4.749 5.24-7.997 5.24-4.433 0-7.02-3.38-7.02-8.37" style="clip-rule:evenodd;fill-rule:evenodd;stroke-linejoin:round;stroke-miterlimit:2" transform="translate(-117.79 -235.451)scale(.13865)"/>  </symbol>
  <symbol id="social-bluesky" viewBox="0 0 16 16">
<path d="M964.937 1713.54v84.7c0 8.47-6.877 15.35-15.347 15.35h-84.704c-8.47 0-15.347-6.88-15.347-15.35v-84.7c0-8.47 6.877-15.35 15.347-15.35h84.704c8.47 0 15.347 6.88 15.347 15.35m-84.485 4.13c-7.985-6.23-20.923-11.05-20.923 4.29 0 3.06 1.69 25.73 2.682 29.42 3.444 12.79 15.999 16.05 27.167 14.08-19.521 3.45-24.487 14.89-13.762 26.33 20.369 21.72 29.276-5.45 31.558-12.41.418-1.28.614-1.88.617-1.37.003-.51.199.09.617 1.37 2.283 6.96 11.19 34.13 31.558 12.41 10.725-11.44 5.759-22.88-13.762-26.33 11.167 1.97 23.722-1.29 27.168-14.08.991-3.69 2.681-26.36 2.681-29.42 0-15.34-12.938-10.52-20.922-4.29-11.067 8.64-22.969 26.14-27.34 35.54-4.37-9.4-16.273-26.9-27.339-35.54" style="clip-rule:evenodd;fill-rule:evenodd;stroke-linejoin:round;stroke-miterlimit:2" transform="translate(-117.79 -235.451)scale(.13865)"/>  </symbol>
  <symbol id="social-buymeacoffee" viewBox="0 0 16 16">
<path d="M964.937 1713.54v84.7c0 8.47-6.877 15.35-15.347 15.35h-84.704c-8.47 0-15.347-6.88-15.347-15.35v-84.7c0-8.47 6.877-15.35 15.347-15.35h84.704c8.47 0 15.347 6.88 15.347 15.35m-23.328 21.33-.515-2.59c-.464-2.33-1.513-4.54-3.904-5.38-.768-.27-1.638-.38-2.223-.94-.593-.56-.765-1.43-.901-2.23-.254-1.48-.488-2.95-.749-4.42-.222-1.27-.398-2.69-.975-3.85-.761-1.56-2.329-2.47-3.885-3.07-.799-.3-1.614-.55-2.441-.76-3.901-1.03-7.996-1.4-12.002-1.62-4.81-.27-9.632-.19-14.431.24-3.569.32-7.332.72-10.726 1.95-1.24.45-2.519 1-3.463 1.95-1.159 1.18-1.533 3.01-.691 4.47.601 1.04 1.619 1.78 2.699 2.26 1.405.64 2.875 1.11 4.38 1.43 4.193.93 8.538 1.29 12.821 1.45a98 98 0 0 0 14.236-.46c1.166-.13 2.332-.29 3.495-.47 1.373-.21 2.254-2 1.848-3.25-.483-1.49-1.782-2.07-3.252-1.85-1.818.29-3.745.42-5.391.57-4.59.32-9.197.32-13.791.03a85 85 0 0 1-4.513-.42c-.335-.04-.702-.1-1.006-.14q-1.421-.21-2.824-.51c-.433-.1-.433-.72 0-.83h.02q1.622-.345 3.268-.57h.008c.511-.03 1.026-.12 1.537-.19 4.438-.46 8.902-.61 13.362-.46 2.629.07 5.254.26 7.867.56l.889.12c1.042.16 2.079.34 3.113.56 1.529.34 3.49.44 4.173 2.12.215.53.312 1.12.433 1.68l1.244 5.79a.92.92 0 0 1-.776 1.1h-.012c-.144.03-.292.04-.437.06-6.135.79-12.314 1.17-18.499 1.15-6.128 0-12.249-.4-18.327-1.18-.546-.07-1.143-.16-1.627-.24-1.271-.18-2.531-.42-3.795-.62-1.533-.26-2.995-.13-4.38.62a6.43 6.43 0 0 0-2.633 2.74c-.6 1.23-.776 2.57-1.041 3.9-.269 1.32-.686 2.76-.527 4.12.34 2.93 2.391 5.32 5.344 5.86 14.601 2.6 29.5 3.1 44.241 1.46.071 0 .142-.01.213-.01a1.89 1.89 0 0 1 1.874 2.08l-.277 2.72-3.971 38.64c-.159 1.6-.183 3.24-.487 4.82-.476 2.49-2.157 4.01-4.61 4.57-2.251.51-4.544.78-6.849.8-2.559.02-5.11-.1-7.668-.09-2.727.02-6.069-.23-8.171-2.26-1.853-1.78-2.107-4.58-2.36-6.99l-2.851-27.35-1.256-12.07c-.144-1.37-1.116-2.71-2.645-2.65-1.31.06-2.8 1.17-2.644 2.65l.889 8.52 3.702 35.54c.573 5.25 4.579 8.07 9.54 8.87 2.894.46 5.862.56 8.803.6 3.768.07 7.574.21 11.28-.47 5.491-1.01 9.614-4.67 10.203-10.36 1.326-13 2.664-25.99 3.994-38.99l.838-8.14c.085-.82.706-1.5 1.522-1.66 1.567-.3 3.069-.83 4.188-2.02 1.774-1.9 2.129-4.38 1.503-6.88zm-5.765 3.02c-.565.53-1.415.78-2.254.91-9.423 1.4-18.979 2.1-28.504 1.79-6.817-.23-13.561-.99-20.308-1.94-.664-.1-1.377-.22-1.834-.71-.858-.91-.433-2.76-.21-3.88.203-1.01.593-2.37 1.806-2.51 1.887-.23 4.079.57 5.951.85 2.251.35 4.509.62 6.775.83 9.673.88 19.51.74 29.144-.55q2.634-.345 5.245-.81c1.557-.29 3.277-.81 4.213.8.647 1.09.733 2.56.632 3.8a2.12 2.12 0 0 1-.659 1.42zm-24.022 15.21c-3.362 1.44-7.176 3.07-12.126 3.07-2.068 0-4.127-.29-6.119-.84l3.42 35.11a5.87 5.87 0 0 0 5.851 5.39s4.848.25 6.466.25c1.744 0 6.966-.25 6.966-.25a5.87 5.87 0 0 0 5.847-5.39l3.666-38.81a15.6 15.6 0 0 0-5.156-.92c-3.222 0-5.815 1.11-8.815 2.39" style="clip-rule:evenodd;fill-rule:evenodd;stroke-linejoin:round;stroke-miterlimit:2" transform="translate(-117.79 -235.451)scale(.13865)"/>  </symbol>
  <symbol id="social_cara" viewBox="0 0 16 16">
<path fill="currentColor" d="M126.516 16.97v92.44c0 9.244-7.505 16.753-16.75 16.753H17.323c-9.244 0-16.75-7.509-16.75-16.753V16.97C.573 7.726 8.079.218 17.323.218h92.445c9.244 0 16.749 7.508 16.749 16.752M63.544 8.283c-29.45.95-53.159 25.44-53.159 54.907s23.709 53.947 53.16 54.897c29.45-.95 53.158-25.43 53.158-54.897S92.995 9.232 63.544 8.283m0 7.727v.022h.029c25.883 0 47.182 21.303 47.182 47.191 0 25.866-21.28 47.158-47.154 47.18h-.028c-25.891 0-47.196-21.303-47.196-47.202 0-25.876 21.288-47.18 47.167-47.191m25.107 68.146L81.016 72.63s-7.721 4.43-12.524 4.43c-8.065 0-14.07-6.122-14.07-13.609l-.002-.24c0-7.476 6.158-13.631 13.64-13.631h.146a16.63 16.63 0 0 1 10.865 3.656l8.894-11.754c-5.577-4.857-13.382-7.258-21.676-7.258-17.385 0-31.454 13.097-31.454 29.227 0 16.12 12.153 28.703 29.51 28.703 9.064 0 18.558-2.28 24.306-8"/>  </symbol>
  <symbol id="social-codepen" viewBox="0 0 16 16">
<path d="M964.937 1713.54v84.7c0 8.47-6.877 15.35-15.347 15.35h-84.704c-8.47 0-15.347-6.88-15.347-15.35v-84.7c0-8.47 6.877-15.35 15.347-15.35h84.704c8.47 0 15.347 6.88 15.347 15.35m-56.714-3.5c-25.23 0-45.683 20.45-45.683 45.68s20.453 45.68 45.683 45.68 45.682-20.45 45.682-45.68-20.452-45.68-45.682-45.68m0 83.86c-21.053 0-38.18-17.13-38.18-38.18 0-21.06 17.127-38.18 38.18-38.18 21.052 0 38.179 17.12 38.179 38.18 0 21.05-17.127 38.18-38.179 38.18m28.246-46.79c.098-.79-.422-1.63-1.081-2.02l-25.819-17.21a2.44 2.44 0 0 0-2.693 0l-25.819 17.21c-.588.32-1.159 1.2-1.081 2.02v17.21c-.008.81.437 1.57 1.081 2.02l25.819 17.22c.408.27.877.4 1.347.4.469 0 .938-.13 1.346-.4l25.819-17.22c.436-.32 1.068-1.25 1.081-2.02zm-28.246 14.35-8.586-5.74 8.586-5.75 8.585 5.75zm2.427 15.54v-11.32l10.524-7.04 8.496 5.68zm0-42.57 19.02 12.68-8.496 5.69-10.524-7.04zm-4.855 0v11.33l-10.524 7.04-8.496-5.69zm-20.963 17.22 6.073 4.07-6.073 4.06zm46.782 8.13-6.073-4.06 6.073-4.07zM905.795 1777l-19.02-12.68 8.496-5.68 10.524 7.04z" style="clip-rule:evenodd;fill-rule:evenodd;stroke-linejoin:round;stroke-miterlimit:2" transform="translate(-117.79 -235.451)scale(.13865)"/>  </symbol>
  <symbol id="social-discord" viewBox="0 0 16 16">
<path d="M964.937 1713.54v84.7c0 8.47-6.877 15.35-15.347 15.35h-84.704c-8.47 0-15.347-6.88-15.347-15.35v-84.7c0-8.47 6.877-15.35 15.347-15.35h84.704c8.47 0 15.347 6.88 15.347 15.35m-29.821 16.47a65.7 65.7 0 0 0-16.57-5.21 49 49 0 0 0-2.123 4.41q-9.267-1.395-18.364 0a47 47 0 0 0-2.148-4.41 65.3 65.3 0 0 0-16.583 5.22c-10.487 15.85-13.33 31.3-11.908 46.54 6.955 5.19 13.696 8.35 20.322 10.41a50 50 0 0 0 4.353-7.17 43 43 0 0 1-6.854-3.33c.575-.43 1.137-.87 1.68-1.33 13.216 6.18 27.575 6.18 40.633 0 .55.46 1.112.9 1.681 1.33a42.7 42.7 0 0 1-6.867 3.34 50 50 0 0 0 4.353 7.17c6.633-2.07 13.38-5.22 20.335-10.42 1.668-17.66-2.849-32.97-11.94-46.55m-14.536 37.18c-3.967 0-7.221-3.71-7.221-8.22s3.184-8.22 7.221-8.22 7.29 3.71 7.221 8.22c0 4.51-3.184 8.22-7.221 8.22m-26.684 0c-3.968 0-7.221-3.71-7.221-8.22s3.184-8.22 7.221-8.22c4.036 0 7.29 3.71 7.22 8.22.007 4.51-3.184 8.22-7.22 8.22" style="clip-rule:evenodd;fill-rule:evenodd;stroke-linejoin:round;stroke-miterlimit:2" transform="translate(-117.79 -235.451)scale(.13865)"/>  </symbol>
  <symbol id="social-email" viewBox="0 0 16 16">
<path d="M16 2.128v11.744A2.13 2.13 0 0 1 13.872 16H2.128A2.13 2.13 0 0 1 0 13.872V2.128A2.13 2.13 0 0 1 2.128 0h11.744A2.13 2.13 0 0 1 16 2.128M5.44 7.043h.001c.626-.513 1.817-.823 2.56.656.944-1.368 1.88-1.169 2.506-.656l.028.023 2.805-4.318a1.4 1.4 0 0 0-.508-.091H3.168q-.268 0-.506.09zM4.893 8.16 1.811 3.595c-.06.16-.094.332-.094.512v7.786c0 .8.65 1.45 1.45 1.45h9.665c.8 0 1.45-.65 1.45-1.45V4.107q-.001-.27-.092-.51l-3.078 4.56c.032.384-.072.82-.359 1.288-.438.768-1.683.952-2.751 2.353C6.78 10.264 6.145 10.45 5.497 9.8a2.02 2.02 0 0 1-.605-1.642" style="clip-rule:evenodd;fill-rule:evenodd;stroke-width:.138649;stroke-linejoin:round;stroke-miterlimit:2"/>  </symbol>
  <symbol id="social_github" viewBox="0 0 16 16">
<path d="M964.937 1713.54v84.7c0 8.47-6.877 15.35-15.347 15.35h-84.704c-8.47 0-15.347-6.88-15.347-15.35v-84.7c0-8.47 6.877-15.35 15.347-15.35h84.704c8.47 0 15.347 6.88 15.347 15.35m-60.991-5.34c-27.014 0-48.894 21.88-48.894 48.9 0 21.63 13.996 39.91 33.431 46.38 2.445.43 3.362-1.04 3.362-2.32 0-1.16-.061-5.01-.061-9.1-12.285 2.26-15.463-3-16.441-5.75-.55-1.41-2.933-5.74-5.011-6.91-1.712-.91-4.156-3.17-.062-3.24 3.851-.06 6.601 3.55 7.518 5.02 4.4 7.39 11.429 5.31 14.24 4.03.428-3.18 1.712-5.32 3.117-6.54-10.879-1.22-22.247-5.44-22.247-24.14 0-5.32 1.895-9.72 5.012-13.14-.489-1.22-2.2-6.24.489-12.96 0 0 4.095-1.28 13.446 5.01 3.911-1.1 8.067-1.65 12.223-1.65s8.312.55 12.224 1.65c9.351-6.35 13.446-5.01 13.446-5.01 2.689 6.72.978 11.74.489 12.96 3.117 3.42 5.011 7.76 5.011 13.14 0 18.76-11.429 22.92-22.307 24.14 1.772 1.53 3.3 4.46 3.3 9.05 0 6.54-.061 11.79-.061 13.44 0 1.28.917 2.81 3.361 2.32 19.856-6.69 33.31-25.43 33.309-46.38 0-27.02-21.88-48.9-48.894-48.9" style="clip-rule:evenodd;fill-rule:evenodd;stroke-linejoin:round;stroke-miterlimit:2" transform="translate(-117.79 -235.451)scale(.13865)"/>  </symbol>
  <symbol id="social_googleplay" viewBox="0 0 16 16">
<path d="M964.937 1713.54v84.7c0 8.47-6.877 15.35-15.347 15.35h-84.704c-8.47 0-15.347-6.88-15.347-15.35v-84.7c0-8.47 6.877-15.35 15.347-15.35h84.704c8.47 0 15.347 6.88 15.347 15.35m-40.555 63.14-16.633-15.35-35.809 33.06c1.098 5.62 7.432 8.79 12.585 5.76zm-52.442-55.84 35.809 33.06 16.633-15.36-39.857-23.47c-5.153-3.04-11.487.14-12.585 5.77m72.087 44.28c5.666-3.33 5.666-11.68 0-15.02l-14.721-8.66-17.53 16.17 17.524 16.18zm-72.251 21.98 31.945-29.49-31.945-29.49z" style="clip-rule:evenodd;fill-rule:evenodd;stroke-linejoin:round;stroke-miterlimit:2" transform="translate(-117.79 -235.451)scale(.13865)"/>  </symbol>
  <symbol id="social_linkedin" viewBox="0 0 16 16">
<path d="M964.937 1713.54v84.7c0 8.47-6.877 15.35-15.347 15.35h-84.704c-8.47 0-15.347-6.88-15.347-15.35v-84.7c0-8.47 6.877-15.35 15.347-15.35h84.704c8.47 0 15.347 6.88 15.347 15.35m-80.194 34.56c0-4.11-3.335-7.44-7.444-7.44a7.443 7.443 0 0 0-7.444 7.44v48.43c0 4.11 3.336 7.44 7.444 7.44a7.443 7.443 0 0 0 7.444-7.44zm15.483-.6c-3.1 6.21-.909 46.85-.909 46.85-.03 1.32 1.224 7.26 7.117 7.17h.242c7.763.29 7.157-6.54 7.169-7.12l.173-23.93c2.097-13.27 18.62-16.09 24.788-4.96 5.039 9.09.684 20.15 3.309 30 1.916 7.19 12.377 8.18 14.332-1.25 1.463-7.07 1.7-22.11-2.246-32.7-5.766-15.49-26.552-21.67-40.484-13.7-2.253-6.11-10.781-5.79-13.491-.36m-22.915-33.53c-4.831-8.44-12.564-6.66-16.632-3.74s-5.689 10.4.361 15.73c4.209 3.7 8.339 2.64 16.271 11.38 6.94-7.98 15.024-9.03 17.871-13.42 4.068-5.84 2.467-10.77-1.601-13.69s-10.144-4.06-16.27 3.74" style="clip-rule:evenodd;fill-rule:evenodd;stroke-linejoin:round;stroke-miterlimit:2" transform="translate(-117.79 -235.451)scale(.13865)"/>  </symbol>
  <symbol id="social_opentoon" viewBox="0 0 16 16">
<path d="M2.127 0A2.13 2.13 0 0 0 0 2.129V13.87A2.13 2.13 0 0 0 2.127 16h11.744A2.13 2.13 0 0 0 16 13.871V2.13A2.13 2.13 0 0 0 13.871 0Zm10.535 3.037-.371 4.707h1.5l-.629 4.096-4.918 2.28v-1.63l-4.201.518-1.834-5.45h1.777l-.814-3.056Zm-2.088 3.041-.054.004-1.155.096v2.117h1.336c.57-.255.565-.719.34-.945a.5.5 0 0 0-.344-.143.5.5 0 0 0 .336-.148.52.52 0 0 0 .15-.364.614.614 0 0 0-.609-.617m-1.428.1-1.44.103v1.944l1.44.068v-.52L8.23 7.76v-.24h.81v-.56l-.796.027v-.228l.902-.051Zm-1.58.113-.53.04-.296 1.14-.277-1.1-.49.035-.26 1.055-.252-1.02-.512.045.434 1.684h.564l.258-.897.264.897h.574zm2.745.31h.01a.17.17 0 0 1 .167.17.17.17 0 0 1-.172.172h-.382V6.62Zm.06.891h.006a.166.166 0 0 1 0 .332h-.443v-.316Zm-6.17 1.104v.568h.662v1.701l.631-.035V9.2h.588v-.57Zm3.014.021a1.09 1.09 0 0 0-1.092 1.086c0 .598.49 1.084 1.092 1.084s1.09-.486 1.09-1.084c0-.6-.488-1.086-1.09-1.086m2.219.055c-.529 0-.957.442-.957.992 0 .548.428.992.957.992.526 0 .953-.445.953-.992 0-.55-.427-.992-.953-.992m1.117.05v1.811l.566-.015v-.89l.576.858.465-.029.041-1.709h-.547v.88l-.582-.901Zm-3.307.47c.258 0 .465.232.465.517 0 .287-.207.521-.465.521s-.467-.234-.467-.521c0-.285.209-.518.467-.518m2.201.013c.23 0 .416.21.416.47 0 .259-.186.47-.416.47s-.416-.211-.416-.47c0-.26.187-.47.416-.47" style="clip-rule:evenodd;fill-rule:evenodd;stroke-width:.138649;stroke-linejoin:round;stroke-miterlimit:2"/>  </symbol>
  <symbol id="social_patreon" viewBox="0 0 16 16">
<path d="M964.937 1713.54v84.7c0 8.47-6.877 15.35-15.347 15.35h-84.704c-8.47 0-15.347-6.88-15.347-15.35v-84.7c0-8.47 6.877-15.35 15.347-15.35h84.704c8.47 0 15.347 6.88 15.347 15.35m-80.361 1.81h-14.855v81.08h14.855zm39.007 0c-16.785 0-30.392 13.61-30.392 30.39 0 16.79 13.607 30.39 30.392 30.39s30.391-13.6 30.391-30.39c0-16.78-13.606-30.39-30.391-30.39" style="clip-rule:evenodd;fill-rule:evenodd;stroke-linejoin:round;stroke-miterlimit:2" transform="translate(-117.79 -235.451)scale(.13865)"/>  </symbol>
  <symbol id="social_paypal" viewBox="0 0 16 16">
<path d="M964.937 1713.54v84.7c0 8.47-6.877 15.35-15.347 15.35h-84.704c-8.47 0-15.347-6.88-15.347-15.35v-84.7c0-8.47 6.877-15.35 15.347-15.35h84.704c8.47 0 15.347 6.88 15.347 15.35m-28.115 18.24c.675-6.03-.523-10.31-3.948-14.21-4.106-4.68-11.507-6.68-20.99-6.68H884.37a3.95 3.95 0 0 0-3.886 3.32l-11.463 72.66a2.378 2.378 0 0 0 2.334 2.74h15.501l-1.136 7.19c-.029.19-.043.37-.043.56 0 1.93 1.593 3.53 3.53 3.53h14.319a4.914 4.914 0 0 0 4.849-4.11l.14-.74 2.7-17.11.169-.92.005-.04c.147-.96.985-1.68 1.958-1.67h2.137c7.12 0 13.639-1.44 18.813-5.12 2.137-1.51 3.999-3.4 5.585-5.65a27.8 27.8 0 0 0 4.949-12.35c1.361-7.01.732-13.25-3.206-17.74a15.4 15.4 0 0 0-4.274-3.32zm-42.278 28.72a4.05 4.05 0 0 1 1.806-.45h8.076c15.861 0 28.274-6.43 31.901-25.06l.017-.09c1.223.7 2.25 1.52 3.082 2.47 3.071 3.5 3.819 8.63 2.531 15.24-1.529 7.86-4.87 12.97-9.353 16.16-4.511 3.21-10.36 4.59-17.115 4.59h-2.137a4.91 4.91 0 0 0-4.854 4.12l-.168.93-2.7 17.11-.135.73-.006.03a1.975 1.975 0 0 1-1.957 1.66h-14.321a.6.6 0 0 1-.589-.69l1.17-7.43z" style="clip-rule:evenodd;fill-rule:evenodd;stroke-linejoin:round;stroke-miterlimit:2" transform="translate(-117.79 -235.451)scale(.13865)"/>  </symbol>
  <symbol id="social_pinterest" viewBox="0 0 16 16">
<path d="M888.378 1813.59h-23.492c-8.47 0-15.347-6.88-15.347-15.35v-84.7c0-8.47 6.877-15.35 15.347-15.35h84.704c8.47 0 15.347 6.88 15.347 15.35v84.7c0 8.47-6.877 15.35-15.347 15.35h-56.445c6.792-6.87 9.689-16.05 12.014-28.04 0 0 7.922 4.27 14.326 4.76 23.651 1.8 36.44-24.76 33.207-47.88-2.86-20.49-23.614-30.93-45.728-28.49-17.484 1.94-34.914 15.87-35.64 35.77-.323 8.66.28 17.52 6.599 20.09 0 0 7.8-2.99 5.507-13.46-5.69-26 30.859-41.54 49.204-23.21 12.691 12.7 5.36 47.64-15.119 43.59-19.613-3.88 8.471-33.49-7.184-39.6-12.722-4.95-19.485 15.18-13.448 25.17-3.333 16.22-10.299 31.54-8.505 51.3" style="clip-rule:evenodd;fill-rule:evenodd;stroke-linejoin:round;stroke-miterlimit:2" transform="translate(-117.79 -235.451)scale(.13865)"/>  </symbol>
  <symbol id="social_reddit" viewBox="0 0 16 16">
<path d="M964.937 1713.54v84.7c0 8.47-6.877 15.35-15.347 15.35h-84.704c-8.47 0-15.347-6.88-15.347-15.35v-84.7c0-8.47 6.877-15.35 15.347-15.35h84.704c8.47 0 15.347 6.88 15.347 15.35m-15.406 41.56c0-5.36-4.297-9.72-9.58-9.72-2.436 0-4.732.93-6.492 2.58-6.322-4.17-14.789-6.87-24.166-7.24l5.173-16.01 13.584 3.24c.004 4.41 3.54 7.99 7.888 7.99s7.887-3.59 7.887-8-3.54-8-7.887-8c-3.257 0-6.052 2.01-7.258 4.87l-16.316-3.9-6.386 19.77c-9.732.19-18.55 2.87-25.109 7.15a9.46 9.46 0 0 0-6.349-2.45c-5.278 0-9.575 4.36-9.575 9.72 0 3.4 1.751 6.52 4.551 8.27-2.55 15.28 15.2 28.47 37.564 28.47 22.272 0 39.963-13.07 37.603-28.28 2.994-1.7 4.868-4.89 4.868-8.46m-28.662 23.33c-2.846 2.88-7.308 4.29-13.635 4.29-6.331 0-10.789-1.41-13.631-4.29a1.62 1.62 0 0 1 0-2.27 1.573 1.573 0 0 1 2.233 0c2.22 2.25 5.946 3.35 11.398 3.35 5.447 0 9.177-1.1 11.402-3.35a1.573 1.573 0 0 1 2.233 0c.617.63.617 1.64 0 2.27m-32.274-16.83c0-3.26 2.699-6 5.917-6s5.828 2.74 5.828 6-2.609 5.91-5.828 5.91c-3.218 0-5.917-2.65-5.917-5.91m31.453 5.91c-3.222 0-5.925-2.65-5.925-5.91 0-3.27 2.703-6 5.925-6 3.219 0 5.828 2.73 5.828 6 0 3.26-2.605 5.91-5.828 5.91" style="clip-rule:evenodd;fill-rule:evenodd;stroke-linejoin:round;stroke-miterlimit:2" transform="translate(-117.79 -235.451)scale(.13865)"/>  </symbol>
  <symbol id="social_telegram" viewBox="0 0 16 16">
<path d="M964.937 1713.54v84.7c0 8.47-6.877 15.35-15.347 15.35h-84.704c-8.47 0-15.347-6.88-15.347-15.35v-84.7c0-8.47 6.877-15.35 15.347-15.35h84.704c8.47 0 15.347 6.88 15.347 15.35m-53.616 21.25c-7.33 3.46-21.971 10.62-43.923 21.47-3.559 1.61-5.426 3.18-5.601 4.73-.283 2.59 2.588 3.62 6.495 5.02l1.647.58c3.841 1.42 9.019 3.08 11.701 3.14 2.448.07 5.172-1.07 8.171-3.41q30.774-23.565 31.762-23.82c.47-.13 1.129-.28 1.562.17s.396 1.28.349 1.5c-.283 1.38-11.551 13.26-17.378 19.41-1.816 1.92-3.106 3.28-3.37 3.59-.58.67-1.17 1.34-1.769 1.99-3.578 3.91-6.251 6.83.141 11.62 3.078 2.31 5.544 4.2 8.001 6.1 2.674 2.07 5.347 4.13 8.811 6.72a64 64 0 0 1 2.542 1.99c3.116 2.52 5.931 4.79 9.385 4.43 2.015-.22 4.095-2.35 5.15-8.76 2.494-15.14 7.399-47.92 8.528-61.43.071-1.13.03-2.25-.122-3.37-.091-.89-.474-1.72-1.073-2.32-.858-.66-1.878-1.01-2.918-.99-2.825.05-7.183 1.77-28.091 11.64" style="clip-rule:evenodd;fill-rule:evenodd;stroke-linejoin:round;stroke-miterlimit:2" transform="translate(-117.79 -235.451)scale(.13865)"/>  </symbol>
  <symbol id="social_tiktok" viewBox="0 0 16 16">
<path d="M964.937 1713.54v84.7c0 8.47-6.877 15.35-15.347 15.35h-84.704c-8.47 0-15.347-6.88-15.347-15.35v-84.7c0-8.47 6.877-15.35 15.347-15.35h84.704c8.47 0 15.347 6.88 15.347 15.35m-51.561-6.75v67.51c0 10.1-8.312 18.42-18.413 18.42s-18.413-8.32-18.413-18.42 8.312-18.41 18.413-18.41v-12.28c-16.835 0-30.688 13.86-30.688 30.69 0 16.84 13.853 30.69 30.688 30.69s30.688-13.85 30.688-30.69v-41.91c5.708 6.23 13.791 11.22 24.55 11.22v-12.27c-7.383 0-12.919-3.75-17.093-9.13-4.266-5.5-6.696-11.03-7.58-15.42z" style="clip-rule:evenodd;fill-rule:evenodd;stroke-linejoin:round;stroke-miterlimit:2" transform="translate(-117.79 -235.451)scale(.13865)"/>  </symbol>
  <symbol id="social_vgen" viewBox="0 0 16 16">
<path d="M964.937 1713.54v84.7c0 8.47-6.877 15.35-15.347 15.35h-84.704c-8.47 0-15.347-6.88-15.347-15.35v-84.7c0-8.47 6.877-15.35 15.347-15.35h84.704c8.47 0 15.347 6.88 15.347 15.35m-69.869 31.78h-.005c-3.108-4.05-3.721-5.13-4.925-6.86-3.239-4.67-6.933-6.67-9.893-7.21-4.224-.77-8.268-.63-13.072 5.05-3.09 3.66-4.61 8.83-4.115 14.01.634 7.51 5.581 18.5 22.199 35.2 4.788 4.82 9.762 9.6 16.859 11.91 7.694 2.49 17.127.73 25.598-6.3 10.271-8.53 13.997-15.86 18.457-22.66 5.05-7.69 8.421-13.8 7.326-23.27-1.275-11.03-10.577-32.99-33.17-31.86-3.869.2-9.313 1.66-13.565 5.75-6.085 5.85-12.706 15.14-11.694 26.24m10.2 25.16c1.888.76 9.149-.79 7.841-2.79-4.547-6.94-9.849-8.98-10.467-23.76-.329-7.82 4.295-13.87 8.475-17.89 2.594-2.49 7.092-3.43 9.45-3.58 12.608-.8 20.952 16.4 21.445 22.56.728 9.06-13.953 26.59-20.936 33.26-14.227 13.62-26.325.44-28.908-1.89-11.95-10.79-17.143-19-19.89-24.53-4.804-9.69 3.748-16.5 10.008-5.96 6.15 10.36 9.144 13.08 15.639 19.93 3.239 3.41 5.007 3.71 7.343 4.65m16.99-12.14v-.01s7.021-7.07 7.147-13.76c.208-11.23-15.179-12.12-15.267-.33-.06 8.2 8.12 14.1 8.12 14.1" style="clip-rule:evenodd;fill-rule:evenodd;stroke-linejoin:round;stroke-miterlimit:2" transform="translate(-117.79 -235.451)scale(.13865)"/>  </symbol>
  <symbol id="social_youtube" viewBox="0 0 16 16">
<path d="M2.127 0A2.13 2.13 0 0 0 0 2.129V13.87A2.13 2.13 0 0 0 2.127 16h11.746A2.13 2.13 0 0 0 16 13.871V2.13A2.13 2.13 0 0 0 13.873 0Zm5.812 3.605h.245c.71.003 4.306.029 5.275.29a1.74 1.74 0 0 1 1.22 1.224c.088.328.149.763.19 1.211l.01.09.018.225.007.09c.056.788.064 1.527.065 1.689v.064c-.001.168-.01.956-.072 1.778l-.006.091-.008.09c-.043.494-.108.983-.203 1.344a1.74 1.74 0 0 1-1.221 1.227c-1.001.269-4.809.288-5.336.289H8c-.267 0-1.369-.006-2.525-.045l-.147-.004-.076-.004-.147-.006-.148-.006c-.958-.042-1.87-.11-2.291-.224a1.74 1.74 0 0 1-1.223-1.227c-.095-.36-.158-.85-.2-1.344l-.009-.092-.007-.09a27 27 0 0 1-.07-1.755v-.108c.001-.185.01-.827.056-1.535l.006-.088.002-.045.006-.09.02-.224.009-.09c.041-.448.102-.884.19-1.21a1.74 1.74 0 0 1 1.22-1.225c.42-.113 1.333-.182 2.291-.225l.148-.006.149-.006.074-.002.147-.006a86 86 0 0 1 2.464-.045m-1.257 2.77v4.16l3.588-2.078Z" style="clip-rule:evenodd;fill-rule:evenodd;stroke-width:.138649;stroke-linejoin:round;stroke-miterlimit:2"/>  </symbol>
  </symbol>

  </symbol>


</svg>
</svg>
