<?xml version="1.0" encoding="UTF-8" standalone="no"?>
<svg
   version="1.1"
   id="svg35"
   width="16"
   height="16"
   xmlns="http://www.w3.org/2000/svg"
   xmlns:svg="http://www.w3.org/2000/svg">
  <defs
     id="defs35" />
  <path
     d="M 1.1777,1.9140902e-5 A 1.1777,1.1777 0 0 0 0,1.1777191 v 5.401 a 1.178,1.178 0 0 0 0.345,0.8326 l 8.2440003,8.2438999 a 1.1777,1.1777 0 0 0 1.6651997,0 l 5.401,-5.401 a 1.1777,1.1777 0 0 0 0,-1.6651999 L 7.4112003,0.34501914 A 1.178,1.178 0 0 0 6.5787003,1.9140902e-5 Z M 5.8885,4.1220191 a 1.7666,1.7666 0 1 1 -3.5331,0 1.7666,1.7666 0 0 1 3.5331,0"
     id="icon-tag" />
</svg>
