<svg xmlns="http://www.w3.org/2000/svg" xml:space="preserve" width="16" height="16" fill="currentColor" class="bi bi-github" viewBox="0 0 16 16"><g style="clip-rule:evenodd;fill-rule:evenodd;stroke-linejoin:round;stroke-miterlimit:2"><path d="M181 41.5h-16a23.02 23.02 0 0 0 10.031-18.995c0-12.618-10.382-23-23-23A23.01 23.01 0 0 0 134.6 7.5L115 28.9c-3-3.4-7.3-5.6-12.2-5.6h-6c-5 0-9.3 2.2-12.3 5.6L65 7.5A23 23 0 0 0 47.72-.321c-12.617 0-23 10.382-23 23A23.02 23.02 0 0 0 34.5 41.5H18.6c-4.114 0-7.5 3.386-7.5 7.5v40.7c0 4 3 7.2 7 7.4v95c0 4 3.4 7.4 7.5 7.4h148.3c4.2 0 7.5-3.3 7.5-7.5V97.1c4-.2 7-3.5 7-7.4V49c0-4.2-3.3-7.5-7.5-7.5zM99.7 90.9c15.5-24.2 31-20.6 41.3-11.6s14.4 24.3 4 42.4c-7.2 13.6-27.7 16.9-45.3 41.6-20.2-27-30.6-23.8-41.3-35.3-15.4-16.5-11.3-39.6-1-48.7 10.4-9 30-14.5 42.3 11.6M40.6 25.7a7.9 7.9 0 0 1-.513-2.8c0-4.334 3.566-7.9 7.9-7.9H48c2.2 0 4.3 1 5.8 2.6l21.8 23.9h-1L45.2 30.4a7.8 7.8 0 0 1-4.6-4.7m118.4 0c-.8 2.2-2.5 3.9-4.7 4.7l-29.5 11h-1l21.8-23.8a7.8 7.8 0 0 1 5.9-2.6c2.9 0 5.5 1.5 6.9 4 1.2 2 1.4 4.4.6 6.7" style="fill-rule:nonzero" transform="matrix(.09024 0 0 .08 -1.002 .04)"/></g></svg>