<svg fill="currentColor" xml:space="preserve" xmlns="http://www.w3.org/2000/svg" viewBox="0 0 16 16"><path d="M8.14.76c-1.58 0-3.16 1.05-3.16 3.16v.45H1.82v9.03c0 1 .8 1.8 1.8 1.8h9.03c1 0 1.8-.8 1.8-1.8V4.37H11.3v-.45c0-2.1-1.58-3.16-3.16-3.16m0 .9c1.13 0 2.25.76 2.25 2.26v.45H5.9v-.45c0-1.5 1.12-2.26 2.25-2.26M2.72 5.27h10.83v8.13c0 .5-.4.9-.9.9H3.63a.9.9 0 0 1-.9-.9zm3.65 1.31c-.49.02-.95.26-1.28.54-.75.65-1.05 2.31.07 3.5.78.82 1.54.58 3.01 2.52 1.29-1.77 2.78-2 3.31-2.98.75-1.3.46-2.39-.3-3.04-.75-.65-1.87-.9-3 .83C7.66 6.9 7 6.56 6.37 6.58"/></svg>
