<svg xmlns="http://www.w3.org/2000/svg" xml:space="preserve" width="16" height="16" fill="currentColor" class="bi bi-github" viewBox="0 0 16 16"><g style=""><g style=""><path d="M3013.46 2110.09c-221.49 0-430.17-25.88-626.05-77.63-195.87-51.75-368.02-123.5-516.43-215.24-148.41-91.75-264.43-199.01-348.05-321.81-83.63-122.79-125.44-254.29-125.44-394.49 0-142.088 41.81-274.057 125.44-395.91 83.62-121.854 199.64-228.652 348.05-320.395s320.56-163.491 516.43-215.243c195.88-51.753 404.56-77.629 626.05-77.629s430.17 25.876 626.05 77.629c195.87 51.752 367.83 123.5 515.86 215.243q222.06 137.614 348.06 320.395 126 182.779 126 395.91c0 140.2-42 271.7-126 394.49-84 122.8-200.02 230.06-348.06 321.81-148.03 91.74-319.99 163.49-515.86 215.24-195.88 51.75-404.56 77.63-626.05 77.63m0-183.49c181.56 0 352.2-20.93 511.91-62.8 159.71-41.88 300.4-100.45 422.07-175.73 121.67-75.27 216.41-163.02 284.21-263.23s101.7-208.19 101.7-323.92q0-175.022-101.7-324.28c-67.8-99.506-162.54-187.015-284.21-262.526q-182.505-113.268-422.07-176.076c-159.71-41.873-330.35-62.809-511.91-62.809s-351.63 20.936-510.22 62.809c-158.58 41.872-298.71 100.564-420.37 176.076-121.67 75.511-216.97 163.02-285.91 262.526-68.93 99.506-103.4 207.598-103.4 324.28 0 115.73 33.91 223.71 101.71 323.92s162.54 187.96 284.2 263.23c121.67 75.28 262.36 133.85 422.08 175.73 159.71 41.87 330.35 62.8 511.91 62.8m79.1-237.12c-168.75 0-327.34-24.11-475.75-72.33-148.41-48.23-268.2-116.45-359.35-204.66-91.16-88.21-136.74-192.07-136.74-311.57 0-106.802 42.75-204.661 128.26-293.582s201.9-160.197 349.19-213.831c147.28-53.635 312.08-80.452 494.39-80.452q262.17 0 473.49 76.217c49.72 14.585 78.54 39.05 86.45 73.395q11.865 51.517-34.47 90.331-38.415 32.463-101.7 37.05-63.285 4.588-118.65-13.055c-45.21-15.056-93.23-26.582-144.09-34.58-50.85-7.998-104.53-11.998-161.03-11.998-119.03 0-225.25 16.702-318.67 50.106q-140.13 50.106-221.49 133.733-81.36 83.63-81.36 186.666c0 75.74 28.25 141.61 84.75 197.6 56.5 55.98 131.84 98.91 226.01 128.79 94.17 29.87 197.76 44.81 310.76 44.81 54.24 0 106.79-4.11 157.64-12.35 50.86-8.23 100.39-19.64 148.61-34.22 36.16-11.77 75.33-15.65 117.52-11.65q63.285 6 101.7 38.46c35.41 27.76 47.65 58.11 36.73 91.04q-16.38 49.395-85.32 72.69c-73.07 24.46-150.11 42.81-231.09 55.04-80.99 12.24-162.92 18.35-245.79 18.35" style="fill-rule:nonzero;stroke:none;stroke-opacity:1;fill-opacity:1" transform="matrix(.00495 0 0 -.00793 -6.918 16.727)"/></g></g></svg>