<svg xmlns="http://www.w3.org/2000/svg" xml:space="preserve" width="16" height="16" fill="currentColor" class="bi bi-github" viewBox="0 0 16 16"><g style=""><path d="m3031.06 1459.06-6.82 12.37c-.8 1.45-.28 3.28 1.17 4.08s3.28.27 4.08-1.18l6.68-12.1c9.43 4.11 20.69.58 25.96-8.5 5.66-9.75 2.3-22.25-7.51-27.89-9.8-5.62-22.35-2.27-28.01 7.47-5.03 8.66-2.94 19.48 4.45 25.75m20.57-28.01c6.92 3.97 9.3 12.79 5.31 19.67-4.01 6.9-12.89 9.26-19.83 5.28-6.92-3.98-9.31-12.79-5.31-19.68 4.01-6.9 12.89-9.26 19.83-5.27m-7.26 9.19c2.33-3.51 4.64-2.99 6.19-1.68s2.16 3.52.61 6.14c-1.08 1.97-4.16 2.44-6.8 6.02-3.01-3.92-4.58-3.44-6.18-5.11-2.3-2.38-1.69-5.74-.14-7.05s4.49-2.11 6.32 1.68" style="fill-opacity:1" transform="matrix(.31692 0 0 .3032 -956.311 -431.5)"/></g></svg>