<svg xmlns="http://www.w3.org/2000/svg" xml:space="preserve" viewBox="0 0 16 16"><g><path d="M8.006 3.921c2.42-3.698 4.82-3.159 6.428-1.774s2.24 3.724.633 6.493c-1.125 2.078-4.32 2.576-7.061 6.36-3.134-4.146-4.766-3.64-6.429-5.396-2.39-2.523-1.75-6.072-.142-7.457s4.662-2.225 6.57 1.774m1.052 4.886c0 .459-.517.797-1.12.797s-1.12-.338-1.12-.797c0-.154-.133-.28-.297-.28s-.296.126-.296.28c0 .732.752 1.358 1.713 1.358S9.65 9.54 9.65 8.807c0-.154-.132-.28-.296-.28s-.297.126-.297.28m2.331-1.933c-.387 0-.701.133-.701.296s.314.296.701.296.702-.133.702-.296-.314-.296-.702-.296M10.152 5c-.234 0-.424.372-.424.83s.19.83.424.83c.235 0 .425-.372.425-.83s-.19-.83-.425-.83M4.455 6.874c-.387 0-.701.133-.701.296s.314.296.701.296.702-.133.702-.296-.314-.296-.702-.296M5.691 5c-.234 0-.424.372-.424.83s.19.83.424.83.425-.372.425-.83S5.926 5 5.69 5"/></g></svg>