<svg xmlns="http://www.w3.org/2000/svg" xml:space="preserve" viewBox="0 0 16 16"><path d="m4.3 10.89-2.17 3.75c-.25.44-.09 1 .37 1.23s1.04.09 1.3-.35l2.11-3.67a6.7 6.7 0 0 0 8.23-2.58A6.03 6.03 0 0 0 11.76.81a6.7 6.7 0 0 0-8.88 2.27 6 6 0 0 0 1.41 7.8m6.52-8.49a4.26 4.26 0 0 1 1.68 5.97 4.73 4.73 0 0 1-6.28 1.6 4.26 4.26 0 0 1-1.68-5.97 4.73 4.73 0 0 1 6.28-1.6m-2.3 2.8c.74-1.07 1.47-.92 1.96-.52s.69 1.07.2 1.86c-.35.6-1.32.74-2.16 1.83-.95-1.19-1.45-1.04-1.96-1.55-.73-.72-.53-1.74-.04-2.14s1.42-.64 2 .51"/></svg>
