<svg xmlns="http://www.w3.org/2000/svg" xml:space="preserve" width="16" height="16" fill="currentColor" class="bi bi-github" viewBox="0 0 16 16"><g style=""><g style=""><path d="M35.151 7.932q.411 1.232-.411 2.178-.617.534-1.356.616a.82.82 0 0 0-.494.534l-.246 2.589-.658 5.672-.411 5.178-.164 1.602c-.206 1.809-1.521 2.959-3.288 3.288q-1.725.247-3.534.123a16.5 16.5 0 0 1-2.836-.164c-1.561-.247-2.835-1.151-3-2.836l-.123-.904-.493-4.767-.575-5.63-.288-2.712c-.041-.452.411-.822.822-.822.534 0 .822.411.863.822v.205l.411 3.658.534 5.63.329 3.041c.082.781.164 1.644.74 2.219.657.658 1.726.74 2.589.74h2.465a10.3 10.3 0 0 0 2.178-.247q1.192-.247 1.439-1.438a7.4 7.4 0 0 0 .164-1.521l.74-7.068.534-5.178.082-.863.002-.043a.62.62 0 0 0-.617-.616l-.042.001-.863.082a49.3 49.3 0 0 1-13.192-.534 2.06 2.06 0 0 1-1.726-1.931q0-.617.164-1.315l.329-1.233c.189-.348.475-.633.822-.822a2.05 2.05 0 0 1 1.438-.247l1.192.206.37.041h.164l.535.123c3.702.424 7.441.396 11.137-.082h.164a.41.41 0 0 0 .247-.37l-.37-1.644v-.205l-.165-.535c-.205-.534-.821-.534-1.356-.657l-.986-.164h-.082l-.165-.042-.452-.041a31.3 31.3 0 0 0-6.328 0l-.452.041-.288.042-.781.164a.123.123 0 1 0 0 .246q.41.124.904.165h.165l.164.041 1.438.123c1.78.116 3.567.089 5.343-.082l.493-.041.246-.041q.74-.123 1.028.575c.123.411-.165.986-.576 1.028l-1.109.164q-2.26.246-4.521.164a26 26 0 0 1-4.109-.493 6 6 0 0 1-1.356-.411 1.64 1.64 0 0 1-.863-.739 1.235 1.235 0 0 1 .205-1.439 2.9 2.9 0 0 1 1.11-.616c1.068-.411 2.26-.493 3.411-.617a32 32 0 0 1 4.602-.082q1.891.083 3.781.534l.822.247q.74.206 1.233.945.206.616.288 1.233l.246 1.397q0 .411.288.74.246.205.699.288c.739.246 1.068.945 1.232 1.685zm-1.767.986a.63.63 0 0 0 .205-.452 2.1 2.1 0 0 0-.205-1.233c-.288-.493-.822-.329-1.316-.247l-1.643.247A41.5 41.5 0 0 1 19 7.151c-.616-.083-1.315-.329-1.89-.247-.411 0-.535.452-.576.822-.082.329-.205.904.041 1.233q.288.164.576.205a76 76 0 0 0 6.452.617 49.5 49.5 0 0 0 9.041-.576 1.23 1.23 0 0 0 .74-.287m-16.932-.411v.082z" style="" transform="translate(-4.793 .124)scale(.51957)"/><path d="M24.712 27.575h-.041zm.987-13.89c.986-.411 1.808-.74 2.835-.74a4.9 4.9 0 0 1 1.644.288l-1.192 12.329a1.856 1.856 0 0 1-1.849 1.726c-.97-.002-1.644.082-2.219.082l-2.055-.082a1.856 1.856 0 0 1-1.849-1.726l-1.11-11.137a8 8 0 0 0 1.973.246c1.561 0 2.753-.493 3.822-.986" style="" transform="translate(-4.793 .124)scale(.51957)"/></g></g></svg>