<svg xmlns="http://www.w3.org/2000/svg" xml:space="preserve" viewBox="0 0 16 16"><path d="M15.33 3.36H13.9a2.08 1.84 0 0 0 .9-1.52c0-1-.93-1.84-2.07-1.84a2.08 1.84 0 0 0-1.58.64L9.38 2.35a1.6 1.6 0 0 0-1.1-.45h-.55c-.45 0-.84.18-1.1.45L4.85.64A2.08 1.84 0 0 0 3.3.01c-1.13 0-2.07.83-2.07 1.84a2.08 1.84 0 0 0 .88 1.51H.68c-.37 0-.68.27-.68.6v3.26c0 .32.27.57.63.59v7.6c0 .32.3.59.68.59h13.38c.38 0 .68-.26.68-.6V7.8c.36 0 .63-.27.63-.58V3.96c0-.34-.3-.6-.68-.6zM8 7.31c1.4-1.93 2.8-1.65 3.73-.93s1.3 1.95.36 3.4c-.65 1.08-2.5 1.35-4.09 3.32-1.82-2.16-2.76-1.9-3.72-2.82-1.4-1.32-1.02-3.17-.1-3.9.95-.72 2.71-1.16 3.82.93M2.66 2.1a.71.63 0 0 1-.04-.23c0-.34.32-.63.7-.63h.01q.31.01.52.2l1.97 1.92h-.09l-2.65-.89a.7.62 0 0 1-.42-.37m10.69 0a.7.7 0 0 1-.43.37l-2.66.88h-.09l1.97-1.9a.7.62 0 0 1 .53-.21c.26 0 .5.12.62.32q.17.25.06.54" /></svg>
