<svg xmlns="http://www.w3.org/2000/svg" xml:space="preserve" width="16" height="16" fill="currentColor" class="bi bi-github" viewBox="0 0 16 16"><g style=""><path d="M397.598 209.706c14.002-22.086 27.889-18.865 37.186-10.596 9.296 8.268 12.957 22.237 3.66 38.774-6.508 12.403-24.984 15.377-40.846 37.97-18.128-24.75-27.568-21.735-37.186-32.216-13.829-15.068-10.123-36.26-.826-44.528s26.972-13.285 38.012 10.596m6.083 29.175c0 2.738-2.992 4.759-6.48 4.759s-6.48-2.021-6.48-4.759c0-.924-.769-1.674-1.716-1.674s-1.715.75-1.715 1.674c0 4.366 4.349 8.107 9.911 8.107s9.911-3.741 9.911-8.107c0-.924-.768-1.674-1.715-1.674s-1.716.75-1.716 1.674m13.485-11.544c-2.24 0-4.059.791-4.059 1.766s1.819 1.767 4.059 1.767 4.059-.792 4.059-1.767-1.819-1.766-4.059-1.766m-7.151-11.194c-1.354 0-2.453 2.22-2.453 4.954s1.099 4.954 2.453 4.954c1.355 0 2.454-2.22 2.454-4.954s-1.099-4.954-2.454-4.954m-32.955 11.194c-2.241 0-4.06.791-4.06 1.766s1.819 1.767 4.06 1.767 4.059-.792 4.059-1.767-1.819-1.766-4.059-1.766m7.15-11.194c-1.354 0-2.453 2.22-2.453 4.954s1.099 4.954 2.453 4.954 2.454-2.22 2.454-4.954-1.1-4.954-2.454-4.954" style="" transform="matrix(.17287 0 0 .16747 -60.727 -31.198)"/></g></svg>