<svg fill="currentColor" xmlns="http://www.w3.org/2000/svg" viewBox="0 0 16 16"><path d="M8 0a8 8 0 0 0-5.66 2.32A8 8 0 0 0 0 8a7.9 7.9 0 0 0 4.9 7.38Q6.35 16 8 16a8 8 0 0 0 5.65-2.32q1.1-1.1 1.73-2.54Q16 9.69 16 8a8 8 0 0 0-2.35-5.68A8 8 0 0 0 8 0m0 1.45A6.5 6.5 0 0 1 14.53 8q0 1.39-.5 2.57t-1.4 2.08-2.1 1.4-2.53.5a6.4 6.4 0 0 1-4.6-1.9 6.6 6.6 0 0 1-1.43-7.22 6.4 6.4 0 0 1 3.5-3.48q1.18-.5 2.53-.5m.4 1.88q-1.26 0-2.36.58-1.1.57-1.78 1.62T3.58 8q0 1.27.63 2.33a4.8 4.8 0 0 0 4.18 2.33q1.3 0 2.35-.6a.7.7 0 0 0 .42-.59q.06-.4-.17-.71-.19-.26-.5-.3t-.59.1a3 3 0 0 1-1.5.38q-.9 0-1.59-.4t-1.1-1.06T5.31 8q0-.9.42-1.57a3 3 0 0 1 1.12-1.02 3.4 3.4 0 0 1 3.06.02q.27.13.58.09t.5-.3a.8.8 0 0 0 .18-.73q-.08-.39-.42-.57a5 5 0 0 0-2.36-.59"/></svg>
