<svg xmlns="http://www.w3.org/2000/svg" fill="currentColor" viewBox="0 0 16 16"><path d="M13.47 4.25q.21.64-.21 1.13-.32.27-.7.32a.4.4 0 0 0-.26.27l-.13 1.35-.34 2.95-.22 2.69-.08.83c-.11.94-.8 1.54-1.71 1.7q-.9.14-1.84.07a9 9 0 0 1-1.47-.08c-.81-.13-1.47-.6-1.56-1.48l-.06-.47-.26-2.47-.3-2.93-.15-1.4c-.02-.24.22-.44.43-.44.28 0 .43.22.45.43v.1l.21 1.9.28 2.93.17 1.58c.04.41.08.86.38 1.16.34.34.9.38 1.35.38h1.28a5 5 0 0 0 1.13-.13q.62-.13.75-.74a4 4 0 0 0 .08-.8l.39-3.67.28-2.69.04-.45v-.02a.3.3 0 0 0-.32-.32h-.02L10.6 6a26 26 0 0 1-6.86-.28 1.1 1.1 0 0 1-.9-1q0-.33.1-.69l.16-.64q.15-.27.43-.43a1 1 0 0 1 .75-.12l.62.1.19.02h.08l.28.07a24 24 0 0 0 5.79-.05h.08a.2.2 0 0 0 .13-.19l-.19-.85v-.1l-.09-.29c-.1-.27-.42-.27-.7-.34l-.51-.08h-.04l-.09-.02-.24-.03a16 16 0 0 0-3.28 0l-.24.03-.15.02-.4.08a.06.06 0 1 0 0 .13q.21.06.47.09h.08l.09.02.74.06q1.4.1 2.78-.04l.26-.02.12-.02q.39-.07.54.3c.06.2-.09.5-.3.53l-.58.08q-1.17.13-2.35.09a14 14 0 0 1-2.13-.26 3 3 0 0 1-.7-.21 1 1 0 0 1-.45-.38.64.64 0 0 1 .1-.75A2 2 0 0 1 4.78.5C5.33.29 5.95.25 6.55.19a17 17 0 0 1 2.4-.05q.98.05 1.96.28l.42.13q.39.1.64.5.11.31.15.63l.13.73q0 .21.15.38.13.11.37.15c.38.13.55.5.64.88zm-.92.5a.3.3 0 0 0 .1-.23 1 1 0 0 0-.1-.64c-.15-.25-.42-.17-.68-.13l-.85.13a22 22 0 0 1-5.94-.04c-.32-.04-.68-.17-.98-.13-.22 0-.28.24-.3.43-.04.17-.1.47.02.64q.15.08.3.1a40 40 0 0 0 3.35.32 26 26 0 0 0 4.7-.3.6.6 0 0 0 .38-.14m-8.8-.22v.05z"/><path d="M8.05 14.45h-.03zm.5-7.22a4 4 0 0 1 1.48-.38 3 3 0 0 1 .86.15l-.62 6.4a.96.96 0 0 1-.96.9c-.5 0-.86.05-1.16.05L7.1 14.3a.96.96 0 0 1-.96-.9l-.58-5.78a4 4 0 0 0 1.02.13c.81 0 1.43-.26 1.99-.51"/></svg>
