<svg xmlns="http://www.w3.org/2000/svg" xml:space="preserve" width="16" height="16" fill="currentColor" class="bi bi-github" viewBox="0 0 16 16"><path d="M3.5 0a.5.5 0 0 0-.5.5V1H2a2 2 0 0 0-2 2v11a2 2 0 0 0 2 2h12a2 2 0 0 0 2-2V3a2 2 0 0 0-2-2h-1V.5a.5.5 0 0 0-1 0V1H4V.5a.5.5 0 0 0-.5-.5M2 2h12a1 1 0 0 1 1 1v1H1V3a1 1 0 0 1 1-1M1 5h14v9a1 1 0 0 1-1 1H2a1 1 0 0 1-1-1Zm5.193 1.502c-.517.019-1.005.267-1.355.568-.8.69-1.118 2.457.072 3.713.828.874 1.64.623 3.2 2.686 1.364-1.884 2.955-2.132 3.515-3.166.8-1.379.483-2.543-.316-3.233-.8-.689-1.995-.956-3.2.885-.534-1.12-1.25-1.477-1.916-1.453" style=""/></svg>