<svg fill="currentColor" viewBox="0 0 16 16" xmlns="http://www.w3.org/2000/svg"><path d="M8 0c-.38 0-.76.22-.98.65L.17 13.98c-.46.89.09 2.02.98 2.02h13.7c.9 0 1.44-1.13.99-2.02L8.98.65A1.1 1.1 0 0 0 8 0m.03 5.33q.84 0 1.5.31.65.32 1 .85a2.1 2.1 0 0 1 .15 2.05q-.2.37-.48.65-.27.27-1 .91l-.32.32a1 1 0 0 0-.27.48l-.09.4q-.1.6-.7.61a.7.7 0 0 1-.51-.2q-.2-.2-.2-.59 0-.5.14-.85.15-.36.4-.63.26-.27.69-.65.38-.33.54-.5t.28-.37a1 1 0 0 0 .12-.44q0-.48-.36-.8a1.3 1.3 0 0 0-.9-.32q-.63 0-.94.33-.3.32-.52.96-.2.66-.75.66a.8.8 0 0 1-.56-.23.7.7 0 0 1-.22-.5q0-.57.36-1.13.35-.57 1.04-.95.69-.37 1.6-.37m-.14 7.12q.36 0 .62.25.25.25.25.62 0 .41-.26.64a.94.94 0 0 1-1.24 0 .8.8 0 0 1-.26-.64q0-.37.25-.62a1 1 0 0 1 .64-.25"/></svg>
