<svg xmlns="http://www.w3.org/2000/svg" xml:space="preserve" viewBox="0 0 16 16"><path d="M15.999 2.131v11.744a2.13 2.13 0 0 1-2.128 2.128H2.126A2.13 2.13 0 0 1 0 13.875V2.131A2.13 2.13 0 0 1 2.126.003h11.745a2.13 2.13 0 0 1 2.128 2.128m-2.137 5.763a1.34 1.34 0 0 0-1.328-1.348 1.3 1.3 0 0 0-.9.358c-.876-.579-2.05-.953-3.35-1.004L9 3.68l1.883.45c0 .61.491 1.107 1.094 1.107s1.093-.498 1.093-1.11-.49-1.108-1.093-1.108c-.452 0-.84.278-1.007.675l-2.262-.54-.885 2.74c-1.35.027-2.572.398-3.482.992a1.3 1.3 0 0 0-.88-.34 1.34 1.34 0 0 0-1.327 1.348c0 .471.242.904.63 1.146-.353 2.119 2.108 3.948 5.209 3.948 3.088 0 5.54-1.813 5.214-3.921a1.34 1.34 0 0 0 .674-1.173m-3.974 3.234c-.394.4-1.013.595-1.89.595-.878 0-1.496-.195-1.89-.595a.225.225 0 0 1 0-.314.22.22 0 0 1 .31 0c.307.312.824.464 1.58.464.755 0 1.272-.152 1.58-.464a.22.22 0 0 1 .31 0 .225.225 0 0 1 0 .314M5.414 8.795c0-.452.374-.832.82-.832s.808.38.808.832-.362.82-.808.82a.825.825 0 0 1-.82-.82m4.36.82a.825.825 0 0 1-.82-.82c0-.454.374-.832.82-.832.447 0 .809.378.809.832 0 .452-.361.82-.808.82" /></svg>
