<svg xmlns="http://www.w3.org/2000/svg" xml:space="preserve" width="16" height="16" fill="currentColor" class="bi bi-github" viewBox="0 0 16 16"><path d="M964.937 1713.54v84.7c0 8.47-6.877 15.35-15.347 15.35h-84.704c-8.47 0-15.347-6.88-15.347-15.35v-84.7c0-8.47 6.877-15.35 15.347-15.35h84.704c8.47 0 15.347 6.88 15.347 15.35m-60.991-5.34c-27.014 0-48.894 21.88-48.894 48.9 0 21.63 13.996 39.91 33.431 46.38 2.445.43 3.362-1.04 3.362-2.32 0-1.16-.061-5.01-.061-9.1-12.285 2.26-15.463-3-16.441-5.75-.55-1.41-2.933-5.74-5.011-6.91-1.712-.91-4.156-3.17-.062-3.24 3.851-.06 6.601 3.55 7.518 5.02 4.4 7.39 11.429 5.31 14.24 4.03.428-3.18 1.712-5.32 3.117-6.54-10.879-1.22-22.247-5.44-22.247-24.14 0-5.32 1.895-9.72 5.012-13.14-.489-1.22-2.2-6.24.489-12.96 0 0 4.095-1.28 13.446 5.01 3.911-1.1 8.067-1.65 12.223-1.65s8.312.55 12.224 1.65c9.351-6.35 13.446-5.01 13.446-5.01 2.689 6.72.978 11.74.489 12.96 3.117 3.42 5.011 7.76 5.011 13.14 0 18.76-11.429 22.92-22.307 24.14 1.772 1.53 3.3 4.46 3.3 9.05 0 6.54-.061 11.79-.061 13.44 0 1.28.917 2.81 3.361 2.32 19.856-6.69 33.31-25.43 33.309-46.38 0-27.02-21.88-48.9-48.894-48.9" style="clip-rule:evenodd;fill-rule:evenodd;stroke-linejoin:round;stroke-miterlimit:2" transform="translate(-117.79 -235.451)scale(.13865)"/></svg>