<svg xmlns="http://www.w3.org/2000/svg" xml:space="preserve" width="16" height="16" fill="currentColor" class="bi bi-github" viewBox="0 0 16 16"><path d="M964.937 1713.54v84.7c0 8.47-6.877 15.35-15.347 15.35h-84.704c-8.47 0-15.347-6.88-15.347-15.35v-84.7c0-8.47 6.877-15.35 15.347-15.35h84.704c8.47 0 15.347 6.88 15.347 15.35m-40.555 63.14-16.633-15.35-35.809 33.06c1.098 5.62 7.432 8.79 12.585 5.76zm-52.442-55.84 35.809 33.06 16.633-15.36-39.857-23.47c-5.153-3.04-11.487.14-12.585 5.77m72.087 44.28c5.666-3.33 5.666-11.68 0-15.02l-14.721-8.66-17.53 16.17 17.524 16.18zm-72.251 21.98 31.945-29.49-31.945-29.49z" style="clip-rule:evenodd;fill-rule:evenodd;stroke-linejoin:round;stroke-miterlimit:2" transform="translate(-117.79 -235.451)scale(.13865)"/></svg>