<svg xmlns="http://www.w3.org/2000/svg" xml:space="preserve" viewBox="0 0 16 16"><path d="M5.38 16H2.13A2.13 2.13 0 0 1 0 13.87V2.13C0 .96.95 0 2.13 0h11.74C15.05 0 16 .96 16 2.13v11.74c0 1.18-.95 2.13-2.13 2.13H6.04c.95-.95 1.35-2.22 1.67-3.88 0 0 1.1.59 1.99.66 3.28.25 5.05-3.44 4.6-6.64-.4-2.84-3.27-4.3-6.34-3.95-2.42.27-4.84 2.2-4.94 4.96-.05 1.2.04 2.43.91 2.78 0 0 1.09-.41.77-1.86-.8-3.6 4.28-5.76 6.82-3.22 1.76 1.76.74 6.6-2.1 6.04-2.72-.54 1.18-4.64-1-5.49-1.76-.69-2.7 2.1-1.86 3.5-.46 2.24-1.43 4.36-1.18 7.1" /></svg>
