<svg xmlns="http://www.w3.org/2000/svg" xml:space="preserve" viewBox="0 0 16 16"><path d="M16 2.13v11.74c0 1.18-.95 2.13-2.13 2.13H2.13A2.13 2.13 0 0 1 0 13.87V2.13C0 .96.95 0 2.13 0h11.74C15.05 0 16 .96 16 2.13M4.28 2.7c-1.1-.86-2.9-1.53-2.9.6 0 .42.24 3.57.38 4.08.47 1.77 2.21 2.22 3.76 1.95-2.7.48-3.4 2.06-1.9 3.65 2.82 3.01 4.05-.75 4.37-1.72q.08-.28.09-.19 0-.1.08.19c.32.97 1.55 4.73 4.38 1.72 1.48-1.59.8-3.17-1.91-3.65 1.55.27 3.29-.18 3.77-1.95.13-.51.37-3.66.37-4.08 0-2.13-1.8-1.46-2.9-.6a16 16 0 0 0-3.8 4.93A16 16 0 0 0 4.29 2.7"/></svg>
