<svg xmlns="http://www.w3.org/2000/svg" xml:space="preserve" viewBox="0 0 16 16"><path d="M16 2.13v11.74c0 1.18-.95 2.13-2.13 2.13H2.13A2.13 2.13 0 0 1 0 13.87V2.13C0 .96.95 0 2.13 0h11.74C15.05 0 16 .96 16 2.13M4.88 6.93c0-.58-.46-1.04-1.03-1.04a1.03 1.03 0 0 0-1.03 1.03v6.72c0 .57.46 1.03 1.03 1.03a1.03 1.03 0 0 0 1.03-1.03zm2.15-.09c-.43.86-.13 6.5-.13 6.5 0 .18.17 1 .99.99h.03c1.08.04 1-.9 1-.99l.02-3.32a1.84 1.84 0 0 1 3.44-.68c.7 1.26.09 2.8.45 4.16.27 1 1.72 1.13 2-.18a10 10 0 0 0-.32-4.53c-.8-2.15-3.68-3-5.61-1.9-.32-.85-1.5-.8-1.87-.05M3.85 2.19c-.67-1.17-1.74-.92-2.3-.52s-.8 1.44.04 2.18c.59.52 1.16.37 2.26 1.58.96-1.1 2.08-1.25 2.48-1.86.56-.8.34-1.5-.22-1.9s-1.41-.56-2.26.52" /></svg>
