<svg xmlns="http://www.w3.org/2000/svg" xml:space="preserve" viewBox="0 0 16 16"><path d="M16 2.13v11.74c0 1.18-.95 2.13-2.13 2.13H2.13A2.13 2.13 0 0 1 0 13.87V2.13C0 .96.95 0 2.13 0h11.74C15.05 0 16 .96 16 2.13m-9.7 4.4c-.43-.55-.52-.7-.68-.94a2.2 2.2 0 0 0-1.37-1c-.59-.11-1.15-.1-1.82.7-.42.5-.64 1.22-.57 1.94.1 1.04.78 2.56 3.08 4.88a6 6 0 0 0 2.34 1.65c1.07.35 2.37.1 3.55-.87 1.42-1.18 1.94-2.2 2.56-3.14.7-1.07 1.16-1.92 1.01-3.23-.17-1.53-1.46-4.57-4.6-4.42a3 3 0 0 0-1.88.8C7.1 3.7 6.17 5 6.31 6.54m1.42 3.49c.26.1 1.26-.11 1.08-.4-.63-.95-1.36-1.24-1.45-3.29-.04-1.08.6-1.92 1.18-2.48.36-.34.98-.47 1.3-.5 1.75-.1 2.91 2.28 2.98 3.14.1 1.25-1.93 3.68-2.9 4.6-1.98 1.9-3.65.07-4.01-.25a12 12 0 0 1-2.76-3.4c-.66-1.35.52-2.3 1.39-.83.85 1.43 1.27 1.81 2.17 2.76.45.47.7.52 1.02.65m2.35-1.69s.97-.98 1-1.9c.02-1.56-2.11-1.69-2.12-.05-.01 1.13 1.12 1.95 1.12 1.95"/></svg>
