<svg xmlns="http://www.w3.org/2000/svg" xml:space="preserve" width="16" height="16" fill="currentColor" class="bi bi-github" viewBox="0 0 16 16"><path d="M964.937 1713.54v84.7c0 8.47-6.877 15.35-15.347 15.35h-84.704c-8.47 0-15.347-6.88-15.347-15.35v-84.7c0-8.47 6.877-15.35 15.347-15.35h84.704c8.47 0 15.347 6.88 15.347 15.35m-84.485 4.13c-7.985-6.23-20.923-11.05-20.923 4.29 0 3.06 1.69 25.73 2.682 29.42 3.444 12.79 15.999 16.05 27.167 14.08-19.521 3.45-24.487 14.89-13.762 26.33 20.369 21.72 29.276-5.45 31.558-12.41.418-1.28.614-1.88.617-1.37.003-.51.199.09.617 1.37 2.283 6.96 11.19 34.13 31.558 12.41 10.725-11.44 5.759-22.88-13.762-26.33 11.167 1.97 23.722-1.29 27.168-14.08.991-3.69 2.681-26.36 2.681-29.42 0-15.34-12.938-10.52-20.922-4.29-11.067 8.64-22.969 26.14-27.34 35.54-4.37-9.4-16.273-26.9-27.339-35.54" style="clip-rule:evenodd;fill-rule:evenodd;stroke-linejoin:round;stroke-miterlimit:2" transform="translate(-117.79 -235.451)scale(.13865)"/></svg>