<svg xmlns="http://www.w3.org/2000/svg" xml:space="preserve" width="16" height="16" fill="currentColor" class="bi bi-github" viewBox="0 0 16 16"><path d="M964.937 1713.54v84.7c0 8.47-6.877 15.35-15.347 15.35h-84.704c-8.47 0-15.347-6.88-15.347-15.35v-84.7c0-8.47 6.877-15.35 15.347-15.35h84.704c8.47 0 15.347 6.88 15.347 15.35m-56.714-3.5c-25.23 0-45.683 20.45-45.683 45.68s20.453 45.68 45.683 45.68 45.682-20.45 45.682-45.68-20.452-45.68-45.682-45.68m0 83.86c-21.053 0-38.18-17.13-38.18-38.18 0-21.06 17.127-38.18 38.18-38.18 21.052 0 38.179 17.12 38.179 38.18 0 21.05-17.127 38.18-38.179 38.18m28.246-46.79c.098-.79-.422-1.63-1.081-2.02l-25.819-17.21a2.44 2.44 0 0 0-2.693 0l-25.819 17.21c-.588.32-1.159 1.2-1.081 2.02v17.21c-.008.81.437 1.57 1.081 2.02l25.819 17.22c.408.27.877.4 1.347.4.469 0 .938-.13 1.346-.4l25.819-17.22c.436-.32 1.068-1.25 1.081-2.02zm-28.246 14.35-8.586-5.74 8.586-5.75 8.585 5.75zm2.427 15.54v-11.32l10.524-7.04 8.496 5.68zm0-42.57 19.02 12.68-8.496 5.69-10.524-7.04zm-4.855 0v11.33l-10.524 7.04-8.496-5.69zm-20.963 17.22 6.073 4.07-6.073 4.06zm46.782 8.13-6.073-4.06 6.073-4.07zM905.795 1777l-19.02-12.68 8.496-5.68 10.524 7.04z" style="clip-rule:evenodd;fill-rule:evenodd;stroke-linejoin:round;stroke-miterlimit:2" transform="translate(-117.79 -235.451)scale(.13865)"/></svg>