<svg xmlns="http://www.w3.org/2000/svg" xml:space="preserve" viewBox="0 0 16 16"><path d="M16 2.13v11.74c0 1.18-.95 2.13-2.13 2.13H2.13A2.13 2.13 0 0 1 0 13.87V2.13C0 .96.95 0 2.13 0h11.74C15.05 0 16 .96 16 2.13m-4.14 2.28a9 9 0 0 0-2.3-.72l-.29.61Q8 4.11 6.73 4.3l-.3-.6a9 9 0 0 0-2.3.72 9.6 9.6 0 0 0-1.65 6.45c.96.72 1.9 1.16 2.82 1.44a7 7 0 0 0 .6-1 6 6 0 0 1-.95-.45l.23-.19a6.5 6.5 0 0 0 5.64 0l.23.19a6 6 0 0 1-.95.46 7 7 0 0 0 .6 1 9 9 0 0 0 2.82-1.45 9.6 9.6 0 0 0-1.66-6.46M9.85 9.57c-.55 0-1-.51-1-1.14s.44-1.14 1-1.14 1 .51 1 1.14-.44 1.14-1 1.14m-3.7 0c-.55 0-1-.51-1-1.14s.44-1.14 1-1.14 1 .51 1 1.14-.44 1.14-1 1.14"/></svg>
