<svg xmlns="http://www.w3.org/2000/svg" xml:space="preserve" viewBox="0 0 16 16"><path d="M16 2.13v11.74c0 1.18-.95 2.13-2.13 2.13H2.13A2.13 2.13 0 0 1 0 13.87V2.13C0 .96.95 0 2.13 0h11.74C15.05 0 16 .96 16 2.13m-7.86-.48a6.33 6.33 0 1 0 0 12.66 6.33 6.33 0 0 0 0-12.66m0 11.62a5.3 5.3 0 1 1 0-10.6 5.3 5.3 0 0 1 0 10.6m3.91-6.48c.02-.11-.06-.23-.15-.28L8.32 4.12a.3.3 0 0 0-.37 0L4.37 6.51a.3.3 0 0 0-.15.28v2.38q0 .18.15.28l3.58 2.39a.3.3 0 0 0 .37 0l3.58-2.39a.4.4 0 0 0 .15-.28zM8.14 8.78l-1.2-.8 1.2-.8 1.19.8zm.33 2.15V9.36l1.46-.98 1.18.8zm0-5.9 2.64 1.76-1.18.78-1.46-.97zm-.67 0V6.6l-1.46.97-1.18-.78zM4.9 7.42l.83.56-.84.56zm6.48 1.12-.84-.56.84-.56zM7.8 10.93 5.16 9.17l1.18-.79 1.46.98z" /></svg>
