<svg xmlns="http://www.w3.org/2000/svg" xml:space="preserve" width="16" height="16" fill="currentColor" class="bi bi-github" viewBox="0 0 16 16"><path d="M964.937 1713.54v84.7c0 8.47-6.877 15.35-15.347 15.35h-84.704c-8.47 0-15.347-6.88-15.347-15.35v-84.7c0-8.47 6.877-15.35 15.347-15.35h84.704c8.47 0 15.347 6.88 15.347 15.35m-51.561-6.75v67.51c0 10.1-8.312 18.42-18.413 18.42s-18.413-8.32-18.413-18.42 8.312-18.41 18.413-18.41v-12.28c-16.835 0-30.688 13.86-30.688 30.69 0 16.84 13.853 30.69 30.688 30.69s30.688-13.85 30.688-30.69v-41.91c5.708 6.23 13.791 11.22 24.55 11.22v-12.27c-7.383 0-12.919-3.75-17.093-9.13-4.266-5.5-6.696-11.03-7.58-15.42z" style="clip-rule:evenodd;fill-rule:evenodd;stroke-linejoin:round;stroke-miterlimit:2" transform="translate(-117.79 -235.451)scale(.13865)"/></svg>