<svg xmlns="http://www.w3.org/2000/svg" xml:space="preserve" viewBox="0 0 16 16"><path d="M15.999 2.131v11.744a2.13 2.13 0 0 1-2.128 2.128H2.126A2.13 2.13 0 0 1 0 13.875V2.131A2.13 2.13 0 0 1 2.126.003h11.745a2.13 2.13 0 0 1 2.128 2.128m-7.15-.936v9.36c0 1.401-1.152 2.555-2.552 2.555s-2.553-1.154-2.553-2.554 1.152-2.553 2.553-2.553V6.301c-2.335 0-4.255 1.921-4.255 4.255 0 2.335 1.92 4.255 4.255 4.255s4.255-1.92 4.255-4.255V4.745c.79.864 1.912 1.556 3.403 1.556V4.599c-1.023 0-1.79-.52-2.37-1.266-.591-.762-.928-1.529-1.05-2.138z"/></svg>
