<svg xmlns="http://www.w3.org/2000/svg" xml:space="preserve" width="16" height="16" fill="currentColor" class="bi bi-github" viewBox="0 0 16 16"><path d="M964.937 1713.54v84.7c0 8.47-6.877 15.35-15.347 15.35h-84.704c-8.47 0-15.347-6.88-15.347-15.35v-84.7c0-8.47 6.877-15.35 15.347-15.35h84.704c8.47 0 15.347 6.88 15.347 15.35m-53.616 21.25c-7.33 3.46-21.971 10.62-43.923 21.47-3.559 1.61-5.426 3.18-5.601 4.73-.283 2.59 2.588 3.62 6.495 5.02l1.647.58c3.841 1.42 9.019 3.08 11.701 3.14 2.448.07 5.172-1.07 8.171-3.41q30.774-23.565 31.762-23.82c.47-.13 1.129-.28 1.562.17s.396 1.28.349 1.5c-.283 1.38-11.551 13.26-17.378 19.41-1.816 1.92-3.106 3.28-3.37 3.59-.58.67-1.17 1.34-1.769 1.99-3.578 3.91-6.251 6.83.141 11.62 3.078 2.31 5.544 4.2 8.001 6.1 2.674 2.07 5.347 4.13 8.811 6.72a64 64 0 0 1 2.542 1.99c3.116 2.52 5.931 4.79 9.385 4.43 2.015-.22 4.095-2.35 5.15-8.76 2.494-15.14 7.399-47.92 8.528-61.43.071-1.13.03-2.25-.122-3.37-.091-.89-.474-1.72-1.073-2.32-.858-.66-1.878-1.01-2.918-.99-2.825.05-7.183 1.77-28.091 11.64" style="clip-rule:evenodd;fill-rule:evenodd;stroke-linejoin:round;stroke-miterlimit:2" transform="translate(-117.79 -235.451)scale(.13865)"/></svg>