<svg xmlns="http://www.w3.org/2000/svg" xml:space="preserve" width="16" height="16" fill="currentColor" class="bi bi-github" viewBox="0 0 16 16"><path d="M964.937 1713.54v84.7c0 8.47-6.877 15.35-15.347 15.35h-84.704c-8.47 0-15.347-6.88-15.347-15.35v-84.7c0-8.47 6.877-15.35 15.347-15.35h84.704c8.47 0 15.347 6.88 15.347 15.35m-69.869 31.78h-.005c-3.108-4.05-3.721-5.13-4.925-6.86-3.239-4.67-6.933-6.67-9.893-7.21-4.224-.77-8.268-.63-13.072 5.05-3.09 3.66-4.61 8.83-4.115 14.01.634 7.51 5.581 18.5 22.199 35.2 4.788 4.82 9.762 9.6 16.859 11.91 7.694 2.49 17.127.73 25.598-6.3 10.271-8.53 13.997-15.86 18.457-22.66 5.05-7.69 8.421-13.8 7.326-23.27-1.275-11.03-10.577-32.99-33.17-31.86-3.869.2-9.313 1.66-13.565 5.75-6.085 5.85-12.706 15.14-11.694 26.24m10.2 25.16c1.888.76 9.149-.79 7.841-2.79-4.547-6.94-9.849-8.98-10.467-23.76-.329-7.82 4.295-13.87 8.475-17.89 2.594-2.49 7.092-3.43 9.45-3.58 12.608-.8 20.952 16.4 21.445 22.56.728 9.06-13.953 26.59-20.936 33.26-14.227 13.62-26.325.44-28.908-1.89-11.95-10.79-17.143-19-19.89-24.53-4.804-9.69 3.748-16.5 10.008-5.96 6.15 10.36 9.144 13.08 15.639 19.93 3.239 3.41 5.007 3.71 7.343 4.65m16.99-12.14v-.01s7.021-7.07 7.147-13.76c.208-11.23-15.179-12.12-15.267-.33-.06 8.2 8.12 14.1 8.12 14.1" style="clip-rule:evenodd;fill-rule:evenodd;stroke-linejoin:round;stroke-miterlimit:2" transform="translate(-117.79 -235.451)scale(.13865)"/></svg>