<svg xmlns="http://www.w3.org/2000/svg" xml:space="preserve" style="fill-rule:evenodd;clip-rule:evenodd;stroke-linejoin:round;stroke-miterlimit:2" viewBox="0 0 127 127"><path fill="currentColor" d="M126.516 16.97v92.44c0 9.244-7.505 16.753-16.75 16.753H17.323c-9.244 0-16.75-7.509-16.75-16.753V16.97C.573 7.726 8.079.218 17.323.218h92.445c9.244 0 16.749 7.508 16.749 16.752M63.544 8.283c-29.45.95-53.159 25.44-53.159 54.907s23.709 53.947 53.16 54.897c29.45-.95 53.158-25.43 53.158-54.897S92.995 9.232 63.544 8.283m0 7.727v.022h.029c25.883 0 47.182 21.303 47.182 47.191 0 25.866-21.28 47.158-47.154 47.18h-.028c-25.891 0-47.196-21.303-47.196-47.202 0-25.876 21.288-47.18 47.167-47.191m25.107 68.146L81.016 72.63s-7.721 4.43-12.524 4.43c-8.065 0-14.07-6.122-14.07-13.609l-.002-.24c0-7.476 6.158-13.631 13.64-13.631h.146a16.63 16.63 0 0 1 10.865 3.656l8.894-11.754c-5.577-4.857-13.382-7.258-21.676-7.258-17.385 0-31.454 13.097-31.454 29.227 0 16.12 12.153 28.703 29.51 28.703 9.064 0 18.558-2.28 24.306-8"/></svg>