<svg xmlns="http://www.w3.org/2000/svg" xml:space="preserve" viewBox="0 0 16 16"><path d="M16 2.13v11.74c0 1.18-.95 2.13-2.13 2.13H2.13A2.13 2.13 0 0 1 0 13.87V2.13C0 .96.95 0 2.13 0h11.74C15.05 0 16 .96 16 2.13m-3.9 2.53c.1-.84-.07-1.43-.55-1.97-.57-.65-1.6-.93-2.9-.93H4.82a.55.55 0 0 0-.54.46L2.7 12.3a.33.33 0 0 0 .32.38h2.15l-.15 1-.01.07c0 .27.22.5.49.5h1.98a.7.7 0 0 0 .68-.58l.02-.1.37-2.37.02-.13a.3.3 0 0 1 .28-.24h.3c.98 0 1.88-.2 2.6-.7q.45-.33.77-.79a4 4 0 0 0 .7-1.71c.18-.97.1-1.84-.45-2.46a2 2 0 0 0-.6-.46zM6.24 8.64l.25-.06H7.6c2.2 0 3.92-.9 4.42-3.47v-.02q.26.14.43.35.63.73.35 2.1a3.4 3.4 0 0 1-1.3 2.25q-.94.65-2.37.64h-.3a.7.7 0 0 0-.67.57l-.02.13-.37 2.37-.02.1a.3.3 0 0 1-.28.23H5.5a.1.1 0 0 1-.08-.1l.16-1.02z"/></svg>
