<svg xmlns="http://www.w3.org/2000/svg" xml:space="preserve" width="16" height="16" fill="currentColor" class="bi bi-github" viewBox="0 0 16 16"><path d="M2.127 0A2.13 2.13 0 0 0 0 2.129V13.87A2.13 2.13 0 0 0 2.127 16h11.746A2.13 2.13 0 0 0 16 13.871V2.13A2.13 2.13 0 0 0 13.873 0Zm5.812 3.605h.245c.71.003 4.306.029 5.275.29a1.74 1.74 0 0 1 1.22 1.224c.088.328.149.763.19 1.211l.01.09.018.225.007.09c.056.788.064 1.527.065 1.689v.064c-.001.168-.01.956-.072 1.778l-.006.091-.008.09c-.043.494-.108.983-.203 1.344a1.74 1.74 0 0 1-1.221 1.227c-1.001.269-4.809.288-5.336.289H8c-.267 0-1.369-.006-2.525-.045l-.147-.004-.076-.004-.147-.006-.148-.006c-.958-.042-1.87-.11-2.291-.224a1.74 1.74 0 0 1-1.223-1.227c-.095-.36-.158-.85-.2-1.344l-.009-.092-.007-.09a27 27 0 0 1-.07-1.755v-.108c.001-.185.01-.827.056-1.535l.006-.088.002-.045.006-.09.02-.224.009-.09c.041-.448.102-.884.19-1.21a1.74 1.74 0 0 1 1.22-1.225c.42-.113 1.333-.182 2.291-.225l.148-.006.149-.006.074-.002.147-.006a86 86 0 0 1 2.464-.045m-1.257 2.77v4.16l3.588-2.078Z" style="clip-rule:evenodd;fill-rule:evenodd;stroke-width:.138649;stroke-linejoin:round;stroke-miterlimit:2"/></svg>