<svg xmlns="http://www.w3.org/2000/svg" xml:space="preserve" viewBox="0 0 16 16"><path d="M15.999 2.131v11.744a2.13 2.13 0 0 1-2.128 2.128H2.126A2.13 2.13 0 0 1 0 13.875V2.131A2.13 2.13 0 0 1 2.126.003h11.745a2.13 2.13 0 0 1 2.128 2.128m-8.457-.74A6.777 6.777 0 0 0 .763 8.17a6.77 6.77 0 0 0 4.635 6.43c.34.06.466-.144.466-.321 0-.161-.008-.695-.008-1.262-1.703.313-2.144-.416-2.28-.797-.076-.196-.406-.796-.694-.958-.238-.126-.577-.44-.01-.45.535-.008.916.493 1.043.697.61 1.024 1.585.736 1.975.558.059-.44.237-.737.432-.906-1.509-.17-3.085-.755-3.085-3.347 0-.738.263-1.348.695-1.822-.068-.17-.305-.865.068-1.797 0 0 .568-.178 1.864.694.543-.152 1.119-.228 1.695-.228s1.152.076 1.695.228c1.296-.88 1.864-.694 1.864-.694.373.932.136 1.628.068 1.797.432.474.695 1.076.695 1.822 0 2.6-1.585 3.177-3.093 3.347.246.212.457.618.457 1.254 0 .907-.008 1.635-.008 1.864 0 .177.127.39.466.322a6.8 6.8 0 0 0 4.618-6.431 6.777 6.777 0 0 0-6.779-6.78"/></svg>
