<svg xmlns="http://www.w3.org/2000/svg" xml:space="preserve" width="16" height="16" fill="currentColor" class="bi bi-github" viewBox="0 0 16 16"><path d="M964.937 1713.54v84.7c0 8.47-6.877 15.35-15.347 15.35h-84.704c-8.47 0-15.347-6.88-15.347-15.35v-84.7c0-8.47 6.877-15.35 15.347-15.35h84.704c8.47 0 15.347 6.88 15.347 15.35m-97.701 65.13-.775-.47c-.89-.55-2.396.13-1.086 1.63 4.771 5.79 20.405 19.73 40.809 19.73 20.427 0 32.578-11.14 34.101-13.09 1.507-1.93.442-2.99-1.086-2.35-35.4 16.85-57.612 3.3-71.963-5.45m73.109-1.26c-3.1.37-7.757 2.26-7.353 3.4.159.33.443.29 1.496.18.331-.04.755-.09 1.272-.13l.491-.05c2.446-.26 7.708-.81 8.871.71 1.25 1.64-1.911 9.46-2.484 10.71-.562 1.27.218 1.59 1.256.75 1.037-.84 2.904-3.01 4.159-6.09 1.25-3.09 2.009-7.4 1.272-8.36-.966-1.26-5.885-1.5-8.98-1.12m-16.458.14c.857.45 1.965.4 2.73-.27l.027.02c2.922-2.59 5.876-5.14 8.859-7.67.945-.78.781-2.03.033-3.07l-.682-.93c-1.883-2.53-3.674-4.94-3.674-9.77v-18.02l.006-1.83c.043-6.9.076-13.21-5.093-18.04-4.438-4.25-11.775-5.75-17.398-5.75-10.988 0-23.254 4.09-25.841 17.69-.257 1.44.78 2.2 1.725 2.41l11.212 1.21c1.037-.05 1.801-1.08 1.998-2.12.961-4.68 4.891-6.93 9.296-6.93 2.375 0 5.071.87 6.485 3 1.441 2.13 1.419 4.96 1.403 7.51v2.36c-1.092.12-2.222.24-3.39.35-6.075.62-13.084 1.34-18.341 3.66-7.239 3.12-12.332 9.51-12.332 18.89 0 12.01 7.572 18 17.294 18 8.221 0 12.708-1.93 19.045-8.41l.912 1.34c1.496 2.22 2.489 3.69 5.715 6.37zm-26.109-19.31c0-9.85 8.827-11.63 17.179-11.63v3.11c.005 4.24.011 7.83-2.162 11.65-1.834 3.24-4.749 5.24-7.997 5.24-4.433 0-7.02-3.38-7.02-8.37" style="clip-rule:evenodd;fill-rule:evenodd;stroke-linejoin:round;stroke-miterlimit:2" transform="translate(-117.79 -235.451)scale(.13865)"/></svg>