<svg xmlns="http://www.w3.org/2000/svg" xml:space="preserve" viewBox="0 0 16 16"><path d="M2.13 0A2.13 2.13 0 0 0 0 2.13v11.74A2.13 2.13 0 0 0 2.13 16h11.74A2.13 2.13 0 0 0 16 13.87V2.13A2.13 2.13 0 0 0 13.87 0Zm10.53 3.04-.37 4.7h1.5l-.63 4.1-4.92 2.28v-1.63l-4.2.52-1.83-5.45h1.78L3.17 4.5Zm-2.09 3.04h-.05l-1.16.1v2.11h1.34c.57-.25.57-.71.34-.94a.5.5 0 0 0-.34-.14.5.5 0 0 0 .33-.15.5.5 0 0 0 .15-.37.6.6 0 0 0-.6-.61m-1.43.1-1.44.1v1.94l1.44.07v-.52l-.92-.01v-.24h.81v-.56l-.8.03v-.23l.9-.05Zm-1.58.11-.53.04-.3 1.14-.28-1.1-.49.04-.26 1.05-.25-1.02-.51.05.43 1.68h.57l.25-.9.27.9h.57zm2.74.31a.2.2 0 0 1 .17.17.2.2 0 0 1-.17.17h-.39v-.32Zm.06.9a.17.17 0 0 1 0 .32h-.44v-.31ZM4.2 8.6v.56h.66v1.7l.63-.03V9.2h.6v-.57Zm3.02.02a1.1 1.1 0 0 0-1.1 1.08 1.09 1.09 0 0 0 2.18 0c0-.6-.48-1.08-1.09-1.08m2.22.05a.97.97 0 0 0-.95 1c0 .54.42.99.95.99s.96-.45.96-1-.43-.99-.96-.99m1.12.05v1.81l.57-.01v-.9l.57.87.47-.03.04-1.71h-.55v.88l-.58-.9Zm-3.3.47c.25 0 .46.23.46.52s-.2.52-.47.52-.46-.23-.46-.52.2-.52.46-.52m2.2.01c.23 0 .42.21.42.47s-.19.47-.42.47-.41-.2-.41-.47.19-.47.41-.47"/></svg>
