<svg xmlns="http://www.w3.org/2000/svg" xml:space="preserve" width="16" height="16" fill="currentColor" class="bi bi-github" viewBox="0 0 16 16"><path d="M888.378 1813.59h-23.492c-8.47 0-15.347-6.88-15.347-15.35v-84.7c0-8.47 6.877-15.35 15.347-15.35h84.704c8.47 0 15.347 6.88 15.347 15.35v84.7c0 8.47-6.877 15.35-15.347 15.35h-56.445c6.792-6.87 9.689-16.05 12.014-28.04 0 0 7.922 4.27 14.326 4.76 23.651 1.8 36.44-24.76 33.207-47.88-2.86-20.49-23.614-30.93-45.728-28.49-17.484 1.94-34.914 15.87-35.64 35.77-.323 8.66.28 17.52 6.599 20.09 0 0 7.8-2.99 5.507-13.46-5.69-26 30.859-41.54 49.204-23.21 12.691 12.7 5.36 47.64-15.119 43.59-19.613-3.88 8.471-33.49-7.184-39.6-12.722-4.95-19.485 15.18-13.448 25.17-3.333 16.22-10.299 31.54-8.505 51.3" style="clip-rule:evenodd;fill-rule:evenodd;stroke-linejoin:round;stroke-miterlimit:2" transform="translate(-117.79 -235.451)scale(.13865)"/></svg>