<svg xmlns="http://www.w3.org/2000/svg" xml:space="preserve" viewBox="0 0 16 16"><path d="M16 2.13v11.74c0 1.18-.95 2.13-2.13 2.13H2.13A2.13 2.13 0 0 1 0 13.87V2.13C0 .96.95 0 2.13 0h11.74C15.05 0 16 .96 16 2.13M8.56 5.08q-1.51.72-6.09 2.97-.74.34-.77.66c-.04.36.36.5.9.7l.23.08c.53.2 1.25.42 1.62.43q.51.01 1.13-.47 4.27-3.27 4.4-3.3c.07-.02.16-.04.22.02s.06.18.05.2c-.04.2-1.6 1.85-2.4 2.7l-.48.5-.24.27c-.5.55-.87.95.02 1.61a92 92 0 0 1 2.33 1.78l.35.28c.43.35.82.66 1.3.61.28-.03.57-.32.72-1.21a168 168 0 0 0 1.18-8.52q.01-.23-.02-.47a.5.5 0 0 0-.15-.32.6.6 0 0 0-.4-.14c-.4.01-1 .25-3.9 1.62" /></svg>
