<svg xmlns="http://www.w3.org/2000/svg" xml:space="preserve" width="16" height="16" fill="currentColor" class="bi bi-github" viewBox="0 0 16 16"><path d="M964.937 1713.54v84.7c0 8.47-6.877 15.35-15.347 15.35h-84.704c-8.47 0-15.347-6.88-15.347-15.35v-84.7c0-8.47 6.877-15.35 15.347-15.35h84.704c8.47 0 15.347 6.88 15.347 15.35m-80.361 1.81h-14.855v81.08h14.855zm39.007 0c-16.785 0-30.392 13.61-30.392 30.39 0 16.79 13.607 30.39 30.392 30.39s30.391-13.6 30.391-30.39c0-16.78-13.606-30.39-30.391-30.39" style="clip-rule:evenodd;fill-rule:evenodd;stroke-linejoin:round;stroke-miterlimit:2" transform="translate(-117.79 -235.451)scale(.13865)"/></svg>