<svg xmlns="http://www.w3.org/2000/svg" xml:space="preserve" width="16" height="16" fill="currentColor" class="bi bi-github" viewBox="0 0 16 16"><path d="M2.127 0A2.13 2.13 0 0 0 0 2.129V13.87A2.13 2.13 0 0 0 2.127 16h11.744A2.13 2.13 0 0 0 16 13.871V2.13A2.13 2.13 0 0 0 13.871 0Zm10.535 3.037-.371 4.707h1.5l-.629 4.096-4.918 2.28v-1.63l-4.201.518-1.834-5.45h1.777l-.814-3.056Zm-2.088 3.041-.054.004-1.155.096v2.117h1.336c.57-.255.565-.719.34-.945a.5.5 0 0 0-.344-.143.5.5 0 0 0 .336-.148.52.52 0 0 0 .15-.364.614.614 0 0 0-.609-.617m-1.428.1-1.44.103v1.944l1.44.068v-.52L8.23 7.76v-.24h.81v-.56l-.796.027v-.228l.902-.051Zm-1.58.113-.53.04-.296 1.14-.277-1.1-.49.035-.26 1.055-.252-1.02-.512.045.434 1.684h.564l.258-.897.264.897h.574zm2.745.31h.01a.17.17 0 0 1 .167.17.17.17 0 0 1-.172.172h-.382V6.62Zm.06.891h.006a.166.166 0 0 1 0 .332h-.443v-.316Zm-6.17 1.104v.568h.662v1.701l.631-.035V9.2h.588v-.57Zm3.014.021a1.09 1.09 0 0 0-1.092 1.086c0 .598.49 1.084 1.092 1.084s1.09-.486 1.09-1.084c0-.6-.488-1.086-1.09-1.086m2.219.055c-.529 0-.957.442-.957.992 0 .548.428.992.957.992.526 0 .953-.445.953-.992 0-.55-.427-.992-.953-.992m1.117.05v1.811l.566-.015v-.89l.576.858.465-.029.041-1.709h-.547v.88l-.582-.901Zm-3.307.47c.258 0 .465.232.465.517 0 .287-.207.521-.465.521s-.467-.234-.467-.521c0-.285.209-.518.467-.518m2.201.013c.23 0 .416.21.416.47 0 .259-.186.47-.416.47s-.416-.211-.416-.47c0-.26.187-.47.416-.47" style="clip-rule:evenodd;fill-rule:evenodd;stroke-width:.138649;stroke-linejoin:round;stroke-miterlimit:2"/></svg>