<svg xmlns="http://www.w3.org/2000/svg" xml:space="preserve" width="16" height="16" fill="currentColor" class="bi bi-github" viewBox="0 0 16 16"><path d="M964.937 1713.54v84.7c0 8.47-6.877 15.35-15.347 15.35h-84.704c-8.47 0-15.347-6.88-15.347-15.35v-84.7c0-8.47 6.877-15.35 15.347-15.35h84.704c8.47 0 15.347 6.88 15.347 15.35m-80.194 34.56c0-4.11-3.335-7.44-7.444-7.44a7.443 7.443 0 0 0-7.444 7.44v48.43c0 4.11 3.336 7.44 7.444 7.44a7.443 7.443 0 0 0 7.444-7.44zm15.483-.6c-3.1 6.21-.909 46.85-.909 46.85-.03 1.32 1.224 7.26 7.117 7.17h.242c7.763.29 7.157-6.54 7.169-7.12l.173-23.93c2.097-13.27 18.62-16.09 24.788-4.96 5.039 9.09.684 20.15 3.309 30 1.916 7.19 12.377 8.18 14.332-1.25 1.463-7.07 1.7-22.11-2.246-32.7-5.766-15.49-26.552-21.67-40.484-13.7-2.253-6.11-10.781-5.79-13.491-.36m-22.915-33.53c-4.831-8.44-12.564-6.66-16.632-3.74s-5.689 10.4.361 15.73c4.209 3.7 8.339 2.64 16.271 11.38 6.94-7.98 15.024-9.03 17.871-13.42 4.068-5.84 2.467-10.77-1.601-13.69s-10.144-4.06-16.27 3.74" style="clip-rule:evenodd;fill-rule:evenodd;stroke-linejoin:round;stroke-miterlimit:2" transform="translate(-117.79 -235.451)scale(.13865)"/></svg>