<svg xmlns="http://www.w3.org/2000/svg" xml:space="preserve" width="16" height="16" fill="currentColor" class="bi bi-github" viewBox="0 0 16 16"><path d="M964.937 1713.54v84.7c0 8.47-6.877 15.35-15.347 15.35h-84.704c-8.47 0-15.347-6.88-15.347-15.35v-84.7c0-8.47 6.877-15.35 15.347-15.35h84.704c8.47 0 15.347 6.88 15.347 15.35m-29.821 16.47a65.7 65.7 0 0 0-16.57-5.21 49 49 0 0 0-2.123 4.41q-9.267-1.395-18.364 0a47 47 0 0 0-2.148-4.41 65.3 65.3 0 0 0-16.583 5.22c-10.487 15.85-13.33 31.3-11.908 46.54 6.955 5.19 13.696 8.35 20.322 10.41a50 50 0 0 0 4.353-7.17 43 43 0 0 1-6.854-3.33c.575-.43 1.137-.87 1.68-1.33 13.216 6.18 27.575 6.18 40.633 0 .55.46 1.112.9 1.681 1.33a42.7 42.7 0 0 1-6.867 3.34 50 50 0 0 0 4.353 7.17c6.633-2.07 13.38-5.22 20.335-10.42 1.668-17.66-2.849-32.97-11.94-46.55m-14.536 37.18c-3.967 0-7.221-3.71-7.221-8.22s3.184-8.22 7.221-8.22 7.29 3.71 7.221 8.22c0 4.51-3.184 8.22-7.221 8.22m-26.684 0c-3.968 0-7.221-3.71-7.221-8.22s3.184-8.22 7.221-8.22c4.036 0 7.29 3.71 7.22 8.22.007 4.51-3.184 8.22-7.22 8.22" style="clip-rule:evenodd;fill-rule:evenodd;stroke-linejoin:round;stroke-miterlimit:2" transform="translate(-117.79 -235.451)scale(.13865)"/></svg>