<svg xmlns="http://www.w3.org/2000/svg" xml:space="preserve" width="16" height="16" fill="currentColor" class="bi bi-github" viewBox="0 0 16 16"><path d="M964.937 1713.54v84.7c0 8.47-6.877 15.35-15.347 15.35h-84.704c-8.47 0-15.347-6.88-15.347-15.35v-84.7c0-8.47 6.877-15.35 15.347-15.35h84.704c8.47 0 15.347 6.88 15.347 15.35m-15.406 41.56c0-5.36-4.297-9.72-9.58-9.72-2.436 0-4.732.93-6.492 2.58-6.322-4.17-14.789-6.87-24.166-7.24l5.173-16.01 13.584 3.24c.004 4.41 3.54 7.99 7.888 7.99s7.887-3.59 7.887-8-3.54-8-7.887-8c-3.257 0-6.052 2.01-7.258 4.87l-16.316-3.9-6.386 19.77c-9.732.19-18.55 2.87-25.109 7.15a9.46 9.46 0 0 0-6.349-2.45c-5.278 0-9.575 4.36-9.575 9.72 0 3.4 1.751 6.52 4.551 8.27-2.55 15.28 15.2 28.47 37.564 28.47 22.272 0 39.963-13.07 37.603-28.28 2.994-1.7 4.868-4.89 4.868-8.46m-28.662 23.33c-2.846 2.88-7.308 4.29-13.635 4.29-6.331 0-10.789-1.41-13.631-4.29a1.62 1.62 0 0 1 0-2.27 1.573 1.573 0 0 1 2.233 0c2.22 2.25 5.946 3.35 11.398 3.35 5.447 0 9.177-1.1 11.402-3.35a1.573 1.573 0 0 1 2.233 0c.617.63.617 1.64 0 2.27m-32.274-16.83c0-3.26 2.699-6 5.917-6s5.828 2.74 5.828 6-2.609 5.91-5.828 5.91c-3.218 0-5.917-2.65-5.917-5.91m31.453 5.91c-3.222 0-5.925-2.65-5.925-5.91 0-3.27 2.703-6 5.925-6 3.219 0 5.828 2.73 5.828 6 0 3.26-2.605 5.91-5.828 5.91" style="clip-rule:evenodd;fill-rule:evenodd;stroke-linejoin:round;stroke-miterlimit:2" transform="translate(-117.79 -235.451)scale(.13865)"/></svg>