<svg xmlns="http://www.w3.org/2000/svg" xml:space="preserve" width="16" height="16" fill="currentColor" class="bi bi-github" viewBox="0 0 16 16"><path d="M16 2.128v11.744A2.13 2.13 0 0 1 13.872 16H2.128A2.13 2.13 0 0 1 0 13.872V2.128A2.13 2.13 0 0 1 2.128 0h11.744A2.13 2.13 0 0 1 16 2.128M5.44 7.043h.001c.626-.513 1.817-.823 2.56.656.944-1.368 1.88-1.169 2.506-.656l.028.023 2.805-4.318a1.4 1.4 0 0 0-.508-.091H3.168q-.268 0-.506.09zM4.893 8.16 1.811 3.595c-.06.16-.094.332-.094.512v7.786c0 .8.65 1.45 1.45 1.45h9.665c.8 0 1.45-.65 1.45-1.45V4.107q-.001-.27-.092-.51l-3.078 4.56c.032.384-.072.82-.359 1.288-.438.768-1.683.952-2.751 2.353C6.78 10.264 6.145 10.45 5.497 9.8a2.02 2.02 0 0 1-.605-1.642" style="clip-rule:evenodd;fill-rule:evenodd;stroke-width:.138649;stroke-linejoin:round;stroke-miterlimit:2"/></svg>