<svg xmlns="http://www.w3.org/2000/svg" xml:space="preserve" viewBox="0 0 16 16"><path d="M16 2.13v11.74c0 1.18-.95 2.13-2.13 2.13H2.13A2.13 2.13 0 0 1 0 13.87V2.13C0 .96.95 0 2.13 0h11.74C15.05 0 16 .96 16 2.13M2.45 11.16l-.1-.06c-.13-.08-.34.01-.16.22.67.8 2.83 2.74 5.66 2.74a6.6 6.6 0 0 0 4.73-1.82c.2-.26.06-.41-.15-.32-4.9 2.33-7.99.45-9.98-.76M12.6 11c-.43.05-1.08.31-1.02.47q.01.05.2.02l.18-.01.07-.01c.34-.04 1.07-.11 1.23.1.17.22-.26 1.3-.34 1.48s.03.22.17.1.4-.41.58-.84.28-1.02.17-1.16c-.13-.17-.81-.2-1.24-.15m-2.3 0q.2.1.38-.04.6-.54 1.23-1.06c.13-.11.1-.28 0-.43l-.1-.13a2 2 0 0 1-.5-1.35V5.25c0-.96 0-1.83-.7-2.5-.62-.6-1.64-.8-2.42-.8-1.52 0-3.22.57-3.58 2.45-.04.2.1.3.24.34l1.55.16c.15 0 .25-.15.28-.3.13-.64.68-.95 1.29-.95.33 0 .7.12.9.41.2.3.2.7.2 1.05v.32l-.48.05a9 9 0 0 0-2.54.5 2.7 2.7 0 0 0-1.71 2.63c0 1.66 1.05 2.5 2.4 2.5 1.14 0 1.76-.27 2.64-1.17l.12.18c.21.31.35.51.8.89zM6.69 8.33c0-1.37 1.22-1.61 2.38-1.61v.43c0 .59 0 1.08-.3 1.61-.26.45-.66.73-1.11.73-.61 0-.97-.47-.97-1.16"/></svg>
