<svg xml:space="preserve" viewBox="0 0 16 16" xmlns="http://www.w3.org/2000/svg"><path d="M16 2.13v11.74c0 1.18-.95 2.13-2.13 2.13H2.13A2.13 2.13 0 0 1 0 13.87V2.13C0 .95.95 0 2.13 0h11.74C15.05 0 16 .95 16 2.13m-8-1.1A7 7 0 0 0 1.25 8 7 7 0 0 0 8 14.97 7 7 0 0 0 14.75 8 7 7 0 0 0 8 1.02m0 .99c3.3 0 6 2.7 6 6C14 11.28 11.3 14 8 14s-6-2.7-6-6 2.71-6 6-6m3.19 8.66-.97-1.46s-.98.56-1.6.56a1.74 1.74 0 0 1-1.78-1.73V8c0-.95.78-1.73 1.73-1.73h.02a2 2 0 0 1 1.38.47l1.13-1.5c-.7-.61-1.7-.92-2.75-.92-2.21 0-4 1.66-4 3.71a3.6 3.6 0 0 0 3.75 3.65c1.15 0 2.36-.29 3.09-1.02"/></svg>
