<svg xmlns="http://www.w3.org/2000/svg" xml:space="preserve" width="16" height="16" fill="currentColor" class="bi bi-github" viewBox="0 0 16 16"><path d="M964.937 1713.54v84.7c0 8.47-6.877 15.35-15.347 15.35h-84.704c-8.47 0-15.347-6.88-15.347-15.35v-84.7c0-8.47 6.877-15.35 15.347-15.35h84.704c8.47 0 15.347 6.88 15.347 15.35m-28.115 18.24c.675-6.03-.523-10.31-3.948-14.21-4.106-4.68-11.507-6.68-20.99-6.68H884.37a3.95 3.95 0 0 0-3.886 3.32l-11.463 72.66a2.378 2.378 0 0 0 2.334 2.74h15.501l-1.136 7.19c-.029.19-.043.37-.043.56 0 1.93 1.593 3.53 3.53 3.53h14.319a4.914 4.914 0 0 0 4.849-4.11l.14-.74 2.7-17.11.169-.92.005-.04c.147-.96.985-1.68 1.958-1.67h2.137c7.12 0 13.639-1.44 18.813-5.12 2.137-1.51 3.999-3.4 5.585-5.65a27.8 27.8 0 0 0 4.949-12.35c1.361-7.01.732-13.25-3.206-17.74a15.4 15.4 0 0 0-4.274-3.32zm-42.278 28.72a4.05 4.05 0 0 1 1.806-.45h8.076c15.861 0 28.274-6.43 31.901-25.06l.017-.09c1.223.7 2.25 1.52 3.082 2.47 3.071 3.5 3.819 8.63 2.531 15.24-1.529 7.86-4.87 12.97-9.353 16.16-4.511 3.21-10.36 4.59-17.115 4.59h-2.137a4.91 4.91 0 0 0-4.854 4.12l-.168.93-2.7 17.11-.135.73-.006.03a1.975 1.975 0 0 1-1.957 1.66h-14.321a.6.6 0 0 1-.589-.69l1.17-7.43z" style="clip-rule:evenodd;fill-rule:evenodd;stroke-linejoin:round;stroke-miterlimit:2" transform="translate(-117.79 -235.451)scale(.13865)"/></svg>