<svg xmlns="http://www.w3.org/2000/svg" xml:space="preserve" viewBox="0 0 16 16"><path d="M16 2.13v11.74c0 1.18-.95 2.13-2.13 2.13H2.13A2.13 2.13 0 0 1 0 13.87V2.13C0 .96.95 0 2.13 0h11.74C15.05 0 16 .96 16 2.13M12.76 5.1l-.07-.36c-.06-.32-.2-.63-.54-.75-.1-.03-.23-.05-.3-.13-.09-.07-.11-.2-.13-.3l-.1-.62q-.04-.27-.14-.53c-.1-.22-.32-.34-.54-.43l-.34-.1q-.81-.2-1.66-.23-1-.06-2 .04c-.5.04-1.02.1-1.49.27q-.27.08-.48.27a.5.5 0 0 0-.1.62 1 1 0 0 0 .38.3q.3.15.6.2.89.2 1.78.2a14 14 0 0 0 1.98-.06l.48-.06c.2-.03.31-.28.26-.45-.07-.2-.25-.29-.45-.26q-.4.06-.75.08-.96.07-1.91 0l-.63-.05-.14-.02-.39-.07a.06.06 0 0 1 0-.12l.46-.08.21-.02a14 14 0 0 1 2.94.01l.13.02.43.07c.21.05.48.07.58.3q.04.1.06.23l.17.8a.13.13 0 0 1-.1.16h-.07A20 20 0 0 1 5.56 4l-.53-.09a1 1 0 0 0-.6.09 1 1 0 0 0-.37.38c-.08.17-.1.35-.14.54-.04.18-.1.38-.08.57.05.4.33.74.74.81q3.06.54 6.14.2h.03a.26.26 0 0 1 .26.3l-.04.37-.55 5.36q-.02.34-.07.66-.12.52-.64.64-.47.1-.95.1H7.7c-.38 0-.84-.04-1.13-.32-.26-.24-.3-.63-.33-.97l-.4-3.79-.17-1.67c-.02-.2-.16-.38-.37-.37-.18 0-.39.16-.36.37l.12 1.18.51 4.93c.08.73.64 1.12 1.33 1.23q.6.08 1.22.08c.52.01 1.05.03 1.56-.06.76-.14 1.33-.65 1.41-1.44l.56-5.4.11-1.14q.04-.17.22-.23.33-.04.58-.28.36-.4.2-.95m-.8.42c-.07.07-.2.1-.3.12a22 22 0 0 1-6.78-.02q-.15 0-.25-.1c-.12-.12-.06-.38-.03-.53.03-.14.08-.33.25-.35.26-.03.57.08.83.12l.94.11q2.02.18 4.04-.07l.72-.12c.22-.04.46-.11.59.11.09.15.1.36.09.53a.3.3 0 0 1-.1.2M8.63 7.6c-.46.2-1 .43-1.68.43q-.43 0-.85-.11l.48 4.86a.8.8 0 0 0 .81.75s.67.04.9.04l.96-.04a.8.8 0 0 0 .81-.75l.51-5.38a2 2 0 0 0-.71-.13c-.45 0-.81.16-1.23.34"/></svg>
