<svg xmlns="http://www.w3.org/2000/svg" xml:space="preserve" width="16" height="16" fill="currentColor" class="bi bi-github" viewBox="0 0 16 16"><path d="M964.937 1713.54v84.7c0 8.47-6.877 15.35-15.347 15.35h-84.704c-8.47 0-15.347-6.88-15.347-15.35v-84.7c0-8.47 6.877-15.35 15.347-15.35h84.704c8.47 0 15.347 6.88 15.347 15.35m-23.328 21.33-.515-2.59c-.464-2.33-1.513-4.54-3.904-5.38-.768-.27-1.638-.38-2.223-.94-.593-.56-.765-1.43-.901-2.23-.254-1.48-.488-2.95-.749-4.42-.222-1.27-.398-2.69-.975-3.85-.761-1.56-2.329-2.47-3.885-3.07-.799-.3-1.614-.55-2.441-.76-3.901-1.03-7.996-1.4-12.002-1.62-4.81-.27-9.632-.19-14.431.24-3.569.32-7.332.72-10.726 1.95-1.24.45-2.519 1-3.463 1.95-1.159 1.18-1.533 3.01-.691 4.47.601 1.04 1.619 1.78 2.699 2.26 1.405.64 2.875 1.11 4.38 1.43 4.193.93 8.538 1.29 12.821 1.45a98 98 0 0 0 14.236-.46c1.166-.13 2.332-.29 3.495-.47 1.373-.21 2.254-2 1.848-3.25-.483-1.49-1.782-2.07-3.252-1.85-1.818.29-3.745.42-5.391.57-4.59.32-9.197.32-13.791.03a85 85 0 0 1-4.513-.42c-.335-.04-.702-.1-1.006-.14q-1.421-.21-2.824-.51c-.433-.1-.433-.72 0-.83h.02q1.622-.345 3.268-.57h.008c.511-.03 1.026-.12 1.537-.19 4.438-.46 8.902-.61 13.362-.46 2.629.07 5.254.26 7.867.56l.889.12c1.042.16 2.079.34 3.113.56 1.529.34 3.49.44 4.173 2.12.215.53.312 1.12.433 1.68l1.244 5.79a.92.92 0 0 1-.776 1.1h-.012c-.144.03-.292.04-.437.06-6.135.79-12.314 1.17-18.499 1.15-6.128 0-12.249-.4-18.327-1.18-.546-.07-1.143-.16-1.627-.24-1.271-.18-2.531-.42-3.795-.62-1.533-.26-2.995-.13-4.38.62a6.43 6.43 0 0 0-2.633 2.74c-.6 1.23-.776 2.57-1.041 3.9-.269 1.32-.686 2.76-.527 4.12.34 2.93 2.391 5.32 5.344 5.86 14.601 2.6 29.5 3.1 44.241 1.46.071 0 .142-.01.213-.01a1.89 1.89 0 0 1 1.874 2.08l-.277 2.72-3.971 38.64c-.159 1.6-.183 3.24-.487 4.82-.476 2.49-2.157 4.01-4.61 4.57-2.251.51-4.544.78-6.849.8-2.559.02-5.11-.1-7.668-.09-2.727.02-6.069-.23-8.171-2.26-1.853-1.78-2.107-4.58-2.36-6.99l-2.851-27.35-1.256-12.07c-.144-1.37-1.116-2.71-2.645-2.65-1.31.06-2.8 1.17-2.644 2.65l.889 8.52 3.702 35.54c.573 5.25 4.579 8.07 9.54 8.87 2.894.46 5.862.56 8.803.6 3.768.07 7.574.21 11.28-.47 5.491-1.01 9.614-4.67 10.203-10.36 1.326-13 2.664-25.99 3.994-38.99l.838-8.14c.085-.82.706-1.5 1.522-1.66 1.567-.3 3.069-.83 4.188-2.02 1.774-1.9 2.129-4.38 1.503-6.88zm-5.765 3.02c-.565.53-1.415.78-2.254.91-9.423 1.4-18.979 2.1-28.504 1.79-6.817-.23-13.561-.99-20.308-1.94-.664-.1-1.377-.22-1.834-.71-.858-.91-.433-2.76-.21-3.88.203-1.01.593-2.37 1.806-2.51 1.887-.23 4.079.57 5.951.85 2.251.35 4.509.62 6.775.83 9.673.88 19.51.74 29.144-.55q2.634-.345 5.245-.81c1.557-.29 3.277-.81 4.213.8.647 1.09.733 2.56.632 3.8a2.12 2.12 0 0 1-.659 1.42zm-24.022 15.21c-3.362 1.44-7.176 3.07-12.126 3.07-2.068 0-4.127-.29-6.119-.84l3.42 35.11a5.87 5.87 0 0 0 5.851 5.39s4.848.25 6.466.25c1.744 0 6.966-.25 6.966-.25a5.87 5.87 0 0 0 5.847-5.39l3.666-38.81a15.6 15.6 0 0 0-5.156-.92c-3.222 0-5.815 1.11-8.815 2.39" style="clip-rule:evenodd;fill-rule:evenodd;stroke-linejoin:round;stroke-miterlimit:2" transform="translate(-117.79 -235.451)scale(.13865)"/></svg>