<svg xmlns="http://www.w3.org/2000/svg" style="display: none;">

<symbol id="icon-arrowleft" viewBox="0 0 16 16">
<path d="M1 8c0 3.84 3.16 7 7 7s7-3.16 7-7-3.16-7-7-7-7 3.16-7 7m15 0c0 4.389-3.611 8-8 8s-8-3.611-8-8 3.611-8 8-8 8 3.161 8 8m-4.5-.5c.274 0 .5.226.5.5s-.226.5-.5.5H5.707l2.147 2.146a.5.5 0 1 1-.708.708l-3-3a.5.5 0 0 1 0-.708l3-3a.5.5 0 1 1 .708.708L5.707 7.5Z" />
</symbol>

<symbol id="icon-buymeacofee" viewBox="0 0 16 16">
<path d="M13.47 4.25q.21.64-.21 1.13-.32.27-.7.32a.4.4 0 0 0-.26.27l-.13 1.35-.34 2.95-.22 2.69-.08.83c-.11.94-.8 1.54-1.71 1.7q-.9.14-1.84.07a9 9 0 0 1-1.47-.08c-.81-.13-1.47-.6-1.56-1.48l-.06-.47-.26-2.47-.3-2.93-.15-1.4c-.02-.24.22-.44.43-.44.28 0 .43.22.45.43v.1l.21 1.9.28 2.93.17 1.58c.04.41.08.86.38 1.16.34.34.9.38 1.35.38h1.28a5 5 0 0 0 1.13-.13q.62-.13.75-.74a4 4 0 0 0 .08-.8l.39-3.67.28-2.69.04-.45v-.02a.3.3 0 0 0-.32-.32h-.02L10.6 6a26 26 0 0 1-6.86-.28 1.1 1.1 0 0 1-.9-1q0-.33.1-.69l.16-.64q.15-.27.43-.43a1 1 0 0 1 .75-.12l.62.1.19.02h.08l.28.07a24 24 0 0 0 5.79-.05h.08a.2.2 0 0 0 .13-.19l-.19-.85v-.1l-.09-.29c-.1-.27-.42-.27-.7-.34l-.51-.08h-.04l-.09-.02-.24-.03a16 16 0 0 0-3.28 0l-.24.03-.15.02-.4.08a.06.06 0 1 0 0 .13q.21.06.47.09h.08l.09.02.74.06q1.4.1 2.78-.04l.26-.02.12-.02q.39-.07.54.3c.06.2-.09.5-.3.53l-.58.08q-1.17.13-2.35.09a14 14 0 0 1-2.13-.26 3 3 0 0 1-.7-.21 1 1 0 0 1-.45-.38.64.64 0 0 1 .1-.75A2 2 0 0 1 4.78.5C5.33.29 5.95.25 6.55.19a17 17 0 0 1 2.4-.05q.98.05 1.96.28l.42.13q.39.1.64.5.11.31.15.63l.13.73q0 .21.15.38.13.11.37.15c.38.13.55.5.64.88zm-.92.5a.3.3 0 0 0 .1-.23 1 1 0 0 0-.1-.64c-.15-.25-.42-.17-.68-.13l-.85.13a22 22 0 0 1-5.94-.04c-.32-.04-.68-.17-.98-.13-.22 0-.28.24-.3.43-.04.17-.1.47.02.64q.15.08.3.1a40 40 0 0 0 3.35.32 26 26 0 0 0 4.7-.3.6.6 0 0 0 .38-.14m-8.8-.22v.05z"/><path d="M8.05 14.45h-.03zm.5-7.22a4 4 0 0 1 1.48-.38 3 3 0 0 1 .86.15l-.62 6.4a.96.96 0 0 1-.96.9c-.5 0-.86.05-1.16.05L7.1 14.3a.96.96 0 0 1-.96-.9l-.58-5.78a4 4 0 0 0 1.02.13c.81 0 1.43-.26 1.99-.51"/>
</symbol>

<symbol id="icon-calendar" viewBox="0 0 16 16">
<path d="M3.5 0a.5.5 0 0 0-.5.5V1H2a2 2 0 0 0-2 2v11a2 2 0 0 0 2 2h12a2 2 0 0 0 2-2V3a2 2 0 0 0-2-2h-1V.5a.5.5 0 0 0-1 0V1H4V.5a.5.5 0 0 0-.5-.5M2 2h12a1 1 0 0 1 1 1v1H1V3a1 1 0 0 1 1-1M1 5h14v9a1 1 0 0 1-1 1H2a1 1 0 0 1-1-1Zm5.193 1.502c-.517.019-1.005.267-1.355.568-.8.69-1.118 2.457.072 3.713.828.874 1.64.623 3.2 2.686 1.364-1.884 2.955-2.132 3.515-3.166.8-1.379.483-2.543-.316-3.233-.8-.689-1.995-.956-3.2.885-.534-1.12-1.25-1.477-1.916-1.453"/>
</symbol>

<symbol id="icon-copyright" viewBox="0 0 16 16">
<path d="M8 0a8 8 0 0 0-5.66 2.32A8 8 0 0 0 0 8a7.9 7.9 0 0 0 4.9 7.38Q6.35 16 8 16a8 8 0 0 0 5.65-2.32q1.1-1.1 1.73-2.54Q16 9.69 16 8a8 8 0 0 0-2.35-5.68A8 8 0 0 0 8 0m0 1.45A6.5 6.5 0 0 1 14.53 8q0 1.39-.5 2.57t-1.4 2.08-2.1 1.4-2.53.5a6.4 6.4 0 0 1-4.6-1.9 6.6 6.6 0 0 1-1.43-7.22 6.4 6.4 0 0 1 3.5-3.48q1.18-.5 2.53-.5m.4 1.88q-1.26 0-2.36.58-1.1.57-1.78 1.62T3.58 8q0 1.27.63 2.33a4.8 4.8 0 0 0 4.18 2.33q1.3 0 2.35-.6a.7.7 0 0 0 .42-.59q.06-.4-.17-.71-.19-.26-.5-.3t-.59.1a3 3 0 0 1-1.5.38q-.9 0-1.59-.4t-1.1-1.06T5.31 8q0-.9.42-1.57a3 3 0 0 1 1.12-1.02 3.4 3.4 0 0 1 3.06.02q.27.13.58.09t.5-.3a.8.8 0 0 0 .18-.73q-.08-.39-.42-.57a5 5 0 0 0-2.36-.59"/>
</symbol>

<symbol id="icon-danger" viewBox="0 0 16 16">
<path d="M8.98.649a1.13 1.291 0 0 0-1.96 0L.166 13.98c-.457.889.091 2.02.98 2.02h13.71c.89 0 1.438-1.132.98-2.02zM8 4.573c.534 0 .953.528.9 1.137l-.35 4.007a.552.63 0 0 1-1.1 0L7.1 5.71A.905 1.034 0 0 1 8 4.573m0 6.856a1 1.143 0 1 1 0 2.286 1 1.143 0 0 1 0-2.286"/>
</symbol>

<symbol id="icon-gift" viewBox="0 0 16 16">
<path d="M15.33 3.36H13.9a2.08 1.84 0 0 0 .9-1.52c0-1-.93-1.84-2.07-1.84a2.08 1.84 0 0 0-1.58.64L9.38 2.35a1.6 1.6 0 0 0-1.1-.45h-.55c-.45 0-.84.18-1.1.45L4.85.64A2.08 1.84 0 0 0 3.3.01c-1.13 0-2.07.83-2.07 1.84a2.08 1.84 0 0 0 .88 1.51H.68c-.37 0-.68.27-.68.6v3.26c0 .32.27.57.63.59v7.6c0 .32.3.59.68.59h13.38c.38 0 .68-.26.68-.6V7.8c.36 0 .63-.27.63-.58V3.96c0-.34-.3-.6-.68-.6zM8 7.31c1.4-1.93 2.8-1.65 3.73-.93s1.3 1.95.36 3.4c-.65 1.08-2.5 1.35-4.09 3.32-1.82-2.16-2.76-1.9-3.72-2.82-1.4-1.32-1.02-3.17-.1-3.9.95-.72 2.71-1.16 3.82.93M2.66 2.1a.71.63 0 0 1-.04-.23c0-.34.32-.63.7-.63h.01q.31.01.52.2l1.97 1.92h-.09l-2.65-.89a.7.62 0 0 1-.42-.37m10.69 0a.7.7 0 0 1-.43.37l-2.66.88h-.09l1.97-1.9a.7.62 0 0 1 .53-.21c.26 0 .5.12.62.32q.17.25.06.54" />
</symbol>

<symbol id="icon-heart" viewBox="0 0 16 16">
<path d="M8.006 3.921c2.42-3.698 4.82-3.159 6.428-1.774s2.24 3.724.633 6.493c-1.125 2.078-4.32 2.576-7.061 6.36-3.134-4.146-4.766-3.64-6.429-5.396-2.39-2.523-1.75-6.072-.142-7.457s4.662-2.225 6.57 1.774"/>
</symbol>

<symbol id="icon-heartsmile" viewBox="0 0 16 16">
<path d="M8.006 3.921c2.42-3.698 4.82-3.159 6.428-1.774s2.24 3.724.633 6.493c-1.125 2.078-4.32 2.576-7.061 6.36-3.134-4.146-4.766-3.64-6.429-5.396-2.39-2.523-1.75-6.072-.142-7.457s4.662-2.225 6.57 1.774m1.052 4.886c0 .459-.517.797-1.12.797s-1.12-.338-1.12-.797c0-.154-.133-.28-.297-.28s-.296.126-.296.28c0 .732.752 1.358 1.713 1.358S9.65 9.54 9.65 8.807c0-.154-.132-.28-.296-.28s-.297.126-.297.28m2.331-1.933c-.387 0-.701.133-.701.296s.314.296.701.296.702-.133.702-.296-.314-.296-.702-.296M10.152 5c-.234 0-.424.372-.424.83s.19.83.424.83c.235 0 .425-.372.425-.83s-.19-.83-.425-.83M4.455 6.874c-.387 0-.701.133-.701.296s.314.296.701.296.702-.133.702-.296-.314-.296-.702-.296M5.691 5c-.234 0-.424.372-.424.83s.19.83.424.83.425-.372.425-.83S5.926 5 5.69 5"/>
</symbol>

<symbol id="icon-search" viewBox="0 0 16 16">
<path d="m4.3 10.89-2.17 3.75c-.25.44-.09 1 .37 1.23s1.04.09 1.3-.35l2.11-3.67a6.7 6.7 0 0 0 8.23-2.58A6.03 6.03 0 0 0 11.76.81a6.7 6.7 0 0 0-8.88 2.27 6 6 0 0 0 1.41 7.8m6.52-8.49a4.26 4.26 0 0 1 1.68 5.97 4.73 4.73 0 0 1-6.28 1.6 4.26 4.26 0 0 1-1.68-5.97 4.73 4.73 0 0 1 6.28-1.6m-2.3 2.8c.74-1.07 1.47-.92 1.96-.52s.69 1.07.2 1.86c-.35.6-1.32.74-2.16 1.83-.95-1.19-1.45-1.04-1.96-1.55-.73-.72-.53-1.74-.04-2.14s1.42-.64 2 .51"/>
</symbol>

<symbol id="social-amazon" viewBox="0 0 16 16">
<path d="M16 2.13v11.74c0 1.18-.95 2.13-2.13 2.13H2.13A2.13 2.13 0 0 1 0 13.87V2.13C0 .96.95 0 2.13 0h11.74C15.05 0 16 .96 16 2.13M2.45 11.16l-.1-.06c-.13-.08-.34.01-.16.22.67.8 2.83 2.74 5.66 2.74a6.6 6.6 0 0 0 4.73-1.82c.2-.26.06-.41-.15-.32-4.9 2.33-7.99.45-9.98-.76M12.6 11c-.43.05-1.08.31-1.02.47q.01.05.2.02l.18-.01.07-.01c.34-.04 1.07-.11 1.23.1.17.22-.26 1.3-.34 1.48s.03.22.17.1.4-.41.58-.84.28-1.02.17-1.16c-.13-.17-.81-.2-1.24-.15m-2.3 0q.2.1.38-.04.6-.54 1.23-1.06c.13-.11.1-.28 0-.43l-.1-.13a2 2 0 0 1-.5-1.35V5.25c0-.96 0-1.83-.7-2.5-.62-.6-1.64-.8-2.42-.8-1.52 0-3.22.57-3.58 2.45-.04.2.1.3.24.34l1.55.16c.15 0 .25-.15.28-.3.13-.64.68-.95 1.29-.95.33 0 .7.12.9.41.2.3.2.7.2 1.05v.32l-.48.05a9 9 0 0 0-2.54.5 2.7 2.7 0 0 0-1.71 2.63c0 1.66 1.05 2.5 2.4 2.5 1.14 0 1.76-.27 2.64-1.17l.12.18c.21.31.35.51.8.89zM6.69 8.33c0-1.37 1.22-1.61 2.38-1.61v.43c0 .59 0 1.08-.3 1.61-.26.45-.66.73-1.11.73-.61 0-.97-.47-.97-1.16"/>
</symbol>

<symbol id="social-bluesky" viewBox="0 0 16 16">
<path d="M16 2.13v11.74c0 1.18-.95 2.13-2.13 2.13H2.13A2.13 2.13 0 0 1 0 13.87V2.13C0 .96.95 0 2.13 0h11.74C15.05 0 16 .96 16 2.13M4.28 2.7c-1.1-.86-2.9-1.53-2.9.6 0 .42.24 3.57.38 4.08.47 1.77 2.21 2.22 3.76 1.95-2.7.48-3.4 2.06-1.9 3.65 2.82 3.01 4.05-.75 4.37-1.72q.08-.28.09-.19 0-.1.08.19c.32.97 1.55 4.73 4.38 1.72 1.48-1.59.8-3.17-1.91-3.65 1.55.27 3.29-.18 3.77-1.95.13-.51.37-3.66.37-4.08 0-2.13-1.8-1.46-2.9-.6a16 16 0 0 0-3.8 4.93A16 16 0 0 0 4.29 2.7"/>
</symbol>

<symbol id="social-buymeacoffee" viewBox="0 0 16 16">
<path d="M16 2.13v11.74c0 1.18-.95 2.13-2.13 2.13H2.13A2.13 2.13 0 0 1 0 13.87V2.13C0 .96.95 0 2.13 0h11.74C15.05 0 16 .96 16 2.13M12.76 5.1l-.07-.36c-.06-.32-.2-.63-.54-.75-.1-.03-.23-.05-.3-.13-.09-.07-.11-.2-.13-.3l-.1-.62q-.04-.27-.14-.53c-.1-.22-.32-.34-.54-.43l-.34-.1q-.81-.2-1.66-.23-1-.06-2 .04c-.5.04-1.02.1-1.49.27q-.27.08-.48.27a.5.5 0 0 0-.1.62 1 1 0 0 0 .38.3q.3.15.6.2.89.2 1.78.2a14 14 0 0 0 1.98-.06l.48-.06c.2-.03.31-.28.26-.45-.07-.2-.25-.29-.45-.26q-.4.06-.75.08-.96.07-1.91 0l-.63-.05-.14-.02-.39-.07a.06.06 0 0 1 0-.12l.46-.08.21-.02a14 14 0 0 1 2.94.01l.13.02.43.07c.21.05.48.07.58.3q.04.1.06.23l.17.8a.13.13 0 0 1-.1.16h-.07A20 20 0 0 1 5.56 4l-.53-.09a1 1 0 0 0-.6.09 1 1 0 0 0-.37.38c-.08.17-.1.35-.14.54-.04.18-.1.38-.08.57.05.4.33.74.74.81q3.06.54 6.14.2h.03a.26.26 0 0 1 .26.3l-.04.37-.55 5.36q-.02.34-.07.66-.12.52-.64.64-.47.1-.95.1H7.7c-.38 0-.84-.04-1.13-.32-.26-.24-.3-.63-.33-.97l-.4-3.79-.17-1.67c-.02-.2-.16-.38-.37-.37-.18 0-.39.16-.36.37l.12 1.18.51 4.93c.08.73.64 1.12 1.33 1.23q.6.08 1.22.08c.52.01 1.05.03 1.56-.06.76-.14 1.33-.65 1.41-1.44l.56-5.4.11-1.14q.04-.17.22-.23.33-.04.58-.28.36-.4.2-.95m-.8.42c-.07.07-.2.1-.3.12a22 22 0 0 1-6.78-.02q-.15 0-.25-.1c-.12-.12-.06-.38-.03-.53.03-.14.08-.33.25-.35.26-.03.57.08.83.12l.94.11q2.02.18 4.04-.07l.72-.12c.22-.04.46-.11.59.11.09.15.1.36.09.53a.3.3 0 0 1-.1.2M8.63 7.6c-.46.2-1 .43-1.68.43q-.43 0-.85-.11l.48 4.86a.8.8 0 0 0 .81.75s.67.04.9.04l.96-.04a.8.8 0 0 0 .81-.75l.51-5.38a2 2 0 0 0-.71-.13c-.45 0-.81.16-1.23.34"/>
</symbol>

<symbol id="social-cara" viewBox="0 0 16 16">
<path d="M126.516 16.97v92.44c0 9.244-7.505 16.753-16.75 16.753H17.323c-9.244 0-16.75-7.509-16.75-16.753V16.97C.573 7.726 8.079.218 17.323.218h92.445c9.244 0 16.749 7.508 16.749 16.752M63.544 8.283c-29.45.95-53.159 25.44-53.159 54.907s23.709 53.947 53.16 54.897c29.45-.95 53.158-25.43 53.158-54.897S92.995 9.232 63.544 8.283m0 7.727v.022h.029c25.883 0 47.182 21.303 47.182 47.191 0 25.866-21.28 47.158-47.154 47.18h-.028c-25.891 0-47.196-21.303-47.196-47.202 0-25.876 21.288-47.18 47.167-47.191m25.107 68.146L81.016 72.63s-7.721 4.43-12.524 4.43c-8.065 0-14.07-6.122-14.07-13.609l-.002-.24c0-7.476 6.158-13.631 13.64-13.631h.146a16.63 16.63 0 0 1 10.865 3.656l8.894-11.754c-5.577-4.857-13.382-7.258-21.676-7.258-17.385 0-31.454 13.097-31.454 29.227 0 16.12 12.153 28.703 29.51 28.703 9.064 0 18.558-2.28 24.306-8"/>
</symbol>

<symbol id="social-codepen" viewBox="0 0 16 16">
<path d="M16 2.13v11.74c0 1.18-.95 2.13-2.13 2.13H2.13A2.13 2.13 0 0 1 0 13.87V2.13C0 .96.95 0 2.13 0h11.74C15.05 0 16 .96 16 2.13m-7.86-.48a6.33 6.33 0 1 0 0 12.66 6.33 6.33 0 0 0 0-12.66m0 11.62a5.3 5.3 0 1 1 0-10.6 5.3 5.3 0 0 1 0 10.6m3.91-6.48c.02-.11-.06-.23-.15-.28L8.32 4.12a.3.3 0 0 0-.37 0L4.37 6.51a.3.3 0 0 0-.15.28v2.38q0 .18.15.28l3.58 2.39a.3.3 0 0 0 .37 0l3.58-2.39a.4.4 0 0 0 .15-.28zM8.14 8.78l-1.2-.8 1.2-.8 1.19.8zm.33 2.15V9.36l1.46-.98 1.18.8zm0-5.9 2.64 1.76-1.18.78-1.46-.97zm-.67 0V6.6l-1.46.97-1.18-.78zM4.9 7.42l.83.56-.84.56zm6.48 1.12-.84-.56.84-.56zM7.8 10.93 5.16 9.17l1.18-.79 1.46.98z" />
</symbol>

<symbol id="social-discord" viewBox="0 0 16 16">
<path d="M16 2.13v11.74c0 1.18-.95 2.13-2.13 2.13H2.13A2.13 2.13 0 0 1 0 13.87V2.13C0 .96.95 0 2.13 0h11.74C15.05 0 16 .96 16 2.13m-4.14 2.28a9 9 0 0 0-2.3-.72l-.29.61Q8 4.11 6.73 4.3l-.3-.6a9 9 0 0 0-2.3.72 9.6 9.6 0 0 0-1.65 6.45c.96.72 1.9 1.16 2.82 1.44a7 7 0 0 0 .6-1 6 6 0 0 1-.95-.45l.23-.19a6.5 6.5 0 0 0 5.64 0l.23.19a6 6 0 0 1-.95.46 7 7 0 0 0 .6 1 9 9 0 0 0 2.82-1.45 9.6 9.6 0 0 0-1.66-6.46M9.85 9.57c-.55 0-1-.51-1-1.14s.44-1.14 1-1.14 1 .51 1 1.14-.44 1.14-1 1.14m-3.7 0c-.55 0-1-.51-1-1.14s.44-1.14 1-1.14 1 .51 1 1.14-.44 1.14-1 1.14"/>
</symbol>

<symbol id="social-email" viewBox="0 0 16 16">
<path d="M16 2.128v11.744A2.13 2.13 0 0 1 13.872 16H2.128A2.13 2.13 0 0 1 0 13.872V2.128A2.13 2.13 0 0 1 2.128 0h11.744A2.13 2.13 0 0 1 16 2.128M5.44 7.043h.001c.626-.513 1.817-.823 2.56.656.944-1.368 1.88-1.169 2.506-.656l.028.023 2.805-4.318a1.4 1.4 0 0 0-.508-.091H3.168q-.268 0-.506.09zM4.893 8.16 1.811 3.595c-.06.16-.094.332-.094.512v7.786c0 .8.65 1.45 1.45 1.45h9.665c.8 0 1.45-.65 1.45-1.45V4.107q-.001-.27-.092-.51l-3.078 4.56c.032.384-.072.82-.359 1.288-.438.768-1.683.952-2.751 2.353C6.78 10.264 6.145 10.45 5.497 9.8a2.02 2.02 0 0 1-.605-1.642" />
</symbol>

<symbol id="social-github" viewBox="0 0 16 16">
<path d="M15.999 2.131v11.744a2.13 2.13 0 0 1-2.128 2.128H2.126A2.13 2.13 0 0 1 0 13.875V2.131A2.13 2.13 0 0 1 2.126.003h11.745a2.13 2.13 0 0 1 2.128 2.128m-8.457-.74A6.777 6.777 0 0 0 .763 8.17a6.77 6.77 0 0 0 4.635 6.43c.34.06.466-.144.466-.321 0-.161-.008-.695-.008-1.262-1.703.313-2.144-.416-2.28-.797-.076-.196-.406-.796-.694-.958-.238-.126-.577-.44-.01-.45.535-.008.916.493 1.043.697.61 1.024 1.585.736 1.975.558.059-.44.237-.737.432-.906-1.509-.17-3.085-.755-3.085-3.347 0-.738.263-1.348.695-1.822-.068-.17-.305-.865.068-1.797 0 0 .568-.178 1.864.694.543-.152 1.119-.228 1.695-.228s1.152.076 1.695.228c1.296-.88 1.864-.694 1.864-.694.373.932.136 1.628.068 1.797.432.474.695 1.076.695 1.822 0 2.6-1.585 3.177-3.093 3.347.246.212.457.618.457 1.254 0 .907-.008 1.635-.008 1.864 0 .177.127.39.466.322a6.8 6.8 0 0 0 4.618-6.431 6.777 6.777 0 0 0-6.779-6.78"/>
</symbol>

<symbol id="social-googleplay" viewBox="0 0 16 16">
<path d="M16 2.13v11.74c0 1.18-.95 2.13-2.13 2.13H2.13A2.13 2.13 0 0 1 0 13.87V2.13C0 .96.95 0 2.13 0h11.74C15.05 0 16 .96 16 2.13m-5.62 8.76L8.07 8.76 3.1 13.34a1.18 1.18 0 0 0 1.75.8zM3.1 3.14l4.97 4.59 2.3-2.13-5.52-3.26c-.72-.42-1.6.02-1.75.8m10 6.14c.78-.46.78-1.62 0-2.08L11.06 6 8.63 8.24l2.43 2.24zM3.08 12.33l4.43-4.09-4.43-4.09z"/>
</symbol>

<symbol id="social-linkedin" viewBox="0 0 16 16">
<path d="M16 2.13v11.74c0 1.18-.95 2.13-2.13 2.13H2.13A2.13 2.13 0 0 1 0 13.87V2.13C0 .96.95 0 2.13 0h11.74C15.05 0 16 .96 16 2.13M4.88 6.93c0-.58-.46-1.04-1.03-1.04a1.03 1.03 0 0 0-1.03 1.03v6.72c0 .57.46 1.03 1.03 1.03a1.03 1.03 0 0 0 1.03-1.03zm2.15-.09c-.43.86-.13 6.5-.13 6.5 0 .18.17 1 .99.99h.03c1.08.04 1-.9 1-.99l.02-3.32a1.84 1.84 0 0 1 3.44-.68c.7 1.26.09 2.8.45 4.16.27 1 1.72 1.13 2-.18a10 10 0 0 0-.32-4.53c-.8-2.15-3.68-3-5.61-1.9-.32-.85-1.5-.8-1.87-.05M3.85 2.19c-.67-1.17-1.74-.92-2.3-.52s-.8 1.44.04 2.18c.59.52 1.16.37 2.26 1.58.96-1.1 2.08-1.25 2.48-1.86.56-.8.34-1.5-.22-1.9s-1.41-.56-2.26.52" />
</symbol>

<symbol id="social-patreon" viewBox="0 0 16 16">
<path d="M16 2.13v11.74c0 1.18-.95 2.13-2.13 2.13H2.13A2.13 2.13 0 0 1 0 13.87V2.13C0 .96.95 0 2.13 0h11.74C15.05 0 16 .96 16 2.13m-11.14.25H2.8v11.24h2.06zm5.4 0a4.21 4.21 0 1 0 0 8.43 4.21 4.21 0 0 0 0-8.43"/>
</symbol>

<symbol id="social-paypal" viewBox="0 0 16 16">
<path d="M16 2.13v11.74c0 1.18-.95 2.13-2.13 2.13H2.13A2.13 2.13 0 0 1 0 13.87V2.13C0 .96.95 0 2.13 0h11.74C15.05 0 16 .96 16 2.13m-3.9 2.53c.1-.84-.07-1.43-.55-1.97-.57-.65-1.6-.93-2.9-.93H4.82a.55.55 0 0 0-.54.46L2.7 12.3a.33.33 0 0 0 .32.38h2.15l-.15 1-.01.07c0 .27.22.5.49.5h1.98a.7.7 0 0 0 .68-.58l.02-.1.37-2.37.02-.13a.3.3 0 0 1 .28-.24h.3c.98 0 1.88-.2 2.6-.7q.45-.33.77-.79a4 4 0 0 0 .7-1.71c.18-.97.1-1.84-.45-2.46a2 2 0 0 0-.6-.46zM6.24 8.64l.25-.06H7.6c2.2 0 3.92-.9 4.42-3.47v-.02q.26.14.43.35.63.73.35 2.1a3.4 3.4 0 0 1-1.3 2.25q-.94.65-2.37.64h-.3a.7.7 0 0 0-.67.57l-.02.13-.37 2.37-.02.1a.3.3 0 0 1-.28.23H5.5a.1.1 0 0 1-.08-.1l.16-1.02z"/>
</symbol>

<symbol id="social-pinterest" viewBox="0 0 16 16">
<path d="M5.38 16H2.13A2.13 2.13 0 0 1 0 13.87V2.13C0 .96.95 0 2.13 0h11.74C15.05 0 16 .96 16 2.13v11.74c0 1.18-.95 2.13-2.13 2.13H6.04c.95-.95 1.35-2.22 1.67-3.88 0 0 1.1.59 1.99.66 3.28.25 5.05-3.44 4.6-6.64-.4-2.84-3.27-4.3-6.34-3.95-2.42.27-4.84 2.2-4.94 4.96-.05 1.2.04 2.43.91 2.78 0 0 1.09-.41.77-1.86-.8-3.6 4.28-5.76 6.82-3.22 1.76 1.76.74 6.6-2.1 6.04-2.72-.54 1.18-4.64-1-5.49-1.76-.69-2.7 2.1-1.86 3.5-.46 2.24-1.43 4.36-1.18 7.1" />
</symbol>

<symbol id="social-reddit" viewBox="0 0 16 16">
<path d="M15.999 2.131v11.744a2.13 2.13 0 0 1-2.128 2.128H2.126A2.13 2.13 0 0 1 0 13.875V2.131A2.13 2.13 0 0 1 2.126.003h11.745a2.13 2.13 0 0 1 2.128 2.128m-2.137 5.763a1.34 1.34 0 0 0-1.328-1.348 1.3 1.3 0 0 0-.9.358c-.876-.579-2.05-.953-3.35-1.004L9 3.68l1.883.45c0 .61.491 1.107 1.094 1.107s1.093-.498 1.093-1.11-.49-1.108-1.093-1.108c-.452 0-.84.278-1.007.675l-2.262-.54-.885 2.74c-1.35.027-2.572.398-3.482.992a1.3 1.3 0 0 0-.88-.34 1.34 1.34 0 0 0-1.327 1.348c0 .471.242.904.63 1.146-.353 2.119 2.108 3.948 5.209 3.948 3.088 0 5.54-1.813 5.214-3.921a1.34 1.34 0 0 0 .674-1.173m-3.974 3.234c-.394.4-1.013.595-1.89.595-.878 0-1.496-.195-1.89-.595a.225.225 0 0 1 0-.314.22.22 0 0 1 .31 0c.307.312.824.464 1.58.464.755 0 1.272-.152 1.58-.464a.22.22 0 0 1 .31 0 .225.225 0 0 1 0 .314M5.414 8.795c0-.452.374-.832.82-.832s.808.38.808.832-.362.82-.808.82a.825.825 0 0 1-.82-.82m4.36.82a.825.825 0 0 1-.82-.82c0-.454.374-.832.82-.832.447 0 .809.378.809.832 0 .452-.361.82-.808.82" />
</symbol>

<symbol id="social-telegram" viewBox="0 0 16 16">
<path d="M16 2.13v11.74c0 1.18-.95 2.13-2.13 2.13H2.13A2.13 2.13 0 0 1 0 13.87V2.13C0 .96.95 0 2.13 0h11.74C15.05 0 16 .96 16 2.13M8.56 5.08q-1.51.72-6.09 2.97-.74.34-.77.66c-.04.36.36.5.9.7l.23.08c.53.2 1.25.42 1.62.43q.51.01 1.13-.47 4.27-3.27 4.4-3.3c.07-.02.16-.04.22.02s.06.18.05.2c-.04.2-1.6 1.85-2.4 2.7l-.48.5-.24.27c-.5.55-.87.95.02 1.61a92 92 0 0 1 2.33 1.78l.35.28c.43.35.82.66 1.3.61.28-.03.57-.32.72-1.21a168 168 0 0 0 1.18-8.52q.01-.23-.02-.47a.5.5 0 0 0-.15-.32.6.6 0 0 0-.4-.14c-.4.01-1 .25-3.9 1.62" />
</symbol>

<symbol id="social-tiktok" viewBox="0 0 16 16">
<path d="M15.999 2.131v11.744a2.13 2.13 0 0 1-2.128 2.128H2.126A2.13 2.13 0 0 1 0 13.875V2.131A2.13 2.13 0 0 1 2.126.003h11.745a2.13 2.13 0 0 1 2.128 2.128m-7.15-.936v9.36c0 1.401-1.152 2.555-2.552 2.555s-2.553-1.154-2.553-2.554 1.152-2.553 2.553-2.553V6.301c-2.335 0-4.255 1.921-4.255 4.255 0 2.335 1.92 4.255 4.255 4.255s4.255-1.92 4.255-4.255V4.745c.79.864 1.912 1.556 3.403 1.556V4.599c-1.023 0-1.79-.52-2.37-1.266-.591-.762-.928-1.529-1.05-2.138z"/>
</symbol>

<symbol id="social-vgen" viewBox="0 0 16 16">
<path d="M16 2.13v11.74c0 1.18-.95 2.13-2.13 2.13H2.13A2.13 2.13 0 0 1 0 13.87V2.13C0 .96.95 0 2.13 0h11.74C15.05 0 16 .96 16 2.13m-9.7 4.4c-.43-.55-.52-.7-.68-.94a2.2 2.2 0 0 0-1.37-1c-.59-.11-1.15-.1-1.82.7-.42.5-.64 1.22-.57 1.94.1 1.04.78 2.56 3.08 4.88a6 6 0 0 0 2.34 1.65c1.07.35 2.37.1 3.55-.87 1.42-1.18 1.94-2.2 2.56-3.14.7-1.07 1.16-1.92 1.01-3.23-.17-1.53-1.46-4.57-4.6-4.42a3 3 0 0 0-1.88.8C7.1 3.7 6.17 5 6.31 6.54m1.42 3.49c.26.1 1.26-.11 1.08-.4-.63-.95-1.36-1.24-1.45-3.29-.04-1.08.6-1.92 1.18-2.48.36-.34.98-.47 1.3-.5 1.75-.1 2.91 2.28 2.98 3.14.1 1.25-1.93 3.68-2.9 4.6-1.98 1.9-3.65.07-4.01-.25a12 12 0 0 1-2.76-3.4c-.66-1.35.52-2.3 1.39-.83.85 1.43 1.27 1.81 2.17 2.76.45.47.7.52 1.02.65m2.35-1.69s.97-.98 1-1.9c.02-1.56-2.11-1.69-2.12-.05-.01 1.13 1.12 1.95 1.12 1.95"/>
</symbol>

<symbol id="social-webtoon" viewBox="0 0 16 16">
<path d="M2.13 0A2.13 2.13 0 0 0 0 2.13v11.74A2.13 2.13 0 0 0 2.13 16h11.74A2.13 2.13 0 0 0 16 13.87V2.13A2.13 2.13 0 0 0 13.87 0Zm10.53 3.04-.37 4.7h1.5l-.63 4.1-4.92 2.28v-1.63l-4.2.52-1.83-5.45h1.78L3.17 4.5Zm-2.09 3.04h-.05l-1.16.1v2.11h1.34c.57-.25.57-.71.34-.94a.5.5 0 0 0-.34-.14.5.5 0 0 0 .33-.15.5.5 0 0 0 .15-.37.6.6 0 0 0-.6-.61m-1.43.1-1.44.1v1.94l1.44.07v-.52l-.92-.01v-.24h.81v-.56l-.8.03v-.23l.9-.05Zm-1.58.11-.53.04-.3 1.14-.28-1.1-.49.04-.26 1.05-.25-1.02-.51.05.43 1.68h.57l.25-.9.27.9h.57zm2.74.31a.2.2 0 0 1 .17.17.2.2 0 0 1-.17.17h-.39v-.32Zm.06.9a.17.17 0 0 1 0 .32h-.44v-.31ZM4.2 8.6v.56h.66v1.7l.63-.03V9.2h.6v-.57Zm3.02.02a1.1 1.1 0 0 0-1.1 1.08 1.09 1.09 0 0 0 2.18 0c0-.6-.48-1.08-1.09-1.08m2.22.05a.97.97 0 0 0-.95 1c0 .54.42.99.95.99s.96-.45.96-1-.43-.99-.96-.99m1.12.05v1.81l.57-.01v-.9l.57.87.47-.03.04-1.71h-.55v.88l-.58-.9Zm-3.3.47c.25 0 .46.23.46.52s-.2.52-.47.52-.46-.23-.46-.52.2-.52.46-.52m2.2.01c.23 0 .42.21.42.47s-.19.47-.42.47-.41-.2-.41-.47.19-.47.41-.47"/>
</symbol>

<symbol id="social-youtube" viewBox="0 0 16 16">
<path d="M2.127 0A2.13 2.13 0 0 0 0 2.129V13.87A2.13 2.13 0 0 0 2.127 16h11.746A2.13 2.13 0 0 0 16 13.871V2.13A2.13 2.13 0 0 0 13.873 0Zm5.812 3.605h.245c.71.003 4.306.029 5.275.29a1.74 1.74 0 0 1 1.22 1.224c.088.328.149.763.19 1.211l.01.09.018.225.007.09c.056.788.064 1.527.065 1.689v.064c-.001.168-.01.956-.072 1.778l-.006.091-.008.09c-.043.494-.108.983-.203 1.344a1.74 1.74 0 0 1-1.221 1.227c-1.001.269-4.809.288-5.336.289H8c-.267 0-1.369-.006-2.525-.045l-.147-.004-.076-.004-.147-.006-.148-.006c-.958-.042-1.87-.11-2.291-.224a1.74 1.74 0 0 1-1.223-1.227c-.095-.36-.158-.85-.2-1.344l-.009-.092-.007-.09a27 27 0 0 1-.07-1.755v-.108c.001-.185.01-.827.056-1.535l.006-.088.002-.045.006-.09.02-.224.009-.09c.041-.448.102-.884.19-1.21a1.74 1.74 0 0 1 1.22-1.225c.42-.113 1.333-.182 2.291-.225l.148-.006.149-.006.074-.002.147-.006a86 86 0 0 1 2.464-.045m-1.257 2.77v4.16l3.588-2.078Z"/>
</symbol>

</svg>
